/* XPM */
static char * fireL3_xpm[] = {
"57 69 16 1",
" 	c None",
".	c #1F1F1F",
"+	c #880015",
"@	c #ED1C24",
"#	c #FF7F27",
"$	c #2E2E2E",
"%	c #EE965C",
"&	c #B05C18",
"*	c #FFC90E",
"=	c #F7F7F7",
"-	c #99581B",
";	c #87551E",
">	c #7D4C1F",
",	c #DC8544",
"'	c #B36E3B",
")	c #AD6C3B",
"                         .............                   ",
"                         .............                   ",
"                         .............                   ",
"          ...         ...++++@@@@@@+++...                ",
"          ...         ...++++@@@@@@+++...                ",
"          ...         ...++++@@@@@@+++...                ",
"      ....###.........+++++++@@@@@@@@@+++...       ...   ",
"      ....###.........+++++++@@@@@@@@@+++...       ...   ",
"      ....###.........+++++++@@@@@@@@@+++...       ...   ",
"      ....######...+++++++++++++@@@@@@@@@..........@@@...",
"      ....######...+++++++++++++@@@@@@@@@..........@@@...",
"      ....######...+++++++++++++@@@@@@@@@..........@@@...",
"      ....#########...+++++++++++++++++++...++++@@@@@@...",
"      ....#########...+++++++++++++++++++...++++@@@@@@...",
"      ....############.......++++++...++++++@@@@@@@+++...",
"      ....############.......++++++...++++++@@@@@@@+++...",
"      ....############.......++++++...++++++@@@@@@@+++...",
"      $$$$......#############......%%%...++++++++++...   ",
"      $$$$......#############......%%%...++++++++++...   ",
"      $$$$......#############......%%%...++++++++++...   ",
"   $$$####...&&&......#######...%%%%%%.............      ",
"   $$$####...&&&......#######...%%%%%%.............      ",
"   $$$####...&&&......#######...%%%%%%.............      ",
"$$$###****...%%%...===...####...%%%&&&..........         ",
"$$$###****...%%%...===...####...%%%&&&..........         ",
"$$$###****...%%%...===...####...%%%&&&..........         ",
"$$$***....%%%%%%...===...#######...---...#######...      ",
"$$$***....%%%%%%...===...#######...---...#######...      ",
"$$$***....%%%%%%...===...#######...---...#######...      ",
"$$$*******...&&&%%%&&&%%%.......;;;...###.......         ",
"$$$*******...&&&%%%&&&%%%.......;;;...###.......         ",
"$$$*******...&&&%%%&&&%%%.......;;;...###.......         ",
"$$$*******.........&&&&&&&&&&---.........                ",
"$$$*******.........&&&&&&&&&&---.........                ",
"$$$*******.........&&&&&&&&&&---.........                ",
"$$$###****...&&&................++++++...                ",
"$$$###****...&&&................++++++...                ",
"$$$#######$$$......+++...>>>>...+++@@@...                ",
"$$$#######$$$......+++...>>>>...+++@@@...                ",
"$$$#######$$$......+++...>>>>...+++@@@...                ",
"   $$$####...,,,,,,...>>>>>>>...+++@@@.............      ",
"   $$$####...,,,,,,...>>>>>>>...+++@@@.............      ",
"   $$$####...,,,,,,...>>>>>>>...+++@@@.............      ",
"      .......''',,,...>>>>>>>...+++@@@...###....>>>...   ",
"      .......''',,,...>>>>>>>...+++@@@...###....>>>...   ",
"      .......''',,,...>>>>>>>...+++@@@...###....>>>...   ",
"      ....)))................++++++######+++....,,,>>>...",
"      ....)))................++++++######+++....,,,>>>...",
"      ....)))................++++++######+++....,,,>>>...",
"      .......>>>...++++++##########++++++.......,,,>>>...",
"      .......>>>...++++++##########++++++.......,,,>>>...",
"      .......>>>...++++++##########++++++.......,,,>>>...",
"          ...............+++++++++++++......    ......   ",
"          ...............+++++++++++++......    ......   ",
"          ...............+++++++++++++......    ......   ",
"             ...............................             ",
"             ...............................             ",
"             ...............................             ",
"          ......................................         ",
"          ......................................         ",
"          ......................................         ",
"          ......................................         ",
"          ......................................         ",
"             ...............................             ",
"             ...............................             ",
"             ...............................             ",
"                   ...................                   ",
"                   ...................                   ",
"                   ...................                   "};
