/* XPM */
static char * fireL1_xpm[] = {
"57 69 14 1",
" 	c None",
".	c #202020",
"+	c #880015",
"@	c #ED1C24",
"#	c #FF7F27",
"$	c #E48946",
"%	c #2E2E2E",
"&	c #B55F19",
"*	c #F69B5F",
"=	c #FFFFFF",
"-	c #FFC90E",
";	c #814E20",
">	c #66411F",
",	c #7D4C1F",
"                        ............                     ",
"                        ............                     ",
"                        ............                     ",
"                     ...++++++@@@@@@......               ",
"                     ...++++++@@@@@@......               ",
"                     ...++++++@@@@@@......               ",
"               ......+++++++++@@@@@@@@@+++...            ",
"               ......+++++++++@@@@@@@@@+++...            ",
"               ......+++++++++@@@@@@@@@+++...            ",
"            ...###...++++++++++++@@@@@@@@@.........      ",
"            ...###...++++++++++++@@@@@@@@@.........      ",
"            ...###...++++++++++++@@@@@@@@@.........      ",
"         ...#########...++++++++++++++++++...+++@@@...   ",
"         ...#########...++++++++++++++++++...+++@@@...   ",
"         ...#########...++++++++++++++++++...+++@@@...   ",
"         ...############......++++++...+++++++++@@@@@@...",
"         ...############......++++++...+++++++++@@@@@@...",
"         ...############......++++++...+++++++++@@@@@@...",
"            ......############......$$$...+++++++++@@@...",
"            ......############......$$$...+++++++++@@@...",
"            ......############......$$$...+++++++++@@@...",
"      %%%%%%...&&&.........###...******......++++++@@@...",
"      %%%%%%...&&&.........###...******......++++++@@@...",
"      %%%%%%...&&&.........###...******......++++++@@@...",
"   %%%###%%%...$$$...===...###...***&&&.........+++...   ",
"   %%%###%%%...$$$...===...###...***&&&.........+++...   ",
"   %%%###%%%...$$$...===...###...***&&&.........+++...   ",
"%%%###---...$$$***...===...###...&&&&&&......   ...      ",
"%%%###---...$$$***...===...###...&&&&&&......   ...      ",
"%%%###---...$$$***...===...###...&&&&&&......   ...      ",
"%%%------%%%...&&&***&&&***...&&&&&&...###...            ",
"%%%------%%%...&&&***&&&***...&&&&&&...###...            ",
"%%%------%%%...&&&***&&&***...&&&&&&...###...            ",
"%%%------...$$$......&&&&&&&&&&&&.........               ",
"%%%------...$$$......&&&&&&&&&&&&.........               ",
"%%%------...$$$......&&&&&&&&&&&&.........               ",
"%%%------...&&&...+++............++++++...               ",
"%%%------...&&&...+++............++++++...               ",
"%%%------...&&&...+++............++++++...               ",
"%%%###---......+++@@@++++++......+++@@@...               ",
"%%%###---......+++@@@++++++......+++@@@...               ",
"%%%###---......+++@@@++++++......+++@@@...               ",
"%%%######%%%......+++@@@...;;;;;;...@@@...               ",
"%%%######%%%......+++@@@...;;;;;;...@@@...               ",
"%%%######%%%......+++@@@...;;;;;;...@@@...               ",
"   %%%###%%%...###...+++...;;;;;;......###...            ",
"   %%%###%%%...###...+++...;;;;;;......###...            ",
"   %%%###%%%...###...+++...;;;;;;......###...            ",
"      %%%%%%...+++###...$$$$$$$$$...###+++...            ",
"      %%%%%%...+++###...$$$$$$$$$...###+++...            ",
"      %%%%%%...+++###...$$$$$$$$$...###+++...            ",
"               ...+++...$$$$$$$$$...+++...               ",
"               ...+++...$$$$$$$$$...+++...               ",
"               ...+++...$$$$$$$$$...+++...               ",
"            ...............$$$$$$.........               ",
"            ...............$$$$$$.........               ",
"            ...............$$$$$$.........               ",
"         ............>>>.....................            ",
"         ............>>>.....................            ",
"         ............>>>.....................            ",
"         ...............>>>,,,,,,,,,.........            ",
"         ...............>>>,,,,,,,,,.........            ",
"         ...............>>>,,,,,,,,,.........            ",
"            ..............................               ",
"            ..............................               ",
"            ..............................               ",
"                  ..................                     ",
"                  ..................                     ",
"                  ..................                     "};
