/* XPM */
static char * fireL5_xpm[] = {
"57 69 16 1",
" 	c None",
".	c #1F1F1F",
"+	c #880015",
"@	c #ED1C24",
"#	c #FF7F27",
"$	c #2E2E2E",
"%	c #EE965C",
"&	c #B05C18",
"*	c #FFC90E",
"=	c #F7F7F7",
"-	c #99581B",
";	c #8A521F",
">	c #7D4C1F",
",	c #7F552F",
"'	c #744F2D",
")	c #DC8544",
"                         .............                   ",
"                         .............                   ",
"                         .............                   ",
"          ...         ...++++@@@@@@+++...                ",
"          ...         ...++++@@@@@@+++...                ",
"          ...         ...++++@@@@@@+++...                ",
"      ....###.........+++++++@@@@@@@@@+++...       ...   ",
"      ....###.........+++++++@@@@@@@@@+++...       ...   ",
"      ....###.........+++++++@@@@@@@@@+++...       ...   ",
"      ....######...+++++++++++++@@@@@@@@@..........@@@...",
"      ....######...+++++++++++++@@@@@@@@@..........@@@...",
"      ....######...+++++++++++++@@@@@@@@@..........@@@...",
"      ....#########...+++++++++++++++++++...++++@@@@@@...",
"      ....#########...+++++++++++++++++++...++++@@@@@@...",
"      ....############.......++++++...++++++@@@@@@@+++...",
"      ....############.......++++++...++++++@@@@@@@+++...",
"      ....############.......++++++...++++++@@@@@@@+++...",
"      $$$$......#############......%%%...++++++++++...   ",
"      $$$$......#############......%%%...++++++++++...   ",
"      $$$$......#############......%%%...++++++++++...   ",
"   $$$####...&&&......#######...%%%%%%.............      ",
"   $$$####...&&&......#######...%%%%%%.............      ",
"   $$$####...&&&......#######...%%%%%%.............      ",
"$$$###****...%%%...===...####...%%%&&&..........         ",
"$$$###****...%%%...===...####...%%%&&&..........         ",
"$$$###****...%%%...===...####...%%%&&&..........         ",
"$$$***....%%%%%%...===...#######...---...#######...      ",
"$$$***....%%%%%%...===...#######...---...#######...      ",
"$$$***....%%%%%%...===...#######...---...#######...      ",
"$$$*******...&&&%%%&&&%%%.......;;;...###.......         ",
"$$$*******...&&&%%%&&&%%%.......;;;...###.......         ",
"$$$*******...&&&%%%&&&%%%.......;;;...###.......         ",
"$$$*******$$$......&&&&&&&&&&---.........                ",
"$$$*******$$$......&&&&&&&&&&---.........                ",
"$$$*******$$$......&&&&&&&&&&---.........                ",
"$$$###****...&&&................>>>>>>,,,...             ",
"$$$###****...&&&................>>>>>>,,,...             ",
"$$$#######$$$......++++++++++...>>>......'''....         ",
"$$$#######$$$......++++++++++...>>>......'''....         ",
"$$$#######$$$......++++++++++...>>>......'''....         ",
"   $$$####...+++++++++@@@@@@@+++...)))))).......         ",
"   $$$####...+++++++++@@@@@@@+++...)))))).......         ",
"   $$$####...+++++++++@@@@@@@+++...)))))).......         ",
"      $$$$...++++++...@@@@@@@+++...)))))).......         ",
"      $$$$...++++++...@@@@@@@+++...)))))).......         ",
"      $$$$...++++++...@@@@@@@+++...)))))).......         ",
"      .............+++###++++@@@+++.........>>>>...      ",
"      .............+++###++++@@@+++.........>>>>...      ",
"      .............+++###++++@@@+++.........>>>>...      ",
"      ....>>>>>>>>>...+++##########++++++...>>>>...      ",
"      ....>>>>>>>>>...+++##########++++++...>>>>...      ",
"      ....>>>>>>>>>...+++##########++++++...>>>>...      ",
"          ...>>>>>>>>>...+++++++++++++...>>>>>>>...      ",
"          ...>>>>>>>>>...+++++++++++++...>>>>>>>...      ",
"          ...>>>>>>>>>...+++++++++++++...>>>>>>>...      ",
"             ...................................         ",
"             ...................................         ",
"             ...................................         ",
"          ......................................         ",
"          ......................................         ",
"          ......................................         ",
"          ......................................         ",
"          ......................................         ",
"             ...............................             ",
"             ...............................             ",
"             ...............................             ",
"                   ...................                   ",
"                   ...................                   ",
"                   ...................                   "};
