/* XPM */
static char * n1_xpm[] = {
"18 28 2 1",
" 	c #000000",
".	c #FFFFFF",
"    ...           ",
"    ...           ",
"    ...           ",
"    ...           ",
"    ...           ",
".......           ",
".......           ",
".......           ",
"    ...           ",
"    ...           ",
"    ...           ",
"    ...           ",
"    ...           ",
"    ...           ",
"    ...           ",
"    ...           ",
"    ...           ",
"    ...           ",
"    ...           ",
"    ...           ",
"    ...           ",
"    ...           ",
"    ...           ",
"    ...           ",
"    ...           ",
"...........       ",
"...........       ",
"...........       "};
