/* XPM */
static char * n2_xpm[] = {
"18 28 6 1",
" 	c None",
".	c #CFCFCF",
"+	c #FFFFFF",
"@	c #BFBFBF",
"#	c #8F8F8F",
"$	c #DFDFDF",
"   ..+++@@        ",
"   ..+++@@        ",
"   ..+++@@        ",
"...       ...     ",
"...       ...     ",
"+++       +++     ",
"+++       +++     ",
"+++       +++     ",
"+++       @@@     ",
"+++       @@@     ",
"        @@        ",
"        @@        ",
"        @@        ",
"        @@        ",
"        @@        ",
"     ###          ",
"     ###          ",
"     ###          ",
"   @@             ",
"   @@             ",
"   $$             ",
"   $$             ",
"   $$             ",
"@@@               ",
"@@@               ",
"+++++++++++++     ",
"+++++++++++++     ",
"+++++++++++++     "};
