/* XPM */
static char * n3_xpm[] = {
"18 28 5 1",
" 	c #000000",
".	c #CFCFCF",
"+	c #FFFFFF",
"@	c #BFBFBF",
"#	c #8F8F8F",
"   ..+++@@        ",
"   ..+++@@        ",
"   ..+++@@        ",
"...       ...     ",
"...       ...     ",
"+++       +++     ",
"+++       +++     ",
"+++       +++     ",
"          +++     ",
"          +++     ",
"          ...     ",
"          ...     ",
"          ...     ",
"     +++##        ",
"     +++##        ",
"          ...     ",
"          ...     ",
"          ...     ",
"          +++     ",
"          +++     ",
"+++       +++     ",
"+++       +++     ",
"+++       +++     ",
"...       ...     ",
"...       ...     ",
"   ..+++@@        ",
"   ..+++@@        ",
"   ..+++@@        "};
