/* XPM */
static char * n4_xpm[] = {
"18 28 5 1",
" 	c #000000",
".	c #FFFFFF",
"+	c #BFBFBF",
"@	c #9B9B9B",
"#	c #DFDFDF",
"         ..       ",
"         ..       ",
"       ....       ",
"       ....       ",
"       ++..       ",
"       ++..       ",
"       ++..       ",
"     @@  ..       ",
"     @@  ..       ",
"  +++    ..       ",
"  +++    ..       ",
"  ###    ..       ",
"  ###    ..       ",
"++       ..       ",
"++       ..       ",
"..............    ",
"..............    ",
"         ..       ",
"         ..       ",
"         ..       ",
"         ..       ",
"         ..       ",
"         ..       ",
"         ..       ",
"         ..       ",
"         ..       ",
"         ..       ",
"                  ",
"                  ",
};
