/* XPM */
static char * n5_xpm[] = {
"18 28 4 1",
" 	c #FFFFFF",
".	c None",
"+	c #CFCFCF",
"@	c #BFBFBF",
"          ........",
"          ........",
"          ........",
"   ...............",
"   ...............",
"   ...............",
"   ...............",
"   ...............",
"   ...............",
"   ...............",
"   ..+++@@........",
"   ..+++@@........",
"   ..+++@@........",
"   @@.....@@@.....",
"   @@.....@@@.....",
"   .......   .....",
"   .......   .....",
"   .......   .....",
"..........   .....",
"..........   .....",
"..........   .....",
"..........   .....",
"..........   .....",
"+++.......+++.....",
"+++.......+++.....",
"...++   @@........",
"...++   @@........",
"...++   @@........"};
