/* XPM */
static char *n7_xpm[] = {
/* columns rows colors chars-per-pixel */
"18 28 3 1 ",
"  c #000000",
". c #CFCFCF",
"X c #FFFFFF",
/* pixels */
"XXXXXXXXXXXXX     ",
"XXXXXXXXXXXXX     ",
"XXXXXXXXXXXXX     ",
"          XXX     ",
"          XXX     ",
"          ...     ",
"          ...     ",
"          ...     ",
"        ..        ",
"        ..        ",
"        ..        ",
"        ..        ",
"        ..        ",
"     ...          ",
"     ...          ",
"     XXX          ",
"     XXX          ",
"     XXX          ",
"     ...          ",
"     ...          ",
"   ..             ",
"   ..             ",
"   ..             ",
"   XX             ",
"   XX             ",
"   XX             ",
"   XX             ",
"   XX             "
};
