/* XPM */
static char *n8_xpm[] = {
/* columns rows colors chars-per-pixel */
"18 28 6 1 ",
"  c #000000",
". c #CFCFCF",
"X c #9B9B9B",
"o c #9F9F9F",
"O c #FFFFFF",
"+ c #FFFFFF",
/* pixels */
"     ++++         ",
"     ++++         ",
"  OOO    XX       ",
"  OOO    XX       ",
"++         +++    ",
"++         +++    ",
"++         +++    ",
"++         +++    ",
"++         +++    ",
"++         +++    ",
"  OOO    oo       ",
"  OOO    oo       ",
"  OOO    oo       ",
"     ....         ",
"     ....         ",
"     ....         ",
"  OOO    XX       ",
"  OOO    XX       ",
"++         +++    ",
"++         +++    ",
"++         +++    ",
"++         +++    ",
"++         +++    ",
"++         +++    ",
"  OOO    oo       ",
"  OOO    oo       ",
"     ++++         ",
"     ++++         "
};
