/* XPM */
static char *colon_xpm[] = {
/* columns rows colors chars-per-pixel */
"18 28 2 1 ",
"  c None",
". c #FFFFFF",
/* pixels */
"                  ",
"                  ",
"                  ",
"                  ",
"                  ",
"                  ",
"       ...        ",
"       ....       ",
"       ....       ",
"       ...        ",
"                  ",
"                  ",
"                  ",
"                  ",
"                  ",
"                  ",
"                  ",
"       ...        ",
"       ....       ",
"       ....       ",
"       ...        ",
"                  ",
"                  ",
"                  ",
"                  ",
"                  ",
"                  ",
"                  "};
