/* XPM */
static char * block_xpm[] = {
"45 45 615 2",
"  	c #191B00",
". 	c #060700",
"+ 	c #000000",
"@ 	c #000100",
"# 	c #020200",
"$ 	c #000200",
"% 	c #040400",
"& 	c None",
"* 	c #070A00",
"= 	c #010100",
"- 	c #191A00",
"; 	c #151600",
"> 	c #080600",
", 	c #0B0903",
"' 	c #090803",
") 	c #080602",
"! 	c #050402",
"~ 	c #040302",
"{ 	c #040300",
"] 	c #050401",
"^ 	c #060501",
"/ 	c #050503",
"( 	c #192003",
"_ 	c #090700",
": 	c #0A0802",
"< 	c #090600",
"[ 	c #0C0C00",
"} 	c #050600",
"| 	c #080500",
"1 	c #786416",
"2 	c #B29D39",
"3 	c #A08D34",
"4 	c #84701E",
"5 	c #725F18",
"6 	c #695710",
"7 	c #685406",
"8 	c #6E5A05",
"9 	c #776009",
"0 	c #866F14",
"a 	c #85732A",
"b 	c #251F0A",
"c 	c #0F0C02",
"d 	c #5E5221",
"e 	c #9B8321",
"f 	c #A48B19",
"g 	c #A48A1F",
"h 	c #AB9533",
"i 	c #A38A1C",
"j 	c #A3870F",
"k 	c #997D0C",
"l 	c #433701",
"m 	c #0B0902",
"n 	c #AF9734",
"o 	c #FFF65E",
"p 	c #FFDF40",
"q 	c #DDB518",
"r 	c #C6A00C",
"s 	c #C39D07",
"t 	c #C59D02",
"u 	c #C7A002",
"v 	c #C8A002",
"w 	c #DFB70E",
"x 	c #FFD824",
"y 	c #826B11",
"z 	c #1B1A18",
"A 	c #202123",
"B 	c #242424",
"C 	c #232323",
"D 	c #292929",
"E 	c #363636",
"F 	c #383838",
"G 	c #353535",
"H 	c #373737",
"I 	c #353536",
"J 	c #282930",
"K 	c #817441",
"L 	c #F4D753",
"M 	c #FFEA53",
"N 	c #FFEB4F",
"O 	c #FFE750",
"P 	c #FFE058",
"Q 	c #FFE63F",
"R 	c #FFDF17",
"S 	c #FFD90E",
"T 	c #CEA503",
"U 	c #241C00",
"V 	c #9C8636",
"W 	c #FFE050",
"X 	c #FCCF17",
"Y 	c #F0BE00",
"Z 	c #CDA400",
"` 	c #BF9900",
" .	c #BB9600",
"..	c #B59100",
"+.	c #B18D00",
"@.	c #C69C00",
"#.	c #F9C300",
"$.	c #C8A623",
"%.	c #8A8679",
"&.	c #9B9DA1",
"*.	c #ABABAB",
"=.	c #A8A8A8",
"-.	c #AFAFAF",
";.	c #C1C1C1",
">.	c #C4C4C4",
",.	c #C3C3C3",
"'.	c #C2C2C2",
").	c #BCBCBC",
"!.	c #B9B9B9",
"~.	c #BABABA",
"{.	c #A1A4AB",
"].	c #C2B482",
"^.	c #FDE357",
"/.	c #FFDE55",
"(.	c #FFDD57",
"_.	c #FBDA58",
":.	c #F2CE4E",
"<.	c #FED01E",
"[.	c #FFCB00",
"}.	c #FFCD00",
"|.	c #FDCB00",
"1.	c #5D4900",
"2.	c #A08B37",
"3.	c #FFDE44",
"4.	c #FACB0D",
"5.	c #FAC600",
"6.	c #F4C301",
"7.	c #D0A500",
"8.	c #B08C00",
"9.	c #AB8900",
"0.	c #B08E02",
"a.	c #BD9C1E",
"b.	c #BBA13C",
"c.	c #AA9E6D",
"d.	c #ABAAA7",
"e.	c #CACACB",
"f.	c #D6D6D6",
"g.	c #D3D3D3",
"h.	c #D2D2D2",
"i.	c #D1D1D1",
"j.	c #D0D0D0",
"k.	c #CDCDCD",
"l.	c #C7C7C7",
"m.	c #C6C6C6",
"n.	c #C5C5C5",
"o.	c #A9ABB3",
"p.	c #BAAC74",
"q.	c #FEDF4F",
"r.	c #FFDF52",
"s.	c #FFDD55",
"t.	c #FFDC57",
"u.	c #FFD637",
"v.	c #FFCC00",
"w.	c #FFCF00",
"x.	c #FFD000",
"y.	c #655100",
"z.	c #0E0C05",
"A.	c #BBA23F",
"B.	c #FFDB33",
"C.	c #FECB02",
"D.	c #F8C600",
"E.	c #C69E00",
"F.	c #AA8800",
"G.	c #A28209",
"H.	c #968747",
"I.	c #9B947D",
"J.	c #989899",
"K.	c #A0A2A5",
"L.	c #B5B5B7",
"M.	c #C9C9C9",
"N.	c #CBCBCB",
"O.	c #CCCCCC",
"P.	c #CACACA",
"Q.	c #C0C0C0",
"R.	c #A7A9AD",
"S.	c #A09982",
"T.	c #CAB769",
"U.	c #F8D64F",
"V.	c #FFDC4B",
"W.	c #FECE12",
"X.	c #FBC700",
"Y.	c #FAC800",
"Z.	c #FBC900",
"`.	c #5D4A00",
" +	c #100E07",
".+	c #C9AE3D",
"++	c #FFD922",
"@+	c #E0B400",
"#+	c #B38F00",
"$+	c #9C7F09",
"%+	c #837539",
"&+	c #94928C",
"*+	c #A9AAB1",
"=+	c #B7B8BB",
"-+	c #BFC0C1",
";+	c #C9C8C9",
">+	c #B1B1B1",
",+	c #99999C",
"'+	c #919296",
")+	c #ADA172",
"!+	c #E8C94C",
"~+	c #FFDB28",
"{+	c #FDC800",
"]+	c #D5AA00",
"^+	c #CAA200",
"/+	c #E9B900",
"(+	c #EEBF00",
"_+	c #5C4900",
":+	c #100E06",
"<+	c #C8AA34",
"[+	c #FFD513",
"}+	c #EDBE00",
"|+	c #DEB100",
"1+	c #B79200",
"2+	c #8B805F",
"3+	c #A19F98",
"4+	c #C7C8CA",
"5+	c #CECECF",
"6+	c #CECECD",
"7+	c #BDBDBD",
"8+	c #B7B7B7",
"9+	c #BBBBBB",
"0+	c #A2A3A6",
"a+	c #989BA6",
"b+	c #999792",
"c+	c #CCAC2A",
"d+	c #D7AA00",
"e+	c #C09900",
"f+	c #BB9700",
"g+	c #DFB400",
"h+	c #755C00",
"i+	c #C6AC40",
"j+	c #FFD826",
"k+	c #FBC800",
"l+	c #E7B900",
"m+	c #DFB100",
"n+	c #A6954F",
"o+	c #AAADB9",
"p+	c #D1D3D8",
"q+	c #D0D0CF",
"r+	c #C8C8C8",
"s+	c #B8B8B8",
"t+	c #A8A8A7",
"u+	c #A2A3AE",
"v+	c #8D8C83",
"w+	c #9D831F",
"x+	c #C09800",
"y+	c #B69100",
"z+	c #AA8700",
"A+	c #836900",
"B+	c #191509",
"C+	c #F3D44C",
"D+	c #FFDC28",
"E+	c #FCC700",
"F+	c #AB9949",
"G+	c #9A9CA9",
"H+	c #CCCCD0",
"I+	c #B5B5B5",
"J+	c #B4B4B4",
"K+	c #B6B6B6",
"L+	c #B0B0B0",
"M+	c #9E9F9D",
"N+	c #8D845D",
"O+	c #A28612",
"P+	c #AD8A00",
"Q+	c #AC8A00",
"R+	c #E8BA00",
"S+	c #806600",
"T+	c #000002",
"U+	c #161304",
"V+	c #EBC834",
"W+	c #FFDF25",
"X+	c #FFCA00",
"Y+	c #E0B504",
"Z+	c #99927B",
"`+	c #B3B6BC",
" @	c #CECECE",
".@	c #B3B3B3",
"+@	c #AEAEAE",
"@@	c #ADADAD",
"#@	c #B2B2B2",
"$@	c #B3B3B5",
"%@	c #999686",
"&@	c #8A7A36",
"*@	c #A38507",
"=@	c #BA9500",
"-@	c #F2C100",
";@	c #826800",
">@	c #130F00",
",@	c #C9A823",
"'@	c #EAC93E",
")@	c #DFBA26",
"!@	c #BEA435",
"~@	c #A29F95",
"{@	c #C1C2C7",
"]@	c #BABBBB",
"^@	c #B2B1AE",
"/@	c #97917C",
"(@	c #A8902F",
"_@	c #735D00",
":@	c #050400",
"<@	c #3F3407",
"[@	c #504827",
"}@	c #7A7562",
"|@	c #99968A",
"1@	c #A5A5A5",
"2@	c #C4C4C5",
"3@	c #BEBEBE",
"4@	c #B2B3B3",
"5@	c #B9BABC",
"6@	c #ACACB2",
"7@	c #B3A364",
"8@	c #B08F0F",
"9@	c #634F00",
"0@	c #251D00",
"a@	c #000001",
"b@	c #4A4C52",
"c@	c #A2A3A7",
"d@	c #B4B4B5",
"e@	c #AFB0B3",
"f@	c #9B9A91",
"g@	c #4B4535",
"h@	c #434343",
"i@	c #BCBCBB",
"j@	c #BFBFBF",
"k@	c #9FA0A3",
"l@	c #3A3B42",
"m@	c #3F3F3F",
"n@	c #D4D4D4",
"o@	c #515151",
"p@	c #444444",
"q@	c #585858",
"r@	c #595959",
"s@	c #CFCFCF",
"t@	c #575757",
"u@	c #050606",
"v@	c #6A6A6A",
"w@	c #0E0E0E",
"x@	c #7E7E7E",
"y@	c #121212",
"z@	c #8B8B8B",
"A@	c #DADADA",
"B@	c #545454",
"C@	c #8C8C8C",
"D@	c #DBDBDB",
"E@	c #F8F8F8",
"F@	c #E5E5E5",
"G@	c #484848",
"H@	c #121213",
"I@	c #ECECEC",
"J@	c #DEDEDE",
"K@	c #ACACAC",
"L@	c #424242",
"M@	c #131313",
"N@	c #0A0A0A",
"O@	c #737373",
"P@	c #080809",
"Q@	c #6E6E6F",
"R@	c #404040",
"S@	c #080808",
"T@	c #6D6D6C",
"U@	c #A9A9A9",
"V@	c #A0A0A0",
"W@	c #3A3A3A",
"X@	c #010101",
"Y@	c #AAAAAA",
"Z@	c #979797",
"`@	c #2C2C2C",
" #	c #151505",
".#	c #0C0D02",
"+#	c #4B4B4B",
"@#	c #BBBCBC",
"##	c #303235",
"$#	c #A2A4A7",
"%#	c #BFBFC1",
"&#	c #BABAB9",
"*#	c #A4A4A4",
"=#	c #9E9E9E",
"-#	c #0B0900",
";#	c #191300",
">#	c #493E14",
",#	c #7D6F3C",
"'#	c #9D9A93",
")#	c #B3B3B7",
"!#	c #A5A5A4",
"~#	c #A5A5A7",
"{#	c #424347",
"]#	c #050501",
"^#	c #615215",
"/#	c #A4891B",
"(#	c #A38000",
"_#	c #906F00",
":#	c #847E64",
"<#	c #9B9CA1",
"[#	c #A7A7A7",
"}#	c #A3A3A3",
"|#	c #AEAEAF",
"1#	c #98999E",
"2#	c #9A9A99",
"3#	c #4B4A45",
"4#	c #A08A34",
"5#	c #FFE251",
"6#	c #F4D138",
"7#	c #DFB406",
"8#	c #A89542",
"9#	c #8C8D8E",
"0#	c #9D9E9F",
"a#	c #BDBDBE",
"b#	c #A9A8AA",
"c#	c #8D8778",
"d#	c #A0904F",
"e#	c #A08827",
"f#	c #5F4D03",
"g#	c #090701",
"h#	c #9E8629",
"i#	c #FFE55B",
"j#	c #FFE055",
"k#	c #EFC10F",
"l#	c #C5A524",
"m#	c #8D8D8C",
"n#	c #8F9094",
"o#	c #A2A2A2",
"p#	c #A6A6A6",
"q#	c #B2B2B3",
"r#	c #B6B6B8",
"s#	c #969695",
"t#	c #8A8154",
"u#	c #AD9229",
"v#	c #C69F0D",
"w#	c #AF8B00",
"x#	c #1A1400",
"y#	c #060500",
"z#	c #8D7416",
"A#	c #FFE053",
"B#	c #FFE159",
"C#	c #F8D33F",
"D#	c #F4D03D",
"E#	c #B0A57A",
"F#	c #868895",
"G#	c #929291",
"H#	c #A6A5A5",
"I#	c #9C9EA1",
"J#	c #89877D",
"K#	c #9D8936",
"L#	c #C09C15",
"M#	c #C89E00",
"N#	c #100D00",
"O#	c #5E4F0E",
"P#	c #FCDA48",
"Q#	c #FFE158",
"R#	c #FFDE5F",
"S#	c #FFDD30",
"T#	c #EFC627",
"U#	c #97958B",
"V#	c #878993",
"W#	c #949494",
"X#	c #9A9A9C",
"Y#	c #8A8A8F",
"Z#	c #978C5E",
"`#	c #BA9B1D",
" $	c #BD9804",
".$	c #C79F00",
"+$	c #A38400",
"@$	c #0D0B00",
"#$	c #443B18",
"$$	c #F9DA55",
"%$	c #FFE259",
"&$	c #FFD539",
"*$	c #FFCB04",
"=$	c #DCBC35",
"-$	c #909194",
";$	c #858893",
">$	c #909195",
",$	c #B2B3B4",
"'$	c #B8B8B9",
")$	c #A4A4A5",
"!$	c #909196",
"~$	c #888A8E",
"{$	c #A49D7E",
"]$	c #BB9F38",
"^$	c #C09B09",
"/$	c #A48300",
"($	c #0E0B00",
"_$	c #373012",
":$	c #E2C54C",
"<$	c #FFDE40",
"[$	c #FFCC0A",
"}$	c #FFCE00",
"|$	c #CDB140",
"1$	c #97927E",
"2$	c #8D8D8B",
"3$	c #929396",
"4$	c #AAABAD",
"5$	c #B7B8B9",
"6$	c #B5B5B6",
"7$	c #A6A7A8",
"8$	c #A1A1A6",
"9$	c #8E9097",
"0$	c #8C8D8D",
"a$	c #B6AA7B",
"b$	c #F3D455",
"c$	c #DDB61F",
"d$	c #D2A700",
"e$	c #E2B400",
"f$	c #110D00",
"g$	c #060601",
"h$	c #342C0D",
"i$	c #E0BE32",
"j$	c #FFD615",
"k$	c #FAC700",
"l$	c #DAB217",
"m$	c #BEA335",
"n$	c #988744",
"o$	c #8B8569",
"p$	c #A7A6A5",
"q$	c #B0B0B2",
"r$	c #A4A5A5",
"s$	c #9D9E9D",
"t$	c #9C9885",
"u$	c #A69D7F",
"v$	c #D3BE6B",
"w$	c #FADB58",
"x$	c #FFDA32",
"y$	c #FAC805",
"z$	c #F5C300",
"A$	c #DFB300",
"B$	c #CFA600",
"C$	c #C59C00",
"D$	c #070802",
"E$	c #51440C",
"F$	c #F1C613",
"G$	c #FFD101",
"H$	c #FECB00",
"I$	c #EDBD00",
"J$	c #E0B300",
"K$	c #B18C00",
"L$	c #84722C",
"M$	c #A19E97",
"N$	c #B1B1B3",
"O$	c #A4A5A8",
"P$	c #A19978",
"Q$	c #D5BD55",
"R$	c #F3D459",
"S$	c #FFE157",
"T$	c #FFDA41",
"U$	c #FFCD09",
"V$	c #E5B700",
"W$	c #C8A000",
"X$	c #B58F00",
"Y$	c #110E00",
"Z$	c #0A0B01",
"`$	c #867014",
" %	c #FFD207",
".%	c #F6C400",
"+%	c #8A7A3C",
"@%	c #9F9E9D",
"#%	c #ACACAE",
"$%	c #969696",
"%%	c #828282",
"&%	c #818182",
"*%	c #7F7F83",
"=%	c #998F6C",
"-%	c #F3D651",
";%	c #FFE357",
">%	c #FFDB4F",
",%	c #FECD13",
"'%	c #DAAE00",
")%	c #BA9400",
"!%	c #9E7D00",
"~%	c #0E0E01",
"{%	c #6D5906",
"]%	c #FFD700",
"^%	c #FFDA00",
"/%	c #FFD900",
"(%	c #F5C400",
"_%	c #F2C200",
":%	c #C09A00",
"<%	c #5B4D16",
"[%	c #313133",
"}%	c #333335",
"|%	c #343434",
"1%	c #323232",
"2%	c #252525",
"3%	c #161618",
"4%	c #1D1D20",
"5%	c #BCA542",
"6%	c #FFF063",
"7%	c #FFDE20",
"8%	c #FFD500",
"9%	c #EFBF00",
"0%	c #C19A00",
"a%	c #C39C00",
"b%	c #9F7E00",
"c%	c #080900",
"d%	c #100C00",
"e%	c #6C5700",
"f%	c #AA8900",
"g%	c #A18100",
"h%	c #967900",
"i%	c #967800",
"j%	c #977800",
"k%	c #937600",
"l%	c #957800",
"m%	c #987A00",
"n%	c #1A1600",
"o%	c #6C5E22",
"p%	c #D3AE21",
"q%	c #DBAF00",
"r%	c #D4AB00",
"s%	c #C59D00",
"t%	c #CEA500",
"u%	c #A78500",
"v%	c #937700",
"w%	c #9A7B00",
"x%	c #5D4B00",
"  . + + @ + + + + # @ @ $ % + & & & & & & & & & & & & & & & & & & * + + + + + + + + = . - ",
"; + > , ' ) ! ~ { { ] ^ / + + & & & & & & & & & & & & & & & & & ( + + > _ _ : < _ > + + [ ",
"} | 1 2 3 4 5 6 7 8 9 0 a b + + + + + + + + + + + + + + + + + + + c d e f g h i j k l + + ",
"+ m n o p q r s t u v w x y z A B C D E F F F E G G G G G H G I J K L M N O P Q R S T U + ",
"+ ' V W X Y Z `  ...+.@.#.$.%.&.*.=.-.;.>.,.'.).!.!.!.!.!.).!.~.{.].^./.(._.:.<.[.}.|.1.+ ",
"+ : 2.3.4.5.6.7.8.9.0.a.b.c.d.e.f.g.h.i.j.j.k.l.m.l.l.l.l.l.l.n.o.p.q.r.s.t.u.v.}.w.x.y.+ ",
"+ z.A.B.C.v.D.E.F.G.H.I.J.K.L.M.N.O.P.N.N.M.>.'.'.'.'.'.,.,.,.Q.R.S.T.U.W V.W.X.Y.}.Z.`.+ ",
"+  +.+++v.[.@+#+$+%+&+*+=+-+;+O.N.l.n.>.>.,.'.,.,.,.,.'.'.Q.'.;.>+,+'+)+!+~+{+]+^+/+(+_++ ",
"+ :+<+[+v.}+|+1+2+3+4+5+6+k.O.O.k.>.'.'.'.'.'.;.,.'.'.7+8+~.9+).7+-.0+a+b+c+d+e+f+f+g+h++ ",
"+ :+i+j+k+l+m+n+o+p+q+O.P.O.k.O.r+'.'.'.'.>.>.,.,.;.9+s+!.8+8+8+).'.).t+u+v+w+x+y+z+@+A++ ",
"+ B+C+D+E+/+F+G+H+k.P.O.k.k.k.M.,.>.>.>.>.>.>.>.'.9+s+I+J+8+8+!.8+~.K+8+L+M+N+O+P+Q+R+S++ ",
"T+U+V+W+X+Y+Z+`+ @N.O.O.O.O.M.>.,.n.n.n.n.n.>.;.).s+.@+@@@.@s+!.s+#@-.L+!.$@%@&@*@=@-@;@+ ",
"T+>@,@'@)@!@~@{@6+k.k.O.k.N.>.n.n.n.n.n.>.,.Q.9+~.I++@@@+@I+s+!.K+>+-.#@~.]@^@/@(@]+R+_@+ ",
"T+:@<@[@}@|@1@2@ @O.k.N.M.m.>.m.m.n.m.n.'.3@).~.I+>++@-..@!.!.K+#@L+-.>+J+4@5@6@7@8@9@0@+ ",
"& + + a@b@c@d@M.k.O.N.l.n.>.n.m.n.l.n.;.3@).9+I+L+-.+@J+!.!.s+#@-.L+L+-.-.>+8+e@f@g@+ + + ",
"& & + + h@i@O.k.k.M.>.m.>.m.m.l.n.,.j@7+).9+K+>+L+L+J+~.).8+#@>+L+>+>+L+L+L+>+@@k@l@+ & & ",
"& & + + m@,.n@N.P.,.n.n.n.l.m.n.j@).).).7+!..@>+L+K+~.7+!..@>+#@L+>+>+>+>+L+>++@I+o@+ & & ",
"& & + + p@>.h.l.>.,.3@Q.l.m.;.7+7+7+7+7+j@9+I+J+8+9+7+s+.@>+>+#@L+>+>+>+>+>+>+L+3@q@+ & & ",
"& & + + r@r+s@n.Q.9+!.3@,.j@9+7+7+7+j@j@7+j@7+7+7+).8+J+.@.@>+#@>+-.>+>+>+>+L+L+3@t@+ & & ",
"& & + u@v@O.s@n.).~.7+j@7+).3@3@j@j@'.Q.j@j@j@3@).!..@.@I+#@.@#@#@L+>+>+>+>+L+#@,.r@+ & & ",
"& & + w@x@j.N.3@!.7+9+3@).j@3@Q.'.r+r+l.>.;.j@).8+J+K+.@I+#@.@.@#@L+>+>+L+L+-.L+Q.q@+ & & ",
"& & + y@z@h.Q.~.~.7+9+3@7+j@3@;.m.j.A@g.r+'.7+!.K+K+K+.@I+#@.@.@#@>+L+L+L+L++@+@!.B@+ & & ",
"& & + y@C@N.~.~.9+).9+3@7+j@3@'.l.D@E@F@O.'.s+8+K+8+K+.@I+#@.@#@>+L+@@+@>+J++@-.>+G@+ & & ",
"& & + H@z@l.).Q.Q.).9+3@7+j@3@'.r+f.I@J@r+7+K+s+K+8+K+.@I+#@.@>+-.+@K@-.8+K++@L+@@L@+ & & ",
"& & + M@z@P.'.>.j@).9+3@7+j@3@Q.n.O.i.P.Q.!.8+8+8+K+K+.@I+#@#@L++@K@@@I+!.L+K@>++@L@+ & & ",
"& & + N@O@n.l.j@~.).9+7+3@3@7+3@Q.>.Q.3@~.s+8+I+K+J+I+.@I+.@>++@@@K@#@!..@K@K@>++@L@+ & & ",
"& & + P@Q@n.m.).!.~.7+9+7+3@7+j@3@s+K+s+s+K+K+8+I+K+.@I+I+#@-.+@@@#@~.K+@@K@K@@@1@R@+ & & ",
"& & + S@T@>.m.,.Q.Q.3@9+).3@3@7+s+K+K+K+K+K+8+I+J+K+I+I+>+-.-.-.J+s+8++@K@+@U@U@V@W@+ & & ",
"& & + X@q@;.r+,.;.3@9+7+9+3@).!.K+I+K+K+K+I+8+J+K+J+.@#@L+-.-.I+~.s+L+K@@@*.=.Y@Z@`@+ & & ",
" #.#+ + +#@#m.3@).!.~.).).).s+I+K+K+I+I+8+I+I+K+J+.@L+-.L+L+I+~.s+#@K@@@U@1@1@*.Z@`@+ & & ",
"+ + + + ##$#%#~.&#~.9+!.8+K+J+J+K+I+I+I+I+I+I+I+.@-.L+L+L+K+~.!.#@@@@@U@1@*#*#Y@=#G + & & ",
"+ + -#;#>#,#'#)#s+).!.I+#@J+I+I+I+J+I+J+J+K+J+>+L+L+L++@#@!.s+#@@@K@U@1@*#*#!#*#~#{#+ & & ",
"+ ]#^#/#(#_#:#<#K@~.J+>+>+.@J+J+.@.@J+.@J+J+#@-.L+L+-.-.-.#@>++@*.[#*#*#}#@@|#1#2#3#+ + + ",
"+ ' 4#5#6#7#8#9#0#@@.@#@.@.@.@.@J+J+J+.@#@>+L+-.-.L++@+@+@+@K@*.[#*#*#*#L+a#b#c#d#e#f#:@+ ",
"+ g#h#i#j#k#l#m#n#o#8+9+!..@>+>+.@.@.@#@>+-.L+L++@-.@@-.+@K@=.p#*#p#*#!#q#r#s#t#u#v#w#x#+ ",
"+ y#z#A#B#C#D#E#F#G#+@j@8+>+>+.@>+.@>++@+@L+-.@@-.-.+@@@*.=.1@*#p#p#p#1@H#I#J#K#L#M#w#N#+ ",
"+ + O#P#Q#R#S#T#U#V#W#>+9+#@L+#@L+-.+@-.+@+@-.-.@@+@K@@@[#*#*#p#1@p#1@*#X#Y#Z#`# $.$+$@$+ ",
"+ + #$$$%$&$*$x.=$-$;$>$,$'$J+#@L+@@@@-.@@@@@@@@K@+@Y@1@*#1@p#p#1@[#)$!$~${$]$^$E.^+/$($+ ",
"= + _$:$<$[$X+}.}$|$1$2$3$4$5$6$>+@@+@@@K@K@K@@@+@K@p#*#1@p#p#p#7$8$9$0$a$b$c$d$e$d$#+f$+ ",
"g$+ h$i$j$X+v.v.[.k$l$m$n$o$p$q$L+-.L+@@@@@@+@@@@@=.}#1@1@1@1@r$s$t$u$v$w$x$y$z$A$B$C$>@+ ",
"D$+ E$F$G$[.v.v.H$v.I$J$K$L$M$N$J+J+.@J+s+!.8+>+#@K@[#=.Y@@@+@O$P$Q$R$S$T$U$v.}$V$W$X$Y$+ ",
"Z$~ `$ %}.[.[.[.}..%J$A$X$+%@%#%-.-.-.L+).!..@>+J+@@=.1@$%%%&%*%=%-%;%>%,%X+v.H$'%)%!%($+ ",
"~%+ {%]%^%/%/%]%]%(%(+_%:%<%[%}%G G G |%F H |%G G G |%1%2%y@y@3%4%5%6%7%8%8%8%9%0%a%b%($+ ",
"c%+ d%e%f%g%h%i%j%k%l%m%_@n%+ + + + + + + + + + + + + + + + + + + o%p%q%r%s%t%u%v%w%x%:@+ ",
"+ + + + + + + + + + + + + + + + + + + + + + + + + + + + + + + + + + + + + + + + + + + + + "};
