/* XPM */
static char * fire_door1_xpm[] = {
"32 32 80 1",
" 	c #0E0E00",
".	c #0A0A00",
"+	c #080800",
"@	c #050600",
"#	c #060601",
"$	c #060700",
"%	c #050500",
"&	c #040400",
"*	c #000000",
"=	c #131108",
"-	c #1B180B",
";	c #121007",
">	c #5D5529",
",	c #766C34",
"'	c #756B33",
")	c #746A33",
"!	c #736933",
"~	c #726832",
"{	c #716732",
"]	c #0D0C05",
"^	c #4D4722",
"/	c #4C4622",
"(	c #736932",
"_	c #706632",
":	c #4D4622",
"<	c #6F6531",
"[	c #6A612F",
"}	c #665D2D",
"|	c #675D2E",
"1	c #675E2E",
"2	c #695F2F",
"3	c #6A602F",
"4	c #6B612F",
"5	c #6C6230",
"6	c #6D6330",
"7	c #6E6430",
"8	c #544C25",
"9	c #1C190C",
"0	c #050402",
"a	c #090804",
"b	c #0A0904",
"c	c #0B0A04",
"d	c #6E6431",
"e	c #685E2E",
"f	c #3E381B",
"g	c #060502",
"h	c #4E4722",
"i	c #3C361A",
"j	c #211D0E",
"k	c #645B2D",
"l	c #524A24",
"m	c #4E4622",
"n	c #292512",
"o	c #020201",
"p	c #332E16",
"q	c #373218",
"r	c #655C2D",
"s	c #655B2D",
"t	c #665D2E",
"u	c #000100",
"v	c #070701",
"w	c #695F2E",
"x	c #010100",
"y	c #111007",
"z	c #5C5428",
"A	c #716733",
"B	c #726834",
"C	c #131208",
"D	c #61592B",
"E	c #201D0E",
"F	c #4A4320",
"G	c #625A2B",
"H	c #16140A",
"I	c #504923",
"J	c #100E07",
"K	c #0D0B05",
"L	c #665C2D",
"M	c #6B622F",
"N	c #736934",
"O	c #0F0E06",
" .+@@@##$@%&&&&&&&&&&&&&&&&&&&&@",
"***********=-*******************",
"*;>,,,'))))!!~~~~~~~~~~~~~{{{{{{",
"*]^)))''''''',,,,,,,,,,,,,,,,,,,",
"*]/{{{{{{{{{{~~~~(()))))))))))))",
"*]/_____________________________",
"*]/_____________________________",
"*]/_____________________________",
"*]/_____________________________",
"*]:_____<[}}}}}|1111223345677___",
"*]:_____718900000000000000abbbbc",
"*]^_____defg********************",
"*]h_____dei0jkkkkkkkkkkkkkkkklmm",
"*]h______2nopkkkkkkkkkkkkkkkkkkk",
"*]h______2noqkkr1eeee|sssskkkkkk",
"*]h______4noqkkd<_______________",
"*]h______5noqt6_________________",
"*]h______7noq5__________________",
"u]h______7noq4__________________",
"v]h______<noqw__________________",
"xyz_______noqe________AB________",
"*CD_______noqe________AB________",
"*CD_______noq1<_______BB________",
"*CD_______noq|7_______BB_______{",
"*CD_______ExF|7____A__BB_______A",
"*CG_______H*I|7___AB_ABB_______B",
"*CG______7C*k|7___AB_ABB_____ABB",
"*CG______7J*k|7___ABABBB____ABBB",
"*CG______7K*k|7___ABABBB___ABBBB",
"*CG______7c*kL6___BBABBBBBBBBBBB",
"*CG{_____7c*krM___BAABBBBBBBBBBN",
"*CG{_____7O*kk3__ABAABBBA_BBBBBN"};
