/* XPM */
static char * fire_door3_xpm[] = {
"32 32 197 2",
"  	c #000000",
". 	c #131208",
"+ 	c #625A2B",
"@ 	c #716732",
"# 	c #706632",
"$ 	c #6E6430",
"% 	c #100F07",
"& 	c #645B2D",
"* 	c #69602F",
"= 	c #716733",
"- 	c #726834",
"; 	c #141208",
"> 	c #635B2B",
", 	c #685D2E",
"' 	c #706430",
") 	c #726733",
"! 	c #1A180B",
"~ 	c #766C34",
"{ 	c #6D6330",
"] 	c #675D2E",
"^ 	c #6E6431",
"/ 	c #746532",
"( 	c #776330",
"_ 	c #786130",
": 	c #7A6130",
"< 	c #7B6130",
"[ 	c #796130",
"} 	c #756B33",
"| 	c #6C6230",
"1 	c #6B612F",
"2 	c #756431",
"3 	c #795F2E",
"4 	c #7A602F",
"5 	c #895830",
"6 	c #905431",
"7 	c #82542F",
"8 	c #83542E",
"9 	c #86512D",
"0 	c #785E2D",
"a 	c #7B5B2E",
"b 	c #915231",
"c 	c #925232",
"d 	c #AA3C27",
"e 	c #AE3C27",
"f 	c #9D4A2D",
"g 	c #1E1C0D",
"h 	c #6F6531",
"i 	c #736532",
"j 	c #8E4E2D",
"k 	c #954D2F",
"l 	c #D01F19",
"m 	c #EA1211",
"n 	c #FC2525",
"o 	c #FE2727",
"p 	c #FE2626",
"q 	c #FE0C0C",
"r 	c #302D15",
"s 	c #0F0E07",
"t 	c #766331",
"u 	c #765C2D",
"v 	c #82502B",
"w 	c #AC3E28",
"x 	c #EB1815",
"y 	c #DC3F35",
"z 	c #A74D34",
"A 	c #0B0A05",
"B 	c #786230",
"C 	c #77552C",
"D 	c #915130",
"E 	c #E1201B",
"F 	c #F92D2B",
"G 	c #A04F33",
"H 	c #8C5331",
"I 	c #915432",
"J 	c #925332",
"K 	c #0B0A04",
"L 	c #746432",
"M 	c #79602F",
"N 	c #905131",
"O 	c #9B482D",
"P 	c #F03531",
"Q 	c #A54F34",
"R 	c #8A5431",
"S 	c #706633",
"T 	c #726734",
"U 	c #7B6434",
"V 	c #48421F",
"W 	c #080703",
"X 	c #805A2E",
"Y 	c #925131",
"Z 	c #BD1A11",
"` 	c #DC473D",
" .	c #70582E",
"..	c #915A34",
"+.	c #050402",
"@.	c #746331",
"#.	c #8A582F",
"$.	c #88522F",
"%.	c #CC160B",
"&.	c #DD3A30",
"*.	c #76562E",
"=.	c #995935",
"-.	c #736734",
";.	c #595126",
">.	c #726431",
",.	c #895A30",
"'.	c #934F30",
").	c #BF2614",
"!.	c #E52C24",
"~.	c #8E5332",
"{.	c #975734",
"].	c #7A6434",
"^.	c #6E6531",
"/.	c #5E5729",
"(.	c #6B6230",
"_.	c #944C2D",
":.	c #984D2F",
"<.	c #FE0E0E",
"[.	c #DC2016",
"}.	c #8B5231",
"|.	c #8C5230",
"1.	c #935332",
"2.	c #6A602F",
"3.	c #675E2E",
"4.	c #71562B",
"5.	c #8D4D2C",
"6.	c #C72E1E",
"7.	c #F20805",
"8.	c #B72A19",
"9.	c #934528",
"0.	c #875330",
"a.	c #8C5231",
"b.	c #904F2F",
"c.	c #695F2F",
"d.	c #715F2F",
"e.	c #78522A",
"f.	c #A1462B",
"g.	c #CD2618",
"h.	c #E10502",
"i.	c #BA170C",
"j.	c #8B3E20",
"k.	c #903E21",
"l.	c #A82A17",
"m.	c #726832",
"n.	c #746A33",
"o.	c #6B6130",
"p.	c #706532",
"q.	c #8E4F2D",
"r.	c #994B2D",
"s.	c #A7462D",
"t.	c #C0422F",
"u.	c #EC3532",
"v.	c #F62A2A",
"w.	c #F42B2A",
"x.	c #D63B2F",
"y.	c #6F5A2D",
"z.	c #6E542A",
"A.	c #76522A",
"B.	c #77522B",
"C.	c #75522A",
"D.	c #736933",
"E.	c #665D2D",
"F.	c #736932",
"G.	c #5C5328",
"H.	c #685E2E",
"I.	c #695F2E",
"J.	c #6C6330",
"K.	c #5F562A",
"L.	c #5A5128",
"M.	c #5A5127",
"N.	c #585027",
"O.	c #030201",
"P.	c #554E26",
"Q.	c #655B2D",
"R.	c #6D6331",
"S.	c #010100",
"T.	c #040402",
"U.	c #050502",
"V.	c #1D1A0D",
"W.	c #121008",
"X.	c #0E0D06",
"Y.	c #060502",
"Z.	c #090904",
"`.	c #090803",
" +	c #16140A",
".+	c #282412",
"++	c #2D2914",
"@+	c #3B361A",
"#+	c #3C361B",
"$+	c #2F2B15",
"%+	c #221F0F",
"&+	c #151309",
"*+	c #141209",
"=+	c #201D0E",
"-+	c #262311",
";+	c #211D0F",
">+	c #252111",
"  . + @ # # # # # $ %   & & * # # = - = = - - - # # - - - - - - ",
"  ; > # # # # # # $ %   & , ' # # - - = - - - - - - - - - ) ) - ",
"  ! ~ # # # # # # { %   & ] ^ # # - - = - - - - / / ( _ : < [ / ",
"  ! } # # # # # # | %   & 1 # # # - - # - - 2 : 3 4 5 6 7 7 8 9 ",
"  ! } # # # # # # 1 %   & | # # # - - # - - [ < 0 a b c b d e f ",
"  g } # # # # # # 1 %   & h # # # - = # - i < < j k l m n o p q ",
"  r } # # # # # # 1 s   & # # # # - = = ) t u v w x y z c c c c ",
"  r } # # # # # # 1 A   & # # # # - = = ) B C D E F G c H I J c ",
"  r } # # # # # # 1 K   & # # # = - = - L M N O P Q c R S - T U ",
"  V } # # # # # # 1 W   & # # # = - = - 2 X Y Z `  .c ..- - - - ",
"  V } # # # # # # 1 +.  & # # # = - = - @.#.$.%.&.*.c =.-.- - - ",
"  ;.~ # # # # # # 1 +.  & ^ # # = - - - >.,.'.).!.~.b {.].T T ^.",
"  /.} # # # # # # 1 +.  & (.# # = - - - # @._.:.<.[.}.|.1.1.c c ",
"  /.} # # # # # # 2.+.  & 3.h # = - - = # = 4.5.6.7.8.9.0.a.a.b.",
"  /.} # # # # # # c.+.  & 3.h # = - - = # = d.e.f.g.h.i.j.k.k.l.",
"  m.n.# # # # # # c.    & o.# = - - - - - - = p.q.r.s.t.u.v.w.x.",
"  ~ n.# # # # # # c.    & $ # = - - - = = # # # - ) y.z.A.B.B.C.",
"  ~ n.# # # # # # c.    & # # = - - - # # # # # - - - - - - - - ",
"  ~ D.# # # # # # E.    & # # = - - = # # # # # - - - - - - - - ",
"  } F.# # # # # h G.    & # # = - - = # # # # # - - - = = - - - ",
"  } m.# # # # # ^ H.    & # # = - - = # # # # # = - = # # # # # ",
"  } m.# # # # # ^ H.    & # # - - - # # # # # # = - = # # # # # ",
"  } m.# # # # # ^ H.    & # # - - - # # # # # - = # # # # # # # ",
"  ~ D.# # # # # ^ H.+.  & # # - - = # # # # - - - = # # # # # # ",
"  ~ D.# # # # # h H.+.  & # # - - # # # = - - - - = # # # # # # ",
"  ~ D.# # # # # h I.+.  & # # = - # # # = - - - - - # # # # # # ",
"  ~ D.# # # # # # 2.+.  & | # # # # # # - - - - - - # # # # # # ",
"  ~ n.# # # # # # 1 +.  & & E.# = = # # # # # # = - - = # # # # ",
"  ~ n.# # # # # # | +.  & & & # - - - - - - = = = - - - # # # # ",
"  J.H.K.L.L.L.M.N.N.O.  P.P.P.Q.R.- - - - - - - - - - - - - - - ",
"                        S.S.S.T.+.+.U.U.U.U.U.U.U.U.U.U.U.U.U.U.",
"V.W.X.  Y.X.% Z.`. +.+++@+#+#+$+%+&+*+*+*+*+*+*+*+*+=+-+V.;+>+! "};
