/* XPM */
static char * fire_door2_xpm[] = {
"32 32 124 2",
"  	c #050600",
". 	c #0A0B00",
"+ 	c #0F1000",
"@ 	c #121400",
"# 	c #141500",
"$ 	c #161702",
"% 	c #151700",
"& 	c #141501",
"* 	c #171803",
"= 	c #181904",
"- 	c #191A04",
"; 	c #1A1B05",
"> 	c #1E2005",
", 	c #000000",
"' 	c #716732",
") 	c #706632",
"! 	c #736932",
"~ 	c #746A33",
"{ 	c #756B33",
"] 	c #766C34",
"^ 	c #544C25",
"/ 	c #100F07",
"( 	c #706631",
"_ 	c #585027",
": 	c #121008",
"< 	c #736933",
"[ 	c #726832",
"} 	c #6E6531",
"| 	c #61592C",
"1 	c #151309",
"2 	c #6F6531",
"3 	c #645B2D",
"4 	c #252110",
"5 	c #292512",
"6 	c #655B2D",
"7 	c #1E1B0D",
"8 	c #655C2D",
"9 	c #16140A",
"0 	c #665C2D",
"a 	c #0B0A05",
"b 	c #110F07",
"c 	c #121007",
"d 	c #121108",
"e 	c #161409",
"f 	c #18150A",
"g 	c #61572A",
"h 	c #1F1C0D",
"i 	c #4E4622",
"j 	c #403B1C",
"k 	c #383319",
"l 	c #383218",
"m 	c #221E0F",
"n 	c #020201",
"o 	c #0C0B05",
"p 	c #080703",
"q 	c #685E2E",
"r 	c #675E2E",
"s 	c #685F2E",
"t 	c #6A612F",
"u 	c #675D2E",
"v 	c #716733",
"w 	c #726834",
"x 	c #050502",
"y 	c #262311",
"z 	c #242110",
"A 	c #040401",
"B 	c #2B2713",
"C 	c #695F2F",
"D 	c #413B1C",
"E 	c #3D371B",
"F 	c #695F2E",
"G 	c #010100",
"H 	c #4A4320",
"I 	c #736934",
"J 	c #585126",
"K 	c #756B34",
"L 	c #5B5328",
"M 	c #574F26",
"N 	c #111007",
"O 	c #726833",
"P 	c #100E07",
"Q 	c #726733",
"R 	c #736733",
"S 	c #726633",
"T 	c #706531",
"U 	c #726631",
"V 	c #756933",
"W 	c #766A33",
"X 	c #716632",
"Y 	c #433D1E",
"Z 	c #0B0A04",
"` 	c #745A2C",
" .	c #70562A",
"..	c #7E532C",
"+.	c #84512D",
"@.	c #85522D",
"#.	c #82522C",
"$.	c #7C542B",
"%.	c #755B2D",
"&.	c #77612F",
"*.	c #443E1E",
"=.	c #6E542A",
"-.	c #80522E",
";.	c #BE2C1E",
">.	c #C32618",
",.	c #C82618",
"'.	c #CB2618",
").	c #CE2618",
"!.	c #CF2618",
"~.	c #C54635",
"{.	c #82522D",
"].	c #755B2C",
"^.	c #746833",
"/.	c #86522F",
"(.	c #D72217",
"_.	c #E31109",
":.	c #D8150A",
"<.	c #FF0000",
"[.	c #DA382D",
"}.	c #8B512F",
"|.	c #7A592D",
"1.	c #706431",
"2.	c #373218",
"3.	c #060502",
"  . . + + + + + + + + + + + + + + + + + @ # $ % # & * = - - ; > ",
", , , , , , , , , , , , , , , , , , , , , , , , , , , , , , , , ",
"' ' ) ) ) ) ) ) ) ) ' ' ! ~ ~ ~ { ] ] ] ] ] ~ ~ ~ ~ ~ ~ ' ^ / , ",
"] ] ] ] ] ] ] ] ] ] ] ] ] ] ] ] { { { { { { ] ] ] ] ] ] ( _ : , ",
"~ { ] ] ] ] ] ] ] { ~ ~ < [ [ [ [ ' ' ' ' ' [ [ [ [ [ [ } | 1 , ",
") ) ) ) ) ) ) ) ) ) ) ) ) ) ) ) ) ) ) ) ) ) ) ) ) ) ) ) 2 3 4 , ",
") ) ) ) ) ) ) ) ) ) ) ) ) ) ) ) ) ) ) ) ) ) ) ) ) ) ) ) ) 3 5 , ",
") ) ) ) ) ) ) ) ) ) ) ) ) ) ) ) ) ) ) ) ) ) ) ) ) ) ) ) ) 6 7 , ",
") ) ) ) ) ) ) ) ) ) ) ) ) ) ) ) ) ) ) ) ) ) ) ) ) ) ) ) ) 8 9 , ",
") ) ) ) ) ) ) ) ) ) ) ) ) ) ) ) ) ) ) ) ) ) ) ) ) ) ) ) ) 0 9 , ",
"a b b c c c c c c c c c c c c c c d e f g ) ) ) ) ) ) ) ) 0 9 , ",
", , , , , , , , , , , , , , , , , , , , h ) ) ) ) ) ) ) ) 0 9 , ",
"i j k l m m m m m m m m m m m m m m m n o ] [ ) ) ) ) ) ) 6 9 , ",
"3 3 3 3 3 3 3 3 3 3 3 3 3 3 3 3 3 3 3 p o ] [ ) ) ) ) ) ) 6 9 , ",
"3 6 6 6 q q q q q r r s q 3 0 8 3 3 3 p o ] ' ) ) ) ) ) ) 6 9 , ",
") ) [ ) ) ) ) ) ) ) ) ) ) ) ) 2 t 3 3 p o ] ' ) ) ) ) ) ) 6 9 , ",
") ~ ] ! ) ) ) ) ) ) ) ) ) ) ) ) 2 u 3 p o ] ) ) ) ) ) ) ) 3 9 , ",
") { ] ! ) ) ) ) ) ) ) v w v ) ) ) q 3 x y ] ) ) ) ) ) ) ) 3 z , ",
") { ] ! ) ) ) ) ) ) ) w w v ) ) ) q 3 x y ] ) ) ) ) ) ) ) 3 5 , ",
") ] ] ! ) ) ) ) ) ) w w w v ) ) ) q 3 x y ] ) ) ) ) ) ) ) 3 5 , ",
"' ] ] ! ) ) ) ) ) ) w w w v ) ) ) q 3 x y ] ) ) ) ) ) ) ) 3 5 , ",
"[ ] ] ! ) ) ) ) ) ) w w w v ) ) ) s 3 A B ] ) ) ) ) ) ) ) 3 5 , ",
"< ] ] ! ) ) ) ) ) ) w v w w ) ) ) C 3 n D ] ) ) ) ) ) ) ) 6 E , ",
"~ ] ] { ) ) ) ) ) v w v v w ) ) ) C 3 n D ] ) ) ) ) ) ) ) 6 5 , ",
"~ ] ] { ) ) ) ) ) v w v v w ) ) ) F 3 G H { ) ) ) ) ) ) ) 6 5 , ",
"I ] ] { ) ) ) ) ) v w v v w v ) ) q 3 , J { ) ) ) ) ) ) ) 6 7 , ",
"w K K { ) ) ! ' ) v w v v w v ) ) q 3 , L { ) ) ) ) ) ) ) M N , ",
"w w w O ) ' K K ) v w v ) w w ) ) 0 3 , L { ) ) ) ) ) ) ) ^ P , ",
"w Q R S T U V W T X Q v ) w w ) ) 8 3 , L { ) ) ) ) ) ) ) Y Z , ",
"I `  ...+.@.@.@.#.$.%.&.) w w ) ) 6 3 , L { ) ) ) ) ) ) ) *.Z , ",
"V =.-.;.>.,.'.).!.~.{.].T w w ) ) 6 3 , L { ) ) ) ) ) ) ) *.Z , ",
"^.=./.(._.:.<.<.<.[.}.|.1.v w ) ) 6 3 , L { ) ) ) ) ) ) ) 2.3., "};
