/* XPM */
static char * fire_door4_xpm[] = {
"32 32 200 2",
"  	c #736733",
". 	c #6E542A",
"+ 	c #86522F",
"@ 	c #984D2F",
"# 	c #994B2D",
"$ 	c #984C2E",
"% 	c #FF0A0A",
"& 	c #FF0101",
"* 	c #FF0000",
"= 	c #DA382D",
"- 	c #8A522F",
"; 	c #7A592D",
"> 	c #716431",
", 	c #716733",
"' 	c #726834",
") 	c #706632",
"! 	c #655B2D",
"~ 	c #645B2D",
"{ 	c #000000",
"] 	c #5B5328",
"^ 	c #756B33",
"/ 	c #342E17",
"( 	c #050402",
"_ 	c #726633",
": 	c #795F2F",
"< 	c #755B2D",
"[ 	c #75552B",
"} 	c #8F4C2C",
"| 	c #B63423",
"1 	c #FD1616",
"2 	c #F70B09",
"3 	c #ED2621",
"4 	c #885230",
"5 	c #77582C",
"6 	c #726330",
"7 	c #585027",
"8 	c #111007",
"9 	c #736633",
"0 	c #775F2F",
"a 	c #7B582C",
"b 	c #934C2D",
"c 	c #D91D16",
"d 	c #F01513",
"e 	c #A84C33",
"f 	c #925132",
"g 	c #FF1313",
"h 	c #F42421",
"i 	c #875330",
"j 	c #74582D",
"k 	c #746230",
"l 	c #554D25",
"m 	c #100F07",
"n 	c #8A522D",
"o 	c #964C2D",
"p 	c #99492D",
"q 	c #E5120D",
"r 	c #CA3021",
"s 	c #9B4D30",
"t 	c #8C5130",
"u 	c #895230",
"v 	c #FF1111",
"w 	c #F71816",
"x 	c #73592D",
"y 	c #944F30",
"z 	c #914F2F",
"A 	c #AF2A19",
"B 	c #F90C0B",
"C 	c #964D2F",
"D 	c #905130",
"E 	c #7C522B",
"F 	c #83522E",
"G 	c #FF1D1D",
"H 	c #F82726",
"I 	c #83532F",
"J 	c #70592C",
"K 	c #6F6531",
"L 	c #FB0302",
"M 	c #FA0201",
"N 	c #FD0000",
"O 	c #925130",
"P 	c #8B572F",
"Q 	c #73592C",
"R 	c #71552B",
"S 	c #945132",
"T 	c #935031",
"U 	c #6F552B",
"V 	c #745A2C",
"W 	c #5F572A",
"X 	c #544D25",
"Y 	c #9B4C2E",
"Z 	c #F60B08",
"` 	c #FE0000",
" .	c #934F30",
"..	c #7F5B2F",
"+.	c #796130",
"@.	c #7A6130",
"#.	c #776130",
"$.	c #756230",
"%.	c #706531",
"&.	c #6E6431",
"*.	c #534B24",
"=.	c #766C34",
"-.	c #544C25",
";.	c #925232",
">.	c #D02B1E",
",.	c #FB0605",
"'.	c #9B4A2D",
").	c #7A582D",
"!.	c #756331",
"~.	c #756432",
"{.	c #766331",
"].	c #756431",
"^.	c #726733",
"/.	c #825B32",
"(.	c #915231",
"_.	c #C53021",
":.	c #D6291D",
"<.	c #7F532B",
"[.	c #726030",
"}.	c #6D6330",
"|.	c #6F6632",
"1.	c #865330",
"2.	c #9C482D",
"3.	c #F3221F",
"4.	c #88502D",
"5.	c #745F2F",
"6.	c #746A33",
"7.	c #534B25",
"8.	c #6F6532",
"9.	c #75562E",
"0.	c #8F5131",
"a.	c #E82F28",
"b.	c #8C502D",
"c.	c #735F2F",
"d.	c #423C1D",
"e.	c #635A2C",
"f.	c #151309",
"g.	c #675D2E",
"h.	c #835430",
"i.	c #994A2E",
"j.	c #D43226",
"k.	c #8C512D",
"l.	c #736230",
"m.	c #16140A",
"n.	c #9D472C",
"o.	c #CF1D17",
"p.	c #9A4A2D",
"q.	c #7F572E",
"r.	c #726632",
"s.	c #A23E26",
"t.	c #EA0B0B",
"u.	c #DC1A10",
"v.	c #974C2E",
"w.	c #CF110B",
"x.	c #F31A18",
"y.	c #AE3E26",
"z.	c #91502E",
"A.	c #BC422E",
"B.	c #974C2D",
"C.	c #854F2C",
"D.	c #6C6230",
"E.	c #70562B",
"F.	c #706532",
"G.	c #6B6130",
"H.	c #665D2D",
"I.	c #5D5629",
"J.	c #6C6330",
"K.	c #433E1D",
"L.	c #6E6430",
"M.	c #685E2E",
"N.	c #413B1C",
"O.	c #292512",
"P.	c #675E2E",
"Q.	c #736932",
"R.	c #706633",
"S.	c #353017",
"T.	c #262311",
"U.	c #6A6030",
"V.	c #6A602F",
"W.	c #6B612F",
"X.	c #6D6430",
"Y.	c #665D2E",
"Z.	c #050502",
"`.	c #030301",
" +	c #010100",
".+	c #111008",
"++	c #110F07",
"@+	c #18160B",
"#+	c #272412",
"$+	c #282412",
"%+	c #252211",
"&+	c #1F1C0E",
"*+	c #141209",
"=+	c #131108",
"-+	c #121108",
";+	c #040402",
">+	c #080703",
",+	c #060502",
"'+	c #0E0D06",
")+	c #121008",
"  . + @ # $ % & * = - ; > , ' ) ) ! ~ { ] ^ ) ) ) ) ) ) ) / ( { ",
"_ : < [ } | 1 2 & 3 4 5 6 , ' ) ) ! ~ { ] ^ ) ) ) ) ) ) ) 7 8 { ",
"9 0 a b c d e f g h i j k , ' ) ) ~ ~ { ] ^ ) ) ) ) ) ) ) l m { ",
"n o p q r s t u v w i x k , ' ) ) ~ ~ { ] ^ ) ) ) ) ) ) ) l m { ",
"y z A B C D E F G H I J k , ' ) K ~ ~ { ] ^ ) ) ) ) ) ) ) l m { ",
"L M N u O P Q R S T U V 6 , ' ) K ~ W { ] ^ ) ) ) ) ) ) ) X m { ",
"Y Z `  ...+.+.@.@.@.#.$.%., ' ) &.~ *.{ =.^ ) ) ) ) ) ) ) -.m { ",
";.>.,.'.).!.~.{.{.].^., ) , ' ) &.~ *.{ =.^ ) ) ) ) ) ) ) -.m { ",
"/.(._.:.<.[.' ' ' ' ' , ) , ' ) }.~ *.{ =.^ ) ) ) ) ) ) ) -.m { ",
"|.1.2.3.4.5.' ' ' ' ' , ) , ' ) }.~ *.{ =.6.) ) ) ) ) ) ) 7.m { ",
"8.9.0.a.b.c.' ' ' ' , ) ) , ' ) }.~ d.{ =.6.) ) ) ) ) ) ) e.f.{ ",
"g.h.i.j.k.l.' ' ' ' , ) ) , ' ) }.~ d.{ =.6.) ) ) ) ) ) &.~ m.{ ",
";.n.o.p.q.r.' ' ' ' , ) ) , ' ) }.~ d.{ =.6.) ) ) ) ) ) &.~ m.{ ",
"s.t.u.v._ ' ' ' ' ' , ) ) , ' ) &.~ d.{ =.6.) ) ) ) ) ) }.~ m.{ ",
"w.x.y.z.' ' ' ' ' ' , ) ) , ' ) &.~ d.{ =.6.) ) ) ) ) ) }.~ m.{ ",
"A.B.C.^.' , , ' ' ' , ) ) , ' ) K ~ d.{ =.6.) ) ) ) ) ) D.~ m.{ ",
"E.F., ' , ) , ' ' ' ) ) ) , ' ) ) ! d.{ =.6.) ) ) ) ) ) G.~ m.{ ",
"' ' ' ' ' ' , ' ' ' , ) ) , ' ) ) ! d.{ =.6.) ) ) ) ) ) G.~ m.{ ",
"' ' ' ' ' ' , ' ' ' , ) ) , ' ) ) ! d.{ =.^ ) ) ) ) ) ) G.~ m.{ ",
"' ' ' ' , ) , ' ' ' , ) ) , ' ) ) H.d.{ I.^ ) ) ) ) ) ) G.~ m.{ ",
", ' ' ' ) ) , ' ' ' , ) ) , ' ) ) H.d.{ ] ^ ) ) ) ) ) ) J.~ m.{ ",
", ' , ) ) ) , ' ' ' , ) ) , ' ) ) H.d.{ K.^ ) ) ) ) ) ) L.~ m.{ ",
") ) ) ) ) ) , ' ' , ) ) ) , ' ) ) M.d.{ N.6.) ) ) ) ) ) ) ~ O.{ ",
") ) ) ) ) ) ) , ) ) ) ) ) , ' ) ) M.d.{ N.6.) ) ) ) ) ) ) H.O.{ ",
") ) ) ) ) ) ) ) ) ) ) ) ) , ' ' ' P.d.{ N.Q.) ) ) ) ) ) ) g.O.{ ",
") ) ) ) ) ) ) ) ) ) ) ) ) , ' ' ' g.d.{ N.Q.) ) ) ) ) ) ) g.O.{ ",
") ) ) ) ) ) ) ) ) ) ) ) ) , ' ' R.~ d.{ S.6.) ) ) ) ) ) ) g.O.{ ",
") ) ) ) ) ) ) ) ) ) ) ) ) ' ' 8.P.~ d.{ T.6.) ) ) ) ) ) ) g.O.{ ",
") ) ) ) ) ) ) ) ) ) ) ) ' ' ' U.~ ~ d.{ T.^ ) ) ) ) ) ) ) g.O.{ ",
"' , , , ' ' ' ' ' ' ' ' ' 8.V.~ ~ ~ d.{ T.6.W.G.G.G.D.}.X.Y.O.{ ",
"Z.Z.Z.Z.Z.Z.Z.Z.Z.Z.Z.Z.( ( ( ( ( ( `.{ {  +{ { { { { { {  +{ { ",
".+++8 @+#+$+%+&+*+*+=+=+-+;+{ { { { { { >+,+'+8 -+-+)+)+)+)+)+-+"};
