/* XPM */
static char * lava1_xpm[] = {
"32 32 294 2",
"  	c #010100",
". 	c #000000",
"+ 	c #020300",
"@ 	c #090901",
"# 	c #0D0D01",
"$ 	c #0E0E01",
"% 	c #080A00",
"& 	c #000200",
"* 	c #010000",
"= 	c #050700",
"- 	c #D36500",
"; 	c #FF7600",
"> 	c #B65100",
", 	c #3D2400",
"' 	c #706630",
") 	c #38361A",
"! 	c #0A0904",
"~ 	c #251600",
"{ 	c #C55800",
"] 	c #FF5300",
"^ 	c #FD4900",
"/ 	c #FF4C00",
"( 	c #FB5E00",
"_ 	c #FC6B00",
": 	c #F46E00",
"< 	c #773D00",
"[ 	c #0B0500",
"} 	c #746A33",
"| 	c #716733",
"1 	c #534A25",
"2 	c #1E1D0C",
"3 	c #2F0F00",
"4 	c #9C3000",
"5 	c #DE4400",
"6 	c #FE5200",
"7 	c #FF4F00",
"8 	c #FF4900",
"9 	c #FE4A00",
"0 	c #FE4E00",
"a 	c #FF5000",
"b 	c #FF5E00",
"c 	c #E97200",
"d 	c #E17B00",
"e 	c #726834",
"f 	c #756933",
"g 	c #6F6730",
"h 	c #62592C",
"i 	c #363117",
"j 	c #090B04",
"k 	c #0F0800",
"l 	c #491C00",
"m 	c #7D2100",
"n 	c #892900",
"o 	c #772D00",
"p 	c #6B2100",
"q 	c #6C1D00",
"r 	c #681E00",
"s 	c #722000",
"t 	c #942B00",
"u 	c #C43B00",
"v 	c #F34A00",
"w 	c #FE4D00",
"x 	c #FF4B00",
"y 	c #FF4D00",
"z 	c #FF4A00",
"A 	c #FE4800",
"B 	c #FD6400",
"C 	c #FF6000",
"D 	c #716734",
"E 	c #736934",
"F 	c #726833",
"G 	c #6A622F",
"H 	c #544C24",
"I 	c #1E1D10",
"J 	c #0C0700",
"K 	c #3C1700",
"L 	c #6A1C00",
"M 	c #8D2A00",
"N 	c #C84200",
"O 	c #F24C00",
"P 	c #E54400",
"Q 	c #DB4100",
"R 	c #E64300",
"S 	c #F44B00",
"T 	c #F84F00",
"U 	c #FE4F00",
"V 	c #FF5100",
"W 	c #FF5200",
"X 	c #FD4C00",
"Y 	c #FB4B00",
"Z 	c #FC4E00",
"` 	c #FF4700",
" .	c #736A33",
"..	c #706732",
"+.	c #5F582C",
"@.	c #464320",
"#.	c #030300",
"$.	c #020100",
"%.	c #090300",
"&.	c #0C0300",
"*.	c #1D0700",
"=.	c #6A1E00",
"-.	c #D43F00",
";.	c #FB5300",
">.	c #FD5100",
",.	c #FF4E00",
"'.	c #FF4500",
").	c #FF3E00",
"!.	c #FF3900",
"~.	c #FF3500",
"{.	c #FF3A00",
"].	c #746834",
"^.	c #746B35",
"/.	c #564E26",
"(.	c #23200D",
"_.	c #0D0300",
":.	c #1E0800",
"<.	c #CC3E00",
"[.	c #FA4700",
"}.	c #FF4400",
"|.	c #FF3700",
"1.	c #FF3100",
"2.	c #FF2700",
"3.	c #FF1300",
"4.	c #FF0800",
"5.	c #FF0700",
"6.	c #FF0D00",
"7.	c #FF2F00",
"8.	c #FF3C00",
"9.	c #FF4600",
"0.	c #FF5600",
"a.	c #746934",
"b.	c #746A35",
"c.	c #685F2E",
"d.	c #4A421F",
"e.	c #1B180B",
"f.	c #210D00",
"g.	c #720F00",
"h.	c #F51100",
"i.	c #FF1700",
"j.	c #FF0E00",
"k.	c #FF0900",
"l.	c #FF0600",
"m.	c #FF0100",
"n.	c #FF0000",
"o.	c #FF2A00",
"p.	c #736935",
"q.	c #746A34",
"r.	c #736834",
"s.	c #645B2D",
"t.	c #4A4522",
"u.	c #1F1E0D",
"v.	c #0E0000",
"w.	c #410000",
"x.	c #AF0300",
"y.	c #FD0000",
"z.	c #FF1200",
"A.	c #FF3F00",
"B.	c #FF5500",
"C.	c #716732",
"D.	c #736933",
"E.	c #726733",
"F.	c #61582B",
"G.	c #4B4521",
"H.	c #23200F",
"I.	c #1F0000",
"J.	c #700000",
"K.	c #E90000",
"L.	c #FF0300",
"M.	c #FF1000",
"N.	c #FF1E00",
"O.	c #706632",
"P.	c #706933",
"Q.	c #5F542A",
"R.	c #2A2713",
"S.	c #0B0B06",
"T.	c #100000",
"U.	c #7F0000",
"V.	c #F30000",
"W.	c #746833",
"X.	c #625B2C",
"Y.	c #3E391D",
"Z.	c #161509",
"`.	c #190000",
" +	c #4D0000",
".+	c #9E0000",
"++	c #726933",
"@+	c #685D2E",
"#+	c #4E4621",
"$+	c #272410",
"%+	c #070702",
"&+	c #020000",
"*+	c #230000",
"=+	c #8D0000",
"-+	c #C00000",
";+	c #F60000",
">+	c #736833",
",+	c #6E6531",
"'+	c #585127",
")+	c #342F17",
"!+	c #121108",
"~+	c #180000",
"{+	c #460000",
"]+	c #990000",
"^+	c #C60000",
"/+	c #EC0000",
"(+	c #6F6632",
"_+	c #433F1D",
":+	c #1F1C0F",
"<+	c #060402",
"[+	c #050000",
"}+	c #270000",
"|+	c #480000",
"1+	c #900000",
"2+	c #D90000",
"3+	c #726734",
"4+	c #726934",
"5+	c #6B612F",
"6+	c #544D26",
"7+	c #322C16",
"8+	c #0F0D06",
"9+	c #240000",
"0+	c #560000",
"a+	c #E00000",
"b+	c #716834",
"c+	c #746933",
"d+	c #655D2C",
"e+	c #443E1D",
"f+	c #1F1C0D",
"g+	c #090903",
"h+	c #440000",
"i+	c #746B33",
"j+	c #716631",
"k+	c #585027",
"l+	c #151409",
"m+	c #020201",
"n+	c #726835",
"o+	c #756A35",
"p+	c #6A5F2F",
"q+	c #4C4421",
"r+	c #262310",
"s+	c #0C0C05",
"t+	c #706634",
"u+	c #756B34",
"v+	c #5E5529",
"w+	c #383418",
"x+	c #1D1B0D",
"y+	c #0F0F07",
"z+	c #6C622F",
"A+	c #62592A",
"B+	c #564F27",
"C+	c #3F3A1C",
"D+	c #68612E",
"E+	c #685E2E",
"F+	c #695E2E",
"G+	c #6B6230",
"H+	c #695F2F",
"I+	c #69602E",
"J+	c #685F2D",
"K+	c #69602F",
"L+	c #6F6633",
"M+	c #706633",
"N+	c #736734",
"O+	c #706631",
"P+	c #685F2F",
"Q+	c #756A36",
"R+	c #756B35",
"S+	c #756B36",
"T+	c #746A36",
"U+	c #766C34",
"V+	c #766C35",
"W+	c #766D35",
"X+	c #776C36",
"Y+	c #786E37",
"Z+	c #786C37",
"`+	c #786D37",
" @	c #786C36",
".@	c #6E6431",
"+@	c #6D6430",
"@@	c #5C5328",
"#@	c #5A5328",
"$@	c #5C522A",
"%@	c #5C542A",
"&@	c #595127",
"*@	c #544C25",
"=@	c #534B26",
"-@	c #4F4722",
";@	c #474120",
">@	c #453F1D",
",@	c #46401F",
"'@	c #433E1E",
")@	c #413B1C",
"!@	c #494220",
"~@	c #5E572A",
"  . . . . . . .   . + @ # $ % . & . * . . . . . = - ; > , & . . ",
"' ) ! . . . . . . . . . .   . . . . . . . . ~ { ] ^ / ( _ : < [ ",
"} | 1 2 . . . . . . . . * * * * * * . . 3 4 5 6 7 8 9 0 a b c d ",
"e f g h i j . . . . k l m n o p q r s t u v w x x y / z A 0 B C ",
"D e E F G H I . . . J K L M N O P Q R S T U V a W ] W y X Y Z ` ",
"e e D e  ...+.@.#.. $.%.&.*.=.-.7 ;.>.,./ x '.).!.~.{.z 7 y x ] ",
"e e e e D e ].^./.(.. . . * _.:.<.[.}.}.|.1.2.3.4.5.6.7.8.9.y 0.",
"e e e e e D e a.b.c.d.e.. . . . f.g.h.i.j.k.l.m.n.n.n.k.l.o.7 V ",
"e e e e e e e | p.q.r.s.t.u.. . . v.w.x.n.n.y.n.n.n.n.n.n.z.A.B.",
"e e e e e e e e e F C.D.E.F.G.H.. . . I.J.K.n.n.n.n.n.n.n.L.M.N.",
"e e e e e e e e e | O.| ].D.P.Q.R.S.. . T.w.U.V.n.n.n.n.n.n.n.m.",
"e e e e e e e e e e e e e | E W.X.Y.Z.  . . `. +.+n.n.n.n.n.n.n.",
"e e e e e e e e e e e e e e e e ++@+#+$+%+. &+. *+=+-+;+n.n.n.n.",
"e e e e e e e e e e e e e e e e e >+,+'+)+!+. . . ~+{+]+^+/+n.n.",
"e e e e e e e e e e e e e e e e D e D.(+h _+:+<+. . [+}+|+1+2+n.",
"e e e e e e e e e e e e e e e e e 3+e 4+F 5+6+7+8+* . . &+9+0+a+",
"e e e e e e e e e e e e e e e e e e b+3+E c+E.d+e+f+g+. . . . h+",
"e e e e e e e e e e e e e e e e e e e e D F b.i+j+k+i l+m+. . . ",
"e e e e e e e e e e e e e e e e e e e e e e | n+o+a.p+q+r+s+. . ",
"e e e e e e e e e e e e e e e e e e e e e e e e t+C.u+E.v+w+x+y+",
"e e e e e e e e e e e e e e e e e e e e e e e e e e E.C.z+A+B+C+",
"e e e e e e e e e e e e e e e e e e e e e e e e e e e | z+D+E+F+",
"e e e e e e e e e e e e e e e e e e e e e e e e e e e | G+H+I+| ",
"e e e e e e e e e e e e e e e e e e e e e e e e e e e | G+J+K+L+",
"e e e e e e e e e e e e e e e e e e e e e e e e e e e | G+c.K+(+",
"e e e e e e e e e e e e e e e e e e e e e e e e e e e | G+c.K+M+",
"e e e e e e e e e e e e e e e e e e e e e e e e e e e | G+c.K+L+",
"e e e e e e e e e e e e e e e e e e e e e e e e e e e | G+c.K+E.",
"e e e e e e e e e e e e e e e e e e e e e e e e e e e | G+c.K+E.",
"e e e e e e e e e e e e e e e e e e e e b+3+E N+N+r.3+O+z+P+K+E.",
"e Q+R+S+S+S+S+S+S+S+S+S+S+S+S+S+T+u+U+V+W+X+Y+Z+Z+`+ @f M+.@+@f ",
"s.@@#@$@%@%@%@%@%@%@%@%@%@%@%@%@%@&@*@=@-@;@>@;@;@;@,@'@)@)@!@~@"};
