/* XPM */
static char * lava2_xpm[] = {
"32 32 412 2",
"  	c #000000",
". 	c #010100",
"+ 	c #010000",
"@ 	c #0D0900",
"# 	c #9F4E00",
"$ 	c #FF8D00",
"% 	c #FF9200",
"& 	c #B35600",
"* 	c #160A00",
"= 	c #140700",
"- 	c #0A0500",
"; 	c #6C3600",
"> 	c #C25D00",
", 	c #F57F00",
"' 	c #FD8A00",
") 	c #FE6100",
"! 	c #FF5100",
"~ 	c #FF4A00",
"{ 	c #F25100",
"] 	c #964700",
"^ 	c #292000",
"/ 	c #130E00",
"( 	c #190A00",
"_ 	c #1E1100",
": 	c #AA5C00",
"< 	c #DE7100",
"[ 	c #C36500",
"} 	c #7C4000",
"| 	c #512B00",
"1 	c #3D2400",
"2 	c #020200",
"3 	c #000100",
"4 	c #1C1900",
"5 	c #572400",
"6 	c #B25500",
"7 	c #D86C00",
"8 	c #E97200",
"9 	c #F95800",
"0 	c #FF5400",
"a 	c #FC4D00",
"b 	c #FB4B00",
"c 	c #FF4F00",
"d 	c #F24C00",
"e 	c #D74800",
"f 	c #D05F00",
"g 	c #DC7700",
"h 	c #BD6601",
"i 	c #E37000",
"j 	c #FF7B00",
"k 	c #FB7300",
"l 	c #E66A00",
"m 	c #CF5F00",
"n 	c #C54C00",
"o 	c #A64400",
"p 	c #954900",
"q 	c #985300",
"r 	c #9B5200",
"s 	c #9B5400",
"t 	c #9A5400",
"u 	c #994800",
"v 	c #A13100",
"w 	c #B83B00",
"x 	c #D34600",
"y 	c #FE5B00",
"z 	c #FC6100",
"A 	c #FD5E00",
"B 	c #FE4C00",
"C 	c #FF4600",
"D 	c #FF4800",
"E 	c #FF4900",
"F 	c #FF4C00",
"G 	c #FF4D00",
"H 	c #FE4A00",
"I 	c #FC4F00",
"J 	c #FB6900",
"K 	c #FF7200",
"L 	c #E66901",
"M 	c #E15400",
"N 	c #FF5A00",
"O 	c #FD5A00",
"P 	c #FD5D00",
"Q 	c #FA5E00",
"R 	c #F85200",
"S 	c #F55B00",
"T 	c #F26600",
"U 	c #F27600",
"V 	c #F47500",
"W 	c #F46300",
"X 	c #F36C00",
"Y 	c #F27000",
"Z 	c #F36400",
"` 	c #F54D00",
" .	c #F74B00",
"..	c #FB4E00",
"+.	c #FF4B00",
"@.	c #FF4E00",
"#.	c #FF5000",
"$.	c #FE4B00",
"%.	c #FB4A00",
"&.	c #FC5400",
"*.	c #DF4C01",
"=.	c #DF3400",
"-.	c #FC4C00",
";.	c #FB4900",
">.	c #FD5900",
",.	c #FB5800",
"'.	c #FC3D00",
").	c #FF4700",
"!.	c #FF4300",
"~.	c #DF3D01",
"{.	c #D52D00",
"].	c #FD4B00",
"^.	c #FF4500",
"/.	c #FF4000",
"(.	c #FF3400",
"_.	c #FF2600",
":.	c #FF2100",
"<.	c #FF3A00",
"[.	c #FF5200",
"}.	c #D34200",
"|.	c #FF2E00",
"1.	c #FF3600",
"2.	c #FF0D00",
"3.	c #FF0F00",
"4.	c #FF0A00",
"5.	c #FF0E00",
"6.	c #FF0600",
"7.	c #FF0400",
"8.	c #FF1A00",
"9.	c #FF2800",
"0.	c #DF4601",
"a.	c #E45100",
"b.	c #FF3000",
"c.	c #FF5800",
"d.	c #FF5500",
"e.	c #FF5700",
"f.	c #FF4100",
"g.	c #FF1B00",
"h.	c #FF1700",
"i.	c #FF0C00",
"j.	c #FF0900",
"k.	c #FF1200",
"l.	c #FF0000",
"m.	c #DF4B01",
"n.	c #D92D00",
"o.	c #FF1D00",
"p.	c #FF1400",
"q.	c #FF1900",
"r.	c #FF2200",
"s.	c #FF1500",
"t.	c #FF0300",
"u.	c #FF0200",
"v.	c #FF1100",
"w.	c #DF3A01",
"x.	c #D10F00",
"y.	c #FF0100",
"z.	c #DF1301",
"A.	c #D00600",
"B.	c #DF0301",
"C.	c #D10500",
"D.	c #DF0401",
"E.	c #DF0601",
"F.	c #D30600",
"G.	c #E10601",
"H.	c #E50600",
"I.	c #FB0000",
"J.	c #FD0000",
"K.	c #FC0000",
"L.	c #F40500",
"M.	c #FE0000",
"N.	c #F10000",
"O.	c #D10000",
"P.	c #D50000",
"Q.	c #D40000",
"R.	c #E40000",
"S.	c #E50000",
"T.	c #C90601",
"U.	c #980200",
"V.	c #940000",
"W.	c #8A0000",
"X.	c #8B0000",
"Y.	c #8C0000",
"Z.	c #890000",
"`.	c #9B0000",
" +	c #9A0000",
".+	c #930000",
"++	c #8F0000",
"@+	c #7B0000",
"#+	c #5C0000",
"$+	c #600000",
"%+	c #5E0000",
"&+	c #700000",
"*+	c #6C0000",
"=+	c #640301",
"-+	c #170000",
";+	c #040000",
">+	c #140000",
",+	c #130000",
"'+	c #150000",
")+	c #0A0000",
"!+	c #020300",
"~+	c #020100",
"{+	c #050401",
"]+	c #050604",
"^+	c #060401",
"/+	c #030201",
"(+	c #040400",
"_+	c #030302",
":+	c #060502",
"<+	c #080804",
"[+	c #090804",
"}+	c #090904",
"|+	c #080904",
"1+	c #0A0902",
"2+	c #060501",
"3+	c #020201",
"4+	c #040401",
"5+	c #22200F",
"6+	c #232310",
"7+	c #211D0E",
"8+	c #1B180C",
"9+	c #151209",
"0+	c #141107",
"a+	c #131109",
"b+	c #1F1B0B",
"c+	c #1F1D0F",
"d+	c #262210",
"e+	c #2C2814",
"f+	c #2E2B15",
"g+	c #2F2C15",
"h+	c #2E2B12",
"i+	c #24220F",
"j+	c #1B170B",
"k+	c #141309",
"l+	c #121108",
"m+	c #131208",
"n+	c #141209",
"o+	c #131108",
"p+	c #111007",
"q+	c #0F0E06",
"r+	c #0A0A05",
"s+	c #0B0904",
"t+	c #130F05",
"u+	c #4D4823",
"v+	c #504C22",
"w+	c #4C4623",
"x+	c #484220",
"y+	c #464020",
"z+	c #443E1E",
"A+	c #46401D",
"B+	c #4D4622",
"C+	c #524825",
"D+	c #595027",
"E+	c #5D5529",
"F+	c #60582B",
"G+	c #61582B",
"H+	c #5E562B",
"I+	c #564E25",
"J+	c #4B4420",
"K+	c #46411F",
"L+	c #453F1E",
"M+	c #46401F",
"N+	c #453E1F",
"O+	c #403B1C",
"P+	c #393318",
"Q+	c #2F2D15",
"R+	c #352A12",
"S+	c #3E2F17",
"T+	c #575026",
"U+	c #635C2E",
"V+	c #655D2E",
"W+	c #665D2C",
"X+	c #6A612F",
"Y+	c #6A6031",
"Z+	c #696030",
"`+	c #6B612F",
" @	c #6E6431",
".@	c #6F6632",
"+@	c #706433",
"@@	c #706733",
"#@	c #716733",
"$@	c #6F6531",
"%@	c #6E6330",
"&@	c #6B6230",
"*@	c #6A6030",
"=@	c #6B6031",
"-@	c #6B6131",
";@	c #655C2C",
">@	c #5E552A",
",@	c #57542A",
"'@	c #5F4923",
")@	c #634925",
"!@	c #564F26",
"~@	c #675F30",
"{@	c #6C6432",
"]@	c #6D6430",
"^@	c #736933",
"/@	c #756B35",
"(@	c #736A35",
"_@	c #746835",
":@	c #726935",
"<@	c #736934",
"[@	c #726835",
"}@	c #736935",
"|@	c #746A35",
"1@	c #756A35",
"2@	c #6F6530",
"3@	c #685F2D",
"4@	c #666231",
"5@	c #70552A",
"6@	c #6E5629",
"7@	c #574F26",
"8@	c #665E2F",
"9@	c #6B6231",
"0@	c #6B622F",
"a@	c #706732",
"b@	c #726834",
"c@	c #726833",
"d@	c #6C622F",
"e@	c #645C2D",
"f@	c #656230",
"g@	c #6F552B",
"h@	c #715529",
"i@	c #554F26",
"j@	c #665E2D",
"k@	c #6A6231",
"l@	c #6A622F",
"m@	c #716632",
"n@	c #6D6332",
"o@	c #665C2D",
"p@	c #635F2E",
"q@	c #6C582C",
"r@	c #6D562B",
"s@	c #544D26",
"t@	c #645E2E",
"u@	c #695F2F",
"v@	c #6F6532",
"w@	c #6D6331",
"x@	c #665D2E",
"y@	c #645E2D",
"z@	c #69592A",
"A@	c #6A582C",
"B@	c #514B26",
"C@	c #665C2E",
"D@	c #6B6331",
"E@	c #6A602F",
"F@	c #706632",
"G@	c #665B2D",
"H@	c #665B2B",
"I@	c #524C26",
"J@	c #695F30",
"K@	c #685D2F",
"L@	c #746A33",
"M@	c #726A35",
"N@	c #746934",
"O@	c #716734",
"P@	c #736834",
"Q@	c #736734",
"R@	c #726734",
"S@	c #716834",
"T@	c #6A6130",
"U@	c #685F2E",
"V@	c #6B622E",
"W@	c #685E30",
"X@	c #544E28",
"Y@	c #6F6732",
"Z@	c #746B35",
"`@	c #746834",
" #	c #6E6333",
".#	c #6A622E",
"+#	c #6E6232",
"@#	c #736833",
"##	c #756A34",
"$#	c #786D36",
"%#	c #786D37",
"&#	c #786C37",
"*#	c #786E37",
"=#	c #776C35",
"-#	c #766B36",
";#	c #756C36",
">#	c #766D36",
",#	c #726733",
"'#	c #6D6230",
")#	c #6F6832",
"!#	c #736532",
"~#	c #756231",
"{#	c #746733",
"]#	c #433F1C",
"^#	c #484321",
"/#	c #4B4522",
"(#	c #504924",
"_#	c #4D4720",
":#	c #474020",
"<#	c #3D371B",
"[#	c #3A3318",
"}#	c #363319",
"|#	c #3E381A",
"1#	c #433D1E",
"2#	c #474120",
"3#	c #453F1D",
"4#	c #454020",
"5#	c #4A4321",
"6#	c #4F4723",
"7#	c #514925",
"8#	c #514A25",
"9#	c #514924",
"0#	c #4F4823",
"a#	c #4D4722",
"b#	c #4C4923",
"c#	c #514321",
"d#	c #554120",
"e#	c #514723",
"              . . . . . . . .         +   @ # $ % &             ",
"* =   + +                       +   - ; > , ' ) ! ~ { ] ^ / ( _ ",
": < [ } | 1 2   . . . . . + 3 4 5 6 7 8 9 0 0 a b ~ c d e f g h ",
"i j k l m n o p q r s t q u v w x y z A B C D E F G F H I J K L ",
"M N O P Q R S T U V W X Y Z `  ...F +.+.+.F @.F c #.@.$.%.&.0 *.",
"=.D G +.F G -.;.>.,.'.).#.G G c c G F c #.@.+.@.C !.F c @.F c ~.",
"{.E @.F +.F B ].F ].H F F G G E +.+.F ).^./.(./._.:.<.).D ~ [.~.",
"}.G +.F G @.@.@.F ~ G +.+.G @.(.|.1.C :.2.3.4.5.6.7.5.8.9.E [.0.",
"a.! b.).c.! [.d.e.D f.1.g.h.8.i.j.2.k.6.l.l.l.l.l.l.l.l.3.!.e.m.",
"n.o.4.p.q.r.8.q.8.s.k.2.t.l.u.l.l.l.l.l.l.l.l.l.l.l.l.l.u.v.<.w.",
"x.y.l.l.l.7.l.l.l.l.l.l.l.l.l.l.l.l.l.l.l.l.l.l.l.l.l.l.l.l.3.z.",
"A.l.l.l.l.l.l.l.l.l.l.l.l.l.l.l.l.l.l.l.l.l.l.l.l.l.l.l.l.l.l.B.",
"C.l.l.l.l.l.l.l.l.l.l.l.l.l.l.l.l.l.l.l.l.l.l.l.l.l.l.l.l.l.l.D.",
"A.l.l.l.l.l.l.l.l.l.l.l.l.l.l.l.l.l.l.l.l.l.l.l.l.l.l.l.l.l.l.E.",
"F.l.l.l.l.l.l.l.l.l.l.l.l.l.l.l.l.l.l.l.l.l.l.l.l.l.l.l.l.l.l.G.",
"H.l.l.l.l.l.l.l.l.l.l.l.l.l.l.l.l.l.l.l.l.l.l.l.I.J.K.J.l.l.l.G.",
"L.l.M.M.M.M.M.K.M.M.M.M.M.M.M.M.M.M.M.M.M.M.l.N.O.P.Q.R.J.l.S.T.",
"U.V.W.W.X.Y.Y.Z.W.`. + + + + + + + +`..+Z.X.++@+#+$+%+&+X.++*+=+",
"-+;+  + + + +     >+>+>+>+>+>+>+>+,+'+)+  + + + + + + + 3 + !+~+",
"{+]+^+/+  3   (+_+:+<+[+}+}+}+|+1+2+3+      . . . +       . 4+2 ",
"5+6+7+8+9+0+a+b+c+d+e+f+g+g+g+g+h+i+j+k+l+m+k+k+k+n+o+p+q+r+s+t+",
"u+v+w+x+y+z+A+B+C+D+E+F+G+G+G+G+H+I+J+K+z+L+M+M+M+M+N+O+P+Q+R+S+",
"T+U+V+W+X+Y+Z+`+ @.@+@@@#@#@#@#@$@%@&@`+*@=@-@-@-@-@X+;@>@,@'@)@",
"!@~@{@]@^@/@/@(@_@:@<@^@<@<@<@^@[@}@|@1@/@/@/@/@/@/@/@2@3@4@5@6@",
"7@8@9@0@a@b@b@b@b@b@b@b@b@b@b@b@b@b@b@b@b@b@b@b@b@b@c@d@e@f@g@h@",
"i@j@k@l@m@b@b@b@b@b@b@b@b@b@b@b@b@b@b@b@b@b@b@b@b@b@b@n@o@p@q@r@",
"s@t@9@u@v@b@b@b@b@b@b@b@b@b@b@b@b@b@b@b@b@b@b@b@b@b@b@w@x@y@z@A@",
"B@C@D@E@F@b@b@b@b@b@b@b@b@b@b@b@b@b@b@b@b@b@b@b@b@#@$@$@`+;@G@H@",
"I@V+9@E@F@b@b@b@b@b@b@b@b@b@b@b@b@b@b@b@b@b@b@b@b@c@F@w@J@8@j@K@",
"I@V+9@E@F@b@b@L@|@M@N@c@O@b@P@Q@Q@<@P@R@S@b@b@b@b@c@F@T@U@l@V@W@",
"X@E@Y@2@^@Z@`@ #&@.#+#@###$#%#&#&#*#$#=#-#;#>#>#>#>#,#'#)#!#~#{#",
"]#^#B+/#(#_#:#<#[#}#|#1#M+2#2#2#2#3#4#5#6#7#8#8#8#9#0#a#b#c#d#e#"};
