/* XPM */
static char * lava3_xpm[] = {
"32 32 298 2",
"  	c #000000",
". 	c #000200",
"+ 	c #3D2400",
"@ 	c #B65100",
"# 	c #FF7600",
"$ 	c #D36500",
"% 	c #050700",
"& 	c #010000",
"* 	c #080A00",
"= 	c #0E0E01",
"- 	c #0D0D01",
"; 	c #090901",
"> 	c #020300",
", 	c #010100",
"' 	c #0B0500",
") 	c #773D00",
"! 	c #F46E00",
"~ 	c #FC6B00",
"{ 	c #FB5E00",
"] 	c #FF4C00",
"^ 	c #FD4900",
"/ 	c #FF5300",
"( 	c #C55700",
"_ 	c #251600",
": 	c #0A0904",
"< 	c #38361A",
"[ 	c #706730",
"} 	c #E17B00",
"| 	c #E97200",
"1 	c #FF5E00",
"2 	c #FF5000",
"3 	c #FE4E00",
"4 	c #FE4A00",
"5 	c #FF4900",
"6 	c #FF4F00",
"7 	c #FE5200",
"8 	c #DE4400",
"9 	c #9C3000",
"0 	c #2F0F00",
"a 	c #1E1D0C",
"b 	c #534A25",
"c 	c #716733",
"d 	c #746A33",
"e 	c #FF6000",
"f 	c #FD6400",
"g 	c #FE4800",
"h 	c #FF4A00",
"i 	c #FF4D00",
"j 	c #FF4B00",
"k 	c #FE4D00",
"l 	c #F34A00",
"m 	c #C43B00",
"n 	c #942B00",
"o 	c #722000",
"p 	c #681E00",
"q 	c #6C1D00",
"r 	c #6B2200",
"s 	c #772D00",
"t 	c #892900",
"u 	c #7D2100",
"v 	c #491C00",
"w 	c #0F0800",
"x 	c #090B04",
"y 	c #363117",
"z 	c #62592C",
"A 	c #6F6730",
"B 	c #756933",
"C 	c #716834",
"D 	c #FF4700",
"E 	c #FC4E00",
"F 	c #FB4B00",
"G 	c #FE4C00",
"H 	c #FF5200",
"I 	c #FE4F00",
"J 	c #F84F00",
"K 	c #F44B00",
"L 	c #E64300",
"M 	c #DB4100",
"N 	c #E54400",
"O 	c #F24C00",
"P 	c #C84200",
"Q 	c #8D2A00",
"R 	c #6A1C00",
"S 	c #3C1700",
"T 	c #0C0700",
"U 	c #1E1D10",
"V 	c #544C24",
"W 	c #6A622F",
"X 	c #726833",
"Y 	c #736934",
"Z 	c #726834",
"` 	c #716734",
" .	c #FF3A00",
"..	c #FF3500",
"+.	c #FF3900",
"@.	c #FF3E00",
"#.	c #FF4500",
"$.	c #FF4E00",
"%.	c #FD5100",
"&.	c #FB5300",
"*.	c #D43F00",
"=.	c #6A1E00",
"-.	c #1D0700",
";.	c #0C0300",
">.	c #090300",
",.	c #020100",
"'.	c #030300",
").	c #464320",
"!.	c #5F582C",
"~.	c #706732",
"{.	c #736A33",
"].	c #FF5600",
"^.	c #FF4600",
"/.	c #FF3C00",
"(.	c #FF2F00",
"_.	c #FF0D00",
":.	c #FF0700",
"<.	c #FF0800",
"[.	c #FF1300",
"}.	c #FF2700",
"|.	c #FF3100",
"1.	c #FF3700",
"2.	c #FF4400",
"3.	c #FA4700",
"4.	c #CC3E00",
"5.	c #1E0800",
"6.	c #0D0300",
"7.	c #23200D",
"8.	c #564E26",
"9.	c #746B35",
"0.	c #746834",
"a.	c #FF5100",
"b.	c #FF2A00",
"c.	c #FF0600",
"d.	c #FF0900",
"e.	c #FF0000",
"f.	c #FF0200",
"g.	c #FF0E00",
"h.	c #FF1700",
"i.	c #F51100",
"j.	c #720F00",
"k.	c #210D00",
"l.	c #1B180B",
"m.	c #4A4220",
"n.	c #695F2E",
"o.	c #746A35",
"p.	c #746934",
"q.	c #FF5500",
"r.	c #FF3F00",
"s.	c #FF1200",
"t.	c #FD0000",
"u.	c #AF0300",
"v.	c #410000",
"w.	c #0E0000",
"x.	c #1F1E0D",
"y.	c #4A4522",
"z.	c #645B2D",
"A.	c #736834",
"B.	c #746A34",
"C.	c #736935",
"D.	c #FF1E00",
"E.	c #FF1000",
"F.	c #FF0300",
"G.	c #E90000",
"H.	c #700000",
"I.	c #1F0000",
"J.	c #23200F",
"K.	c #4B4521",
"L.	c #61582B",
"M.	c #726733",
"N.	c #736933",
"O.	c #716732",
"P.	c #FF0100",
"Q.	c #F30000",
"R.	c #7F0000",
"S.	c #100000",
"T.	c #0B0B06",
"U.	c #2A2713",
"V.	c #5F542A",
"W.	c #716933",
"X.	c #706632",
"Y.	c #9E0000",
"Z.	c #4D0000",
"`.	c #190000",
" +	c #161509",
".+	c #3E391D",
"++	c #625B2C",
"@+	c #746833",
"#+	c #F60000",
"$+	c #C00000",
"%+	c #8D0000",
"&+	c #230000",
"*+	c #020000",
"=+	c #070702",
"-+	c #272410",
";+	c #4E4621",
">+	c #685D2E",
",+	c #726933",
"'+	c #EC0000",
")+	c #C60000",
"!+	c #990000",
"~+	c #460000",
"{+	c #180000",
"]+	c #121108",
"^+	c #342F17",
"/+	c #585127",
"(+	c #6E6531",
"_+	c #736833",
":+	c #D90000",
"<+	c #900000",
"[+	c #480000",
"}+	c #270000",
"|+	c #050000",
"1+	c #060402",
"2+	c #1F1C0F",
"3+	c #433F1D",
"4+	c #6F6632",
"5+	c #E00000",
"6+	c #560000",
"7+	c #240000",
"8+	c #0F0D06",
"9+	c #322C16",
"0+	c #544D26",
"a+	c #6B612F",
"b+	c #726934",
"c+	c #726734",
"d+	c #440000",
"e+	c #090903",
"f+	c #1F1C0D",
"g+	c #443E1D",
"h+	c #655D2C",
"i+	c #746933",
"j+	c #020201",
"k+	c #151409",
"l+	c #585027",
"m+	c #716631",
"n+	c #746B33",
"o+	c #746935",
"p+	c #0C0C05",
"q+	c #262310",
"r+	c #4C4421",
"s+	c #6A5F2F",
"t+	c #756A35",
"u+	c #726835",
"v+	c #100F07",
"w+	c #1D1B0D",
"x+	c #383418",
"y+	c #5E5529",
"z+	c #756B34",
"A+	c #706634",
"B+	c #3F3A1C",
"C+	c #564F27",
"D+	c #62592A",
"E+	c #6C622F",
"F+	c #695E2E",
"G+	c #685E2E",
"H+	c #68612E",
"I+	c #69602E",
"J+	c #695F2F",
"K+	c #6B6230",
"L+	c #6F6633",
"M+	c #69602F",
"N+	c #685F2D",
"O+	c #685F2E",
"P+	c #706633",
"Q+	c #685F2F",
"R+	c #706631",
"S+	c #736734",
"T+	c #6D6430",
"U+	c #6E6431",
"V+	c #786C36",
"W+	c #786D37",
"X+	c #786C37",
"Y+	c #786E37",
"Z+	c #776C36",
"`+	c #766D35",
" @	c #766C35",
".@	c #766C34",
"+@	c #746B34",
"@@	c #746A36",
"#@	c #756B36",
"$@	c #756B35",
"%@	c #756A36",
"&@	c #5E572A",
"*@	c #494220",
"=@	c #413B1C",
"-@	c #433E1E",
";@	c #46401F",
">@	c #474120",
",@	c #453F1D",
"'@	c #4F4722",
")@	c #534B26",
"!@	c #544C25",
"~@	c #595127",
"{@	c #5C542A",
"]@	c #5C522A",
"^@	c #5A5328",
"/@	c #5C5329",
"    . + @ # $ %           &   .   * = - ; >   ,               , ",
"' ) ! ~ { ] ^ / ( _                 ,                     : < [ ",
"} | 1 2 3 4 5 6 7 8 9 0     & & & & & &                 a b c d ",
"e f 3 g h ] i j ] k l m n o p q r s t u v w         x y z A B C ",
"D E F G i H / H 2 2 I J K L M N O P Q R S T       U V W X Y Z ` ",
"/ j i 6 h  ...+.@.#.j ] $.%.&.6 *.=.-.;.>.,.  '.).!.~.{.Z ` Z Z ",
"].i ^./.(._.:.<.[.}.|.1.2.2.3.4.5.6.&       7.8.9.0.Z ` Z Z Z Z ",
"a.6 b.c.d.e.e.e.f.c.d.g.h.i.j.k.        l.m.n.o.p.Z ` Z Z Z Z Z ",
"q.r.s.e.e.e.e.e.e.t.e.e.u.v.w.      x.y.z.A.B.C.c Z Z Z Z Z Z Z ",
"D.E.F.e.e.e.e.e.e.e.G.H.I.      J.K.L.M.N.O.X Z Z Z Z Z Z Z Z Z ",
"P.e.e.e.e.e.e.e.Q.R.v.S.    T.U.V.W.N.0.c X.c Z Z Z Z Z Z Z Z Z ",
"e.e.e.e.e.e.e.Y.Z.`.    ,  +.+++@+Y c Z Z Z Z Z Z Z Z Z Z Z Z Z ",
"e.e.e.e.#+$+%+&+  *+  =+-+;+>+,+Z Z Z Z Z Z Z Z Z Z Z Z Z Z Z Z ",
"e.e.'+)+!+~+{+      ]+^+/+(+_+Z Z Z Z Z Z Z Z Z Z Z Z Z Z Z Z Z ",
"e.:+<+[+}+|+    1+2+3+z 4+N.Z ` Z Z Z Z Z Z Z Z Z Z Z Z Z Z Z Z ",
"5+6+7+*+    & 8+9+0+a+X b+Z c+Z Z Z Z Z Z Z Z Z Z Z Z Z Z Z Z Z ",
"d+        e+f+g+h+M.i+Y c+C Z Z Z Z Z Z Z Z Z Z Z Z Z Z Z Z Z Z ",
"      j+k+y l+m+n+o+X ` Z Z Z Z Z Z Z Z Z Z Z Z Z Z Z Z Z Z Z Z ",
"    p+q+r+s+p.t+u+c Z Z Z Z Z Z Z Z Z Z Z Z Z Z Z Z Z Z Z Z Z Z ",
"v+w+x+y+M.z+O.A+Z Z Z Z Z Z Z Z Z Z Z Z Z Z Z Z Z Z Z Z Z Z Z Z ",
"B+C+D+E+O.M.Z Z Z Z Z Z Z Z Z Z Z Z Z Z Z Z Z Z Z Z Z Z Z Z Z Z ",
"F+G+H+E+c Z Z Z Z Z Z Z Z Z Z Z Z Z Z Z Z Z Z Z Z Z Z Z Z Z Z Z ",
"O.I+J+K+c Z Z Z Z Z Z Z Z Z Z Z Z Z Z Z Z Z Z Z Z Z Z Z Z Z Z Z ",
"L+M+N+K+c Z Z Z Z Z Z Z Z Z Z Z Z Z Z Z Z Z Z Z Z Z Z Z Z Z Z Z ",
"4+M+O+K+c Z Z Z Z Z Z Z Z Z Z Z Z Z Z Z Z Z Z Z Z Z Z Z Z Z Z Z ",
"P+M+O+K+c Z Z Z Z Z Z Z Z Z Z Z Z Z Z Z Z Z Z Z Z Z Z Z Z Z Z Z ",
"L+M+O+K+c Z Z Z Z Z Z Z Z Z Z Z Z Z Z Z Z Z Z Z Z Z Z Z Z Z Z Z ",
"M.M+O+K+c Z Z Z Z Z Z Z Z Z Z Z Z Z Z Z Z Z Z Z Z Z Z Z Z Z Z Z ",
"M.M+O+K+c Z Z Z Z Z Z Z Z Z Z Z Z Z Z Z Z Z Z Z Z Z Z Z Z Z Z Z ",
"M.M+Q+E+R+c+A.S+S+Y c+C Z Z Z Z Z Z Z Z Z Z Z Z Z Z Z Z Z Z Z Z ",
"B T+U+P+B V+W+X+X+Y+Z+`+ @.@+@@@#@#@#@#@#@#@#@#@#@#@#@#@#@$@%@Z ",
"&@*@=@=@-@;@>@>@>@,@>@'@)@!@~@{@{@{@{@{@{@{@{@{@{@{@{@{@]@^@/@z."};
