/* XPM */
static char * level_background3_xpm[] = {
"32 32 35 1",
" 	c #1F2100",
".	c #1D1F00",
"+	c #1C1E00",
"@	c #202200",
"#	c #212302",
"$	c #1F2002",
"%	c #1E2002",
"&	c #222403",
"*	c #242604",
"=	c #242605",
"-	c #212305",
";	c #202205",
">	c #232503",
",	c #252705",
"'	c #262806",
")	c #232506",
"!	c #232405",
"~	c #222405",
"{	c #1F2105",
"]	c #272907",
"^	c #252707",
"/	c #252708",
"(	c #202107",
"_	c #282A08",
":	c #292B09",
"<	c #2A2C0A",
"[	c #282A0A",
"}	c #282A0B",
"|	c #28290B",
"1	c #222409",
"2	c #2C2E0C",
"3	c #292B0B",
"4	c #292A0B",
"5	c #2B2D0C",
"6	c #26270A",
"                          .+++++",
"                        @#$%%%%%",
" &***********************=--;;;;",
">,'''''''''''''''''''''''')!~~~{",
",''''''''''''''''''''''']]^////(",
",']_____________________:<[}|||1",
",'<222222222222222222222223}|||1",
",'<222222222222222222222224}|||1",
",'<222222222222222222222254}|||1",
",'<22222222222222222222225}}|||1",
",'<22222222222222222222225}}|||1",
",'<22222222222222222222225}}|||1",
",'<22222222222222222222225}}|||6",
",'<22222222222222222222225}}||||",
",'<22222222222222222222225}}||||",
",'<22222222222222222222225}}||||",
",'<22222222222222222222225}}||||",
",'<22222222222222222222225}}||||",
",'<22222222222222222222225}}||||",
",'<222222222222222222222254}||||",
",'<222222222222222222222254}||||",
",'<222222222222222222222253}||||",
",'<222222222222222222222223}||||",
",'<222222222222222222222223}||||",
",'<222222222222222222222223}||||",
",'<222222222222222222222223}||||",
",'<222222222222222222222223}||||",
",'<222222222222222222222223}||||",
",'<222222222222222222222223}||||",
",'<222222222222222222222223}||||",
",'<222222222222222222222223}||||",
",'<222222222222222222222223}||||"};
