/* XPM */
static char * level_background2_xpm[] = {
"32 32 24 1",
" 	c #1F2100",
".	c #242604",
"+	c #232503",
"@	c #222403",
"#	c #212302",
"$	c #222402",
"%	c #262806",
"&	c #252705",
"*	c #242605",
"=	c #202201",
"-	c #212300",
";	c #282A08",
">	c #272907",
",	c #2A2C0A",
"'	c #292B09",
")	c #2C2E0C",
"!	c #222400",
"~	c #242600",
"{	c #232500",
"]	c #232504",
"^	c #2B2D0B",
"/	c #262807",
"(	c #202200",
"_	c #212301",
"                                ",
"....+@@#########@+++$#          ",
"%%%&&&&*********&&&&&*.+$$+@=   ",
"%%%%%%%%%%%%%%%%%%%%%%&&&&&.#  -",
";;;;;;>>%%%%%%%%%%%%%%%%%%%*#  -",
",,,,,,,,';;;;;;;;;;;;;;;;;;>+  -",
"))))))))))))))))))))))))))),&  -",
"))))))))))))))))))))))))))),&  -",
"))))))))))))))))))))))))))),&  -",
"))))))))))))))))))))))))))),&  -",
"))))))))))))))))))))))))))),&  -",
"))))))))))))))))))))))))))),.  -",
")))))))))))))))))))))))))))'+  !",
")))))))))))))))))))))))))))'+  ~",
")))))))))))))))))))))))))))'+  ~",
")))))))))))))))))))))))))))'+  ~",
")))))))))))))))))))))))))))'+  ~",
")))))))))))))))))))))))))))'+  ~",
")))))))))))))))))))))))))))'+  ~",
")))))))))))))))))))))))))))'+  ~",
")))))))))))))))))))))))))))'+  ~",
")))))))))))))))))))))))))))'+  ~",
")))))))))))))))))))))))))))'+  ~",
")))))))))))))))))))))))))))'+  ~",
")))))))))))))))))))))))))))'+  {",
")))))))))))))))))))))))))))']  -",
"))))))))))))))))))))))))))),&  -",
"))))))))))))))))))))))))))),&   ",
")))))))))))))))))))))))))))^/   ",
"))))))))))))))))))))))))))),&  (",
")))))))))))))))))))))))))))'+  !",
")))))))))))))))))))))))))))>_  ~"};
