/* XPM */
static char * level_background1_xpm[] = {
"32 32 14 1",
" 	c #1F2100",
".	c #212302",
"+	c #222403",
"@	c #232503",
"#	c #222402",
"$	c #242605",
"%	c #252705",
"&	c #262806",
"*	c #292B09",
"=	c #282A08",
"-	c #2C2E0C",
";	c #2B2D0B",
">	c #2A2C0A",
",	c #272907",
"                                ",
"..................+@@@@@@+###...",
"$$$$$$$$$$$$$$$$$$%%%%%%%%%%%$$$",
"&&&&&&&&&&&&&&&&&&&&&&&&&&&&&&&&",
"************************========",
"------------------------;>>>>>>>",
"--------------------------------",
"--------------------------------",
"--------------------------------",
"--------------------------------",
"--------------------------------",
"--------------------------------",
"--------------------------------",
"--------------------------------",
"--------------------------------",
"--------------------------------",
"--------------------------------",
"--------------------------------",
"--------------------------------",
">-------------------------------",
">-------------------------------",
">-------------------------------",
">-------------------------------",
">-------------------------------",
"*-------------------------------",
"*-------------------------------",
"*-------------------------------",
"*-------------------------------",
"*-------------------------------",
"*-------------------------------",
"=>>>>>>>;-----------------------",
"&,,,,,,,=*>>>>;-----------------"};
