/* XPM */
static char *poison2_xpm[]={
"32 32 202 2",
".a c #000000",
"#2 c #010100",
"#H c #010300",
"#L c #020200",
"#K c #020201",
"#J c #030401",
"#G c #040d00",
"#1 c #050402",
"#I c #050501",
".b c #060600",
"#F c #061300",
"Qt c #070700",
".n c #070f05",
".i c #080800",
"#E c #081a00",
".# c #090a00",
"#D c #091d00",
".h c #0a0a00",
"#0 c #0b0a05",
"#A c #0c2700",
"#M c #0e0c06",
"#S c #0e0d06",
"#Z c #0e0d07",
".c c #0e0f00",
".j c #0e1f0a",
"#B c #0e2d00",
"#R c #0f0e07",
"#T c #111008",
"#C c #113400",
".d c #151700",
"#z c #153001",
"#Q c #16140a",
"#N c #17150b",
".e c #171900",
"#n c #173103",
"#U c #18160b",
".u c #183c0f",
"#y c #193302",
".D c #1b4d0f",
"#q c #1b5201",
"#V c #1c190d",
"#P c #1d1a0d",
".g c #1d1f00",
".C c #1d3f14",
"#r c #1d5202",
"#x c #1e3d04",
".f c #1f2100",
"#p c #1f5602",
"#w c #204404",
"#v c #204804",
"#s c #215703",
"#u c #216a01",
"#O c #221f0f",
"#t c #226402",
"#W c #232010",
"#o c #235703",
".m c #244f19",
"#m c #256d01",
"#j c #276e03",
"#l c #277402",
"#k c #288601",
"#b c #299500",
"#X c #2a2613",
"#i c #2aa400",
"#Y c #2b2713",
"#d c #2ba200",
"#f c #2bba00",
"#e c #2cb400",
"#h c #2cbf00",
"#g c #2dcf00",
"## c #2dd200",
"#. c #2dd400",
"#c c #2eb300",
".9 c #2ee400",
"#a c #2fc700",
".Y c #2fe400",
".V c #2fe600",
".T c #2fe800",
".z c #2fea00",
"al c #302c16",
".8 c #30d200",
".0 c #30dc00",
".Z c #30de00",
".4 c #30e000",
".U c #30e200",
".6 c #31d500",
".W c #31d700",
".3 c #31d900",
".X c #31db00",
".7 c #32cd00",
".5 c #32cf00",
".1 c #32d100",
".2 c #33cc00",
".N c #33eb05",
".O c #34e305",
"ak c #363118",
".A c #37ec0a",
".o c #3a7f28",
".Q c #3ad90a",
"aj c #3b361b",
".M c #3bc419",
".P c #3bed0f",
".E c #3eaa23",
".y c #40ef14",
".t c #418f2d",
"#3 c #443219",
"ai c #443e1f",
".q c #44f019",
"#4 c #453f1f",
".J c #45ba28",
".S c #46e319",
"#9 c #474120",
"ah c #474121",
"#8 c #484221",
".x c #48f11e",
"a. c #4a4422",
"#7 c #4d4623",
".F c #4df323",
".L c #4eb832",
"ag c #4f4824",
"a# c #514a25",
".K c #52bd37",
"#6 c #534c26",
"aa c #554e27",
".v c #55f52d",
".B c #57bf3c",
"#5 c #585028",
"af c #595129",
".G c #5af732",
"ab c #5b532a",
"a9 c #5b542a",
"a2 c #5b552a",
"ar c #5c542a",
"bh c #5c562a",
"bc c #5d562b",
"b. c #5e572b",
".k c #5ecf41",
".R c #5ef437",
"bb c #5f552a",
"a1 c #5f582b",
"bd c #5f582c",
"aq c #60582b",
"ac c #60582c",
"a3 c #60592c",
"b# c #605a2c",
"aw c #61592c",
"a4 c #615a2c",
".I c #61dd41",
"be c #62582b",
"ap c #62592d",
"az c #625a2c",
"a8 c #625b2d",
".r c #62f93c",
"bf c #63562b",
"a0 c #63572b",
"ae c #635a2d",
"aI c #635b2d",
"ba c #645329",
"bg c #64572b",
"ad c #645b2d",
"aX c #645c2d",
"aM c #655c2e",
"a5 c #655d2d",
"a6 c #655d2e",
".p c #65df46",
"an c #665d2e",
"av c #665d2f",
"aY c #665e2e",
"ay c #675e2f",
"a7 c #675f2f",
".H c #67fb41",
"au c #685f2f",
"at c #685f30",
"aC c #695c2e",
"aB c #696030",
"aF c #6a6130",
"aL c #6a6131",
"aO c #6b6131",
"aZ c #6c5028",
"aS c #6c582c",
"aJ c #6c6231",
"aE c #6c6331",
".s c #6cef4b",
"aD c #6d6332",
"aK c #6e6432",
"aU c #6e6532",
"am c #6f5027",
"aQ c #6f6532",
"aG c #6f6533",
"aW c #6f6633",
".w c #6ffd4b",
"aA c #70582d",
"aH c #706633",
"aP c #716733",
"aV c #716734",
"aR c #716834",
"ao c #726834",
"as c #735129",
"ax c #73552b",
"aT c #736030",
"aN c #736432",
".l c #74ff51",
"Qt.#.a.a.a.a.a.a.a.a.a.a.a.a.a.a.a.a.b.c.d.e.f.f.f.f.f.g.e.d.h.i",
".a.a.a.a.a.a.a.j.k.l.k.m.a.a.a.a.a.a.a.a.a.a.a.a.a.a.a.a.a.a.a.a",
".a.n.a.a.a.j.o.p.q.r.l.l.s.t.u.a.a.a.a.a.a.a.a.a.a.a.a.a.a.a.a.a",
".v.l.w.v.x.y.z.z.z.A.x.r.l.l.l.p.B.o.m.C.j.a.a.a.a.a.a.a.a.j.D.E",
".z.w.A.z.z.z.z.z.z.z.z.z.A.y.F.F.G.H.l.l.l.I.J.K.L.B.B.J.M.y.N.z",
".z.O.z.z.z.z.z.z.z.z.z.z.z.A.z.z.z.z.A.N.y.P.z.P.Q.R.S.z.z.z.z.z",
".z.z.z.z.T.z.T.z.z.U.z.z.z.z.z.T.z.z.z.z.z.z.z.z.z.z.V.z.z.z.z.z",
".z.z.z.z.T.z.z.z.z.T.z.z.T.z.z.z.z.z.z.z.z.z.z.z.z.z.z.z.z.z.z.z",
".z.z.z.z.z.z.z.z.z.z.z.T.W.X.z.T.z.z.z.z.z.z.z.z.z.z.z.z.z.z.z.z",
".z.z.z.z.z.z.z.Y.z.Z.0.1.2.2.3.1.W.4.z.z.T.z.z.z.z.z.z.z.z.z.z.z",
".z.Z.X.U.z.X.3.2.5.2.2.2.2.2.2.2.2.6.V.W.7.0.z.z.z.z.z.z.z.z.z.z",
".8.2.2.2.2.2.2.2.2.2.2.2.2.2.2.2.2.2.2.2.2.2.Z.U.z.z.z.z.9#.###a",
"#b#c#d#d#d#d#d#d#d#d#d#d#d#d#d#d#d#d#d#d#d#d#d#e.z#f#f#g#h#b#b#b",
"#b#b#b#b#b#b#b#b#b#b#b#b#b#b#b#b#b#b#b#b#b#b#b#b#i#b#b#b#b#b#b#b",
"#b#b#b#b#b#b#b#b#b#b#b#b#b#b#b#b#b#b#b#b#b#b#b#b#b#b#b#b#b#b#b#b",
"#j#b#b#b#b#b#b#b#b#b#b#b#b#b#b#b#b#b#b#b#b#b#b#b#b#b#b#b#k#l#m#m",
"#n#o#p#q#q#q#q#q#r#s#s#s#s#s#t#u#u#u#u#u#u#u#s#s#s#s#v#w#w#x#y#z",
".a#A#A#A#A#A#A#A#A#A#A#A#A#A#B#C#C#C#C#C#C#C#A#D#E#E#F#G#H.a.a.a",
"#I#J#K.a.a.a.a.a.a.a.a.a.a.a.a.a.a.a.a.a.a.a.a.a.a.a.a.a.a.a#L#J",
"#M#N#O#P#Q#R#S#T#U#V#W#X#Y#Y#Y#Y#Y#Y#W#U#T#Z#S#S#S#S#S#S#0#1#2#2",
"#3#4#5#6#7#8#9a.a#aaabacadadadadadaeafaga.ah#9#9#9#9#9#9aiajakal",
"amaeananaoaoaoaoaoaoaoaoaoaoaoaoaoaoaoaoaoaoaoaoaoaoaoaoaoapaqar",
"asatauavaoaoaoaoaoaoaoaoaoaoaoaoaoaoaoaoaoaoaoaoaoaoaoaoaoawaeaw",
"axatayayaoaoaoaoaoaoaoaoaoaoaoaoaoaoaoaoaoaoaoaoaoaoaoaoaoayazaw",
"aAayanaBaoaoaoaoaoaoaoaoaoaoaoaoaoaoaoaoaoaoaoaoaoaoaoaoaoaBawac",
"aCayayaDaoaoaoaoaoaoaoaoaoaoaoaoaoaoaoaoaoaoaoaoaoaoaoaoaoaEazaq",
"aBaBaFaGaoaoaoaoaoaoaoaoaoaoaoaoaoaoaoaoaoaoaoaoaoaoaoaoaHaDaIaz",
"aJaBaEaHaoaoaoaoaoaoaoaoaoaoaoaoaoaoaoaoaoaoaoaoaoaoaoaoaKaLanaM",
"aNaKaOaGaoaoaoaPaHaKaKaQaHaRaoaoaoaoaoaoaoaoaoaoaoaoaoaoaBaDauaS",
"aTaPaFaGaoaoaHaGaUaHaVaHaKaHaVaoaoaoaoaoaoaWaUaUaUaUaUaUaXaFaYaZ",
"a0a1a2a3aXaIazaqa4aYaYa5aXaXa6auauauaua7a6a8a8a8a8a8a8a8a9b.b#ba",
"bba9bca3a8a4bdb.bebfbabgb#a3a4a8a8a8a8a8a8a8a8a8a8a8a8a8a1bhb.b."};
