/* XPM */
static char *dummy[]={
"32 32 287 2",
".s c #000000",
".G c #010100",
"#V c #010700",
"aH c #010800",
".C c #020200",
"ac c #020201",
".N c #020401",
"bR c #020600",
"bD c #020800",
"bQ c #020a00",
"aI c #020e00",
"#d c #030301",
".L c #030702",
"bC c #030900",
"ab c #030d00",
"al c #030f00",
".r c #040400",
"bV c #040401",
".D c #040500",
"bW c #040501",
".O c #040803",
"#v c #040f02",
"bM c #050503",
"bq c #051200",
"b2 c #060502",
"#W c #060503",
".v c #060600",
"bh c #061d00",
".B c #070700",
".F c #070801",
".X c #070f05",
".H c #071005",
"#u c #071703",
"a4 c #071c00",
"bE c #080704",
".w c #080800",
"a5 c #090804",
".E c #090901",
"aa c #092c00",
".t c #0a0a00",
"av c #0a3200",
"aG c #0b3300",
".u c #0c0c00",
"bB c #0c2e00",
"aw c #0e0d06",
"aJ c #0f0e07",
".A c #0f1000",
"bp c #0f3700",
"aR c #0f4900",
"am c #100f07",
".z c #101000",
".q c #101100",
".y c #101200",
"bv c #103b00",
"#U c #104f00",
"#w c #111008",
"bL c #114000",
"a3 c #114c00",
"bg c #115400",
"#c c #12280c",
".P c #12280d",
".j c #131400",
".f c #131403",
".x c #131500",
"b3 c #141209",
".k c #141600",
"#t c #146500",
"au c #146600",
"#X c #15130a",
".K c #152f0f",
"bK c #153c02",
"bi c #16140a",
".g c #161702",
".p c #161800",
".M c #16310f",
"bX c #17150a",
"bS c #17150b",
".l c #171900",
"bJ c #173103",
"bu c #175300",
".e c #181904",
"aF c #187b00",
".o c #191b00",
".I c #193812",
".2 c #193d0f",
"bA c #195c00",
"bo c #195d00",
"a# c #1a8300",
"bF c #1b180c",
"cz c #1b190c",
".m c #1b1d00",
"bf c #1c7500",
".h c #1d1e02",
".Q c #1d3f14",
".R c #1d4014",
"a2 c #1d8f00",
"aQ c #1d9000",
"cy c #1e1b0e",
"ak c #1e9800",
".i c #1f2003",
".n c #1f2100",
"cA c #201d0e",
"a6 c #201e0f",
".a c #202200",
"bt c #217900",
"at c #21a700",
"Qt c #222403",
"bn c #227d00",
".b c #232503",
"cx c #242110",
".# c #242700",
".J c #244f19",
"ax c #252211",
".d c #252706",
"bz c #258600",
"bw c #262311",
".c c #262806",
"by c #267702",
"be c #269a00",
"aE c #26bd00",
".W c #27561b",
".1 c #27571b",
"bx c #276e03",
"#T c #27850f",
"a. c #27c400",
".3 c #28581c",
"bm c #289400",
"aP c #28c100",
"a1 c #28c900",
"a9 c #299500",
"b. c #299900",
"aS c #2a2613",
"aj c #2ad300",
"cB c #2b2714",
"#x c #2b2813",
".0 c #2b5f1e",
"ba c #2ba200",
"b# c #2ba400",
"bb c #2ba700",
"bc c #2bbc00",
".4 c #2c601e",
"#b c #2c661d",
"bd c #2cb100",
"as c #2de200",
"an c #2e2a14",
"cw c #2e2a15",
"aZ c #2ed100",
"ar c #2ee700",
"aY c #2fc900",
"a0 c #2fd700",
"aB c #2fdc00",
"aD c #2fe400",
"#1 c #2fe600",
"aO c #2fe700",
"ai c #2fe800",
"#2 c #2fe900",
"#y c #2fea00",
"#Y c #302c16",
"aU c #30be00",
"aW c #30bf00",
"aX c #30c100",
"aC c #30db00",
"#f c #30db02",
"#z c #30e300",
"ad c #312d16",
".5 c #316e21",
"aV c #31c300",
"aN c #31d900",
"aK c #31db00",
"aL c #32ca00",
"aM c #32ce00",
".S c #337023",
"#S c #33a516",
"#9 c #33ea05",
"cC c #342f17",
"cv c #353118",
"bY c #363119",
"cu c #363219",
"b7 c #373319",
".Z c #378222",
"#e c #37ec0a",
".T c #388d23",
"#B c #38ec0a",
"bT c #39341a",
".6 c #398426",
"#A c #3ae60c",
"#6 c #3ae70d",
"#3 c #3aed0d",
"#7 c #3bed0f",
"ct c #3c341a",
"bN c #3c361b",
"#R c #3dcb19",
"bj c #3e381c",
"#Q c #3eee12",
"#a c #40952b",
"#s c #40cb1e",
"#C c #40ef14",
"bG c #413b1d",
"## c #44da1e",
"#i c #46ba28",
"#8 c #46f11c",
"cs c #47351a",
"#h c #47cf26",
"#P c #48f11e",
"a7 c #494221",
"#4 c #49ed1e",
"b8 c #4a371b",
".V c #4ba634",
"#D c #4bf221",
"ay c #4c4523",
".7 c #4ca735",
"#g c #4ed22a",
"#Z c #4f4824",
"#5 c #4fee25",
"#O c #4ff325",
"#j c #51bd35",
"#E c #52f429",
".U c #53b73a",
"#k c #53bc38",
".9 c #53be37",
"ao c #544d26",
"ae c #554d27",
"br c #564f27",
"b9 c #575028",
".8 c #57bf3c",
"b4 c #5a5229",
"#r c #5af532",
"#N c #5af732",
"#K c #5af733",
"#o c #5cf635",
"#F c #5cf735",
"bZ c #5d552a",
"#I c #5df235",
"#J c #5ef837",
"#m c #5fdd3e",
"bU c #60572c",
"bO c #60582c",
"c. c #61582c",
"#l c #61d744",
"#n c #61ea3e",
"bk c #62592d",
"#0 c #625a2c",
"bH c #635a2d",
"#. c #63ec40",
"#q c #64fa3f",
"ca c #655c2e",
"a8 c #665d2e",
"ch c #665d2f",
"az c #675e2f",
"#p c #67fb41",
"cr c #685e2f",
"aT c #685f2f",
"cd c #685f30",
"cj c #695c2e",
"cf c #695f30",
"ag c #696030",
"#L c #69fb44",
"af c #6a6030",
"ah c #6a6130",
".Y c #6afb46",
"b1 c #6b6130",
"bs c #6b6131",
"cm c #6b6231",
"#M c #6bfc46",
"b5 c #6c6231",
"b0 c #6c6331",
"#G c #6cfa47",
"ck c #6d6332",
"b6 c #6d6431",
"bP c #6d6432",
"c# c #6e6432",
"bl c #6e6532",
"cp c #6f5c2e",
"cq c #6f6030",
"ci c #6f6532",
"bI c #6f6533",
"cn c #6f6633",
"cb c #705329",
"cg c #705a2d",
"aA c #706633",
"co c #706733",
"cl c #716733",
"ap c #716734",
"#H c #71fd4e",
"aq c #726834",
"cc c #735129",
"ce c #73562b",
"QtQt.#.a.a.b.c.c.c.c.c.c.c.c.c.c.c.c.c.c.c.c.c.c.d.e.f.f.g.h.i.i",
".j.k.l.l.m.n.n.n.n.n.n.n.n.n.n.n.n.n.n.n.m.m.o.p.q.r.s.s.r.t.u.u",
".s.s.v.w.u.q.x.x.l.l.l.l.l.l.p.x.x.y.z.A.u.u.t.B.C.s.s.s.s.s.s.s",
".s.s.s.s.s.s.D.D.E.E.E.E.E.E.F.D.r.G.s.s.s.s.s.s.s.H.I.J.K.L.s.s",
".M.N.s.s.s.s.s.s.s.s.s.s.s.s.s.s.s.s.s.s.O.P.Q.R.S.T.U.V.W.X.G.s",
".Y.Z.0.1.Q.Q.Q.Q.Q.Q.Q.Q.Q.Q.Q.Q.2.3.4.5.6.7.8.9#.###a#b#c.L.s#d",
"#e#f#g#h#i#j.8.8.8.8.8.8.8.8.8.8#k#l#m#n#o#p#q#r#s#t#u#v.s#d#w#x",
"#y#z#A#B#C#D#E#F#G#H#I#J#K#L#M#K#J#N#O#P#Q#R#S#T#U#V.s#W#X#Y#Z#0",
"#y#1#2#y#y#y#y#3#4#5#6#7#B#8#P#B#7#e#9a.a##Uaaab.sac#Xadaeafagah",
"#yai#y#y#y#y#y#yai#1#y#y#y#y#y#y#yajak#Ual.s.s.Gamanaoafapaqahah",
"#yarai#y#y#y#y#y#y#y#y#y#y#y#yasatauav.s.s.sawaxayazaAaqaqaqahah",
"#yaBaCaD#y#y#y#y#y#y#y#y#y#2aEaFaGaHaI.saJaxayazaAaqaqaqaqaqahah",
"aKaLaMaN#1#y#y#y#y#y#yaOaPaQaRal.s.sawaS#ZaTaAaqaqaqaqaqaqaqahah",
"aUaVaWaXaYaZaOaBa0a0a1a2a3a4.s.sa5a6a7a8aAaqaqaqaqaqaqaqaqaqahah",
"a9b.b#bababbbcbdbebfbgbh.G.s.Gbibjbkblaqaqaqaqaqaqaqaqaqaqaqahah",
"a9bma9a9a9a9bnbobpbq.s.s.saJaSbrbsaqaqaqaqaqaqaqaqaqaqaqaqaqahah",
"a9bma9a9btbubvbq.s.s.sa5bw#ZaTaAaqaqaqaqaqaqaqaqaqaqaqaqaqaqahah",
"bxbybzbAbBbCbD.s.sbEbFbGbHbIaqaqaqaqaqaqaqaqaqaqaqaqaqaqaqaqahah",
"bJbKbLbq.s.s.sbMbFbNbObPaqaqaqaqaqaqaqaqaqaqaqaqaqaqaqaqaqaqahah",
".sbQbR.s.s#WbSbTbUbPaqaqaqaqaqaqaqaqaqaqaqaqaqaqaqaqaqaqaqaqahah",
"bVbW.G#dbXbYbZb0aqaqaqaqaqaqaqaqaqaqaqaqaqaqaqaqaqaqaqaqaqaqb1ah",
".Gb2b3adb4b5aqaqaqaqaqaqaqaqaqaqaqaqaqaqaqaqaqaqaqaqaqaqaqaqb6ah",
"b7b8b9c.aTaqaqaqaqaqaqaqaqaqaqaqaqaqaqaqaqaqaqaqaqaqaqaqaqaqc#ah",
"cacbcaazazaqaqaqaqaqaqaqaqaqaqaqaqaqaqaqaqaqaqaqaqaqaqaqaqaqc#ah",
"agcccdaTazaqaqaqaqaqaqaqaqaqaqaqaqaqaqaqaqaqaqaqaqaqaqaqaqaqc#ah",
"agcecdaTazaqaqaqaqaqaqaqaqaqaqaqaqaqaqaqaqaqaqaqaqaqaqaqaqaqc#ah",
"cfcgaTchahaqaqaqaqaqaqaqaqaqaqaqaqaqaqaqaqaqaqaqaqaqaqaqaqaqciah",
"azcjazazckaqaqaqaqaqaqaqaqaqaqaqaqaqaqaqaqaqaqaqaqaqaqaqaqaqclah",
"afagafcmcnaqaqaqaqaqaqaqaqaqaqaqaqaqaqaqaqaqaqaqaqaqaqaqaqaqaqah",
"ckckahckcoaqaqaqaqaqaqaqaqaqaqaqaqaqaqaqaqaqaqaqaqaqaqaqaqaqciah",
"cpcqahcrb5c#c#c#c#c#c#c#c#c#c#c#c#c#c#c#c#c#c#c#c#c#c#c#c#c#b5ah",
"csctcucvcwcxcyczczczczczczcAcBcCcvcvcvcvcvcvcvcvcvcvcvcvcvcvcvcv"};
