/* XPM */
static char *dummy[]={
"32 32 192 2",
".k c #000000",
"#0 c #000100",
".D c #010100",
"#Z c #010101",
".E c #020200",
".P c #020201",
"ah c #020a00",
".Z c #020e00",
"az c #030301",
"at c #030c00",
"#7 c #030d00",
".B c #040400",
"a# c #040402",
".w c #040500",
".C c #050500",
"ao c #051300",
"#A c #051d00",
"#z c #060503",
"#F c #060603",
"#o c #070703",
".M c #071005",
"aF c #071b00",
".l c #080802",
"#a c #090804",
".y c #090900",
"#R c #092b00",
"#Y c #0a0905",
".F c #0a0a00",
"aJ c #0a0a05",
".j c #0a0b02",
".Y c #0b0a05",
"aK c #0b2600",
"#c c #0b3a00",
"#d c #0b3b00",
"aE c #0c0b06",
"ag c #0d0c06",
".L c #0d0d01",
"ay c #0e0d06",
".p c #0e0f00",
"#p c #0e1e0a",
".0 c #0e4a00",
".v c #0f1000",
"au c #0f3800",
"as c #100f07",
".J c #111201",
".K c #111202",
".A c #111300",
"aA c #114200",
"#B c #115700",
"#E c #121008",
".q c #121300",
".G c #141501",
"#b c #143d0a",
".Q c #143e0a",
"ai c #144a00",
".x c #151700",
".O c #152f0f",
"#1 c #165a00",
".m c #171805",
"#y c #18160b",
".I c #181a01",
"#n c #19170c",
".r c #191a00",
"ap c #195d00",
"aa c #196700",
"#X c #1a180c",
"#G c #1a8300",
"an c #1b190c",
"Qt c #1c1e00",
".s c #1d1f00",
".W c #1d3f14",
"aM c #1e1c0e",
".z c #1e2000",
".# c #1e2001",
"#e c #1e8405",
"## c #1f1d0e",
".t c #1f2000",
".u c #1f2100",
"#8 c #1f8000",
".i c #202106",
".H c #202201",
"aG c #205400",
"aI c #211f0f",
".a c #212305",
"aq c #238200",
".o c #242604",
"aR c #252211",
".h c #252706",
".b c #252708",
".X c #262311",
".g c #262807",
"aB c #268a00",
"aj c #268b00",
"#S c #269900",
"#6 c #272312",
".c c #272808",
".f c #272907",
"aD c #282412",
".n c #282a08",
".d c #282a09",
".e c #292b09",
"al c #299400",
"ak c #299500",
"#C c #2cdb00",
"#f c #2dce05",
"ax c #2e2a15",
"am c #2eb300",
"af c #2f2b15",
"#2 c #2fbf00",
"#u c #2fe400",
"#D c #2fe600",
"#t c #2fe900",
".2 c #2fea00",
"aQ c #302c16",
"ab c #30be00",
"#3 c #30dc00",
"#N c #30e000",
"#H c #30e200",
"ac c #31c400",
"#M c #31d500",
"#T c #31d900",
"#I c #31db00",
".N c #326e23",
"#q c #326f23",
"#K c #32cd00",
"#U c #32cf00",
"#J c #32d300",
"#9 c #33cb00",
"#L c #33cc00",
".1 c #33eb05",
"ar c #38341a",
"a7 c #39341a",
".V c #3a7e28",
"#Q c #3b351b",
"a6 c #3b361b",
"#x c #3c361b",
"a8 c #3c371b",
"a. c #3f3a1d",
"a5 c #403a1d",
"a9 c #403b1d",
"#j c #40eb14",
".4 c #40ef14",
"#r c #43a928",
".R c #43d41e",
"aL c #443e1f",
".T c #44f019",
"#m c #453f20",
"#W c #464020",
"#. c #474120",
".3 c #48f11e",
"a4 c #4a4322",
"aP c #4b4422",
"a3 c #4c4522",
"aH c #4c4523",
".S c #4df323",
".7 c #4eb732",
"#5 c #4f4824",
"#s c #51f428",
"aw c #524b26",
"ae c #534c26",
"a2 c #564e27",
"#i c #56ec2d",
".6 c #57bf3c",
"a1 c #585028",
"#P c #595128",
"aU c #595229",
"#w c #5a5229",
"aY c #5a5329",
"#g c #5af732",
"aO c #5c542a",
"aX c #5d562b",
"#V c #5e562b",
".U c #5ece41",
"#l c #5f572b",
".9 c #62592d",
"aV c #625b2d",
"#h c #62f93c",
"aT c #645b2d",
"#4 c #645b2e",
"aC c #665d2f",
"aN c #685f2f",
"av c #695f30",
"aW c #69602f",
"aS c #6a6130",
"aZ c #6b6130",
"ad c #6b6131",
".5 c #6bfc46",
"#O c #6d6432",
"a0 c #6e6432",
"#v c #706633",
"#k c #726834",
".8 c #74ff51",
"Qt.#.a.b.b.c.d.e.f.f.f.f.f.g.h.h.h.h.h.h.h.g.i.j.k.k.l.m.c.n.f.o",
".p.p.q.rQt.s.t.u.u.u.u.u.u.u.u.u.u.u.u.u.s.v.k.k.k.k.k.k.w.x.u.u",
".k.k.k.k.y.q.z.u.u.u.u.u.u.u.u.u.u.u.s.A.B.k.k.k.k.k.k.k.k.k.C.D",
".k.k.k.k.k.k.E.F.G.#.H.H.H.I.J.K.K.L.B.k.k.k.k.M.N.O.k.k.k.k.k.k",
".P.k.k.k.k.k.k.k.k.k.k.k.k.k.k.k.k.k.k.k.k.k.Q.R.S.T.U.V.O.k.k.W",
".X.Y.P.k.k.k.k.k.k.k.k.k.k.k.k.k.k.k.k.Z.0.R.1.2.2.2.3.4.5.6.7.8",
".9#.###a.D.k.k.k.O.W.W.W.W#b#c#c#c#d#e#f.2.2.2.2.2.2.2.2#g#h#i#j",
"#k#k#l#m#n#o.D.k#p#q#r#s#j.1.2.2.2.2.2.2.2.2.2.2.2.2.2.2.2.2#t#u",
"#k#k#k#v#w#x#y#z.k.k.k#A#B#C.2.2.2.2.2.2.2.2.2#u#u.2.2.2.2.2#t#D",
"#k#k#k#k#k#v#w#x#E#F.k.k.k#A#G.2.2.2#D#H#H#I#J#K#L#M#N#D.2.2#u.2",
"#k#k#k#k#k#k#k#O#P#Q#y#a.D.k.k#R#S#T#U#L#L#L#L#L#L#L#L#L.2.2#D.2",
"#k#k#k#k#k#k#k#k#k#v#V#W#X#Y#Z.k#0#1#2#L#L#L#L#L#L#L#L#L#3#D#t#I",
"#k#k#k#k#k#k#k#k#k#k#k#k#4#5#6.Y.D.k#7#8#2#L#L#L#L#L#L#L#L#L#9#L",
"#k#k#k#k#k#k#k#k#k#k#k#k#k#k#la.#ya#.k.k#7aa#2#L#L#Lababababac#L",
"#k#k#k#k#k#k#k#k#k#k#k#k#k#k#kadaeafag.D.k.kahaiajakakakakakalam",
"#k#k#k#k#k#k#k#k#k#k#k#k#k#k#k#k#k#4#.an#z.k.k.kaoapaqakakakalak",
"#k#k#k#k#k#k#k#k#k#k#k#k#k#k#k#k#k#k#v#warasa#.k.k.katauaqakalak",
"#k#k#k#k#k#k#k#k#k#k#k#k#k#k#k#k#k#k#k#kavawaxayaz.k.k.k#0aAaBak",
"#k#k#k#k#k#k#k#k#k#k#k#k#k#k#k#k#k#k#k#k#k#kaC#5aDaE.P.k.k.kaFaG",
"#k#k#k#k#k#k#k#k#k#k#k#k#k#k#k#k#k#k#k#k#k#k#k#k#4aHaIaJ.P.k.kaK",
"#k#k#k#k#k#k#k#k#k#k#k#k#k#k#k#k#k#k#k#k#k#k#k#k#k#k#4aLaM#Y.P.k",
"#k#k#k#k#k#k#k#k#k#k#k#k#k#k#k#k#k#k#k#k#k#k#k#k#k#k#kaNaOaPaQaR",
"#k#k#k#k#k#k#k#k#k#k#k#k#k#k#k#k#k#k#k#k#k#k#k#k#k#k#kaSaSaSaTaU",
"#k#k#k#k#k#k#k#k#k#k#k#k#k#k#k#k#k#k#k#k#k#k#k#k#k#k#kaSaSaSaNaV",
"#k#k#k#k#k#k#k#k#k#k#k#k#k#k#k#k#k#k#k#k#k#k#k#k#k#k#kaSaSaSaNaV",
"#k#k#k#k#k#k#k#k#k#k#k#k#k#k#k#k#k#k#k#k#k#k#k#k#k#k#kaSaSaSaWaV",
"#k#k#k#k#k#k#k#k#k#k#k#k#k#k#k#k#k#k#k#k#k#k#k#k#k#k#kaSaSaSaSaX",
"#k#k#k#k#k#k#k#k#k#k#k#k#k#k#k#k#k#k#k#k#k#k#k#k#k#k#kaSaSaSaSaY",
"#k#k#k#k#k#k#k#k#k#k#k#k#k#k#k#k#k#k#k#k#k#k#k#k#k#k#kaZaSaSaSaU",
"#k#k#k#k#k#k#k#k#k#k#k#k#k#k#k#k#k#k#k#k#k#k#k#k#k#k#k#vaSaSaSaU",
"#k#k#k#k#k#k#k#k#k#k#k#k#k#k#k#k#k#k#k#k#k#k#k#k#k#k#k#ka0aSaSaU",
"a1a2a2a2a2a2a2a2a2a2a2a2a2a2a2a2#5a3a4a5a6a7a7a7a7a7a7a7a8#.aea9"};
