/* XPM */
static char* rope_xpm[] = {
"6 32 2 1",
"K	c #5C4033",
"R	c #964B00",
"KRRRRK",
"KRRRRK",
"KRRRRK",
"KRRRRK",
"KRRRRK",
"KRRRRK",
"KRRRRK",
"KRRRRK",
"KRRRRK",
"KRRRRK",
"KRRRRK",
"KRRRRK",
"KRRRRK",
"KRRRRK",
"KRRRRK",
"KRRRRK",
"KRRRRK",
"KRRRRK",
"KRRRRK",
"KRRRRK",
"KRRRRK",
"KRRRRK",
"KRRRRK",
"KRRRRK",
"KRRRRK",
"KRRRRK",
"KRRRRK",
"KRRRRK",
"KRRRRK",
"KRRRRK",
"KRRRRK",
"KRRRRK"};
