/* XPM */
static char * wall1_xpm[] = {
"32 32 49 1",
" 	c #625A2B",
".	c #6B6231",
"+	c #6F6531",
"@	c #736934",
"#	c #726934",
"$	c #716833",
"%	c #736833",
"&	c #746833",
"*	c #746A35",
"=	c #756B35",
"-	c #726835",
";	c #726935",
">	c #756A35",
",	c #736A35",
"'	c #5E592B",
")	c #726834",
"!	c #635A2C",
"~	c #716632",
"{	c #716732",
"]	c #625A2C",
"^	c #6F6632",
"/	c #706732",
"(	c #60592B",
"_	c #615A2B",
":	c #6E6430",
"<	c #706532",
"[	c #716834",
"}	c #60592C",
"|	c #6D612F",
"1	c #706531",
"2	c #716734",
"3	c #5F592B",
"4	c #6E6130",
"5	c #61592B",
"6	c #6B622F",
"7	c #736834",
"8	c #6F6432",
"9	c #706533",
"0	c #625B2B",
"a	c #706632",
"b	c #716733",
"c	c #726833",
"d	c #726832",
"e	c #736935",
"f	c #736933",
"g	c #776C36",
"h	c #776D36",
"i	c #766C36",
"j	c #756A34",
"  .+@@#$%&*===============*-;>>,",
"' ++))))))))))))))))))))))))))))",
"' ++))))))))))))))))))))))))))))",
"'!~{))))))))))))))))))))))))))))",
"'!~{))))))))))))))))))))))))))))",
"'!~{))))))))))))))))))))))))))))",
"'!~{))))))))))))))))))))))))))))",
"'!~{))))))))))))))))))))))))))))",
"'!~{))))))))))))))))))))))))))))",
"'!~{))))))))))))))))))))))))))))",
"'!~{))))))))))))))))))))))))))))",
"'!~{))))))))))))))))))))))))))))",
"'!~{))))))))))))))))))))))))))))",
"'!~{))))))))))))))))))))))))))))",
"'!~{))))))))))))))))))))))))))))",
"'!~{))))))))))))))))))))))))))))",
"'!~{))))))))))))))))))))))))))))",
"'!~{))))))))))))))))))))))))))))",
"'!~{))))))))))))))))))))))))))))",
"'!~{))))))))))))))))))))))))))))",
"']^/))))))))))))))))))))))))))))",
"(_:<)[))))))))))))))))))))))))))",
"}(|1#2))))))))))))))))))))))))))",
"(34<#2))))))))))))))))))))))))))",
"(34<#2))))))))))))))))))))))))))",
"(34<#2))))))))))))))))))))))))))",
"(34<#2))))))))))))))))))))))))))",
"(56+72))))))))))))))))))))))))))",
"(_:<)[))))))))))))))))))))))))))",
"(_89))))))))))))))))))))))))))))",
"(_89))))))))))))))))))))))))))))",
"_0ab22cd)-*e==f=>gghhhhhhhhhhhij"};
