/* XPM */
static char * wall2_xpm[] = {
"32 32 34 1",
" 	c #726A35",
".	c #736A35",
"+	c #746A35",
"@	c #736935",
"#	c #726835",
"$	c #756B35",
"%	c #756935",
"&	c #746935",
"*	c #726935",
"=	c #746B35",
"-	c #736A34",
";	c #766A34",
">	c #766C36",
",	c #726834",
"'	c #726832",
")	c #706633",
"!	c #716733",
"~	c #756A34",
"{	c #756834",
"]	c #716934",
"^	c #736834",
"/	c #716634",
"(	c #706734",
"_	c #736934",
":	c #706632",
"<	c #706430",
"[	c #6F6431",
"}	c #6C6232",
"|	c #6D6332",
"1	c #6E6432",
"2	c #6E6430",
"3	c #6E632F",
"4	c #6D6230",
"5	c #6C6430",
"  .+ ++@#@$$$$$$$$$$$$%&* @&=-;>",
",,,,,,,,,,,,,,,,,,,,,,,,,,,,,,,,",
",,,,,,,,,,,,,,,,,,,,,,,,,,,,,,,,",
",,,,,,,,,,,,,,,,,,,,,,,,,,,,,,,,",
",,,,,,,,,,,,,,,,,,,,,,,,,,,,,,,,",
",,,,,,,,,,,,,,,,,,,,,,,,,,,,,,,,",
",,,,,,,,,,,,,,,,,,,,,,,,,,,,,,,,",
",,,,,,,,,,,,,,,,,,,,,,,,,,,,,,,,",
",,,,,,,,,,,,,,,,,,,,,,,,,,,,,,,,",
",,,,,,,,,,,,,,,,,,,,,,,,,,,,,,,,",
",,,,,,,,,,,,,,,,,,,,,,,,,,,,,,,,",
",,,,,,,,,,,,,,,,,,,,,,,,,,,,,,,,",
",,,,,,,,,,,,,,,,,,,,,,,,,,,,,,,,",
",,,,,,,,,,,,,,,,,,,,,,,,,,,,,,,,",
",,,,,,,,,,,,,,,,,,,,,,,,,,,,,,,,",
",,,,,,,,,,,,,,,,,,,,,,,,,,,,,,,,",
",,,,,,,,,,,,,,,,,,,,,,,,,,,,,,,,",
",,,,,,,,,,,,,,,,,,,,,,,,,,,,,,,,",
",,,,,,,,,,,,,,,,,,,,,,,,,,,,,,,,",
",,,,,,,,,,,,,,,,,,,,,,,,,,,,,,,,",
",,,,,,,,,,,,,,,,,,,,,,,,,,,,,,,,",
",,,,,,,,,,,,,,,,,,,,,,,,,,,,,,,,",
",,,,,,,,,,,,,,,,,,,,,,,,,,,,,,,,",
",,,,,,,,,,,,,,,,,,,,,,,,,,,,,,,,",
",,,,,,,,,,,,,,,,,,,,,,,,,,,,,,,,",
",,,,,,,,,,,,,,,,,,,,,,,,,,,,,,,,",
",,,,,,,,,,,,,,,,,,,,,,,,,,,,,,,,",
",,,,,,,,,,,,,,,,,,,,,,,,,,,,,,,,",
",,,,,,,,,,,,,,,,,,,,,,,,,,,,,,,,",
",,,,,,,,,,,,,,,,,,,,'')))!!!!!!!",
",,,,,,,,,,,,,,,,,,,,'')))!!!!!!!",
"~&{']^/(^^_________^::<[}|112345"};
