/* XPM */
static char * water_door4_xpm[] = {
"32 32 292 2",
"  	c #6F6937",
". 	c #6C908A",
"+ 	c #6C9AA9",
"@ 	c #58B3D1",
"# 	c #50BDE1",
"$ 	c #689BAC",
"% 	c #6D7B62",
"& 	c #6D764F",
"* 	c #706632",
"= 	c #655B2D",
"- 	c #645B2D",
"; 	c #000000",
"> 	c #756B33",
", 	c #342E17",
"' 	c #050402",
") 	c #6B8B76",
"! 	c #6E98A6",
"~ 	c #61A0B5",
"{ 	c #46C9F4",
"] 	c #5FAAC3",
"^ 	c #6E7D6A",
"/ 	c #6D7955",
"( 	c #585027",
"_ 	c #111007",
": 	c #6B8D7C",
"< 	c #5FA1B7",
"[ 	c #44C6F1",
"} 	c #60A7BE",
"| 	c #554D25",
"1 	c #100F07",
"2 	c #6E6E42",
"3 	c #6C836D",
"4 	c #6D97A3",
"5 	c #6A9AAA",
"6 	c #44B4D9",
"7 	c #53B9DB",
"8 	c #6D909B",
"9 	c #6E7D69",
"0 	c #6D7650",
"a 	c #6F6531",
"b 	c #6D8B86",
"c 	c #6D949B",
"d 	c #5BA3BB",
"e 	c #30C5F7",
"f 	c #5FA9C1",
"g 	c #708890",
"h 	c #6D7A60",
"i 	c #6E6D3F",
"j 	c #3DCDFD",
"k 	c #53CCF5",
"l 	c #6F8E98",
"m 	c #70868C",
"n 	c #6F693A",
"o 	c #6F6632",
"p 	c #6E6431",
"q 	c #5F572B",
"r 	c #544D25",
"s 	c #2FCAFF",
"t 	c #31CBFF",
"u 	c #54D1FB",
"v 	c #67B5CE",
"w 	c #6C9BAB",
"x 	c #708382",
"y 	c #6E765A",
"z 	c #534B25",
"A 	c #544C25",
"B 	c #43D0FF",
"C 	c #53CDF6",
"D 	c #66BBD6",
"E 	c #6C98A5",
"F 	c #6E8B93",
"G 	c #6E775E",
"H 	c #6F6A3A",
"I 	c #6D6330",
"J 	c #43CEFD",
"K 	c #5FA9C2",
"L 	c #6D96A0",
"M 	c #6D7758",
"N 	c #48C8F2",
"O 	c #63A5BB",
"P 	c #6C9392",
"Q 	c #6D7853",
"R 	c #6D7249",
"S 	c #746A33",
"T 	c #6E929C",
"U 	c #6F8A91",
"V 	c #6E8A90",
"W 	c #6E898D",
"X 	c #70693D",
"Y 	c #433C1D",
"Z 	c #1B190C",
"` 	c #635A2C",
" .	c #151309",
"..	c #47C9F5",
"+.	c #62A6BE",
"@.	c #6D98A6",
"#.	c #6B9CAD",
"$.	c #6BA0B2",
"%.	c #6E7960",
"&.	c #6F6735",
"*.	c #423C1D",
"=.	c #1D1B0D",
"-.	c #16140A",
";.	c #46D0FE",
">.	c #51CEF7",
",.	c #5BD2F9",
"'.	c #59D1F9",
").	c #55D1F9",
"!.	c #53CAF1",
"~.	c #62ACC4",
"{.	c #6D857B",
"].	c #6F6838",
"^.	c #55CBF2",
"/.	c #6BA7BB",
"(.	c #6E95A2",
"_.	c #6E95A3",
":.	c #6D95A2",
"<.	c #6D939F",
"[.	c #707259",
"}.	c #706634",
"|.	c #6D99A7",
"1.	c #6E857C",
"2.	c #6E867C",
"3.	c #6E857B",
"4.	c #6E8074",
"5.	c #70683C",
"6.	c #6C98A3",
"7.	c #6E6D40",
"8.	c #6F6938",
"9.	c #6C6230",
"0.	c #54D4FF",
"a.	c #6AADC3",
"b.	c #6E8684",
"c.	c #1C1A0C",
"d.	c #675E2E",
"e.	c #685E2E",
"f.	c #6D6431",
"g.	c #6B6130",
"h.	c #59C4E7",
"i.	c #6AA6B9",
"j.	c #6E8275",
"k.	c #655C2D",
"l.	c #000100",
"m.	c #1C2B0C",
"n.	c #012600",
"o.	c #002600",
"p.	c #002700",
"q.	c #052B02",
"r.	c #2A3E13",
"s.	c #42471D",
"t.	c #695F2F",
"u.	c #68A1B3",
"v.	c #6B9DAD",
"w.	c #6D7B66",
"x.	c #665D2D",
"y.	c #000B00",
"z.	c #004400",
"A.	c #006800",
"B.	c #006100",
"C.	c #005E00",
"D.	c #005C00",
"E.	c #015201",
"F.	c #0C3C05",
"G.	c #5B5329",
"H.	c #6F7D6F",
"I.	c #6F7A68",
"J.	c #3F391C",
"K.	c #000300",
"L.	c #004000",
"M.	c #006500",
"N.	c #033301",
"O.	c #0E1706",
"P.	c #090D04",
"Q.	c #040702",
"R.	c #004200",
"S.	c #006600",
"T.	c #0D0B06",
"U.	c #7B6B32",
"V.	c #3F3A1C",
"W.	c #000900",
"X.	c #004800",
"Y.	c #033F01",
"Z.	c #0A1804",
"`.	c #0D2306",
" +	c #302C15",
".+	c #19160B",
"++	c #003E00",
"@+	c #006400",
"#+	c #030B02",
"$+	c #5D552A",
"%+	c #7A6B33",
"&+	c #736732",
"*+	c #413C1D",
"=+	c #000200",
"-+	c #002900",
";+	c #016001",
">+	c #015101",
",+	c #033901",
"'+	c #2C2814",
")+	c #17160A",
"!+	c #005000",
"~+	c #007500",
"{+	c #030D01",
"]+	c #5A5229",
"^+	c #222C0F",
"/+	c #17220A",
"(+	c #1D1D0D",
"_+	c #262311",
":+	c #111208",
"<+	c #005700",
"[+	c #008800",
"}+	c #041002",
"|+	c #5C5429",
"1+	c #292512",
"2+	c #474120",
"3+	c #2F2B15",
"4+	c #0B2805",
"5+	c #045E02",
"6+	c #008B00",
"7+	c #008100",
"8+	c #080B04",
"9+	c #62592B",
"0+	c #6F6630",
"a+	c #292612",
"b+	c #072103",
"c+	c #007900",
"d+	c #008500",
"e+	c #005100",
"f+	c #675D2E",
"g+	c #6C622F",
"h+	c #6A612E",
"i+	c #121108",
"j+	c #0D2406",
"k+	c #018601",
"l+	c #008F00",
"m+	c #007300",
"n+	c #043502",
"o+	c #3F3C1C",
"p+	c #014400",
"q+	c #006C00",
"r+	c #009000",
"s+	c #009400",
"t+	c #002D00",
"u+	c #041302",
"v+	c #1E4D0D",
"w+	c #494320",
"x+	c #272311",
"y+	c #232710",
"z+	c #009800",
"A+	c #007700",
"B+	c #000800",
"C+	c #001700",
"D+	c #004D00",
"E+	c #272E11",
"F+	c #231F0F",
"G+	c #69602E",
"H+	c #19220B",
"I+	c #027B01",
"J+	c #008900",
"K+	c #009900",
"L+	c #020201",
"M+	c #060703",
"N+	c #0B3605",
"O+	c #363618",
"P+	c #242110",
"Q+	c #5E552A",
"R+	c #3B3519",
"S+	c #151D09",
"T+	c #008C00",
"U+	c #070703",
"V+	c #655C2E",
"W+	c #000500",
"X+	c #008400",
"Y+	c #003000",
"Z+	c #010100",
"`+	c #040401",
" @	c #080703",
".@	c #0F0E06",
"+@	c #0C0B05",
"@@	c #110F07",
"#@	c #121008",
"$@	c #17150A",
"%@	c #242111",
"&@	c #0B0A05",
"*@	c #040402",
"=@	c #060603",
"-@	c #026301",
";@	c #007F00",
">@	c #008D00",
",@	c #009500",
"'@	c #007200",
")@	c #003400",
"    . + @ # $ % & * * * * * * * * = - ; ; > * * * * * * * , ' ; ",
"* * ) ! ~ { ] ^ / * * * * * * * * - - ; ; > * * * * * * * ( _ ; ",
"* * : ! < [ } ^ / * * * * * * * * - - ; ; > * * * * * * * | 1 ; ",
"2 3 4 5 6 7 8 9 0 * * * * * * * a - - ; ; > * * * * * * * | 1 ; ",
"b c ! d e f g h i * * * * * * * a - - ; ; > * * * * * * * | 1 ; ",
"! ! < j k l m n o * * * * * * * p - q ; ; > * * * * * * * r 1 ; ",
"s t u v w x y * * * * * * * * * p - z ; ; > * * * * * * * A 1 ; ",
"B C D E F G H * * * * * * * * * I - z ; ; > * * * * * * * A 1 ; ",
"J K L ^ M * * * * * * * * * * * I - z ; ; > * * * * * * * A 1 ; ",
"N O P Q R * * * * * * * * * * * I - z ; ; S * * * * * * * z 1 ; ",
"N O ! T U V W X * * * * * * * * I - Y ; Z S * * * * * * * `  .; ",
"..+.@.@.@.#.$.%.&.* * * * * * * I - *.; =.S * * * * * * p - -.; ",
";.>.,.'.).!.~.{.].* * * * * * * p - *.; =.S * * * * * * p - -.; ",
"^./.! (._.:.<.[.}.* * * * * * * p - *.; =.S * * * * * * I - -.; ",
"^./.|.1.2.3.4.5.* * * * * * * * a - *.; =.S * * * * * * I - -.; ",
"^./.6.7.8.&.o * * * * * * * * * * = *.; =.S * * * * * * 9.- -.; ",
"0.a.b.* * * * * * * * * * * * * * = *.; c.S * d.e.f.* * g.- -.; ",
"h.i.j.* * * * * * * * * * * * * * k.*.; l.m.n.o.p.q.r.s.t.- -.; ",
"u.v.w.* * * * * * * * * * * * * * x.*.; y.z.A.B.C.D.E.F.G.- -.; ",
"H.I.&.* * * * * * * * * * * * * * x.J.K.L.M.N.O.P.Q.R.S.T.` -.; ",
"* * * * * * * * * * * * * * U.* * x.V.W.X.Y.Z.`. +.+++@+#+$+-.; ",
"* * * * * * * * * * * * * * %+&+* d.*+=+-+;+>+,+'+)+!+~+{+]+-.; ",
"* * * * * * * * * * * * * * * * * e.*.; l.^+/+(+_+:+<+[+}+|+1+; ",
"* * * * * * * * * * * * * * * * * d.*.; ; S 2+3+4+5+6+7+8+9+1+; ",
"* * * * * * * * * * * * * * * * p - *.; ; 0+a+b+c+d+d+e+2+f+1+; ",
"* * * * * * * * * * * * * * * * g+- *.; ; h+i+j+k+l+m+n+k.f+1+; ",
"* * * * * * * * * * * * * * * a - - *.; ; o+p+q+r+s+t+u+v+w+x+; ",
"* * * * * * * * * * * * a I k.- - - *.; ; y+c+d+z+A+B+C+D+E+F+; ",
"* * * * * * * * * a p I G+- - - - - *.; ; H+I+J+K+c+L+M+N+O+P+; ",
"` ` ` ` ` ` ` ` ` Q+( ( ( ( ( ( ( ( R+; ; S+I+T+K+s+U+c.r V+1+; ",
"; ; ; ; ; ; ; ; ; ; ; ; ; ; ; ; ; ; ; ; ; W+~+X+z+K+Y+; ; Z+; ; ",
"i+i+`+; ; ; ; ; ;  @.@+@@@@@#@$@%@i+&@*@*@=@-@;@>@,@'@)@; ; ; Z+"};
