/* XPM */
static char * water2_xpm[] = {
"32 32 328 2",
"  	c #060807",
". 	c #010100",
"+ 	c #000000",
"@ 	c #040400",
"# 	c #0B0C01",
"$ 	c #131402",
"% 	c #1A1B02",
"& 	c #1A1C02",
"* 	c #1C1E02",
"= 	c #202203",
"- 	c #1F2103",
"; 	c #1F2102",
"> 	c #1E2002",
", 	c #1D1F02",
"' 	c #1B1D02",
") 	c #191A01",
"! 	c #191A02",
"~ 	c #181903",
"{ 	c #141602",
"] 	c #0C0D01",
"^ 	c #020303",
"/ 	c #212B29",
"( 	c #141A18",
"_ 	c #0C110F",
": 	c #070A08",
"< 	c #060601",
"[ 	c #070801",
"} 	c #0B0C02",
"| 	c #151703",
"1 	c #161804",
"2 	c #161703",
"3 	c #121302",
"4 	c #0E0F02",
"5 	c #0B0B02",
"6 	c #060701",
"7 	c #030400",
"8 	c #050606",
"9 	c #0E1412",
"0 	c #1A2220",
"a 	c #648076",
"b 	c #5E7A74",
"c 	c #415450",
"d 	c #293633",
"e 	c #080A09",
"f 	c #030403",
"g 	c #0C0F0E",
"h 	c #202927",
"i 	c #435753",
"j 	c #5F7C77",
"k 	c #658277",
"l 	c #6B8982",
"m 	c #6D8C85",
"n 	c #4A605B",
"o 	c #303E3B",
"p 	c #1E2825",
"q 	c #050605",
"r 	c #1C2322",
"s 	c #303D3B",
"t 	c #58726C",
"u 	c #67867F",
"v 	c #6B8B85",
"w 	c #638177",
"x 	c #568382",
"y 	c #578685",
"z 	c #648985",
"A 	c #688680",
"B 	c #66837D",
"C 	c #65807B",
"D 	c #5B756F",
"E 	c #3B4C48",
"F 	c #2B3734",
"G 	c #1B2221",
"H 	c #171E1C",
"I 	c #1C2523",
"J 	c #2C3935",
"K 	c #384744",
"L 	c #58716C",
"M 	c #627F79",
"N 	c #66847D",
"O 	c #698982",
"P 	c #547D77",
"Q 	c #4E8282",
"R 	c #4F8585",
"S 	c #528685",
"T 	c #588685",
"U 	c #5A8785",
"V 	c #5F8885",
"W 	c #6A8983",
"X 	c #637F79",
"Y 	c #5F7A74",
"Z 	c #5A746E",
"` 	c #5C7670",
" .	c #627E79",
"..	c #6C8B84",
"+.	c #698A85",
"@.	c #628681",
"#.	c #5A827F",
"$.	c #51807F",
"%.	c #528585",
"&.	c #4C7B77",
"*.	c #4D8282",
"=.	c #4E8585",
"-.	c #508585",
";.	c #548585",
">.	c #5E8885",
",.	c #658985",
"'.	c #678A85",
").	c #6C8B85",
"!.	c #6A8B85",
"~.	c #518281",
"{.	c #4C7F7F",
"].	c #497F7F",
"^.	c #4C8485",
"/.	c #4A7B77",
"(.	c #4B8385",
"_.	c #5C8785",
":.	c #638985",
"<.	c #668A85",
"[.	c #618985",
"}.	c #618885",
"|.	c #598785",
"1.	c #588785",
"2.	c #568685",
"3.	c #4A8181",
"4.	c #487F7F",
"5.	c #4A8384",
"6.	c #558685",
"7.	c #518585",
"8.	c #538585",
"9.	c #548685",
"0.	c #478385",
"a.	c #488385",
"b.	c #4A8385",
"c.	c #4D8485",
"d.	c #4A8383",
"e.	c #478182",
"f.	c #4A8485",
"g.	c #488181",
"h.	c #467B77",
"i.	c #397D82",
"j.	c #418185",
"k.	c #498385",
"l.	c #467D7C",
"m.	c #3E7877",
"n.	c #2E7B82",
"o.	c #357E85",
"p.	c #3F8185",
"q.	c #498081",
"r.	c #477E7F",
"s.	c #437C7C",
"t.	c #2E7477",
"u.	c #2D7B82",
"v.	c #2F7D85",
"w.	c #3C8085",
"x.	c #4A8182",
"y.	c #417C7F",
"z.	c #33777C",
"A.	c #307D85",
"B.	c #317D85",
"C.	c #347E85",
"D.	c #3D8085",
"E.	c #458285",
"F.	c #317B82",
"G.	c #2F787F",
"H.	c #2C777F",
"I.	c #29747C",
"J.	c #428185",
"K.	c #397F85",
"L.	c #337E85",
"M.	c #3E8185",
"N.	c #448285",
"O.	c #3B8085",
"P.	c #3A8085",
"Q.	c #387F85",
"R.	c #2D7B83",
"S.	c #297780",
"T.	c #29777F",
"U.	c #28747C",
"V.	c #327D85",
"W.	c #377F85",
"X.	c #337D85",
"Y.	c #2A7880",
"Z.	c #27747C",
"`.	c #2E7C84",
" +	c #2B7981",
".+	c #27737B",
"++	c #1A5059",
"@+	c #2B6765",
"#+	c #2E6967",
"$+	c #266165",
"%+	c #1B5562",
"&+	c #1A5461",
"*+	c #195361",
"=+	c #185261",
"-+	c #195461",
";+	c #185360",
">+	c #17525F",
",+	c #164F5B",
"'+	c #081817",
")+	c #13211A",
"!+	c #12211C",
"~+	c #0F1F1B",
"{+	c #0B1B1A",
"]+	c #061619",
"^+	c #061519",
"/+	c #061518",
"(+	c #051418",
"_+	c #051316",
":+	c #0E0D06",
"<+	c #0A0903",
"[+	c #030301",
"}+	c #020200",
"|+	c #040402",
"1+	c #070603",
"2+	c #080703",
"3+	c #090804",
"4+	c #0B0A05",
"5+	c #100F07",
"6+	c #15140A",
"7+	c #19170B",
"8+	c #18150A",
"9+	c #131209",
"0+	c #0A0905",
"a+	c #080803",
"b+	c #0A0904",
"c+	c #0E0C06",
"d+	c #110F07",
"e+	c #131109",
"f+	c #2C2814",
"g+	c #281E0E",
"h+	c #1B180B",
"i+	c #1B180C",
"j+	c #242110",
"k+	c #282512",
"l+	c #2A2713",
"m+	c #2F2B15",
"n+	c #363118",
"o+	c #3F391C",
"p+	c #464020",
"q+	c #474120",
"r+	c #46401F",
"s+	c #433D1E",
"t+	c #3D371B",
"u+	c #383219",
"v+	c #343018",
"w+	c #2E2A15",
"x+	c #2B2713",
"y+	c #2D2914",
"z+	c #312D16",
"A+	c #353118",
"B+	c #3A351A",
"C+	c #4F4823",
"D+	c #523D1E",
"E+	c #463D1E",
"F+	c #484120",
"G+	c #514A25",
"H+	c #564F27",
"I+	c #575027",
"J+	c #585128",
"K+	c #5A5229",
"L+	c #5E552A",
"M+	c #635A2D",
"N+	c #685F2F",
"O+	c #695F2F",
"P+	c #69602F",
"Q+	c #665D2E",
"R+	c #635A2C",
"S+	c #60572B",
"T+	c #5D552A",
"U+	c #585028",
"V+	c #575128",
"W+	c #595229",
"X+	c #5B542A",
"Y+	c #645A2D",
"Z+	c #6E5027",
"`+	c #65582C",
" @	c #665C2E",
".@	c #6B6231",
"+@	c #726834",
"@@	c #706633",
"#@	c #6C6331",
"$@	c #6A6231",
"%@	c #675F2F",
"&@	c #685E2F",
"*@	c #725329",
"=@	c #6A5C2E",
"-@	c #696030",
";@	c #685E2E",
">@	c #72552B",
",@	c #6A5D2E",
"'@	c #6F6632",
")@	c #675D2E",
"!@	c #6E582B",
"~@	c #685C2E",
"{@	c #675E2F",
"]@	c #6D6331",
"^@	c #6F6532",
"/@	c #6A5B2D",
"(@	c #6E6532",
"_@	c #695E2F",
":@	c #6E6432",
"<@	c #716733",
"[@	c #695F30",
"}@	c #6A6030",
"|@	c #6A6130",
"1@	c #6B6131",
"2@	c #6E6231",
"3@	c #6F6030",
"4@	c #6E6331",
"5@	c #6D6432",
"6@	c #6C6231",
"7@	c #5F562B",
"8@	c #61542A",
"9@	c #635028",
"0@	c #5F542A",
"a@	c #5C542A",
"b@	c #61582C",
"c@	c #5D542A",
"d@	c #5C5429",
"e@	c #595128",
"f@	c #564E27",
"g@	c #524A25",
"h@	c #4F4824",
"i@	c #504924",
"j@	c #534B25",
"k@	c #5E562B",
"l@	c #5B5429",
"m@	c #5A532A",
"  . + + + @ # $ % & & * = = = = - ; > > , ' & ) ! ~ { ] . + + ^ ",
"/ ( _ : + + + . < [ [ } | 1 1 1 1 2 2 2 3 4 5 6 7 + + + + 8 9 0 ",
"a b c d e 8 f + + + + + + + + + + + + + + + + + + + f 8 g h i j ",
"k l m m n o p q + + + + + + + + + + + + + + + + + + r s t u u v ",
"w x y z A B C D E F G H H H H H H H H H H H I J K L M B N u u O ",
"P Q R S T U V W X Y D Z Z Z Z Z Z Z Z Z Z Z ` Y  .l ..+.@.#.$.%.",
"&.*.=.=.R -.-.;.>.,.v m m m m m m m v ,.,.'.).!.'.'.z U ~.{.].^.",
"/.*.=.=.=.=.^.(.%.y _.V :.<.+.'.V [.}.T -.%.y |.1.1.2.-.3.4.4.5.",
"/.*.=.=.=.=.=.=.=.=.R %.6.1._.|.7.8.9.R 0.a.b.c.=.=.=.=.3.4.4.d.",
"/.e.f.c.=.=.=.=.=.=.=.=.=.=.R =.=.=.=.=.=.=.=.=.=.=.=.=.3.4.4.g.",
"h.i.j.k.c.=.=.=.=.=.=.=.=.=.=.=.=.=.=.=.=.=.=.=.=.=.=.=.3.4.4.l.",
"m.n.o.p.f.c.c.=.=.=.=.=.=.=.=.=.=.=.=.=.=.=.=.=.=.=.=.=.q.r.r.s.",
"t.u.v.v.w.k.^.=.=.=.=.=.=.=.=.=.=.=.=.=.=.=.=.=.=.=.=.=.x.r.y.z.",
"t.u.v.v.A.B.C.D.0.c.=.=.k.E.a.=.=.=.=.=.=.=.=.=.=.=.0.w.F.G.H.I.",
"t.u.v.v.v.v.v.B.C.D.J.f.K.L.o.K.M.p.w.N.j.O.O.P.Q.o.C.B.R.S.T.U.",
"t.u.v.v.v.v.v.v.v.V.C.W.A.v.v.A.V.X.B.o.L.B.B.B.v.v.v.v.R.Y.T.Z.",
"t.u.v.v.v.v.v.v.v.v.v.v.v.v.v.v.v.v.v.v.v.v.v.v.v.v.v.v.`. +T.Z.",
"t.u.v.v.v.v.v.v.v.v.v.v.v.v.v.v.v.v.v.v.v.v.v.v.v.v.v.v.`. +T..+",
"++@+#+#+#+$+%+%+%+%+%+%+%+%+&+*+=+=+=+=+=+=+*+-+&+&+%+%+&+;+>+,+",
"'+)+!+!+~+{+]+]+]+]+]+]+^+^+/+(+(+(+(+(+(+(+(+(+/+^+^+]+/+/+(+_+",
":+<+[+}+|+1+2+2+2+2+2+2+3+4+5+6+7+7+7+7+7+7+8+9+5+:+0+a+b+c+d+e+",
"f+g+h+i+j+k+l+l+l+l+l+l+f+m+n+o+p+p+q+q+q+r+s+t+u+v+w+x+y+z+A+B+",
"C+D+E+F+G+H+I+I+I+I+I+I+J+K+L+M+N+O+P+P+P+N+Q+R+S+T+K+U+U+V+W+X+",
"Y+Z+`+ @.@+@+@+@+@+@+@+@+@+@+@+@+@+@+@+@+@+@+@+@+@+@+@+@@@#@$@%@",
"&@*@=@-@.@+@+@+@+@+@+@+@+@+@+@+@+@+@+@+@+@+@+@+@+@+@+@+@@@#@$@%@",
";@>@,@N+#@+@+@+@+@+@+@+@+@+@+@+@+@+@+@+@+@+@+@+@+@+@+@+@'@#@$@%@",
")@!@~@{@]@+@+@+@+@+@+@+@+@+@+@+@+@+@+@+@+@+@+@+@+@+@+@+@^@.@$@%@",
")@/@)@N+(@+@+@+@+@+@+@+@+@+@+@+@+@+@+@+@+@+@+@+@+@+@+@+@^@.@$@%@",
"N+_@N+-@:@<@+@+@+@+@+@+@+@+@+@+@+@+@+@+@+@+@+@+@+@+@+@+@^@.@$@%@",
"[@}@|@.@#@^@+@+@+@+@+@+@+@+@+@+@+@+@+@+@+@+@+@+@+@+@+@+@^@.@$@%@",
"1@2@3@4@1@5@+@+@+@+@+@+@+@+@+@+@+@+@+@+@@@:@#@.@6@#@^@@@^@.@$@%@",
"7@8@9@0@a@T+b@b@b@b@b@b@7@c@d@d@d@d@d@d@e@f@g@h@i@j@U+a@k@l@m@W+"};
