/* XPM */
static char * water3_xpm[] = {
"32 32 252 2",
"  	c #000000",
". 	c #040400",
"+ 	c #0A0B00",
"@ 	c #0E0F00",
"# 	c #121300",
"$ 	c #161700",
"% 	c #171900",
"& 	c #181A00",
"* 	c #181A01",
"= 	c #191A02",
"- 	c #191A01",
"; 	c #161801",
"> 	c #141501",
", 	c #0E0F01",
"' 	c #070700",
") 	c #010200",
"! 	c #010102",
"~ 	c #010100",
"{ 	c #030400",
"] 	c #070801",
"^ 	c #070701",
"/ 	c #050601",
"( 	c #0C1010",
"_ 	c #040606",
": 	c #010202",
"< 	c #4B6865",
"[ 	c #28403E",
"} 	c #121C1B",
"| 	c #040605",
"1 	c #040402",
"2 	c #4D807F",
"3 	c #477A7A",
"4 	c #477777",
"5 	c #476E6D",
"6 	c #425E5C",
"7 	c #344B48",
"8 	c #2C3C3B",
"9 	c #303D3B",
"0 	c #2E3C3A",
"a 	c #212B2B",
"b 	c #030201",
"c 	c #100F07",
"d 	c #292512",
"e 	c #4C8283",
"f 	c #4B8282",
"g 	c #4C8383",
"h 	c #4E8281",
"i 	c #4D7F7E",
"j 	c #497A79",
"k 	c #4B7775",
"l 	c #567A75",
"m 	c #5E7C75",
"n 	c #617C75",
"o 	c #506865",
"p 	c #3A4C4B",
"q 	c #222D2D",
"r 	c #0C1112",
"s 	c #000101",
"t 	c #0C0B05",
"u 	c #1E1C0E",
"v 	c #3E391C",
"w 	c #5A5229",
"x 	c #4C8384",
"y 	c #4D8484",
"z 	c #4E8585",
"A 	c #4E8485",
"B 	c #528585",
"C 	c #578685",
"D 	c #648985",
"E 	c #638985",
"F 	c #698A85",
"G 	c #6A8B85",
"H 	c #6D8C85",
"I 	c #6B8B85",
"J 	c #678A85",
"K 	c #668985",
"L 	c #456463",
"M 	c #304341",
"N 	c #1D2728",
"O 	c #111618",
"P 	c #080C0D",
"Q 	c #020303",
"R 	c #080704",
"S 	c #18170B",
"T 	c #3A351B",
"U 	c #554E27",
"V 	c #685F2F",
"W 	c #706733",
"X 	c #4B8283",
"Y 	c #4D8485",
"Z 	c #558685",
"` 	c #548585",
" .	c #588685",
"..	c #598785",
"+.	c #5B8785",
"@.	c #5F8885",
"#.	c #5C8785",
"$.	c #538382",
"%.	c #4C7474",
"&.	c #37504E",
"*.	c #142326",
"=.	c #070C0D",
"-.	c #040302",
";.	c #121008",
">.	c #393319",
",.	c #585128",
"'.	c #6B6231",
").	c #716733",
"!.	c #726834",
"~.	c #4A8182",
"{.	c #4F8585",
"].	c #518483",
"^.	c #487879",
"/.	c #31595C",
"(.	c #172F36",
"_.	c #081013",
":.	c #050502",
"<.	c #131109",
"[.	c #312C16",
"}.	c #564E26",
"|.	c #6A6130",
"1.	c #706633",
"2.	c #418082",
"3.	c #437F82",
"4.	c #4A8283",
"5.	c #4A7E7E",
"6.	c #396469",
"7.	c #213E46",
"8.	c #0E1B1E",
"9.	c #060603",
"0.	c #1A180C",
"a.	c #575028",
"b.	c #6E6432",
"c.	c #2F797F",
"d.	c #357C82",
"e.	c #428083",
"f.	c #488284",
"g.	c #4B8485",
"h.	c #4C8282",
"i.	c #407277",
"j.	c #2D535A",
"k.	c #14272B",
"l.	c #010303",
"m.	c #221F10",
"n.	c #413C1D",
"o.	c #5C5329",
"p.	c #695F2F",
"q.	c #2B787F",
"r.	c #2C7A82",
"s.	c #307B83",
"t.	c #367D84",
"u.	c #418185",
"v.	c #4A8385",
"w.	c #4C8485",
"x.	c #4A7E7F",
"y.	c #39656B",
"z.	c #213E45",
"A.	c #0A1518",
"B.	c #19170C",
"C.	c #453F1F",
"D.	c #5F562B",
"E.	c #6A6030",
"F.	c #6F6532",
"G.	c #2A787F",
"H.	c #2D7B83",
"I.	c #2E7C84",
"J.	c #307D85",
"K.	c #347E85",
"L.	c #3D8085",
"M.	c #40747A",
"N.	c #27464A",
"O.	c #081011",
"P.	c #17150A",
"Q.	c #3A351A",
"R.	c #564E27",
"S.	c #675E2E",
"T.	c #2F7D85",
"U.	c #2F7981",
"V.	c #28646E",
"W.	c #162C2F",
"X.	c #060C0E",
"Y.	c #030607",
"Z.	c #020201",
"`.	c #0F0E06",
" +	c #2A2613",
".+	c #484220",
"++	c #61592C",
"@+	c #6D6332",
"#+	c #29777F",
"$+	c #2E7A81",
"%+	c #25656F",
"&+	c #143E47",
"*+	c #07171B",
"=+	c #020608",
"-+	c #090804",
";+	c #1C190C",
">+	c #3B361A",
",+	c #595128",
"'+	c #2B777E",
")+	c #205B62",
"!+	c #143A3F",
"~+	c #091F25",
"{+	c #030E11",
"]+	c #050402",
"^+	c #121007",
"/+	c #302D16",
"(+	c #504925",
"_+	c #665E2F",
":+	c #29767F",
"<+	c #205D63",
"[+	c #164044",
"}+	c #092026",
"|+	c #020B0D",
"1+	c #292612",
"2+	c #4C4622",
"3+	c #635A2D",
"4+	c #134854",
"5+	c #09232B",
"6+	c #020A0C",
"7+	c #0C0B06",
"8+	c #272311",
"9+	c #4C4522",
"0+	c #61582B",
"a+	c #6D6431",
"b+	c #031317",
"c+	c #000203",
"d+	c #262211",
"e+	c #474120",
"f+	c #5C5429",
"g+	c #6C6231",
"h+	c #242110",
"i+	c #423C1E",
"j+	c #695F30",
"k+	c #1D1B0D",
"l+	c #2D2915",
"m+	c #504A24",
"n+	c #494321",
"o+	c #575027",
"p+	c #60582B",
"q+	c #665D2E",
"r+	c #69602F",
"s+	c #6C6331",
"t+	c #5F572B",
"u+	c #5D552A",
"v+	c #585127",
"w+	c #574F27",
"x+	c #5A5228",
"y+	c #5C542A",
"z+	c #60572B",
"A+	c #62592C",
"B+	c #645B2D",
"C+	c #675D2E",
"    . + @ # $ % % % % % % & * = = = = = = = = = = - * ; > , ' ) ",
"!         ~ { ] ] ] ] ] ] ] ] ] ] ] ] ] ] ] ] ] ] ^ /           ",
"( _ :                                                           ",
"< [ } |                                                       1 ",
"2 3 4 5 6 7 8 9 9 9 9 9 9 9 9 9 9 9 9 9 9 9 9 0 a |       b c d ",
"e f g h i j k l m n n n n n n n n n n n n o p q r s   ~ t u v w ",
"x f g y z z A B C D E F F G H I J K K L M N O P Q ~ R S T U V W ",
"X f g y z z Y Y z Z `  ...+.@.#.$.%.&.*.=.:     -.;.>.,.'.).!.!.",
"~.~.X y z z z z z z Y Y z {.].^./.(._.:   ~ :.<.[.}.|.1.).).!.!.",
"2.3.4.y z z z z z z z z z 5.6.7.8.    ~ 9.0.T a.V b.).).!.!.!.!.",
"c.d.e.f.g.Y z z z z z h.i.j.k.l.  ~ R m.n.o.p.b.).!.!.!.!.!.!.!.",
"q.r.s.t.u.v.w.Y y y x.y.z.A.    1 B.C.D.E.F.!.!.!.!.!.!.!.!.!.!.",
"G.r.H.I.J.K.L.w.y M.N.O.    -.P.Q.R.S.1.!.!.!.!.!.!.!.!.!.!.!.!.",
"G.r.H.I.T.T.U.V.W.X.Y.s Z.`. +.+++@+).!.!.!.!.!.!.!.!.!.!.!.!.!.",
"#+r.H.I.$+%+&+*+=+  ~ -+;+>+,+|.!.!.!.!.!.!.!.!.!.!.!.!.!.!.!.!.",
"#+r.'+)+!+~+{+s   ]+^+/+(+_+1.!.!.!.!.!.!.!.!.!.!.!.!.!.!.!.!.!.",
":+<+[+}+|+s   b t 1+2+3+b.!.!.!.!.!.!.!.!.!.!.!.!.!.!.!.!.!.!.!.",
"4+5+6+s   Z.7+8+9+0+a+).).!.!.!.!.!.!.!.!.!.!.!.!.!.!.!.!.!.!.!.",
"b+c+  Z.t d+e+f+g+F.).!.!.!.!.!.!.!.!.!.!.!.!.!.!.!.!.!.!.!.!.!.",
"  b t h+i+,+j+b.!.!.!.!.!.!.!.!.!.!.!.!.!.!.!.!.!.!.!.!.!.!.!.!.",
"k+l+v m+3+b.!.!.!.!.!.!.!.!.!.!.!.!.!.!.!.!.!.!.!.!.!.!.!.!.!.!.",
"n+o+p+q+a+!.!.!.!.!.!.!.!.!.!.!.!.!.!.!.!.!.!.!.!.!.!.!.!.!.!.!.",
"q+r+|.|.b.!.!.!.!.!.!.!.!.!.!.!.!.!.!.!.!.!.!.!.!.!.!.!.!.!.!.!.",
"r+|.|.|.b.!.!.!.!.!.!.!.!.!.!.!.!.!.!.!.!.!.!.!.!.!.!.!.!.!.!.!.",
"r+|.|.|.b.!.!.!.!.!.!.!.!.!.!.!.!.!.!.!.!.!.!.!.!.!.!.!.!.!.!.!.",
"r+|.|.|.b.!.!.!.!.!.!.!.!.!.!.!.!.!.!.!.!.!.!.!.!.!.!.!.!.!.!.!.",
"r+|.|.|.b.!.!.!.!.!.!.!.!.!.!.!.!.!.!.!.!.!.!.!.!.!.!.!.!.!.!.!.",
"r+|.|.|.b.!.!.!.!.!.!.!.!.!.!.!.!.!.!.!.!.!.!.!.!.!.!.!.!.!.!.!.",
"r+|.|.|.b.!.!.!.!.!.!.!.!.!.!.!.!.!.!.!.!.!.!.!.!.!.!.!.!.!.!.!.",
"r+|.|.|.a+).!.!.!.!.!.!.!.!.!.!.!.!.!.!.!.!.!.!.!.!.!.!.!.!.!.!.",
"r+|.|.|.s+1.!.!.!.!.!.!.!.!.!.!.!.!.!.!.!.!.!.!.!.!.!.!.!.!.!.!.",
"t+u+v+}.w+x+f+f+f+f+f+y+u+z+A+3+B+C+C+C+C+C+C+C+C+C+C+C+C+C+C+C+"};
