/* XPM */
static char * water1_xpm[] = {
"33 32 278 2",
"  	c #010200",
". 	c #070700",
"+ 	c #0E0F01",
"@ 	c #141501",
"# 	c #161801",
"$ 	c #181A01",
"% 	c #191A01",
"& 	c #191A02",
"* 	c #181A00",
"= 	c #171900",
"- 	c #161700",
"; 	c #121300",
"> 	c #0E0F00",
", 	c #0A0B00",
"' 	c #040400",
") 	c #000000",
"! 	c #040607",
"~ 	c #050601",
"{ 	c #070701",
"] 	c #070801",
"^ 	c #030400",
"/ 	c #010100",
"( 	c #010102",
"_ 	c #1B2326",
": 	c #010202",
"< 	c #040606",
"[ 	c #0C1010",
"} 	c #557172",
"| 	c #040402",
"1 	c #040605",
"2 	c #121C1B",
"3 	c #28403E",
"4 	c #4B6865",
"5 	c #81ABAA",
"6 	c #292512",
"7 	c #100F07",
"8 	c #030201",
"9 	c #212B2B",
"0 	c #2E3C3A",
"a 	c #303D3B",
"b 	c #2C3C3B",
"c 	c #344B48",
"d 	c #425E5C",
"e 	c #476E6D",
"f 	c #477777",
"g 	c #477A7A",
"h 	c #4D807F",
"i 	c #6E9C99",
"j 	c #5A5229",
"k 	c #3E391C",
"l 	c #1E1C0E",
"m 	c #0C0B05",
"n 	c #000101",
"o 	c #0C1112",
"p 	c #222D2D",
"q 	c #3A4C4B",
"r 	c #506865",
"s 	c #617C75",
"t 	c #5E7C75",
"u 	c #567A75",
"v 	c #4B7775",
"w 	c #497A79",
"x 	c #4D7F7E",
"y 	c #4E8281",
"z 	c #4C8383",
"A 	c #4B8282",
"B 	c #4C8283",
"C 	c #61A2A7",
"D 	c #706733",
"E 	c #685F2F",
"F 	c #554E27",
"G 	c #3A351B",
"H 	c #18170B",
"I 	c #080704",
"J 	c #020303",
"K 	c #080C0D",
"L 	c #111618",
"M 	c #1D2728",
"N 	c #304341",
"O 	c #456463",
"P 	c #668985",
"Q 	c #678A85",
"R 	c #6B8B85",
"S 	c #6D8C85",
"T 	c #6A8B85",
"U 	c #698A85",
"V 	c #638985",
"W 	c #648985",
"X 	c #578685",
"Y 	c #528585",
"Z 	c #4E8485",
"` 	c #4E8585",
" .	c #4D8484",
"..	c #4C8384",
"+.	c #5AA3AC",
"@.	c #726834",
"#.	c #716733",
"$.	c #6B6231",
"%.	c #585128",
"&.	c #393319",
"*.	c #121008",
"=.	c #040302",
"-.	c #070C0D",
";.	c #142326",
">.	c #37504E",
",.	c #4C7474",
"'.	c #538382",
").	c #5C8785",
"!.	c #5F8885",
"~.	c #5B8785",
"{.	c #598785",
"].	c #588685",
"^.	c #548585",
"/.	c #558685",
"(.	c #4D8485",
"_.	c #4B8283",
":.	c #569CA3",
"<.	c #706633",
"[.	c #6A6130",
"}.	c #564E26",
"|.	c #312C16",
"1.	c #131109",
"2.	c #050502",
"3.	c #081013",
"4.	c #172F36",
"5.	c #31595C",
"6.	c #487879",
"7.	c #518483",
"8.	c #4F8585",
"9.	c #4A8182",
"0.	c #55999F",
"a.	c #6E6432",
"b.	c #575028",
"c.	c #1A180C",
"d.	c #060603",
"e.	c #0E1B1E",
"f.	c #213E46",
"g.	c #396469",
"h.	c #4A7E7E",
"i.	c #4A8283",
"j.	c #437F82",
"k.	c #418082",
"l.	c #4F9193",
"m.	c #695F2F",
"n.	c #5C5329",
"o.	c #413C1D",
"p.	c #221F10",
"q.	c #010303",
"r.	c #14272B",
"s.	c #2D535A",
"t.	c #407277",
"u.	c #4C8282",
"v.	c #4B8485",
"w.	c #488284",
"x.	c #428083",
"y.	c #357C82",
"z.	c #2F797F",
"A.	c #427B74",
"B.	c #6F6532",
"C.	c #6A6030",
"D.	c #5F562B",
"E.	c #453F1F",
"F.	c #19170C",
"G.	c #0A1518",
"H.	c #213E45",
"I.	c #39656B",
"J.	c #4A7E7F",
"K.	c #4C8485",
"L.	c #4A8385",
"M.	c #418185",
"N.	c #367D84",
"O.	c #307B83",
"P.	c #2C7A82",
"Q.	c #2B787F",
"R.	c #3C7670",
"S.	c #675E2E",
"T.	c #564E27",
"U.	c #3A351A",
"V.	c #17150A",
"W.	c #081011",
"X.	c #27464A",
"Y.	c #40747A",
"Z.	c #3D8085",
"`.	c #347E85",
" +	c #307D85",
".+	c #2E7C84",
"++	c #2D7B83",
"@+	c #2A787F",
"#+	c #2C7270",
"$+	c #6D6332",
"%+	c #61592C",
"&+	c #484220",
"*+	c #2A2613",
"=+	c #0F0E06",
"-+	c #020201",
";+	c #030607",
">+	c #060C0E",
",+	c #162C2F",
"'+	c #28646E",
")+	c #2F7981",
"!+	c #2F7D85",
"~+	c #2B7170",
"{+	c #595128",
"]+	c #3B361A",
"^+	c #1C190C",
"/+	c #090804",
"(+	c #020608",
"_+	c #07171B",
":+	c #143E47",
"<+	c #25656F",
"[+	c #2E7A81",
"}+	c #29777F",
"|+	c #2A7070",
"1+	c #665E2F",
"2+	c #504925",
"3+	c #302D16",
"4+	c #121007",
"5+	c #050402",
"6+	c #030E11",
"7+	c #091F25",
"8+	c #143A3F",
"9+	c #205B62",
"0+	c #2B777E",
"a+	c #2A6F70",
"b+	c #635A2D",
"c+	c #4C4622",
"d+	c #292612",
"e+	c #020B0D",
"f+	c #092026",
"g+	c #164044",
"h+	c #205D63",
"i+	c #29767F",
"j+	c #6D6431",
"k+	c #61582B",
"l+	c #4C4522",
"m+	c #272311",
"n+	c #0C0B06",
"o+	c #020A0C",
"p+	c #09232B",
"q+	c #134854",
"r+	c #266A6D",
"s+	c #6C6231",
"t+	c #5C5429",
"u+	c #474120",
"v+	c #262211",
"w+	c #000203",
"x+	c #031317",
"y+	c #11424E",
"z+	c #695F30",
"A+	c #423C1E",
"B+	c #242110",
"C+	c #020D10",
"D+	c #504A24",
"E+	c #2D2915",
"F+	c #1D1B0D",
"G+	c #151309",
"H+	c #665D2E",
"I+	c #60582B",
"J+	c #575027",
"K+	c #494321",
"L+	c #3B371B",
"M+	c #69602F",
"N+	c #5C552A",
"O+	c #5B5429",
"P+	c #5A5329",
"Q+	c #595229",
"R+	c #6C6331",
"S+	c #675D2E",
"T+	c #645B2D",
"U+	c #62592C",
"V+	c #60572B",
"W+	c #5D552A",
"X+	c #5C542A",
"Y+	c #5A5228",
"Z+	c #574F27",
"`+	c #585127",
" @	c #5F572B",
".@	c #4F4924",
"  . + @ # $ % & & & & & & & & & & $ * = = = = = = - ; > , ' ) ) ! ",
") ) ) ) ) ~ { ] ] ] ] ] ] ] ] ] ] ] ] ] ] ] ] ] ] ^ / ) ) ) ) ( _ ",
") ) ) ) ) ) ) ) ) ) ) ) ) ) ) ) ) ) ) ) ) ) ) ) ) ) ) ) ) : < [ } ",
"| ) ) ) ) ) ) ) ) ) ) ) ) ) ) ) ) ) ) ) ) ) ) ) ) ) ) ) 1 2 3 4 5 ",
"6 7 8 ) ) ) 1 9 0 a a a a a a a a a a a a a a a a b c d e f g h i ",
"j k l m / ) n o p q r s s s s s s s s s s s s t u v w x y z A B C ",
"D E F G H I / J K L M N O P P Q R S T U U V W X Y Z ` `  .z A ..+.",
"@.@.#.$.%.&.*.=.) ) : -.;.>.,.'.).!.~.{.].^./.` (.(.` `  .z A _.:.",
"@.@.#.#.<.[.}.|.1.2./ ) : 3.4.5.6.7.8.` (.(.` ` ` ` ` `  ._.9.9.0.",
"@.@.@.@.#.#.a.E b.G c.d./ ) ) e.f.g.h.` ` ` ` ` ` ` ` `  .i.j.k.l.",
"@.@.@.@.@.@.@.#.a.m.n.o.p.I / ) q.r.s.t.u.` ` ` ` ` (.v.w.x.y.z.A.",
"@.@.@.@.@.@.@.@.@.@.B.C.D.E.F.| ) ) G.H.I.J. . .(.K.L.M.N.O.P.Q.R.",
"@.@.@.@.@.@.@.@.@.@.@.@.<.S.T.U.V.=.) ) W.X.Y. .K.Z.`. +.+++P.@+#+",
"@.@.@.@.@.@.@.@.@.@.@.@.@.#.$+%+&+*+=+-+n ;+>+,+'+)+!+!+.+++P.@+~+",
"@.@.@.@.@.@.@.@.@.@.@.@.@.@.@.@.[.{+]+^+/+/ ) (+_+:+<+[+.+++P.}+|+",
"@.@.@.@.@.@.@.@.@.@.@.@.@.@.@.@.@.<.1+2+3+4+5+) n 6+7+8+9+0+P.}+a+",
"@.@.@.@.@.@.@.@.@.@.@.@.@.@.@.@.@.@.@.a.b+c+d+m 8 ) n e+f+g+h+i+a+",
"@.@.@.@.@.@.@.@.@.@.@.@.@.@.@.@.@.@.@.#.#.j+k+l+m+n+-+) n o+p+q+r+",
"@.@.@.@.@.@.@.@.@.@.@.@.@.@.@.@.@.@.@.@.@.#.B.s+t+u+v+m -+) w+x+y+",
"@.@.@.@.@.@.@.@.@.@.@.@.@.@.@.@.@.@.@.@.@.@.@.@.a.z+{+A+B+m 8 ) C+",
"@.@.@.@.@.@.@.@.@.@.@.@.@.@.@.@.@.@.@.@.@.@.@.@.@.@.a.b+D+k E+F+G+",
"@.@.@.@.@.@.@.@.@.@.@.@.@.@.@.@.@.@.@.@.@.@.@.@.@.@.@.j+H+I+J+K+L+",
"@.@.@.@.@.@.@.@.@.@.@.@.@.@.@.@.@.@.@.@.@.@.@.@.@.@.@.a.[.[.M+H+J+",
"@.@.@.@.@.@.@.@.@.@.@.@.@.@.@.@.@.@.@.@.@.@.@.@.@.@.@.a.[.[.[.M+N+",
"@.@.@.@.@.@.@.@.@.@.@.@.@.@.@.@.@.@.@.@.@.@.@.@.@.@.@.a.[.[.[.M+N+",
"@.@.@.@.@.@.@.@.@.@.@.@.@.@.@.@.@.@.@.@.@.@.@.@.@.@.@.a.[.[.[.M+N+",
"@.@.@.@.@.@.@.@.@.@.@.@.@.@.@.@.@.@.@.@.@.@.@.@.@.@.@.a.[.[.[.M+O+",
"@.@.@.@.@.@.@.@.@.@.@.@.@.@.@.@.@.@.@.@.@.@.@.@.@.@.@.a.[.[.[.M+P+",
"@.@.@.@.@.@.@.@.@.@.@.@.@.@.@.@.@.@.@.@.@.@.@.@.@.@.@.a.[.[.[.M+Q+",
"@.@.@.@.@.@.@.@.@.@.@.@.@.@.@.@.@.@.@.@.@.@.@.@.@.@.#.j+[.[.[.M+Q+",
"@.@.@.@.@.@.@.@.@.@.@.@.@.@.@.@.@.@.@.@.@.@.@.@.@.@.<.R+[.[.[.M+Q+",
"S+S+S+S+S+S+S+S+S+S+S+S+S+S+S+T+b+U+V+W+X+t+t+t+t+t+Y+Z+}.`+W+ @.@"};
