/* XPM */
static char * water_door3_xpm[] = {
"32 32 252 2",
"  	c #1B1D02",
". 	c #000000",
"+ 	c #131208",
"@ 	c #746A33",
"# 	c #706632",
"$ 	c #564E25",
"% 	c #322D16",
"& 	c #645B2D",
"* 	c #675D2D",
"= 	c #6E6E41",
"- 	c #70878E",
"; 	c #53ABC9",
"> 	c #27C8FD",
", 	c #5EA6BE",
"' 	c #6D95A3",
") 	c #6B918A",
"! 	c #6D7751",
"~ 	c #6F6937",
"{ 	c #181A02",
"] 	c #141208",
"^ 	c #736933",
"/ 	c #19160B",
"( 	c #675D2E",
"_ 	c #6D744B",
": 	c #4EB1D2",
"< 	c #29C9FF",
"[ 	c #6BA0B2",
"} 	c #6E96A4",
"| 	c #6B8E7B",
"1 	c #151702",
"2 	c #1A180B",
"3 	c #554D25",
"4 	c #6B612F",
"5 	c #6E6F44",
"6 	c #70878C",
"7 	c #4FACCA",
"8 	c #2ECAFF",
"9 	c #66A3B7",
"0 	c #6E98A6",
"a 	c #726832",
"b 	c #655C2D",
"c 	c #6D6330",
"d 	c #6E6F43",
"e 	c #6D7E69",
"f 	c #649EB1",
"g 	c #41B9E1",
"h 	c #4FB4D5",
"i 	c #699BAB",
"j 	c #6C9499",
"k 	c #6F6633",
"l 	c #151602",
"m 	c #544C25",
"n 	c #665D2D",
"o 	c #6F6531",
"p 	c #6E6D3F",
"q 	c #6C7C5D",
"r 	c #6C98A7",
"s 	c #53AAC7",
"t 	c #3CC4F2",
"u 	c #5EA6BD",
"v 	c #6D97A5",
"w 	c #6F7557",
"x 	c #101100",
"y 	c #1E1C0D",
"z 	c #312C15",
"A 	c #695F2E",
"B 	c #6F6632",
"C 	c #6C754F",
"D 	c #6B9EAE",
"E 	c #47C8F3",
"F 	c #42CFFE",
"G 	c #689EAF",
"H 	c #0E0F00",
"I 	c #030301",
"J 	c #302D15",
"K 	c #524A24",
"L 	c #6D7C61",
"M 	c #6C9297",
"N 	c #6D98A7",
"O 	c #679EB0",
"P 	c #46CBF7",
"Q 	c #43CFFD",
"R 	c #3CCDFF",
"S 	c #463F1F",
"T 	c #6E6A39",
"U 	c #6D7654",
"V 	c #6C939B",
"W 	c #6D96A3",
"X 	c #62A5BB",
"Y 	c #4CC2E8",
"Z 	c #44CDFB",
"` 	c #0C0D00",
" .	c #433C1D",
"..	c #403A1C",
"+.	c #665D2E",
"@.	c #6E6D40",
"#.	c #6D7755",
"$.	c #6C8D87",
"%.	c #699AAA",
"&.	c #4AB0D2",
"*.	c #080900",
"=.	c #060602",
"-.	c #48421F",
";.	c #3A351A",
">.	c #4B4421",
",.	c #6E6939",
"'.	c #6D7045",
").	c #6D7650",
"!.	c #6D764F",
"~.	c #6B8A75",
"{.	c #080801",
"].	c #736932",
"^.	c #504823",
"/.	c #665C2D",
"(.	c #6E6430",
"_.	c #6F6D45",
":.	c #6F878B",
"<.	c #6F8A8F",
"[.	c #6E8D93",
"}.	c #6E939C",
"|.	c #6D97A2",
"1.	c #4DB0D2",
"2.	c #040401",
"3.	c #090803",
"4.	c #595126",
"5.	c #6B6230",
"6.	c #6E7559",
"7.	c #6C9BAB",
"8.	c #6C98A6",
"9.	c #6D98A6",
"0.	c #699AAB",
"a.	c #4FB1D2",
"b.	c #090904",
"c.	c #5E5729",
"d.	c #675E2E",
"e.	c #6E7D67",
"f.	c #65A3B6",
"g.	c #4EB6D9",
"h.	c #3CC2EF",
"i.	c #39C1EF",
"j.	c #36C4F4",
"k.	c #38CBFD",
"l.	c #695F2F",
"m.	c #6D7A5B",
"n.	c #6F8481",
"o.	c #6E8B8F",
"p.	c #6D8F96",
"q.	c #6D8F95",
"r.	c #6F888B",
"s.	c #5EABC5",
"t.	c #312C16",
"u.	c #655B2D",
"v.	c #6B6130",
"w.	c #746934",
"x.	c #736833",
"y.	c #6D7B5F",
"z.	c #6D7C65",
"A.	c #6E7C66",
"B.	c #6E7B63",
"C.	c #5FAAC3",
"D.	c #0C0B05",
"E.	c #716732",
"F.	c #23200F",
"G.	c #6F6835",
"H.	c #6D6E3F",
"I.	c #6D7349",
"J.	c #6D7954",
"K.	c #0D0C05",
"L.	c #766C34",
"M.	c #211E0E",
"N.	c #63A5BB",
"O.	c #020201",
"P.	c #272411",
"Q.	c #6A602F",
"R.	c #64A3B7",
"S.	c #1F1C0E",
"T.	c #6D97A4",
"U.	c #6B9AA9",
"V.	c #756B33",
"W.	c #19170B",
"X.	c #554E26",
"Y.	c #6F6836",
"Z.	c #6E7B65",
"`.	c #6E7D6A",
" +	c #6E6431",
".+	c #494220",
"++	c #826E32",
"@+	c #746832",
"#+	c #2A2612",
"$+	c #6A612F",
"%+	c #716632",
"&+	c #726732",
"*+	c #1C190C",
"=+	c #6C6330",
"-+	c #332E16",
";+	c #5D542A",
">+	c #5F562B",
",+	c #635A2D",
"'+	c #63592B",
")+	c #020200",
"!+	c #5C5529",
"~+	c #564F26",
"{+	c #4E4623",
"]+	c #4B4321",
"^+	c #4C4522",
"/+	c #534C25",
"(+	c #524B24",
"_+	c #070603",
":+	c #000200",
"<+	c #010400",
"[+	c #292612",
"}+	c #282512",
"|+	c #0C0C06",
"1+	c #060503",
"2+	c #131108",
"3+	c #4E4723",
"4+	c #61582B",
"5+	c #635A2C",
"6+	c #001700",
"7+	c #003D00",
"8+	c #005100",
"9+	c #006900",
"0+	c #007000",
"a+	c #000500",
"b+	c #002C00",
"c+	c #004D00",
"d+	c #002200",
"e+	c #001200",
"f+	c #383319",
"g+	c #39341A",
"h+	c #0E0D06",
"i+	c #003100",
"j+	c #006500",
"k+	c #007300",
"l+	c #005800",
"m+	c #008600",
"n+	c #006D00",
"o+	c #007B00",
"p+	c #009600",
"q+	c #001E00",
"r+	c #005F00",
"s+	c #009100",
"t+	c #008500",
"u+	c #010101",
"v+	c #100F07",
"w+	c #121108",
"x+	c #17150A",
"y+	c #252211",
"z+	c #262211",
"A+	c #232010",
"B+	c #1D1A0D",
"C+	c #131109",
"  . + @ # # # # # # $ . % & * # # # # # # # # = - ; > , ' ) ! ~ ",
"{ . ] ^ # # # # # # $ . / & ( # # # # # # # # _ - : < [ } | # # ",
"1 . 2 ^ # # # # # # 3 . / & 4 # # # # # # # # 5 6 7 8 9 0 | # # ",
"1 . 2 a # # # # # # 3 . / b c # # # # # # # # d e f g h i j k # ",
"l . 2 a # # # # # # m . / n o # # # # # # # # p q r s t u v e w ",
"x . y a # # # # # # m . z A # # # # # # # # # B C D r E F G 0 0 ",
"H I J a # # # # # # K . % A # # # # # # # # # # B L M N O P Q R ",
"H I J a # # # # # # S . % A # # # # # # # # # # # T U V W X Y Z ",
"` I J a # # # # # #  .. ..+.# # # # # # # # # # # # # @.#.$.%.&.",
"*.=.-.a # # # # # # ;.. >.+.# # # # # # # # # # # ,.'.).!.~.%.&.",
"{.=.-.].# # # # # # % . ^./.(.# # # # # # # # # _.:.<.[.}.|.%.1.",
"2.3.4.^ # # # # # # % . & b 5.# # # # # # # # # 6.7.8.9.9.9.0.a.",
"2.b.c.a # # # # # # % . >.& d.# # # # # # # # # e.f.g.h.i.i.j.k.",
"2.b.c.a # # # # # # % . >.& l.# # # # # # # # # m.n.o.p.q.r.9.s.",
"2.b.c.a # # # # # # t.. >.u.v.# # # # # w.x.# # '.y.z.A.A.B.0 C.",
"I D.a E.# # # # # # F.. >.b c # # # # # # # # # # k G.H.I.J.9.C.",
"I K.L.# # # # # # # M.. >.+.# # # # # # # # # # # # # # # d 7.N.",
"O.P.L.# # # # # # # M.. >.Q.# # # # # # # # # # # # # # # d 7.R.",
"O.P.L.# # # # # # # S.. >.4 # # # # # # # # # # # # # # # d T.U.",
"O.P.V.# # # # # # o W.. X.4 # # # # # # # # # # # # # # # Y.Z.`.",
"O.P.V.# # # # # #  +M.. >.4 # # # # # # # # # # # # # # # # # # ",
"O.P.V.# # # # # #  +M.. >.4 # # # # # # # # # # # # # # # # # # ",
"O.P.V.# # # # # #  +M.. .+4 # # # # # # # # # ++@+# # # # # # # ",
"O.P.L.# # # # # #  +t.. % 4 # # # # # # # # # # # # # # # # # # ",
"O.P.L.# # # # # # o t.. #+$+# # # # # # # # # # # %+&+# # # # # ",
"O.P.L.# # # # # # o t.. *+n c # # # # # # # # # # # %+# # # # # ",
"O.P.L.# # # # # # # % . / & & c # # # # # # # # # # # # # # # # ",
"O.P.L.# # # # # # # % . / & & & =+o # # # # # # # # # # # # # # ",
"O.P.L.# # # # # # # -+. / ;+>+& ,+'+v.o # # # # # # # # # # # # ",
")+S.!+~+^.{+]+^+/+(+S.. _+:+<+[+}+|+1+2+3+4+5+5+5+5+5+5+5+5+5+5+",
". . . . . . . . . . 6+7+8+9+0+a+b+c+d+e+. . . . . . . . . . . . ",
"}+f+g+h+i+0+9+j+k+l+m+n+o+p+p+q+r+m+s+t+e+u+v+w+x+y+z+A+B+C+w+w+"};
