/* XPM */
static char * water_door1_xpm[] = {
"32 32 103 2",
"  	c #1B1C03",
". 	c #0B0C01",
"+ 	c #0A0B01",
"@ 	c #060600",
"# 	c #040500",
"$ 	c #050501",
"% 	c #040400",
"& 	c #050500",
"* 	c #101004",
"= 	c #000000",
"- 	c #131108",
"; 	c #1C190C",
"> 	c #100F07",
", 	c #131405",
"' 	c #121007",
") 	c #766C34",
"! 	c #756B33",
"~ 	c #746A33",
"{ 	c #736933",
"] 	c #726832",
"^ 	c #716732",
"/ 	c #0D0C05",
"( 	c #706632",
"_ 	c #736932",
": 	c #1A1B07",
"< 	c #1B1C07",
"[ 	c #1C1D08",
"} 	c #232409",
"| 	c #222409",
"1 	c #6F6531",
"2 	c #675D2E",
"3 	c #665D2D",
"4 	c #675E2E",
"5 	c #685F2E",
"6 	c #695F2F",
"7 	c #6A602F",
"8 	c #6C6230",
"9 	c #6E6430",
"0 	c #645B2D",
"a 	c #060603",
"b 	c #050402",
"c 	c #060502",
"d 	c #0A0904",
"e 	c #6E6431",
"f 	c #4E4622",
"g 	c #020201",
"h 	c #6D6330",
"i 	c #6A612F",
"j 	c #685E2E",
"k 	c #665C2D",
"l 	c #655C2D",
"m 	c #222309",
"n 	c #181A00",
"o 	c #111007",
"p 	c #131208",
"q 	c #010100",
"r 	c #60572A",
"s 	c #161309",
"t 	c #6F6939",
"u 	c #6E6E41",
"v 	c #564E25",
"w 	c #2B2713",
"x 	c #665D2E",
"y 	c #6F6633",
"z 	c #6F7254",
"A 	c #6F8991",
"B 	c #6D919C",
"C 	c #6F8C96",
"D 	c #4C4522",
"E 	c #322D16",
"F 	c #706839",
"G 	c #6F8280",
"H 	c #6D939F",
"I 	c #66A1B4",
"J 	c #639FB3",
"K 	c #58A6C0",
"L 	c #191B01",
"M 	c #453E1E",
"N 	c #6F6632",
"O 	c #6E8074",
"P 	c #6C97A3",
"Q 	c #58A9C5",
"R 	c #41BCE5",
"S 	c #44D0FF",
"T 	c #4DC8F2",
"U 	c #50C2E7",
"V 	c #1B1D02",
"W 	c #6E714C",
"X 	c #6B9DAD",
"Y 	c #659EB1",
"Z 	c #36CAFB",
"` 	c #49D1FF",
" .	c #6E98A6",
"..	c #534B24",
"+.	c #6F6735",
"@.	c #6F8687",
"#.	c #5EA2B8",
"$.	c #35BEEC",
"%.	c #49C0E7",
"&.	c #689BAB",
"*.	c #6D97A3",
"=.	c #6B8C77",
"-.	c #6B866C",
"  . + @ @ @ @ @ @ @ @ # # # $ $ $ $ $ # # % % $ $ $ # % % % % & ",
"* = = = = = = = = = = - ; > = = = = = = = = = = = = = = = = = = ",
", = ' ) ) ) ) ! ~ ~ ~ { { ] ] ] ] ] ] ] ] ] ] ] ] ] ^ ^ ^ ^ ^ ^ ",
", = / ~ ~ ~ ! ! ! ! ! ! ! ! ) ) ) ) ) ) ) ) ) ) ) ) ) ) ) ) ) ) ",
", = / ( ^ ^ ^ ^ ^ ^ ^ ^ ^ ] ] ] ] ] _ _ ~ ~ ~ ~ ~ ~ ~ ~ ~ ~ ~ ~ ",
": = / ( ( ( ( ( ( ( ( ( ( ( ( ( ( ( ( ( ( ( ( ( ( ( ( ( ( ( ( ( ",
"< = / ( ( ( ( ( ( ( ( ( ( ( ( ( ( ( ( ( ( ( ( ( ( ( ( ( ( ( ( ( ",
"[ = / ( ( ( ( ( ( ( ( ( ( ( ( ( ( ( ( ( ( ( ( ( ( ( ( ( ( ( ( ( ",
"} = / ( ( ( ( ( ( ( ( ( ( ( ( ( ( ( ( ( ( ( ( ( ( ( ( ( ( ( ( ( ",
"| = / ( ( ( ( ( ( 1 2 3 3 3 3 3 4 4 4 4 5 6 7 7 7 8 8 9 9 1 ( ( ",
"| = / ^ ( ( ( ( ( 9 0 ; a b b b b b b b b b b b b b c d d d d d ",
"| = / ^ ( ( ( ( ( e 0 c = = = = = = = = = = = = = = = = = = = = ",
"| = / ] ( ( ( ( ( e 0 b = 0 0 0 0 0 0 0 0 0 0 0 0 0 0 0 0 0 f f ",
"| = / ] ( ( ( ( ( ( 0 g = 0 0 0 h 9 9 9 9 9 i 7 7 7 6 j j j j j ",
"| = / ] ( ( ( ( ( ( 0 g = 0 0 j 1 ( ( ( ( ( ( ( ( ( ( ( ( ( ( ( ",
"| = / ] ( ( ( ( ( ( 0 g = 0 k 1 ( ( ( ( ( ( ( ( ( ( ( ( ( ( ( ( ",
"| = / ] ( ( ( ( ( ( l g = l 8 ( ( ( ( ( ( ( ( ( ( ( ( ( ( ( ( ( ",
"| = / ] ( ( ( ( ( ( 3 g = 0 i ( ( ( ( ( ( ( ( ( ( ( ( ( ( ( ( ( ",
"m = / ] ( ( ( ( ( ( 3 g = 0 6 ( ( ( ( ( ( ( ( ( ( ( ( ( ( ( ( ( ",
"n = / ] ( ( ( ( ( ( 4 g = 0 j ( ( ( ( ( ( ( ( ( ( ( ( ( ( ( ( ( ",
"n = o ] ( ( ( ( ( ( 4 g = 0 j ( ( ( ( ( ( ( ( ( ( ( ( ( ( ( ( ( ",
"n = p ] ( ( ( ( ( ( 4 g = 0 j ( ( ( ( ( ( ( ( ( ( ( ( ( ( ( ( ( ",
"n = p ] ( ( ( ( ( ( 4 g = 0 2 ( ( ( ( ( ( ( ( ( ( ( ( ( ( ( ( ( ",
"n = p ] ( ( ( ( ( ( 4 g = 0 2 ( ( ( ( ( ( ( ( ( ( ( ( ( ( ( ( ( ",
"n = p ] ( ( ( ( ( ( 4 q = 0 2 ( ( ( ( ( ( ( ( ( ( ( ( ( ( ( ( ( ",
"n = p { ( ( ( ( ( ( 4 = = 0 2 ( ( ( ( ( ( ( ( ( ( ( ( ( ( ( ( ( ",
"n = p { ( ( ( ( ( ( r = s 0 2 ( ( ( ( ( ( ( ( ( ( ( ( ( ( ( t u ",
"n = p { ( ( ( ( ( ( v = w 0 x ( ( ( ( ( ( ( ( ( ( ( ( y z A B C ",
"n = p { ( ( ( ( ( ( D = E 0 3 ( ( ( ( ( ( ( ( ( ( ( F G H I J K ",
"L = p { ( ( ( ( ( ( M = E 0 l ( ( ( ( ( ( ( ( ( N O P Q R S T U ",
"V = p ~ ( ( ( ( ( ( M = E 0 0 ( ( ( ( ( ( ( ( ( W X Y Z `  . . .",
"V = p ~ ( ( ( ( ( ( ..= E 0 0 ( ( ( ( ( ( ( ( +.@.#.$.%.&.*.=.-."};
