/* XPM */
static char * water_door2_xpm[] = {
"32 32 118 2",
"  	c #050600",
". 	c #090900",
"+ 	c #0A0B00",
"@ 	c #0F1000",
"# 	c #101101",
"$ 	c #111202",
"% 	c #171803",
"& 	c #151702",
"* 	c #151601",
"= 	c #181903",
"- 	c #1C1E03",
"; 	c #000000",
"> 	c #716732",
", 	c #706632",
"' 	c #736932",
") 	c #736933",
"! 	c #746A33",
"~ 	c #756B33",
"{ 	c #766C34",
"] 	c #544C25",
"^ 	c #100F07",
"/ 	c #706631",
"( 	c #585027",
"_ 	c #121008",
": 	c #726832",
"< 	c #6E6531",
"[ 	c #61592C",
"} 	c #151309",
"| 	c #6F6531",
"1 	c #645B2D",
"2 	c #252110",
"3 	c #292512",
"4 	c #655B2D",
"5 	c #1E1B0D",
"6 	c #655C2D",
"7 	c #16140A",
"8 	c #665C2D",
"9 	c #0B0A05",
"0 	c #0E0D06",
"a 	c #110F07",
"b 	c #121007",
"c 	c #121108",
"d 	c #161409",
"e 	c #18150A",
"f 	c #1D1A0D",
"g 	c #4E4622",
"h 	c #383319",
"i 	c #383218",
"j 	c #332D16",
"k 	c #221E0F",
"l 	c #020201",
"m 	c #685F2E",
"n 	c #695F2F",
"o 	c #6A602F",
"p 	c #6B6130",
"q 	c #6E6430",
"r 	c #6D6330",
"s 	c #6E6431",
"t 	c #6C6230",
"u 	c #080703",
"v 	c #69602F",
"w 	c #665D2D",
"x 	c #685E2E",
"y 	c #050502",
"z 	c #242110",
"A 	c #695F2E",
"B 	c #040401",
"C 	c #3D371B",
"D 	c #010100",
"E 	c #6E6F43",
"F 	c #6E6C3D",
"G 	c #6F6735",
"H 	c #574F26",
"I 	c #111007",
"J 	c #70878E",
"K 	c #708489",
"L 	c #70858B",
"M 	c #6D7956",
"N 	c #6D7852",
"O 	c #6E6B3D",
"P 	c #6F6632",
"Q 	c #100E07",
"R 	c #5AA5BE",
"S 	c #659EB1",
"T 	c #6E8D98",
"U 	c #71807D",
"V 	c #6D795D",
"W 	c #6D7751",
"X 	c #6D6E41",
"Y 	c #433D1E",
"Z 	c #0B0A04",
"` 	c #50BDE2",
" .	c #4DC1E8",
"..	c #43CCFA",
"+.	c #66A1B5",
"@.	c #6D97A5",
"#.	c #6D816D",
"$.	c #6F6A3A",
"%.	c #443E1E",
"&.	c #6D969F",
"*.	c #6D97A3",
"=.	c #689EB0",
"-.	c #44CCF9",
";.	c #4FBEE3",
">.	c #6D96A3",
",.	c #6D8883",
"'.	c #6D7750",
").	c #6F6939",
"!.	c #6C866D",
"~.	c #6B866D",
"{.	c #6C96A0",
"].	c #49C7F0",
"^.	c #5DADC7",
"/.	c #6E939E",
"(.	c #6D7A5C",
"_.	c #6D734A",
":.	c #373218",
"<.	c #060502",
"  . + @ @ @ @ @ @ @ # # # $ $ $ $ $ $ $ $ % & * * * * & % % = - ",
"; ; ; ; ; ; ; ; ; ; ; ; ; ; ; ; ; ; ; ; ; ; ; ; ; ; ; ; ; ; ; ; ",
"> > , , , , , , , , > > ' ) ! ! ~ { { { { { ! ! ! ! ! ! > ] ^ ; ",
"{ { { { { { { { { { { { { { { { ~ ~ ~ ~ ~ ~ { { { { { { / ( _ ; ",
"! ! { { { { { { { ~ ! ! ) ' : : : > > > > > : : : : : : < [ } ; ",
", , , , , , , , , , , , , , , , , , , , , , , , , , , , | 1 2 ; ",
", , , , , , , , , , , , , , , , , , , , , , , , , , , , , 1 3 ; ",
", , , , , , , , , , , , , , , , , , , , , , , , , , , , , 4 5 ; ",
", , , , , , , , , , , , , , , , , , , , , , , , , , , , , 6 7 ; ",
", , , , , , , , , , , , , , , , , , , , , , , , , , , , , 8 7 ; ",
"9 0 a b b b b b b b b b b b b b b c d e f , , , , , , , , 8 7 ; ",
"; ; ; ; ; ; ; ; ; ; ; ; ; ; ; ; ; ; ; ; ; , , , , , , , , 8 7 ; ",
"g g h i j k k k k k k k k k k k k k k l ; { : , , , , , , 4 7 ; ",
"m n o o p q q q q r r s q t p r 6 1 1 u ; { : , , , , , , 4 7 ; ",
", , , , , , , , , , , , , , , , v 1 1 u ; { > , , , , , , 4 7 ; ",
", , , , , , , , , , , , , , , , | w 1 u ; { > , , , , , , 4 7 ; ",
", , , , , , , , , , , , , , , , , x 1 u ; { , , , , , , , 1 7 ; ",
", , , , , , , , , , , , , , , , , x 1 y ; { , , , , , , , 1 z ; ",
", , , , , , , , , , , , , , , , , x 1 y ; { , , , , , , , 1 3 ; ",
", , , , , , , , , , , , , , , , , x 1 y ; { , , , , , , , 1 3 ; ",
", , , , , , , , , , , , , , , , , A 1 y ; { , , , , , , , 1 3 ; ",
", , , , , , , , , , , , , , , , , n 1 B ; { , , , , , , , 1 3 ; ",
", , , , , , , , , , , , , , , , , n 1 l ; { , , , , , , , 4 C ; ",
", , , , , , , , , , , , , , , , , A 1 l ; { , , , , , , , 4 3 ; ",
", , , , , , , , , , , , , , , , , x 1 D ; ~ , , , , , , , 4 3 ; ",
", , , , , , , , , , , , , , , , , x 1 ; ; ~ , , , , , , , 4 5 ; ",
"E F G , , , , , , , , , , , , , , w 1 ; ; ~ , , , , , , , H I ; ",
"J K L M N O P , , , , , , , , , , 4 1 ; ; ~ , , , , , , , ] Q ; ",
"R S T U V W X P , , , , , , , , , 4 1 ; ; ~ , , , , , , , Y Z ; ",
"`  ...+.@.#.M $.P , , , , , , , , 4 1 ; ; ~ , , , , , , , %.Z ; ",
"&.*.=.-.;.>.,.'.)., , , , , , , , 4 1 ; ; ~ , , , , , , , %.Z ; ",
"!.~.{.=.].^./.(._., , , , , , , , 4 1 ; ; ~ , , , , , , , :.<.; "};
