/* XPM */
static char * waterR6_xpm[] = {
"57 69 17 1",
" 	c None",
".	c #1F1F1F",
"+	c #00A2E8",
"@	c #99D9EA",
"#	c #3F48CC",
"$	c #EE965C",
"%	c #2E2E2E",
"&	c #B05C18",
"*	c #A349A4",
"=	c #F7F7F7",
"-	c #C8BFE7",
";	c #99581B",
">	c #8A521F",
",	c #7F552F",
"'	c #7D4C1F",
")	c #744F2D",
"!	c #DC8544",
"                   .............                         ",
"                   .............                         ",
"                   .............                         ",
"                ...+++@@@@@@@+++...         ....         ",
"                ...+++@@@@@@@+++...         ....         ",
"                ...+++@@@@@@@+++...         ....         ",
"   ...       ...+++@@@@@@@@@@++++++.........####...      ",
"   ...       ...+++@@@@@@@@@@++++++.........####...      ",
"   ...       ...+++@@@@@@@@@@++++++.........####...      ",
"...@@@..........@@@@@@@@@+++++++++++++...#######...      ",
"...@@@..........@@@@@@@@@+++++++++++++...#######...      ",
"...@@@..........@@@@@@@@@+++++++++++++...#######...      ",
"...@@@@@@@+++...+++++++++++++++++++...##########...      ",
"...@@@@@@@+++...+++++++++++++++++++...##########...      ",
"...+++@@@@@@@++++++...+++++++......#############...      ",
"...+++@@@@@@@++++++...+++++++......#############...      ",
"...+++@@@@@@@++++++...+++++++......#############...      ",
"   ...++++++++++...$$$.......############.......%%%      ",
"   ...++++++++++...$$$.......############.......%%%      ",
"   ...++++++++++...$$$.......############.......%%%      ",
"      .............$$$$$$....######......&&&....***%%%   ",
"      .............$$$$$$....######......&&&....***%%%   ",
"      .............$$$$$$....######......&&&....***%%%   ",
"          .........&&&$$$....###...===...$$$....---***%%%",
"          .........&&&$$$....###...===...$$$....---***%%%",
"          .........&&&$$$....###...===...$$$....---***%%%",
"      ....######...;;;...#######...===...$$$$$$$...---%%%",
"      ....######...;;;...#######...===...$$$$$$$...---%%%",
"      ....######...;;;...#######...===...$$$$$$$...---%%%",
"          ......###...>>>.......$$$&&&$$$&&&....------%%%",
"          ......###...>>>.......$$$&&&$$$&&&....------%%%",
"          ......###...>>>.......$$$&&&$$$&&&....------%%%",
"                .........;;;;&&&&&&&&&......%%%%------%%%",
"                .........;;;;&&&&&&&&&......%%%%------%%%",
"                .........;;;;&&&&&&&&&......%%%%------%%%",
"             ...,,,''''''................&&&....---***%%%",
"             ...,,,''''''................&&&....---***%%%",
"          ...)))......'''....+++++++++......%%%%******%%%",
"          ...)))......'''....+++++++++......%%%%******%%%",
"          ...)))......'''....+++++++++......%%%%******%%%",
"          ......!!!!!!...++++@@@@@@+++++++++....***%%%   ",
"          ......!!!!!!...++++@@@@@@+++++++++....***%%%   ",
"          ......!!!!!!...++++@@@@@@+++++++++....***%%%   ",
"          ......!!!!!!...++++@@@@@@###++++++....%%%      ",
"          ......!!!!!!...++++@@@@@@###++++++....%%%      ",
"          ......!!!!!!...++++@@@@@@###++++++....%%%      ",
"      ....'''.........+++@@@@+++###+++.............      ",
"      ....'''.........+++@@@@+++###+++.............      ",
"      ....'''.........+++@@@@+++###+++.............      ",
"      ....'''...++++++##########+++...''''''''''...      ",
"      ....'''...++++++##########+++...''''''''''...      ",
"      ....'''...++++++##########+++...''''''''''...      ",
"      ....''''''...+++++++++++++...'''''''''....         ",
"      ....''''''...+++++++++++++...'''''''''....         ",
"      ....''''''...+++++++++++++...'''''''''....         ",
"          ..................................             ",
"          ..................................             ",
"          ..................................             ",
"          ......................................         ",
"          ......................................         ",
"          ......................................         ",
"          ......................................         ",
"          ......................................         ",
"             ...............................             ",
"             ...............................             ",
"             ...............................             ",
"                   ...................                   ",
"                   ...................                   ",
"                   ...................                   "};
