/* XPM */
static char * waterL3_xpm[] = {
"57 69 17 1",
" 	c None",
".	c #1F1F1F",
"+	c #00A2E8",
"@	c #99D9EA",
"#	c #3F48CC",
"$	c #2E2E2E",
"%	c #EE965C",
"&	c #A349A4",
"*	c #B05C18",
"=	c #F7F7F7",
"-	c #C8BFE7",
";	c #99581B",
">	c #87551E",
",	c #7D4C1F",
"'	c #DC8544",
")	c #B36E3B",
"!	c #AD6C3B",
"                         .............                   ",
"                         .............                   ",
"                         .............                   ",
"          ...         ...++++@@@@@@+++...                ",
"          ...         ...++++@@@@@@+++...                ",
"          ...         ...++++@@@@@@+++...                ",
"      ....###.........+++++++@@@@@@@@@+++...       ...   ",
"      ....###.........+++++++@@@@@@@@@+++...       ...   ",
"      ....###.........+++++++@@@@@@@@@+++...       ...   ",
"      ....######...+++++++++++++@@@@@@@@@..........@@@...",
"      ....######...+++++++++++++@@@@@@@@@..........@@@...",
"      ....######...+++++++++++++@@@@@@@@@..........@@@...",
"      ....#########...+++++++++++++++++++...++++@@@@@@...",
"      ....#########...+++++++++++++++++++...++++@@@@@@...",
"      ....############.......++++++...++++++@@@@@@@+++...",
"      ....############.......++++++...++++++@@@@@@@+++...",
"      ....############.......++++++...++++++@@@@@@@+++...",
"      $$$$......#############......%%%...++++++++++...   ",
"      $$$$......#############......%%%...++++++++++...   ",
"      $$$$......#############......%%%...++++++++++...   ",
"   $$$&&&&...***......#######...%%%%%%.............      ",
"   $$$&&&&...***......#######...%%%%%%.............      ",
"   $$$&&&&...***......#######...%%%%%%.............      ",
"$$$&&&====...%%%...===...####...%%%***..........         ",
"$$$&&&====...%%%...===...####...%%%***..........         ",
"$$$&&&====...%%%...===...####...%%%***..........         ",
"$$$---....%%%%%%...===...#######...;;;...#######...      ",
"$$$---....%%%%%%...===...#######...;;;...#######...      ",
"$$$---....%%%%%%...===...#######...;;;...#######...      ",
"$$$-------...***%%%***%%%.......>>>...###.......         ",
"$$$-------...***%%%***%%%.......>>>...###.......         ",
"$$$-------...***%%%***%%%.......>>>...###.......         ",
"$$$-------.........**********;;;.........                ",
"$$$-------.........**********;;;.........                ",
"$$$-------.........**********;;;.........                ",
"$$$&&&----...***................++++++...                ",
"$$$&&&----...***................++++++...                ",
"$$$&&&&&&&$$$......+++...,,,,...+++@@@...                ",
"$$$&&&&&&&$$$......+++...,,,,...+++@@@...                ",
"$$$&&&&&&&$$$......+++...,,,,...+++@@@...                ",
"   $$$&&&&...''''''...,,,,,,,...+++@@@.............      ",
"   $$$&&&&...''''''...,,,,,,,...+++@@@.............      ",
"   $$$&&&&...''''''...,,,,,,,...+++@@@.............      ",
"      .......)))'''...,,,,,,,...+++@@@...###....,,,...   ",
"      .......)))'''...,,,,,,,...+++@@@...###....,,,...   ",
"      .......)))'''...,,,,,,,...+++@@@...###....,,,...   ",
"      ....!!!................++++++######+++....''',,,...",
"      ....!!!................++++++######+++....''',,,...",
"      ....!!!................++++++######+++....''',,,...",
"      .......,,,...++++++##########++++++.......''',,,...",
"      .......,,,...++++++##########++++++.......''',,,...",
"      .......,,,...++++++##########++++++.......''',,,...",
"          ...............+++++++++++++......    ......   ",
"          ...............+++++++++++++......    ......   ",
"          ...............+++++++++++++......    ......   ",
"             ...............................             ",
"             ...............................             ",
"             ...............................             ",
"          ......................................         ",
"          ......................................         ",
"          ......................................         ",
"          ......................................         ",
"          ......................................         ",
"             ...............................             ",
"             ...............................             ",
"             ...............................             ",
"                   ...................                   ",
"                   ...................                   ",
"                   ...................                   "};
