/* XPM */
static char * waterL6_xpm[] = {
"57 69 13 1",
" 	c None",
".	c #1F1F1F",
"+	c #00A2E8",
"@	c #99D9EA",
"#	c #3F48CC",
"$	c #EE965C",
"%	c #2E2E2E",
"&	c #B05C18",
"*	c #A349A4",
"=	c #F7F7F7",
"-	c #C8BFE7",
";	c #DC8544",
">	c #7D4C1F",
"                        ............                     ",
"                        ............                     ",
"                        ............                     ",
"                     ...++++++@@@@@@......               ",
"                     ...++++++@@@@@@......               ",
"                     ...++++++@@@@@@......               ",
"               ......+++++++++@@@@@@@@@+++...            ",
"               ......+++++++++@@@@@@@@@+++...            ",
"               ......+++++++++@@@@@@@@@+++...            ",
"            ...###...++++++++++++@@@@@@@@@.........      ",
"            ...###...++++++++++++@@@@@@@@@.........      ",
"            ...###...++++++++++++@@@@@@@@@.........      ",
"         ...#########...++++++++++++++++++...+++@@@...   ",
"         ...#########...++++++++++++++++++...+++@@@...   ",
"         ...############......++++++...+++++++++@@@@@@...",
"         ...############......++++++...+++++++++@@@@@@...",
"         ...############......++++++...+++++++++@@@@@@...",
"            ......############......$$$...+++++++++@@@...",
"            ......############......$$$...+++++++++@@@...",
"            ......############......$$$...+++++++++@@@...",
"      %%%%%%...&&&.........###...$$$$$$......++++++@@@...",
"      %%%%%%...&&&.........###...$$$$$$......++++++@@@...",
"      %%%%%%...&&&.........###...$$$$$$......++++++@@@...",
"   %%%***%%%...$$$...===...###...$$$&&&.........+++...   ",
"   %%%***%%%...$$$...===...###...$$$&&&.........+++...   ",
"   %%%***%%%...$$$...===...###...$$$&&&.........+++...   ",
"%%%***---...$$$$$$...===...###...&&&&&&......   ...      ",
"%%%***---...$$$$$$...===...###...&&&&&&......   ...      ",
"%%%***---...$$$$$$...===...###...&&&&&&......   ...      ",
"%%%------%%%...&&&$$$&&&$$$...&&&&&&...###...            ",
"%%%------%%%...&&&$$$&&&$$$...&&&&&&...###...            ",
"%%%------%%%...&&&$$$&&&$$$...&&&&&&...###...            ",
"%%%------...;;;......&&&&&&&&&&&&.........               ",
"%%%------...;;;......&&&&&&&&&&&&.........               ",
"%%%------...;;;......&&&&&&&&&&&&.........               ",
"%%%------...;;;...+++............+++...                  ",
"%%%------...;;;...+++............+++...                  ",
"%%%***---......++++++++++++...>>>......                  ",
"%%%***---......++++++++++++...>>>......                  ",
"%%%***---......++++++++++++...>>>......                  ",
"%%%******%%%...+++@@@@@@...>>>>>>>>>...                  ",
"%%%******%%%...+++@@@@@@...>>>>>>>>>...                  ",
"%%%******%%%...+++@@@@@@...>>>>>>>>>...                  ",
"   %%%***...+++@@@@@@@@@+++...............               ",
"   %%%***...+++@@@@@@@@@+++...............               ",
"   %%%***...+++@@@@@@@@@+++...............               ",
"      %%%...+++######@@@+++...;;;;;;...+++...            ",
"      %%%...+++######@@@+++...;;;;;;...+++...            ",
"      %%%...+++######@@@+++...;;;;;;...+++...            ",
"         ...++++++#########...;;;;;;...+++...            ",
"         ...++++++#########...;;;;;;...+++...            ",
"         ...++++++#########...;;;;;;...+++...            ",
"            ......++++++++++++......+++...>>>...         ",
"            ......++++++++++++......+++...>>>...         ",
"            ......++++++++++++......+++...>>>...         ",
"            ...............+++++++++...>>>>>>...         ",
"            ...............+++++++++...>>>>>>...         ",
"            ...............+++++++++...>>>>>>...         ",
"         ...........................>>>>>>>>>...         ",
"         ...........................>>>>>>>>>...         ",
"         ....................................            ",
"         ....................................            ",
"         ....................................            ",
"            ..............................               ",
"            ..............................               ",
"            ..............................               ",
"                  ..................                     ",
"                  ..................                     ",
"                  ..................                     "};
