/* XPM */
static char * waterL4_xpm[] = {
"57 69 13 1",
" 	c None",
".	c #1F1F1F",
"+	c #00A2E8",
"@	c #99D9EA",
"#	c #3F48CC",
"$	c #2E2E2E",
"%	c #EE965C",
"&	c #A349A4",
"*	c #B05C18",
"=	c #C8BFE7",
"-	c #F7F7F7",
";	c #DC8544",
">	c #7D4C1F",
"                        .........                        ",
"                        .........                        ",
"                        .........                        ",
"                     ...++++++@@@......      .........   ",
"                     ...++++++@@@......      .........   ",
"                     ...++++++@@@......      .........   ",
"            .........+++++++++@@@@@@+++......+++@@@+++...",
"            .........+++++++++@@@@@@+++......+++@@@+++...",
"            .........+++++++++@@@@@@+++......+++@@@+++...",
"         ...######...++++++++++++@@@@@@+++...@@@@@@...   ",
"         ...######...++++++++++++@@@@@@+++...@@@@@@...   ",
"         ...######...++++++++++++@@@@@@+++...@@@@@@...   ",
"         ...######...+++++++++++++++++++++@@@@@@+++...   ",
"         ...######...+++++++++++++++++++++@@@@@@+++...   ",
"         ...######...+++++++++++++++++++++@@@@@@+++...   ",
"            ...######......+++++++++...+++@@@+++...      ",
"            ...######......+++++++++...+++@@@+++...      ",
"            ...######......+++++++++...+++@@@+++...      ",
"      $$$$$$......#########.........%%%...++++++...      ",
"      $$$$$$......#########.........%%%...++++++...      ",
"      $$$$$$......#########.........%%%...++++++...      ",
"   $$$&&&$$$...***......######...***%%%.........         ",
"   $$$&&&$$$...***......######...***%%%.........         ",
"   $$$&&&$$$...***......######...***%%%.........         ",
"$$$&&&===$$$...%%%...---...######...***......            ",
"$$$&&&===$$$...%%%...---...######...***......            ",
"$$$&&&===$$$...%%%...---...######...***......            ",
"$$$======...%%%%%%...---.........******...###...         ",
"$$$======...%%%%%%...---.........******...###...         ",
"$$$======...%%%%%%...---.........******...###...         ",
"$$$======......***%%%***%%%%%%******...###...            ",
"$$$======......***%%%***%%%%%%******...###...            ",
"$$$======......***%%%***%%%%%%******...###...            ",
"$$$======............************.........               ",
"$$$======............************.........               ",
"$$$======............************.........               ",
"$$$&&&===...;;;;;;...............+++...                  ",
"$$$&&&===...;;;;;;...............+++...                  ",
"$$$&&&===...;;;;;;...............+++...                  ",
"$$$&&&&&&...;;;;;;...>>>>>>...+++@@@@@@...               ",
"$$$&&&&&&...;;;;;;...>>>>>>...+++@@@@@@...               ",
"$$$&&&&&&...;;;;;;...>>>>>>...+++@@@@@@...               ",
"   $$$&&&$$$......>>>>>>......+++@@@@@@......            ",
"   $$$&&&$$$......>>>>>>......+++@@@@@@......            ",
"   $$$&&&$$$......>>>>>>......+++@@@@@@......            ",
"      $$$..................++++++@@@...###+++...         ",
"      $$$..................++++++@@@...###+++...         ",
"      $$$..................++++++@@@...###+++...         ",
"      ...>>>......+++###++++++++++++###+++......         ",
"      ...>>>......+++###++++++++++++###+++......         ",
"      ...>>>......+++###++++++++++++###+++......         ",
"      ...>>>>>>...++++++############+++...>>>...         ",
"      ...>>>>>>...++++++############+++...>>>...         ",
"      ...>>>>>>...++++++############+++...>>>...         ",
"      ..................++++++++++++.........            ",
"      ..................++++++++++++.........            ",
"      ..................++++++++++++.........            ",
"         ....................................            ",
"         ....................................            ",
"         ....................................            ",
"         ....................................            ",
"         ....................................            ",
"         ....................................            ",
"            ..............................               ",
"            ..............................               ",
"            ..............................               ",
"                  ..................                     ",
"                  ..................                     ",
"                  ..................                     "};
