/* XPM */
static char * waterL1_xpm[] = {
"57 69 15 1",
" 	c None",
".	c #202020",
"+	c #00A2E8",
"@	c #99D9EA",
"#	c #3F48CC",
"$	c #E48946",
"%	c #2E2E2E",
"&	c #B55F19",
"*	c #F69B5F",
"=	c #A349A4",
"-	c #FFFFFF",
";	c #C8BFE7",
">	c #814E20",
",	c #66411F",
"'	c #7D4C1F",
"                        ............                     ",
"                        ............                     ",
"                        ............                     ",
"                     ...++++++@@@@@@......               ",
"                     ...++++++@@@@@@......               ",
"                     ...++++++@@@@@@......               ",
"               ......+++++++++@@@@@@@@@+++...            ",
"               ......+++++++++@@@@@@@@@+++...            ",
"               ......+++++++++@@@@@@@@@+++...            ",
"            ...###...++++++++++++@@@@@@@@@.........      ",
"            ...###...++++++++++++@@@@@@@@@.........      ",
"            ...###...++++++++++++@@@@@@@@@.........      ",
"         ...#########...++++++++++++++++++...+++@@@...   ",
"         ...#########...++++++++++++++++++...+++@@@...   ",
"         ...#########...++++++++++++++++++...+++@@@...   ",
"         ...############......++++++++++++++++++@@@@@@...",
"         ...############......++++++++++++++++++@@@@@@...",
"         ...############......++++++++++++++++++@@@@@@...",
"            ......############......$$$...+++++++++@@@...",
"            ......############......$$$...+++++++++@@@...",
"            ......############......$$$...+++++++++@@@...",
"      %%%%%%...&&&.........###...******......++++++@@@...",
"      %%%%%%...&&&.........###...******......++++++@@@...",
"      %%%%%%...&&&.........###...******......++++++@@@...",
"   %%%===%%%...$$$...---...###...***&&&.........+++...   ",
"   %%%===%%%...$$$...---...###...***&&&.........+++...   ",
"   %%%===%%%...$$$...---...###...***&&&.........+++...   ",
"%%%===;;;...$$$***...---...###...&&&&&&......   ...      ",
"%%%===;;;...$$$***...---...###...&&&&&&......   ...      ",
"%%%===;;;...$$$***...---...###...&&&&&&......   ...      ",
"%%%;;;;;;%%%...&&&***&&&***...&&&&&&...###...            ",
"%%%;;;;;;%%%...&&&***&&&***...&&&&&&...###...            ",
"%%%;;;;;;%%%...&&&***&&&***...&&&&&&...###...            ",
"%%%;;;;;;...$$$......&&&&&&&&&&&&.........               ",
"%%%;;;;;;...$$$......&&&&&&&&&&&&.........               ",
"%%%;;;;;;...$$$......&&&&&&&&&&&&.........               ",
"%%%;;;;;;...&&&...+++............++++++...               ",
"%%%;;;;;;...&&&...+++............++++++...               ",
"%%%;;;;;;...&&&...+++............++++++...               ",
"%%%===;;;......+++@@@++++++......+++@@@...               ",
"%%%===;;;......+++@@@++++++......+++@@@...               ",
"%%%===;;;......+++@@@++++++......+++@@@...               ",
"%%%======%%%......+++@@@...>>>>>>...@@@...               ",
"%%%======%%%......+++@@@...>>>>>>...@@@...               ",
"%%%======%%%......+++@@@...>>>>>>...@@@...               ",
"   %%%===%%%...###...+++...>>>>>>......###...            ",
"   %%%===%%%...###...+++...>>>>>>......###...            ",
"   %%%===%%%...###...+++...>>>>>>......###...            ",
"      %%%%%%...+++###...$$$$$$$$$...###+++...            ",
"      %%%%%%...+++###...$$$$$$$$$...###+++...            ",
"      %%%%%%...+++###...$$$$$$$$$...###+++...            ",
"               ...+++...$$$$$$$$$...@@@...               ",
"               ...+++...$$$$$$$$$...@@@...               ",
"               ...+++...$$$$$$$$$...@@@...               ",
"            ...............$$$$$$.........               ",
"            ...............$$$$$$.........               ",
"            ...............$$$$$$.........               ",
"         ............,,,.....................            ",
"         ............,,,.....................            ",
"         ............,,,.....................            ",
"         ...............,,,'''''''''.........            ",
"         ...............,,,'''''''''.........            ",
"         ...............,,,'''''''''.........            ",
"            ..............................               ",
"            ..............................               ",
"            ..............................               ",
"                  ..................                     ",
"                  ..................                     ",
"                  ..................                     "};
