/* XPM */
static char * water_default_xpm[] = {
"57 78 19 1",
" 	c None",
".	c #202020",
"+	c #00A2E8",
"@	c #99D9EA",
"#	c #F69B5F",
"$	c #3F48CC",
"%	c #B55F19",
"&	c #E48946",
"*	c #AB682A",
"=	c #925829",
"-	c #FFFFFF",
";	c #915728",
">	c #2E2E2E",
",	c #A349A4",
"'	c #814E20",
")	c #C8BFE7",
"!	c #66411F",
"~	c #7D4C1F",
"{	c #68471E",
"                     ...............                     ",
"                     ...............                     ",
"                     ...............                     ",
"                     ...............                     ",
"                  ...++++++++@@@++++.......              ",
"                  ...++++++++@@@++++.......              ",
"                  ...++++++++@@@++++.......              ",
"              ....+++++++@@@@@@@@@@@@@@++++...           ",
"              ....+++++++@@@@@@@@@@@@@@++++...           ",
"              ....+++++++@@@@@@@@@@@@@@++++...           ",
"              ....+++++++@@@@@@@@@@@@@@++++...           ",
"    ...    .......+++++++++++@@@+++++++....+++.......    ",
"    ...    .......+++++++++++@@@+++++++....+++.......    ",
"    ...    .......+++++++++++@@@+++++++....+++.......    ",
"....###....$$$.......+++++++++++++++.......+++....###....",
"....###....$$$.......+++++++++++++++.......+++....###....",
"....###....$$$.......+++++++++++++++.......+++....###....",
"....###....$$$.......+++++++++++++++.......+++....###....",
"....###....$$$$$$$$$$...............$$$$$$$.......###....",
"....###....$$$$$$$$$$...............$$$$$$$.......###....",
"....###....$$$$$$$$$$...............$$$$$$$.......###....",
"....%%%####...$$$$$$$$$$$$$$$$$$$$$$$$$$$$$...&&&&%%%....",
"....%%%####...$$$$$$$$$$$$$$$$$$$$$$$$$$$$$...&&&&%%%....",
"....%%%####...$$$$$$$$$$$$$$$$$$$$$$$$$$$$$...&&&&%%%....",
"....%%%####...$$$$$$$$$$$$$$$$$$$$$$$$$$$$$...&&&&%%%....",
"....***....$$$.............................$$$....***....",
"....***....$$$.............................$$$....***....",
"....***....$$$.............................$$$....***....",
"    ...====...%%%%-------%%%%%%%-------%%%%...;;;;...    ",
"    ...====...%%%%-------%%%%%%%-------%%%%...;;;;...    ",
"    ...====...%%%%-------%%%%%%%-------%%%%...;;;;...    ",
"    ...====...%%%%-------%%%%%%%-------%%%%...;;;;...    ",
"       ....***%%%%---....&&&&###....---%%%%***....       ",
"       ....***%%%%---....&&&&###....---%%%%***....       ",
"       ....***%%%%---....&&&&###....---%%%%***....       ",
"       .......%%%%&&&....#######....&&&%%%%.......       ",
"       .......%%%%&&&....#######....&&&%%%%.......       ",
"       .......%%%%&&&....#######....&&&%%%%.......       ",
"       .......%%%%&&&....#######....&&&%%%%.......       ",
"    >>>@@@@+++....%%%>>>>&&&&#######%%%....+++@@@@...    ",
"    >>>@@@@+++....%%%>>>>&&&&#######%%%....+++@@@@...    ",
"    >>>@@@@+++....%%%>>>>&&&&#######%%%....+++@@@@...    ",
"    >>>@@@@+++....%%%>>>>&&&&#######%%%....+++@@@@...    ",
">>>>,,,>>>>>>>>>>>>>>,,,,>>>>%%%.......+++++++....'''....",
">>>>,,,>>>>>>>>>>>>>>,,,,>>>>%%%.......+++++++....'''....",
">>>>,,,>>>>>>>>>>>>>>,,,,>>>>%%%.......+++++++....'''....",
">>>>,,,,,,,,,,,,,,,,,,,,,.......++++@@@++++...'''''''....",
">>>>,,,,,,,,,,,,,,,,,,,,,.......++++@@@++++...'''''''....",
">>>>,,,,,,,,,,,,,,,,,,,,,.......++++@@@++++...'''''''....",
">>>>,,,,,,,,,,,,,,,,,,,,,.......++++@@@++++...'''''''....",
">>>>,,,$$$$$$$$$$$$$$,,,,>>>>@@@@@@@@@@++++.......&&&....",
">>>>,,,$$$$$$$$$$$$$$,,,,>>>>@@@@@@@@@@++++.......&&&....",
">>>>,,,$$$$$$$$$$$$$$,,,,>>>>@@@@@@@@@@++++.......&&&....",
">>>>,,,$$$$)))))))$$$,,,,....@@@+++++++++++...&&&&&&&....",
">>>>,,,$$$$)))))))$$$,,,,....@@@+++++++++++...&&&&&&&....",
">>>>,,,$$$$)))))))$$$,,,,....@@@+++++++++++...&&&&&&&....",
">>>>,,,$$$$)))))))$$$,,,,....@@@+++++++++++...&&&&&&&....",
">>>>,,,$$$$)))))))$$$,,,,>>>>$$$$$$$$$$$$$$+++....&&&....",
">>>>,,,$$$$)))))))$$$,,,,>>>>$$$$$$$$$$$$$$+++....&&&....",
">>>>,,,$$$$)))))))$$$,,,,>>>>$$$$$$$$$$$$$$+++....&&&....",
">>>>,,,$$$$)))))))$$$,,,,....$$$$$$$+++++++..........    ",
">>>>,,,$$$$)))))))$$$,,,,....$$$$$$$+++++++..........    ",
">>>>,,,$$$$)))))))$$$,,,,....$$$$$$$+++++++..........    ",
">>>>,,,$$$$)))))))$$$,,,,....$$$$$$$+++++++..........    ",
"    >>>,,,,$$$$$$$,,,....+++++++++++.......!!!....       ",
"    >>>,,,,$$$$$$$,,,....+++++++++++.......!!!....       ",
"    >>>,,,,$$$$$$$,,,....+++++++++++.......!!!....       ",
"       >>>>,,,,,,,..................~~~{{{{.......       ",
"       >>>>,,,,,,,..................~~~{{{{.......       ",
"       >>>>,,,,,,,..................~~~{{{{.......       ",
"       >>>>,,,,,,,..................~~~{{{{.......       ",
"           >>>................................           ",
"           >>>................................           ",
"           >>>................................           ",
"                  .....................                  ",
"                  .....................                  ",
"                  .....................                  ",
"                  .....................                  "};
