/* XPM */
static char *coop_xpm[] = {
/* columns rows colors chars-per-pixel */
"175 55 52 1",
"  c #FF3131",
". c #FF3131",
"X c #FF3131",
"o c #FF3131",
"O c #FF3131",
"+ c #FF3131",
"@ c #FF3131",
"# c #FF3131",
"$ c #FF3131",
"% c #FF3131",
"& c #FF3131",
"* c #FF3131",
"= c #FF3131",
"- c #FF3131",
"; c #FF3131",
": c #FF3131",
"> c #FF3131",
", c #FF3131",
"< c #FF3131",
"1 c #FF3131",
"2 c #FF3131",
"3 c #FF3131",
"4 c #FF3131",
"5 c #FF3131",
"6 c #FF3131",
"7 c #FF3131",
"8 c #FF3131",
"9 c #FF3131",
"0 c #FF3131",
"q c #FF3131",
"w c #FF3131",
"e c #FF3131",
"r c #FF3131",
"t c #FF3131",
"y c #FF3131",
"u c #FF3131",
"i c #FF3131",
"p c #FF3131",
"a c #FF3131",
"s c #FF3131",
"d c #FF3131",
"f c #FF3131",
"g c #FF3131",
"h c #FF3131",
"j c #FF3131",
"k c #FF3131",
"l c #FF3131",
"z c #FF3131",
"x c #FF3131",
"c c #FF3131",
"v c #FF3131",
"b c None",
/* pixels */
"bbbbbbbbbbbbbbbbbbbbbbbbbbbbbbbbbbbbbbbbbbbbbbbbbbbbbbbbbbbbbbbbbbbbbbbbbbbbbbbbbbbbbbbbbbbbbbbbbbbbbbbbbbbbbbbbbbbbbbbbbbbbbbbbbbbbbbbbbbbbbbbbbbbbbbbbbbbbbbbbbbbbbbbbbbbbbbb",
"bbbbbbbbbbbbbbbbbbbbbbbbbbbbbbbbbbbbbbbbbbbbbbbbbbbbbbbbbbbbbbbbbbbbbbbbbbbbbbbbbbbbbbbbbbbbbbbbbbbbbbbbbbbbbbbbbbbbbbbbbbbbbbbbbbbbbbbbbbbbbbbbbbbbbbbbbbbbbbbbbbbbbbbbbbbbbbb",
"bbbbbbbbbbbbbbbbbbbbbbbbbbbbbbbbbbbbbbbbbbbbbbbbbbbbbbbbbbbbbbbbbbbbbbbbbbbbbbbbbbbbbbbbbbbbbbbbbbbbbbbbbbbbbbbbbbbbbbbbbbbbbbbbbbbbbbbbbbbbbbbbbbbbbbbbbbbbbbbbbbbbbbbbbbbbbbb",
"bbbbbbbbbbbbbbbbbbbbbbbbbbbbbbbbbbbbbbbbbbbbbbbbbbbbbbbbbbbbbbbbbbbbbbbbbbbbbbbbbbbbbbbbbbbbbbbbbbbbbbbbbbbbbbbbbbbbbbbbbbbbbbbbbbbbbbbbbbbbbbbbbbbbbbbbbbbbbbbbbbbbbbbbbbbbbbb",
"bbbbbbbbbbbbbbbbbbbbbbbbbbbbbbbbbbbbbbbbbbbbbbbbbbbbbbbbbbbbbbbbbbbbbbbbbbbbbbbbbbbbbbbbbbbbbbbbbbbbbbbbbbbbbbbbbbbbbbbbbbbbbbbbbbbbbbbbbbbbbbbbbbbbbbbbbbbbbbbbbbbbbbbbbbbbbbb",
"bbbbbbbbbbbbbbbbbbbbbbbbbbbbbbbbbbbbbbbbbbbbbbbbbbbbbbbbbbbbbbbbbbbbbbbbbbbbbbbbbbbbbbbbbbbbbbbbbbbbbbbbbbbbbbbbbbbbbbbbbbbbbbbbbbbbbbbbbbbbbbbbbbbbbbbbbbbbbbbbbbbbbbbbbbbbbbb",
"bbbbbbbbbbbbbbbbbbbbbbbbbbbbbbbbbbbbbbbbbbbbbbbbbbbbbbbbbbbbbbbbbbbbbbbbbbbbbbbbbbbbbbbbbbbbbbbbbbbbbbbbbbbbbbbbbbbbbbbbbbbbbbbbbbbbbbbbbbbbbbbbbbbbbbbbbbbbbbbbbbbbbbbbbbbbbbb",
"bbbbbbbbbbbbbbbbbbbbbbbbbbbbbbbbbbbbbbbbbbbbbbbbbbbbbbbbbbbbbbbbbbbbbbbbbbbbbbbbbbbbbbbbbbbbbbbbbbbbbbbbbbbbbbbbbbbbbbbbbbbbbbbbbbbbbbbbbbbbbbbbbbbbbbbbbbbbbbbbbbbbbbbbbbbbbbb",
"bbbbbbbbbbbbbbbbbbbbbbbbbbbbbbbbbbbbbbbbbbbbbbbbbbbbbbbbbbbbbbbbbbbbbbbbbbbbbbbbbbbbbbbbbbbbbbbbbbbbbbbbbbbbbbbbbbbbbbbbbbbbbbbbbbbbbbbbbbbbbbbbbbbbbbbbbbbbbbbbbbbbbbbbbbbbbbb",
"bbbbbbbbbbbbbbbbbbbbbbbbbbbbbbbbbbbbbbbbbbbbbbbbbbbbbbbbbbbbbbbbbbbbbbbbbbbbbbbbbbbbbbbbbbbbbbbbbbbbbbbbbbbbbbbbbbbbbbbbbbbbbbbbbbbbbbbbbbbbbbbbbbbbbbbbbbbbbbbbbbbbbbbbbbbbbbb",
"bbbbbbbbbbbbbbbbbbhw2=#o. X+%;30ikbbbbbbbbbbbbbbbbbbkw1*+X .o$;6ivbbbbbbbbbbbbbbbbbbbbbbbbbbbbbbbbbbbbbbbbbbbbbvp7;$o. X@*1wjbbbbbbbbbbbbbbg900qqwew0975421,<26esvbbbbbbbbbbbbb",
"bbbbbbbbbbbbbbbl7#                o=kbbbbbbbbbbbbvr*             X1hbbbbbbbbbbbbbbbbbbbbbbbbbbbbbbbbbbbbbbbbbh3o             %evbbbbbbbbbbb7                     .;tbbbbbbbbbbb",
"bbbbbbbbbbbbbx4.                    ibbbbbbbbbbbi#                  2cbbbbbbbbbbbbbbbbbbbbbbbbbbbbbbbbbbbbbx3                  #pbbbbbbbbbb<                        $fbbbbbbbbb",
"bbbbbbbbbbbbi+                      xbbbbbbbbbv3                     #jbbbbbbbbbbbbbbbbbbbbbbbbbbbbbbbbbbbs@                     7bbbbbbbbb=                         .pbbbbbbbb",
"bbbbbbbbbbb9                       #bbbbbbbbbc-                       Ojbbbbbbbbbbbbbbbbbbbbbbbbbbbbbbbbby.                       4bbbbbbbbaer;                       ogbbbbbbb",
"bbbbbbbbbb7          @=:-@         >bbbbbbbbv-         o*:&o           #cbbbbbbbbbbbbbbbbbbbbbbbbbbbbbbbi.         $;-#            wbbbbbbbbbbx         7q81%          &bbbbbbb",
"bbbbbbbbbe         2hbbbbbg;       7bbbbbbbb2        +tvbbbvy#          2bbbbbbbbbbbbbbbbbbbbbbbbbbbbbbhX        1jbbbbj4          Xjbbbbbbbbbbo       +bbbbbh;         ybbbbbb",
"bbbbbbbbg.       .ubbbbbbbbb=      rbbbbbbbu        #zbbbbbbbx-          hbbbbbbbbbbbbbbbbbbbbbbbbbbbbb&        qbbbbbbbbu.         ,bbbbbbbbbbO       $bbbbbbb,        :bbbbbb",
"bbbbbbbb=        wbbbbbbbbbbt      sbbbbbbv@       .hbbbbbbbbbx@         1bbbbbbbbbbbbbbbbbbbbbbbbbbbbw        <bbbbbbbbbb0          kbbbbbbbbbO       *bbbbbbbzX       Xbbbbbb",
"bbbbbbbu        %bbbbbbbbbbbd      lbbbbbbw        1bbbbbbbbbbbu         Xcbbbbbbbbbbbbbbbbbbbbbbbbbbb@        kbbbbbbbbbbb%         7bbbbbbbbbO       ;bbbbbbbb;        lbbbbb",
"bbbbbbb=        wbbbbbbbbbbbd      vbbbbbb%        abbbbbbbbbbbb#         ibbbbbbbbbbbbbbbbbbbbbbbbbby        =bbbbbbbbbbbbr         &bbbbbbbbbO       >bbbbbbbb4        fbbbbb",
"bbbbbbl         zbbbbbbbbbbbs     obbbbbbh        Xbbbbbbbbbbbbb7         5bbbbbbbbbbbbbbbbbbbbbbbbbb,        9bbbbbbbbbbbbv.         cbbbbbbbbO       1bbbbbbbb6        hbbbbb",
"bbbbbbw        @bbbbbbbbbbbbg<368qybbbbbb0        &bbbbbbbbbbbbbs         -bbbbbbbbbbbbbbbbbbbbbbbbbbo        ibbbbbbbbbbbbb-         sbbbbbbbbO       3bbbbbbbb3        cbbbbb",
"bbbbbb<        ;bbbbbbbbbbbbbbbbbbbbbbbbb,        ,bbbbbbbbbbbbbv.        @bbbbbbbbbbbbbblst82;=cbbbh         hbbbbbbbbbbbbb7         rbbbbbbbbO       6bbbbbbbb-       %bbbbbb",
"bbbbbb%        1bbbbbbbbbbbbbbbbbbbbbbbbb$        2bbbbbbbbbbbbbb#        .bbbbbvjpe7<=@.       dbbby         zbbbbbbbbbbbbbr         9bbbbbbbbO       8bbbbbbbc.       9bbbbbb",
"bbbbbbo        3bbbbbbbbbbbbbbbbbbbbbbbbbX        4bbbbbbbbbbbbbb-         vbbbs                kbbb0         cbbbbbbbbbbbbbs         6bbbbbbbbO       0bbbbbbb7       Oxbbbbbb",
"bbbbbb         5bbbbbbbbbbbbbbbbbbbbbbbbb         4bbbbbbbbbbbbbb<         cbbby                vbbb6         cbbbbbbbbbbbbbj         4bbbbbbbbO       ebbbbbbu.       tbbbbbbb",
"bbbbbc         3bbbbbbbbbbbbbbbbbbbbbbbbc         2bbbbbbbbbbbbbb2         vbbbq               Obbbb4         zbbbbbbbbbbbbbl         6bbbbbbbbO       =6eakd1        2bbbbbbbb",
"bbbbbc         <bbbbbbbbbbbbbbbbbbbbbbbbc         <bbbbbbbbbbbbbb4        .bbbb6               %bbbb5         kbbbbbbbbbbbbbx         8bbbbbbbbO                     <bbbbbbbbb",
"bbbbbb         ;bbbbbbbbbbbbbbbbbbbbbbbbb         ;bbbbbbbbbbbbbb4        @bbbb2          O&:39pbbbb7         dbbbbbbbbbbbbbc         rbbbbbbbbO                    7bbbbbbbbbb",
"bbbbbbO        #bbbbbbbbbbbbbbbbbbbbbbbbbO        $bbbbbbbbbbbbbb2        -bbbb9 +*>49tskvbbbbbbbbbbq         ybbbbbbbbbbbbbl         sbbbbbbbbO                  $abbbbbbbbbbb",
"bbbbbb&         vbbbbbbbbbbbbbbbvzhdcbbbb%        Xbbbbbbbbbbbbbb,        5bbbbbbbbbbbbbbbbbbbbbbbbbu         9bbbbbbbbbbbbbh         cbbbbbbbbO               .=tbbbbbbbbbbbbb",
"bbbbbb1         ibbbbbbbbbbbbx+X    zbbbb<         gbbbbbbbbbbbbb%        ibbbbbbbbbbbbbbbbbbbbbbbbbj         >bbbbbbbbbbbbbu        &bbbbbbbbbO       <55558wicbbbbbbbbbbbbbbb",
"bbbbbbe         2bbbbbbbbbbbbp     obbbbbq         0bbbbbbbbbbbbv.       ovbbbbbbbbbbbbbbbbbbbbbbbbbbO        obbbbbbbbbbbbb7        9bbbbbbbbbO       sbbbbbbbbbbbbbbbbbbbbbbb",
"bbbbbbl         Xzbbbbbbbbbbb5     &bbbbbj         =bbbbbbbbbbbbu        3bbbbbbbbbbbbbbbbbbbbbbbbbbb<         pbbbbbbbbbbbb&       .lbbbbbbbbbO       sbbbbbbbbbbbbbbbbbbbbbbb",
"bbbbbbb-         4bbbbbbbbbbv@     >bbbbbb&         fbbbbbbbbbbb>       .hbbbbbbbbbbbbbbbbbbbbbbbbbbbi         :bbbbbbbbbbbg        <bbbbbbbbbbO       sbbbbbbbbbbbbbbbbbbbbbbb",
"bbbbbbbi          ybbbbbbbbbq      3bbbbbbe         =bbbbbbbbbbs        3bbbbbbbbbbbbbbbbbbbbbbbbbbbbb#         pbbbbbbbbbb;       XkbbbbbbbbbbO       abbbbbbbbbbbbbbbbbbbbbbb",
"bbbbbbbb=         Xwbbbbbbbp.      9bbbbbbb#         5bbbbbbbbk+       @xbbbbbbbbbbbbbbbbbbbbbbbbbbbbbr         +jbbbbbbbb6        qbbbbbbbbbbv        ubbbbbbbbbbbbbbbbbbbbbbb",
"bbbbbbbbhX          *wflki<        ebbbbbbba          ,kbbbbbtO       Xdbbbbbbbbbbbbbbbbbbbbbbbbbbbbbbb-         otbbbbbl,        >bbbbbbbbbbbi        0bbbbbbbbbbbbbbbbbbbbbbb",
"bbbbbbbbby                         ubbbbbbbb8           =14,O        .ibbbbbbbbbbbbbbbbbbbbbbbbbbbbbbbbl@          +>41=         -vbbbbbbbbbbh#        $zbbbbbbbbbbbbbbbbbbbbbb",
"bbbbbbbbbbe                        abbbbbbbbb4                      opbbbbbbbbbbbbbbbbbbbbbbbbbbbbbbbbbbh+                      >vbbbbbbbbbt-           .%%$abbbbbbbbbbbbbbbbbb",
"bbbbbbbbbbbiO                      fbbbbbbbbbbq.                   *jbbbbbbbbbbbbbbbbbbbbbbbbbbbbbbbbbbbbk*                   .0bbbbbbbbbbb=                dbbbbbbbbbbbbbbbbbb",
"bbbbbbbbbbbbz1                   @7bbbbbbbbbbbbh:                @ebbbbbbbbbbbbbbbbbbbbbbbbbbbbbbbbbbbbbbbbqO                ,jbbbbbbbbbbbb@                xbbbbbbbbbbbbbbbbbb",
"bbbbbbbbbbbbbbk6#            O:8fbbbbbbbbbbbbbbbbg4@          X>ybbbbbbbbbbbbbbbbbbbbbbbbbbbbbbbbbbbbbbbbbbbvr;.          $6jbbbbbbbbbbbbbb.               Obbbbbbbbbbbbbbbbbbb",
"bbbbbbbbbbbbbbbbbky0533570tdlbbbbbbbbbbbbbbbbbbbbbbbluq63348rfbbbbbbbbbbbbbbbbbbbbbbbbbbbbbbbbbbbbbbbbbbbbbbbbbvdr84336qizbbbbbbbbbbbbbbbbveypdhkxvvbbvvxzllbbbbbbbbbbbbbbbbbbb",
"bbbbbbbbbbbbbbbbbbbbbbbbbbbbbbbbbbbbbbbbbbbbbbbbbbbbbbbbbbbbbbbbbbbbbbbbbbbbbbbbbbbbbbbbbbbbbbbbbbbbbbbbbbbbbbbbbbbbbbbbbbbbbbbbbbbbbbbbbbbbbbbbbbbbbbbbbbbbbbbbbbbbbbbbbbbbbbb",
"bbbbbbbbbbbbbbbbbbbbbbbbbbbbbbbbbbbbbbbbbbbbbbbbbbbbbbbbbbbbbbbbbbbbbbbbbbbbbbbbbbbbbbbbbbbbbbbbbbbbbbbbbbbbbbbbbbbbbbbbbbbbbbbbbbbbbbbbbbbbbbbbbbbbbbbbbbbbbbbbbbbbbbbbbbbbbbb",
"bbbbbbbbbbbbbbbbbbbbbbbbbbbbbbbbbbbbbbbbbbbbbbbbbbbbbbbbbbbbbbbbbbbbbbbbbbbbbbbbbbbbbbbbbbbbbbbbbbbbbbbbbbbbbbbbbbbbbbbbbbbbbbbbbbbbbbbbbbbbbbbbbbbbbbbbbbbbbbbbbbbbbbbbbbbbbbb",
"bbbbbbbbbbbbbbbbbbbbbbbbbbbbbbbbbbbbbbbbbbbbbbbbbbbbbbbbbbbbbbbbbbbbbbbbbbbbbbbbbbbbbbbbbbbbbbbbbbbbbbbbbbbbbbbbbbbbbbbbbbbbbbbbbbbbbbbbbbbbbbbbbbbbbbbbbbbbbbbbbbbbbbbbbbbbbbb",
"bbbbbbbbbbbbbbbbbbbbbbbbbbbbbbbbbbbbbbbbbbbbbbbbbbbbbbbbbbbbbbbbbbbbbbbbbbbbbbbbbbbbbbbbbbbbbbbbbbbbbbbbbbbbbbbbbbbbbbbbbbbbbbbbbbbbbbbbbbbbbbbbbbbbbbbbbbbbbbbbbbbbbbbbbbbbbbb",
"bbbbbbbbbbbbbbbbbbbbbbbbbbbbbbbbbbbbbbbbbbbbbbbbbbbbbbbbbbbbbbbbbbbbbbbbbbbbbbbbbbbbbbbbbbbbbbbbbbbbbbbbbbbbbbbbbbbbbbbbbbbbbbbbbbbbbbbbbbbbbbbbbbbbbbbbbbbbbbbbbbbbbbbbbbbbbbb",
"bbbbbbbbbbbbbbbbbbbbbbbbbbbbbbbbbbbbbbbbbbbbbbbbbbbbbbbbbbbbbbbbbbbbbbbbbbbbbbbbbbbbbbbbbbbbbbbbbbbbbbbbbbbbbbbbbbbbbbbbbbbbbbbbbbbbbbbbbbbbbbbbbbbbbbbbbbbbbbbbbbbbbbbbbbbbbbb",
"bbbbbbbbbbbbbbbbbbbbbbbbbbbbbbbbbbbbbbbbbbbbbbbbbbbbbbbbbbbbbbbbbbbbbbbbbbbbbbbbbbbbbbbbbbbbbbbbbbbbbbbbbbbbbbbbbbbbbbbbbbbbbbbbbbbbbbbbbbbbbbbbbbbbbbbbbbbbbbbbbbbbbbbbbbbbbbb",
"bbbbbbbbbbbbbbbbbbbbbbbbbbbbbbbbbbbbbbbbbbbbbbbbbbbbbbbbbbbbbbbbbbbbbbbbbbbbbbbbbbbbbbbbbbbbbbbbbbbbbbbbbbbbbbbbbbbbbbbbbbbbbbbbbbbbbbbbbbbbbbbbbbbbbbbbbbbbbbbbbbbbbbbbbbbbbbb",
"bbbbbbbbbbbbbbbbbbbbbbbbbbbbbbbbbbbbbbbbbbbbbbbbbbbbbbbbbbbbbbbbbbbbbbbbbbbbbbbbbbbbbbbbbbbbbbbbbbbbbbbbbbbbbbbbbbbbbbbbbbbbbbbbbbbbbbbbbbbbbbbbbbbbbbbbbbbbbbbbbbbbbbbbbbbbbbb"
};
