/* XPM */
static char *cooph_xpm[] = {
/* columns rows colors chars-per-pixel */
"177 50 95 2",
"   c #ED3B3D",
".  c #F73536",
"X  c #FF3131",
"o  c #F43738",
"O  c #F1393B",
"+  c #E73F42",
"@  c #E93E40",
"#  c #BE575F",
"$  c #B55C65",
"%  c #BA5962",
"&  c #B15E68",
"*  c #9E6975",
"=  c #966F7C",
"-  c #9A6C79",
";  c #91717F",
":  c #AC626C",
">  c #A56671",
",  c #A16874",
"<  c #DF4347",
"1  c #DB454A",
"2  c #D6494E",
"3  c #CD4E55",
"4  c #D24B51",
"5  c #CA5056",
"6  c #C3545B",
"7  c #C85158",
"8  c #E34145",
"9  c #7D7D8D",
"0  c #797F90",
"q  c #867786",
"w  c #8B7483",
"e  c #867887",
"r  c #837989",
"t  c #37A5BE",
"y  c #3CA3BB",
"u  c #6E8699",
"i  c #658B9E",
"p  c #6A889B",
"a  c #738394",
"s  c #788091",
"d  c #5E8FA4",
"f  c #4F97AE",
"g  c #4D99AF",
"h  c #5B91A6",
"j  c #5395AB",
"k  c #5893A8",
"l  c #459EB5",
"z  c #4A9BB2",
"x  c #618DA1",
"c  c #41A0B8",
"v  c #0DBEDD",
"b  c #1CB6D3",
"n  c #17B9D6",
"m  c #18B8D5",
"M  c #12BCDA",
"N  c #2DACC6",
"B  c #27AFCA",
"V  c #29AEC9",
"C  c #34A7C1",
"Z  c #32A9C3",
"A  c #23B1CD",
"S  c #20B4D0",
"D  c #0CC0DF",
"F  c #16C2E1",
"G  c #1AC3E0",
"H  c #24C6E2",
"J  c #29C7E2",
"K  c #2AC8E3",
"L  c #35CBE5",
"P  c #39CCE5",
"I  c #48CFE7",
"U  c #49D0E7",
"Y  c #57D3E9",
"T  c #58D4E9",
"R  c #61D5EA",
"E  c #66D7EB",
"W  c #67D8EB",
"Q  c #72DAEC",
"!  c #75DBED",
"~  c #76DCED",
"^  c #85DFEF",
"/  c #86E0EF",
"(  c #94E3F1",
")  c #95E4F1",
"_  c #A3E7F3",
"`  c #A4E8F3",
"'  c #AAE9F4",
"]  c #B2EBF5",
"[  c #B3ECF5",
"{  c #C2EFF7",
"}  c #C3F0F7",
"|  c #D1F3F9",
" . c #E0F7FB",
".. c #EFFBFD",
"X. c None",
/* pixels */
"X.X.X.X.X.X.X.X.X.X.X.X.X.X.X.X.X.X.X.X.X.X.X.X.X.X.X.X.X.X.X.X.X.X.X.X.X.X.X.X.X.X.X.X.X.X.X.X.X.X.X.X.X.X.X.X.X.X.X.X.X.X.X.X.X.X.X.X.X.X.X.X.X.X.X.X.X.X.X.X.X.X.X.X.X.X.X.X.X.X.X.X.X.X.X.X.X.X.X.X.X.X.X.X.X.X.X.X.X.X.X.X.X.X.X.X.X.X.X.X.X.X.X.X.X.X.X.X.X.X.X.X.X.X.X.X.X.X.X.X.X.X.X.X.X.X.X.X.X.X.X.X.X.X.X.X.X.X.X.X.X.X.X.X.X.X.X.X.X.X.X.X.X.X.X.X.X.",
"X.X.X.X.X.X.X.X.X.X.X.X.X.X.X.X.X.X.X.X.X.X.X.X.X.X.X.X.X.X.X.X.X.X.X.X.X.X.X.X.X.X.X.X.X.X.X.X.X.X.X.X.X.X.X.X.X.X.X.X.X.X.X.X.X.X.X.X.X.X.X.X.X.X.X.X.X.X.X.X.X.X.X.X.X.X.X.X.X.X.X.X.X.X.X.X.X.X.X.X.X.X.X.X.X.X.X.X.X.X.X.X.X.X.X.X.X.X.X.X.X.X.X.X.X.X.X.X.X.X.X.X.X.X.X.X.X.X.X.X.X.X.X.X.X.X.X.X.X.X.X.X.X.X.X.X.X.X.X.X.X.X.X.X.X.X.X.X.X.X.X.X.X.X.X.X.X.",
"X.X.X.X.X.X.X.X.X.X.X.X.X.X.X.X.X.X.X.X.X.X.X.X.X.X.X.X.X.X.X.X.X.X.X.X.X.X.X.X.X.X.X.X.X.X.X.X.X.X.X.X.X.X.X.X.X.X.X.X.X.X.X.X.X.X.X.X.X.X.X.X.X.X.X.X.X.X.X.X.X.X.X.X.X.X.X.X.X.X.X.X.X.X.X.X.X.X.X.X.X.X.X.X.X.X.X.X.X.X.X.X.X.X.X.X.X.X.X.X.X.X.X.X.X.X.X.X.X.X.X.X.X.X.X.X.X.X.X.X.X.X.X.X.X.X.X.X.X.X.X.X.X.X.X.X.X.X.X.X.X.X.X.X.X.X.X.X.X.X.X.X.X.X.X.X.X.",
"X.X.X.X.X.X.X.X.X.X.X.X.X.X.X.X.X.X.X.X.X.X.X.X.X.X.X.X.X.X.X.X.X.X.X.X.X.X.X.X.X.X.X.X.X.X.X.X.X.X.X.X.X.X.X.X.X.X.X.X.X.X.X.X.X.X.X.X.X.X.X.X.X.X.X.X.X.X.X.X.X.X.X.X.X.X.X.X.X.X.X.X.X.X.X.X.X.X.X.X.X.X.X.X.X.X.X.X.X.X.X.X.X.X.X.X.X.X.X.X.X.X.X.X.X.X.X.X.X.X.X.X.X.X.X.X.X.X.X.X.X.X.X.X.X.X.X.X.X.X.X.X.X.X.X.X.X.X.X.X.X.X.X.X.X.X.X.X.X.X.X.X.X.X.X.X.X.",
"X.X.X.X.X.X.X.X.X.X.X.X.X.X.X.X.X.X.X.X.X.X.X.X.X.X.X.X.X.X.X.X.X.X.X.X.X.X.X.X.X.X.X.X.X.X.X.X.X.X.X.X.X.X.X.X.X.X.X.X.X.X.X.X.X.X.X.X.X.X.X.X.X.X.X.X.X.X.X.X.X.X.X.X.X.X.X.X.X.X.X.X.X.X.X.X.X.X.X.X.X.X.X.X.X.X.X.X.X.X.X.X.X.X.X.X.X.X.X.X.X.X.X.X.X.X.X.X.X.X.X.X.X.X.X.X.X.X.X.X.X.X.X.X.X.X.X.X.X.X.X.X.X.X.X.X.X.X.X.X.X.X.X.X.X.X.X.X.X.X.X.X.X.X.X.X.X.",
"X.X.X.X.X.X.X.X.X.X.X.X.X.X.X.X.X.X.X.X.X.X.| } } ` / / / } } }  .X.X.X.X.X.X.X.X.X.X.X.X.X.X.X.X.X.X.X.X.X.X.X.| } } / / / [ } } ..X.X.X.X.X.X.X.X.X.X.X.X.X.X.X.X.X.X.X.X.X.X.X.X.X.X.X.X.X.X.X.X.X.X.X.X.X.X.X.X.X.X.X.X.X.X.X.X.X...} } ` / / ) } } | X.X.X.X.X.X.X.X.X.X.X.X.X.X.X.X.X.X.X.X.X.X.X.X.X.X.X.X.X.X.X. .} X.X.X.X.X.X.X.X.X.X.X.X.X.X.X.X.X.X.X.",
"X.X.X.X.X.X.X.X.X.X.X.X.X.X.X.X.X.X.| ) T G D D D D D D D D D D D D U W / }  .X.X.X.X.X.X.X.X.X.X.X.X.X. .` W G D D D D D D D D D D P ~ [ X.X.X.X.X.X.X.X.X.X.X.X.X.X.X.X.X.X.X.X.X.X.X.X.X.X.X.X.X.X.X.X.X.X.X.X.X.X.X.X.X.X.X.} / P D D D D D D D D D D G T )  .X.X.X.X.X.X.X.X.X.X.E D D D D D D D D D D D D D D D D D D D D D G U / [ ..X.X.X.X.X.X.X.X.X.X.X.",
"X.X.X.X.X.X.X.X.X.X.X.X.X.X.X.X.{ U D D D D D D D D D D D D D D D D D D D D D K X.X.X.X.X.X.X.X.X.X. .W D D D D D D D D D D D D D D D D D K ` X.X.X.X.X.X.X.X.X.X.X.X.X.X.X.X.X.X.X.X.X.X.X.X.X.X.X.X.X.X.X.X.X.X.X.X.X.X.X.` K D D D D D D D D D D D D D D D D D W  .X.X.X.X.X.X.X.X.I D D D D D D D D D D D D D D D D D D D D D D D D D G ~  .X.X.X.X.X.X.X.X.X.",
"X.X.X.X.X.X.X.X.X.X.X.X.X.X.] P D D D D Z u * 6 <   . X o + 4 % - s j B D D D D _ X.X.X.X.X.X.X...W D D D D V u , 6 8 o X .   2 $ q j M D D D K | X.X.X.X.X.X.X.X.X.X.X.X.X.X.X.X.X.X.X.X.X.X.X.X.X.X.X.X.X.X.X.X.X.X.X.] K D D D M g q $ 2   . X o 8 7 , a N D D D D ~ X.X.X.X.X.X.X.K D t 9 s s a a u p a s 9 e w = - , : > - q p l M D D D D ) X.X.X.X.X.X.X.X.",
"X.X.X.X.X.X.X.X.X.X.X.X.X.~ D D D A r < X X X X X X X X X X X X X X X X   6 B D K X.X.X.X.X.X.| P D D M i 5 X X X X X X X X X X X X X o * Z D D D _ X.X.X.X.X.X.X.X.X.X.X.X.X.X.X.X.X.X.X.X.X.X.X.X.X.X.X.X.X.X.X.X.X./ D D D N -   X X X X X X X X X X X X X 4 p M D D P ..X.X.X.X.X.D D r X X X X X X X X X X X X X X X X X X X X X . % d v D D U ..X.X.X.X.X.X.",
"X.X.X.X.X.X.X.X.X.X.X. .P D D b = . X X X X X X X X X X X X X X X X X X X X j D J X.X.X.X.X.] G D D j 1 X X X X X X X X X X X X X X X X X X - n D D W X.X.X.X.X.X.X.X.X.X.X.X.X.X.X.X.X.X.X.X.X.X.X.X.X.X.X.X.X.X...T D D b - X X X X X X X X X X X X X X X X X X < z D D G | X.X.X.| D D > X X X X X X X X X X X X X X X X X X X X X X X X 2 y D D W X.X.X.X.X.X.",
"X.X.X.X.X.X.X.X.X.X...G D D j @ X X X X X X X X X X X X X X X X X X X X X X b D Y X.X.X.X.] D D M - X X X X X X X X X X X X X X X X X X X X X 1 N D D _ X.X.X.X.X.X.X.X.X.X.X.X.X.X.X.X.X.X.X.X.X.X.X.X.X.X.X.X.X.P D D c 8 X X X X X X X X X X X X X X X X X X X X X r D D P ..X.X.{ D D 6 X X X X X X X X X X X X X X X X X X X X X X X X X . g D D ^ X.X.X.X.X.",
"X.X.X.X.X.X.X.X.X...P D D 9 X X X X X X X X X X X X X X X X X X X X X X X < D D ^ X.X.X.| G D n # X X X X X X X X X X X X X X X X X X X X X X X @ N D D | X.X.X.X.X.X.X.X.X.X.X.X.X.X.X.X.X.X.X.X.X.X.X.X.X.X.X.W D D k . X X X X X X X X X X X X X X X X X X X X X X X ; D D T X.X.( D D z p i % X X X X X X X X X X X X X X X X X X X X X X X O C D D  .X.X.X.X.",
"X.X.X.X.X.X.X.X.X.T D D q X X X X X X X X X X < 6 $ # 8 X X X X X X X X X & D D { X.X...P D M 6 X X X X X X X X X O 7 $ 3   X X X X X X X X X X X 1 n D K X.X.X.X.X.X.X.X.X.X.X.X.X.X.X.X.X.X.X.X.X.X.X.X.X.X._ D D j . X X X X X X X X X 2 % # 1 X X X X X X X X X X X X u D D _ X...P D D D D m X X X X X X X X X e a r , 4 X X X X X X X X X X 3 D D E X.X.X.X.",
"X.X.X.X.X.X.X.X.^ D D p X X X X X X X X X * Z D D D D D C % X X X X X X X q D D ..X.X.E D D * X X X X X X X X 8 d M D D D M k 1 X X X X X X X X X X - D D _ X.X.X.X.X.X.X.X.X.X.X.X.X.X.X.X.X.X.X.X.X.X.X.X. .D D Z o X X X X X X X X , N D D D D N = X X X X X X X X X X o V D K X.X...P D D D D   X X X X X X X 8 D D D D D Z % X X X X X X X X X k D D X.X.X.X.",
"X.X.X.X.X.X.X...G D C . X X X X X X X . j D D D D D D D D v 6 X X X X X X i D J X.X. .D D j X X X X X X X X 1 b D D D D D D D m # X X X X X X X X X X Z D K X.X.X.X.X.X.X.X.X.X.X.X.X.X.X.X.X.X.X.X.X.X.X.X.E D v 3 X X X X X X X X a D D D D D D D D j . X X X X X X X X X : D D _ X.X.X.X.^ D D @ X X X X X X X 2 D D D D D D v : X X X X X X X X $ D D ] X.X.X.",
"X.X.X.X.X.X.X.^ D v 6 X X X X X X X X u D D G ! _ { ] E D D d X X X X X X l D I X.X.E D M < X X X X X X X . Z D D Y _ { ( E D D m 8 X X X X X X X X X , D D ] X.X.X.X.X.X.X.X.X.X.X.X.X.X.X.X.X.X.X.X.X.X. .D D u X X X X X X X X : D D G ! ] ] ^ J D D s X X X X X X X X X X V D P X.X.X.X.^ D D @ X X X X X X X 5 D D {  .^ G D S o X X X X X X X o v D ^ X.X.X.",
"X.X.X.X.X.X...G D j X X X X X X X X 4 v D G | X.X.X.X.X.P D c X X X X X X A D I X. .D D u X X X X X X X X , D D ! X.X.X.X.X._ D D k X X X X X X X X X o n D ! X.X.X.X.X.X.X.X.X.X.X.X.X.X.X.X.X.X.X.X.X.X.E D v 8 X X X X X X X X V D G | X.X.X.X...P D D 4 X X X X X X X X X r D D ..X.X.X.^ D D @ X X X X X X X % D D { X.X._ D D % X X X X X X X X A D ! X.X.X.",
"X.X.X.X.X.X._ D D 6 X X X X X X X X u D D { X.X.X.X.X.X.I D c X X X X X X M D ^ X.( D D 4 X X X X X X X X z D G ..X.X.X.X.X.X.E D v 1 X X X X X X X X X j D P X.X.X.X.X.X.X.X.X.X.X.X.X.X.X.X. .} ` / X.X.G D k X X X X X X X X 6 D D ! X.X.X.X.X.X. .D D x X X X X X X X X X 3 D D ] X.X.X.^ D D @ X X X X X X X : D D { X.X. .D D = X X X X X X X X y D I X.X.X.",
"X.X.X.X.X.X.E D A X X X X X X X X X A D J X.X.X.X.X.X.X.I D l X X X X X   D D ^ X.Y D Z X X X X X X X X o v D E X.X.X.X.X.X.X. .D D q X X X X X X X X X w D D ..X.X.X.X.X.X.X.| } ) / W U K D D D D D ! | D D : X X X X X X X X 9 D D  .X.X.X.X.X.X.X.E D n . X X X X X X X X X n D ! X.X.X.^ D D @ X X X X X X X , D D ..X.X.X.D D q X X X X X X X X Z D Y X.X.X.",
"X.X.X.X.X.X.G D u X X X X X X X X 8 D D ( X.X.X.X.X.X.X.I D C > - w 9 a k D D ] X.G D s X X X X X X X X 3 D D { X.X.X.X.X.X.X.X.P D l X X X X X X X X X # D D ' } / / T U G D D D D D D D D D D D D D D Q D v   X X X X X X X X j D P X.X.X.X.X.X.X.X.] D D 6 X X X X X X X X X l D I X.X.X.^ D D @ X X X X X X X = D D X.X.X. .D D - X X X X X X X X n D ^ X.X.X.",
"X.X.X.X.X.| D D > X X X X X X X X % D D { X.X.X.X.X.X.X.I D D D D D D D D D D { { D D : X X X X X X X X : D D { X.X.X.X.X.X.X.X.! D M . X X X X X X X X < D D E D D D D D D D D D D v A l x 9 * % 6 n D G D Z X X X X X X X X X Z D I X.X.X.X.X.X.X.X...D D q X X X X X X X X X i D I X.X.X.^ D D @ X X X X X X X w D D X.X.X._ D D # X X X X X X X 4 D D ( X.X.X.",
"X.X.X.X.X.{ D D 4 X X X X X X X X , D D { X.X.X.X.X.X.X.I D D D D D D D P I I | { D D 2 X X X X X X X X - D D | X.X.X.X.X.X.X.X._ D D < X X X X X X X X . D D J D D M N z p q > 6 < . X X X X X X X y D G D k X X X X X X X X X A D Y X.X.X.X.X.X.X.X.X.J D i X X X X X X X X X 9 D D X.X.X.^ D D @ X X X X X X X r D D X.X...K D m . X X X X X X X 9 D D  .X.X.X.",
"X.X.X.X.X._ D D O X X X X X X X X = D D ..X.X.X.X.X.X.X.{ { {  .X.X.X.X.X.X.X.X._ D D O X X X X X X X X ; D D X.X.X.X.X.X.X.X.X.{ D D # X X X X X X X X X M D J D l X X X X X X X X X X X X X X X X B D F D s X X X X X X X X X n D ^ X.X.X.X.X.X.X.X.X.I D l X X X X X X X X X q D D X.X.X.^ D D @ X X X X X X X s D D U U G D D r X X X X X X X   b D I X.X.X.X.",
"X.X.X.X.X.^ D v X X X X X X X X X w D D X.X.X.X.X.X.X.X.X.X.X.X.X.X.X.X.X.X.X.X.^ D v X X X X X X X X X ; D D X.X.X.X.X.X.X.X.X.| D D > X X X X X X X X X m D H D h X X X X X X X X X X X X X X X X M D D D q X X X X X X X X X m D ^ X.X.X.X.X.X.X.X.X.Y D N X X X X X X X X X ; D D X.X.X.^ D D @ X X X X X X X p D D D D D D k . X X X X X X X x D D { X.X.X.X.",
"X.X.X.X.X.^ D m X X X X X X X X X - D D  .X.X.X.X.X.X.X.X.X.X.X.X.X.X.X.X.X.X.X.^ D m X X X X X X X X X - D D | X.X.X.X.X.X.X.X.X.D D * X X X X X X X X X M D D D a X X X X X X X X X X X X X X X   D D D D ; X X X X X X X X X A D Y X.X.X.X.X.X.X.X.X.^ D A X X X X X X X X X w D D X.X.X.^ D D @ X X X X X X X 6 q p z V c , X X X X X X X X - D D Y X.X.X.X.X.",
"X.X.X.X.X.^ D n X X X X X X X X X > D D { X.X.X.X.X.X.X.X.X.X.X.X.X.X.X.X.X.X.X.^ D n X X X X X X X X X > D D { X.X.X.X.X.X.X.X.X.D D = X X X X X X X X . D D D D q X X X X X X X X X X X X X X X 4 D D D D ; X X X X X X X X X V D I X.X.X.X.X.X.X.X.X.^ D m X X X X X X X X X r D D X.X.X.^ D D @ X X X X X X X X X X X X X X X X X X X X X > v D G ..X.X.X.X.X.",
"X.X.X.X.X.^ D v X X X X X X X X X % D D { X.X.X.X.X.X.X.X...} } ) / / / U U U P D D v X X X X X X X X X $ D D { X.X.X.X.X.X.X.X.X.D D ; X X X X X X X X 8 D D D D * X X X X X X X X X X @ 3 $ - 9 g D D D D q X X X X X X X X X y D I X.X.X.X.X.X.X.X.X.^ D n X X X X X X X X X i D I X.X.X.^ D D @ X X X X X X X X X X X X X X X X X X X X r v D G | X.X.X.X.X.X.",
"X.X.X.X.X.] D D @ X X X X X X X X < D D ( X.X.X.X.X.X.X.X.{ D D D D D D D D D D F D D   X X X X X X X X 2 D D ] X.X.X.X.X.X.X.X.{ D D * X X X X X X X X 6 D D D D 9 X 8 5 : = 9 d l V M D D D D D D D D H D a X X X X X X X X X h D P X.X.X.X.X.X.X.X.X.I D A X X X X X X X X X l D I X.X.X.^ D D @ X X X X X X X X X X X X X X X X X X 2 z D D G | X.X.X.X.X.X.X.",
"X.X.X.X.X.{ D D 3 X X X X X X X X X n D E X.X.X.X.X.X.X.X.^ D D D D M A Z c n D P D D 4 X X X X X X X X . v D ! X.X.X.X.X.X.X.X.{ D D : X X X X X X X X w D D L D v v D D D D D D D D D D D D D D J I Y I D k X X X X X X X X X 9 D D ..X.X.X.X.X.X.X.X.I D Z X X X X X X X X X n D ! X.X.X.^ D D @ X X X X X X X X X X X X X X X . 6 d v D D P | X.X.X.X.X.X.X.X.",
"X.X.X.X.X. .D D , X X X X X X X X X j D D ..X.X.X.X.X.X.X.E D b 8 o X X X X b D R D D > X X X X X X X X X t D K X.X.X.X.X.X.X.X.] D D 4 X X X X X X X X j D P | G D D D D D D D P I E ^ ( { { ..X.X.X.X.Y D N X X X X X X X X X & D D _ X.X.X.X.X.X.X.X.P D k X X X X X X X X 3 D D ] X.X.X.^ D D @ X X X X X X X : w w w w r u j m D D D D ! ..X.X.X.X.X.X.X.X.X.",
"X.X.X.X.X.X.J D p X X X X X X X X X * D D _ X.X.X.X.X.X.X.K D g X X X X X   D D ^ G D a X X X X X X X X X s D D  .X.X.X.X.X.X.X.E D M . X X X X X X X O M D ! X._ E ^ ( { { X.X.X.X.X.X.X.X.X.X.X.X.X.X.( D D   X X X X X X X X   v D E X.X.X.X.X.X.X. .D D r X X X X X X X X 9 D D ..X.X.X.^ D D @ X X X X X X X l D D D D D D D D D D E  .X.X.X.X.X.X.X.X.X.X.X.",
"X.X.X.X.X.X.E D A X X X X X X X X X o b D K ..X.X.X.X.X.{ D D ; X X X X X 3 D D ] Y D N X X X X X X X X X 6 D D ! X.X.X.X.X.X. .D D j X X X X X X X X - D D { X.X.X.X.X.X.X.X.X.X.X.X.X.X.X.X.X.X.X.X.X.| D D > X X X X X X X X X z D G  .X.X.X.X.X.X.E D D 3 X X X X X X X . A D I X.X.X.X.^ D D @ X X X X X X X l D D D D D G I E ] ..X.X.X.X.X.X.X.X.X.X.X.X.X.",
"X.X.X.X.X.X._ D D # X X X X X X X X X = D D P | X.X.X...U D M 8 X X X X X & D D { ( D D 3 X X X X X X X X X y D D _ X.X.X.X.X.W D D : X X X X X X X . N D J X.X.X.X.X.X.X.X.X.X.X.X.X.X.X.X.X.X.X.X.X.X.X.G D j X X X X X X X X X $ D D P ..X.X.X.X.| G D C X X X X X X X X > D D _ X.X.X.X.^ D D @ X X X X X X X l D I X.X.X.X.X.X.X.X.X.X.X.X.X.X.X.X.X.X.X.X.X.",
"X.X.X.X.X.X...G D j X X X X X X X X X X k D D D K W T G D D a X X X X X X = D D ....D D i X X X X X X X X X 6 v D G ~ } ..} U D D l X X X X X X X X - D D _ X.X.X.X.X.X.X.X.X.X.X.X.X.X.X.X.X.X.X.X.X.X.X.! D v < X X X X X X X X X z D D U `  .| ) G D D % X X X X X X X . B D J X.X.X.X.X.^ D D   X X X X X X X z D I X.X.X.X.X.X.X.X.X.X.X.X.X.X.X.X.X.X.X.X.X.",
"X.X.X.X.X.X.X.^ D D 6 X X X X X X X X X . u D D D D D D D g . X X X X X X 9 D D X.X.E D v 1 X X X X X X X X X w D D D D D D D D V 8 X X X X X X X < m D J X.X.X.X.X.X.X.X.X.X.X.X.X.X.X.X.X.X.X.X.X.X.X.X. .D D i X X X X X X X X X + N D D D D D D D D q X X X X X X X X a D D _ X.X.X.X...W D M X X X X X X X X j D P } } [ ] X.X.X.X.X.X.X.X.X.X.X.X.X.X.X.X.X.",
"X.X.X.X.X.X.X...G D Z o X X X X X X X X X X 5 u t A V j > X X X X X X X X p D D X.X. .D D l X X X X X X X X X X : V D D D D v d @ X X X X X X X o y D D { X.X.X.X.X.X.X.X.X.X.X.X.X.X.X.X.X.X.X.X.X.X.X.X.X.E D v # X X X X X X X X X   d v D D D D A : X X X X X X X X : D D I X.X.X.U K D D D j X X X X X X X X s D D D D D G  .X.X.X.X.X.X.X.X.X.X.X.X.X.X.X.X.",
"X.X.X.X.X.X.X.X.( D D h X X X X X X X X X X X X X X X X X X X X X X X X X j D I X.X.X.! D D r X X X X X X X X X X X 6 , = : @ X X X X X X X X . j D D ( X.X.X.X.X.X.X.X.X.X.X.X.X.X.X.X.X.X.X.X.X.X.X.X.X.X. .G D A 8 X X X X X X X X X X 8 : = * 6 X X X X X X X X X 6 M D J ..X.X.X.D D D D Z < X X X X X X X X 2 b D D D D D T X.X.X.X.X.X.X.X.X.X.X.X.X.X.X.X.",
"X.X.X.X.X.X.X.X.X.E D D p X X X X X X X X X X X X X X X X X X X X X X X X z D I X.X.X.X.I D D ; X X X X X X X X X X X X X X X X X X X X X X O z D D E X.X.X.X.X.X.X.X.X.X.X.X.X.X.X.X.X.X.X.X.X.X.X.X.X.X.X.X.{ D D Z 8 X X X X X X X X X X X X X X X X X X X X X X : M D G | X.X.X.| D D x # X X X X X X X X X X X . 4 4 2 z D J X.X.X.X.X.X.X.X.X.X.X.X.X.X.X.X.",
"X.X.X.X.X.X.X.X.X...P D D f   X X X X X X X X X X X X X X X X X X X X X X y D I X.X.X.X...G D D a . X X X X X X X X X X X X X X X X X X X 5 N D D I ..X.X.X.X.X.X.X.X.X.X.X.X.X.X.X.X.X.X.X.X.X.X.X.X.X.X.X.X.X.^ D D B 6 X X X X X X X X X X X X X X X X X X X . s v D G _ X.X.X.X.{ D D 6 X X X X X X X X X X X X X X X X y D I X.X.X.X.X.X.X.X.X.X.X.X.X.X.X.X.",
"X.X.X.X.X.X.X.X.X.X...I D D A * X X X X X X X X X X X X X X X X X X X 8 r D D Y X.X.X.X.X.| P D D Z $ X X X X X X X X X X X X X X X X 8 p v D D E X.X.X.X.X.X.X.X.X.X.X.X.X.X.X.X.X.X.X.X.X.X.X.X.X.X.X.X.X.X.X.X.^ D D v a   X X X X X X X X X X X X X X X X : N D D G | X.X.X.X.X.( D D 8 X X X X X X X X X X X X X X X X m D ! X.X.X.X.X.X.X.X.X.X.X.X.X.X.X.X.",
"X.X.X.X.X.X.X.X.X.X.X.X.E D D D V w 1 X X X X X X X X X X X X @ $ r y D D D G | X.X.X.X.X.X...Y D D D C = < X X X X X X X X X X o & h v D D D _ X.X.X.X.X.X.X.X.X.X.X.X.X.X.X.X.X.X.X.X.X.X.X.X.X.X.X.X.X.X.X.X.X.X.] G D D M i % . X X X X X X X X X X 2 q N D D D P ..X.X.X.X.X.X.^ D v . X X X X X X X X X X X X X X X   D D ^ X.X.X.X.X.X.X.X.X.X.X.X.X.X.X.X.",
"X.X.X.X.X.X.X.X.X.X.X.X.X.] J D D D D B k 0 w - = w e s d c A D D D D D D J | X.X.X.X.X.X.X.X.X._ J D D D D A j a w = - ; r i t v D D D D E  .X.X.X.X.X.X.X.X.X.X.X.X.X.X.X.X.X.X.X.X.X.X.X.X.X.X.X.X.X.X.X.X.X.X.X.X. .E D D D D M y i r ; - = w a j S D D D D J _ X.X.X.X.X.X.X.X.E D M i k z c Z B b M M v v M n m S A A D D { X.X.X.X.X.X.X.X.X.X.X.X.X.X.X.X.",
"X.X.X.X.X.X.X.X.X.X.X.X.X.X.X._ P D D D D D D D D D D D D D D D D G E _  .X.X.X.X.X.X.X.X.X.X.X.X.X._ J D D D D D D D D D D D D D D G E  .X.X.X.X.X.X.X.X.X.X.X.X.X.X.X.X.X.X.X.X.X.X.X.X.X.X.X.X.X.X.X.X.X.X.X.X.X.X.X.X. .E D D D D D D D D D D D D D D D P _ X.X.X.X.X.X.X.X.X.X.I D D D D D D D D D D D D D D D D D D D D D | X.X.X.X.X.X.X.X.X.X.X.X.X.X.X.X.",
"X.X.X.X.X.X.X.X.X.X.X.X.X.X.X.X.X. ._ E I G D D D D G I I I ^ ( | X.X.X.X.X.X.X.X.X.X.X.X.X.X.X.X.X.X.X. ._ E I J D D D D D I I ^ | X.X.X.X.X.X.X.X.X.X.X.X.X.X.X.X.X.X.X.X.X.X.X.X.X.X.X.X.X.X.X.X.X.X.X.X.X.X.X.X.X.X.X.X.X.X.{ ^ I I D D D D D J I E _ ..X.X.X.X.X.X.X.X.X.X.X.X.P D D J I I I I ^ ^ ^ ^ ^ ^ ^ ^ ^ ^ ^ Y I I X.X.X.X.X.X.X.X.X.X.X.X.X.X.X.X.X.",
"X.X.X.X.X.X.X.X.X.X.X.X.X.X.X.X.X.X.X.X.X.X.X.X.X.X.X.X.X.X.X.X.X.X.X.X.X.X.X.X.X.X.X.X.X.X.X.X.X.X.X.X.X.X.X.X.X.X.X.X.X.X.X.X.X.X.X.X.X.X.X.X.X.X.X.X.X.X.X.X.X.X.X.X.X.X.X.X.X.X.X.X.X.X.X.X.X.X.X.X.X.X.X.X.X.X.X.X.X.X.X.X.X.X.X.X.X.X.X.X.X.X.X.X.X.X.X.X.X.X.X.X.X.X.X.X.X.X.X.X.X.X.X.X.X.X.X.X.X.X.X.X.X.X.X.X.X.X.X.X.X.X.X.X.X.X.X.X.X.X.X.X.X.X.X.X.X.",
"X.X.X.X.X.X.X.X.X.X.X.X.X.X.X.X.X.X.X.X.X.X.X.X.X.X.X.X.X.X.X.X.X.X.X.X.X.X.X.X.X.X.X.X.X.X.X.X.X.X.X.X.X.X.X.X.X.X.X.X.X.X.X.X.X.X.X.X.X.X.X.X.X.X.X.X.X.X.X.X.X.X.X.X.X.X.X.X.X.X.X.X.X.X.X.X.X.X.X.X.X.X.X.X.X.X.X.X.X.X.X.X.X.X.X.X.X.X.X.X.X.X.X.X.X.X.X.X.X.X.X.X.X.X.X.X.X.X.X.X.X.X.X.X.X.X.X.X.X.X.X.X.X.X.X.X.X.X.X.X.X.X.X.X.X.X.X.X.X.X.X.X.X.X.X.X.X.",
"X.X.X.X.X.X.X.X.X.X.X.X.X.X.X.X.X.X.X.X.X.X.X.X.X.X.X.X.X.X.X.X.X.X.X.X.X.X.X.X.X.X.X.X.X.X.X.X.X.X.X.X.X.X.X.X.X.X.X.X.X.X.X.X.X.X.X.X.X.X.X.X.X.X.X.X.X.X.X.X.X.X.X.X.X.X.X.X.X.X.X.X.X.X.X.X.X.X.X.X.X.X.X.X.X.X.X.X.X.X.X.X.X.X.X.X.X.X.X.X.X.X.X.X.X.X.X.X.X.X.X.X.X.X.X.X.X.X.X.X.X.X.X.X.X.X.X.X.X.X.X.X.X.X.X.X.X.X.X.X.X.X.X.X.X.X.X.X.X.X.X.X.X.X.X.X.X.",
"X.X.X.X.X.X.X.X.X.X.X.X.X.X.X.X.X.X.X.X.X.X.X.X.X.X.X.X.X.X.X.X.X.X.X.X.X.X.X.X.X.X.X.X.X.X.X.X.X.X.X.X.X.X.X.X.X.X.X.X.X.X.X.X.X.X.X.X.X.X.X.X.X.X.X.X.X.X.X.X.X.X.X.X.X.X.X.X.X.X.X.X.X.X.X.X.X.X.X.X.X.X.X.X.X.X.X.X.X.X.X.X.X.X.X.X.X.X.X.X.X.X.X.X.X.X.X.X.X.X.X.X.X.X.X.X.X.X.X.X.X.X.X.X.X.X.X.X.X.X.X.X.X.X.X.X.X.X.X.X.X.X.X.X.X.X.X.X.X.X.X.X.X.X.X.X.X.",
"X.X.X.X.X.X.X.X.X.X.X.X.X.X.X.X.X.X.X.X.X.X.X.X.X.X.X.X.X.X.X.X.X.X.X.X.X.X.X.X.X.X.X.X.X.X.X.X.X.X.X.X.X.X.X.X.X.X.X.X.X.X.X.X.X.X.X.X.X.X.X.X.X.X.X.X.X.X.X.X.X.X.X.X.X.X.X.X.X.X.X.X.X.X.X.X.X.X.X.X.X.X.X.X.X.X.X.X.X.X.X.X.X.X.X.X.X.X.X.X.X.X.X.X.X.X.X.X.X.X.X.X.X.X.X.X.X.X.X.X.X.X.X.X.X.X.X.X.X.X.X.X.X.X.X.X.X.X.X.X.X.X.X.X.X.X.X.X.X.X.X.X.X.X.X.X.X."
};
