/* XPM */
static char *cursor_xpm[] = {
"20 34 149 2 ",
"   c None",
".  c #070505",
"X  c #060706",
"o  c #070607",
"O  c #0B0B0A",
"+  c #0D0C0B",
"@  c #0D0C0C",
"#  c #0C0D0D",
"$  c #0F0F0E",
"%  c #120E0C",
"&  c #150F0E",
"*  c #111010",
"=  c #101011",
"-  c #121211",
";  c #111013",
":  c #111113",
">  c #131313",
",  c #161513",
"<  c #131414",
"1  c #141415",
"2  c #151615",
"3  c #1B1A19",
"4  c #1B1B19",
"5  c #1B1B1B",
"6  c #1A1C1B",
"7  c #1C1E1D",
"8  c #221E19",
"9  c #20201F",
"0  c #222222",
"q  c #252422",
"w  c #282625",
"e  c #2A2926",
"r  c #252428",
"t  c #302C27",
"y  c #322F27",
"u  c #2F302F",
"i  c #31312E",
"p  c #3D382A",
"a  c #363531",
"s  c #3C393B",
"d  c #3F3E38",
"f  c #483E33",
"g  c #413F38",
"h  c #424035",
"j  c #46423D",
"k  c #4D483D",
"l  c #434444",
"z  c #4A4A49",
"x  c #545146",
"c  c #5C5444",
"v  c #50504C",
"b  c #595958",
"n  c #5B5B59",
"m  c #635543",
"M  c #665847",
"N  c #6B5B45",
"B  c #625C53",
"V  c #655F56",
"C  c #605F5E",
"Z  c #736247",
"A  c #74644C",
"S  c #676152",
"D  c #6A655A",
"F  c #756750",
"G  c #7C6B50",
"H  c #786D5D",
"J  c #666668",
"K  c #706F6D",
"L  c #787265",
"P  c #757369",
"I  c #767469",
"U  c #836F55",
"Y  c #887155",
"T  c #83735E",
"R  c #8A7559",
"E  c #8C785B",
"W  c #90795E",
"Q  c #877763",
"!  c #867F6C",
"~  c #8F7B68",
"^  c #937E62",
"/  c #927D6B",
"(  c #958065",
")  c #908269",
"_  c #9A8569",
"`  c #8E8570",
"'  c #8E8877",
"]  c #948370",
"[  c #948672",
"{  c #978A75",
"}  c #998F77",
"|  c #9F917C",
" . c #A48C71",
".. c #A58F75",
"X. c #818080",
"o. c #848482",
"O. c #958D80",
"+. c #9B9080",
"@. c #9A9787",
"#. c #92928E",
"$. c #959592",
"%. c #9F9E9A",
"&. c #A29681",
"*. c #A99982",
"=. c #AD9C82",
"-. c #B39F84",
";. c #A7A18B",
":. c #BAAA8A",
">. c #A8A693",
",. c #B2A591",
"<. c #B7AD93",
"1. c #B1A996",
"2. c #BDAF96",
"3. c #BCB195",
"4. c #B7B59E",
"5. c #BFB89D",
"6. c #AAAAA5",
"7. c #B0AFAD",
"8. c #B3B2A8",
"9. c #BDBBA8",
"0. c #B9B8B3",
"q. c #BFBFBA",
"w. c #C3B496",
"e. c #C2BAA2",
"r. c #C5B8A1",
"t. c #C5BEAA",
"y. c #CDC4A9",
"u. c #C9C6B0",
"i. c #CAC6B6",
"p. c #D1C7B2",
"a. c #D2CEB6",
"s. c #D4D0BC",
"d. c #D9D2B9",
"f. c #C9C7C2",
"g. c #CDCBC5",
"h. c #DAD4C2",
"j. c #DEDAC7",
"k. c #D3D0CA",
"l. c #D8D7CA",
"z. c #D3D2D1",
"x. c #DCDAD3",
"c. c #DFDFD7",
"v. c #E6DFCA",
"b. c #E0DCCD",
"n. c #E3DFD1",
"m. c #EAE5CD",
"M. c #EBE9D5",
"N. c #E7E6DA",
"B. c #F0ECD7",
/* pixels */
"                                        ",
"* 2 *                                   ",
"O i 9                                   ",
", #.l 2                                 ",
", 6.6.l <                               ",
"% I k.$.a 5                             ",
"& ' n.c.K 2                             ",
"& ! 4.b.q.b 2                           ",
"& ` } u.N.7.z 2                         ",
"& ] ..y.B.c.$.q 5                       ",
"& / ..-.d.M.l.X., <                     ",
"& /  ._ y.B.M.g.C 2 #                   ",
"& /  ._ 2.m.B.N.0.z 9                   ",
"& ~  ._ &.t.v.m.n.8.i *                 ",
"& ~ .._ | ! &.B.v.b.%.e *               ",
"& ~  ._ &.H k ;.m.v.x.X.w *             ",
"& /  ._ &.B 8 S u.v.b.k.J 6             ",
"& Q _ ^ +.V e j V h.b.n.i.z *           ",
"% Q ^ E } D e s j D j.d.n.0.l :         ",
"% T ^ E { S 8 i v d @.a.l.N.$.u 0       ",
"% T E E [ B 8 i b z h 9.s.l.c.o.5       ",
"% H R R [ V 0 e s v a x u.j.l.x.X.:     ",
"% F Y Y { B 3 3 q z g y >.h.i.x.z.J r   ",
"% A U W =.H 8 , 8 j y g ;.a.s.l.f.X.: X ",
", m R ^ ..,.+.V y 9 y } t.y.u.l.%.5 o   ",
"5 w N U G U ] } L i c 1.w.9.a.8.C O     ",
"  6 y c A Z F ~ ,.;.<.2.w.9.t.P O +     ",
"      g c M N N A ) w.w.<.p.} a X       ",
"      7 9 t f m N G  .:.w.1.x X +       ",
"          < w f M A Q =.r.L e o         ",
"            # # 8 p c ' ' k 2 %         ",
"                2 2 e k j e +           ",
"                  < # 3 3 * 2           ",
"                        X               "
};
