/* XPM */
static char *exit_xpm[] = {
/* columns rows colors chars-per-pixel */
"158 58 52 1",
"  c #FF3131",
". c #FF3131",
"X c #FF3131",
"o c #FF3131",
"O c #FF3131",
"+ c #FF3131",
"@ c #FF3131",
"# c #FF3131",
"$ c #FF3131",
"% c #FF3131",
"& c #FF3131",
"* c #FF3131",
"= c #FF3131",
"- c #FF3131",
"; c #FF3131",
": c #FF3131",
"> c #FF3131",
", c #FF3131",
"< c #FF3131",
"1 c #FF3131",
"2 c #FF3131",
"3 c #FF3131",
"4 c #FF3131",
"5 c #FF3131",
"6 c #FF3131",
"7 c #FF3131",
"8 c #FF3131",
"9 c #FF3131",
"0 c #FF3131",
"q c #FF3131",
"w c #FF3131",
"e c #FF3131",
"r c #FF3131",
"t c #FF3131",
"y c #FF3131",
"u c #FF3131",
"i c #FF3131",
"p c #FF3131",
"a c #FF3131",
"s c #FF3131",
"d c #FF3131",
"f c #FF3131",
"g c #FF3131",
"h c #FF3131",
"j c #FF3131",
"k c #FF3131",
"l c #FF3131",
"z c #FF3131",
"x c #FF3131",
"c c #FF3131",
"v c #FF3131",
"b c None",
/* pixels */
"bbbbbbbbbbbbbbbbbbbbbbbbbbbbbbbbbbbbbbbbbbbbbbbbbbbbbbbbbbbbbbbbbbbbbbbbbbbbbbbbbbbbbbbbbbbbbbbbbbbbbbbbbbbbbbbbbbbbbbbbbbbbbbbbbbbbbbbbbbbbbbbbbbbbbbbbbbbbbb",
"bbbbbbbbbbbbbbbbbbbbbbbbbbbbbbbbbbbbbbbbbbbbbbbbbbbbbbbbbbbbbbbbbbbbbbbbbbbbbbbbbbbbbbbbbbbbbbbbbbbbbbbbbbbbbbbbbbbbbbbbbbbbbbbbbbbbbbbbbbbbbbbbbbbbbbbbbbbbbb",
"bbbbbbbbbbbbbbbbbbbbbbbbbbbbbbbbbbbbbbbbbbbbbbbbbbbbbbbbbbbbbbbbbbbbbbbbbbbbbbbbbbbbbbbbbbbbbbbbbbbbbbbbbbbbbbbbbbbbbbbbbbbbbbbbbbbbbbbbbbbbbbbbbbbbbbbbbbbbbb",
"bbbbbbbbbbbbbbbbbbbbbbbbbbbbbbbbbbbbbbbbbbbbbbbbbbbbbbbbbbbbbbbbbbbbbbbbbbbbbbbbbbbbbbbbbbbbbbbbbbbbbbbbbbbbbbbbbbbbbbbbbbbbbbbbbbbbbbbbbbbbbbbbbbbbbbbbbbbbbb",
"bbbbbbbbbbbbbbbbbbbbbbbbbbbbbbbbbbbbbbbbbbbbbbbbbbbbbbbbbbbbbbbbbbbbbbbbbbbbbbbbbbbbbbbbbbbbbbbbbbbbbbbbbbbbbbbbbbbbbbbbbbbbbbbbbbbbbbbbbbbbbbbbbbbbbbbbbbbbbb",
"bbbbbbbbbbbbbbbbbbbbbbbbbbbbbbbbbbbbbbbbbbbbbbbbbbbbbbbbbbbbbbbbbbbbbbbbbbbbbbbbbbbbbbbbbbbbbbbbbbbbbbbbbbbbbbbbbbbbbbbbbbbbbbbbbbbbbbbbbbbbbbbbbbbbbbbbbbbbbb",
"bbbbbbbbbbbbbbbbbbbbbbbbbbbbbbbbbbxkfpe8qbbbbbbbbbbbbbbbbbbbbvzkgdhbbbbbbbbbbbbbbbbbbbbbbbbbbbbbbbbbbbbbbbbxkgdkbbbrqydlbbbbbbbbbbbbbbbbbbbbbbbbbxgpe8zbbbbbbb",
"bbbbbbbh XoO+@@#$$%%%&&&&&%%$#@OX       .bbbbuO+@#$$%%%&%#+o      %bbbbc .oO+@#$&%$@+OX.9bbbu##$$$%%%&%@O.     qbbg     .@&&&&&&&&&&&&&&&&&&&&&#X     2bbbbbbb",
"bbbbbbbp                                %bbbb0                    =bbbbh                0bbb9                  tbbs                                   >bbbbbbb",
"bbbbbbbw                                ,bbbb3                    >bbbbp                rbbb3                  abba                                   ;bbbbbbb",
"bbbbbbb5                                7bbbb:                    2bbbbr                pbbb:                  hbbi                                   *bbbbbbb",
"bbbbbbbp<3,X                            ybbbb6o                #7ykbbbbxu7+            %kbbbe24<O           $7uvbby                                   %bbbbbbb",
"bbbbbbbbbbby           O#$%$#X          gbbbbbbd4X            &vbbbbbbbbbbh          >dbbbbbbbbbk.         3bbbbbbr        +:257o        &62;+        #bbbbbbb",
"bbbbbbbbbbbc         +lbbbbbbbzy%       vbbbbbbbbz2           1bbbbbbbbbbbg        +pbbbbbbbbbbbb&         zbbbbbbw      Xtbbbbb#        5bbbbd*      Obbbbbbb",
"bbbbbbbbbbbb.        <bbbbbbbbbbzo     obbbbbbbbbbbr.         Ovbbbbbbbbbb<       $lbbbbbbbbbbbbb;        @bbbbbbb9      ibbbbbb#        8bbbbbv@     Xbbbbbbb",
"bbbbbbbbbbbbX        4bbbbbbbbbbb,     #bbbbbbbbbbbbe          0bbbbbbbbbd       #lbbbbbbbbbbbbbb;        &bbbbbbb6     ;bbbbbbb#        qbbbbbb8      bbbbbbb",
"bbbbbbbbbbbbX        7bbbbbbbbbbb6     =bbbbbbbbbbbbb4         ozbbbbbbbb%      ohbbbbbbbbbbbbbbb;        -bbbbbbb3     ebbbbbbb#        rbbbbbbf      xbbbbbb",
"bbbbbbbbbbbbX        9bbbbbbbbbbb7     >bbbbbbbbbbbbbv%         2bbbbbbb8       ibbbbbbbbbbbbbbbb;        :bbbbbbb<     fbbbbbbb#        ybbbbbbbX     lbbbbbb",
"bbbbbbbbbbbbX        qbbbbbbbbbbb5     3bbbbbbbbbbbbbbf.         abbbbbf.      6bbbbbbbbbbbbbbbbb;        <bbbbbbb;     vbbbbbbb#        ibbbbbbb*     hbbbbbb",
"bbbbbbbbbbbb.        rbbbbbbbbbbbe259wyhbbbbbbbbbbbbbbb7         #vbbbv$      *bbbbbbbbbbbbbbbbbb;        3bbbbbbb*    +bbbbbbbb#        sbbbbbbb1     fbbbbbb",
"bbbbbbbbbbbb.        ybbbbbbbbbbbbbbbbbbbbbbbbbbbbbbbbbv%         4bbb3      okbbbbbbbbbbbbbbbbbb;        5bbbbbbb#    *bbbbbbbb#        fbbbbbbb9     abbbbbb",
"bbbbbbbbbbbb.        ibbbbbbbbbbbbbbbbbbbbbbbbbbbbbbbbbbf.         sbi       tbbbbbbbbbbbbbbbbbbb;        8bbbbbbb00riskbbbbbbbb#        hbbbbbbbf8wtpfcbbbbbb",
"bbbbbbbbbbbb.        sbbbbbbbbbbbbbbbbbbbbbbbbbbbbbbbbbbb7         #l+      1bbbbbbbbbbbbbbbbbbbb;        0bbbbbbbbbbbbbbbbbbbbb#        jbbbbbbbbbbbbbbbbbbbb",
"bbbbbbbbbbbb.        fbbbbbbbbbbbbbbbbbbbbbbbbbbbbbbbbbbbv%         O      #cbbbbbbbbbbbbbbbbbbbb;        wbbbbbbbbbbbbbbbbbbbbb#        lbbbbbbbbbbbbbbbbbbbb",
"bbbbbbbbbbbb.        hbbbbbbbbbbbvzbbbbbbbbbbbbbbbbbbbbbbbf.              .fbbbbbbbbbbbbbbbbbbbbb-        rbbbbbbbbbbbbbbbbbbbbb#        xbbbbbbbbbbbbbbbbbbbb",
"bbbbbbbbbbbb.        :<<1121>-%@X  9bbbbbbbbbbbbbbbbbbbbbbb7              0bbbbbbbbbbbbbbbbbbbbbb-        ybbbbbbbbbbbbbbbbbbbbb#        cbbbbbbbbbbbbbbbbbbbb",
"bbbbbbbbbbbb.                      wbbbbbbbbbbbbbbbbbbbbbbbv%            ;bbbbbbbbbbbbbbbbbbbbbbb-        ibbbbbbbbbbbbbbbbbbbbb#        vbbbbbbbbbbbbbbbbbbbb",
"bbbbbbbbbbbb                       abbbbbbbbbbbbbbbbbbbbbbbbf.          Ozbbbbbbbbbbbbbbbbbbbbbbb-        pbbbbbbbbbbbbbbbbbbbbb#        bbbbbbbbbbbbbbbbbbbbb",
"bbbbbbbbbbbb                       zbbbbbbbbbbbbbbbbbbbbbbbbu           ebbbbbbbbbbbbbbbbbbbbbbbb-        sbbbbbbbbbbbbbbbbbbbbb#       .bbbbbbbbbbbbbbbbbbbbb",
"bbbbbbbbbbbb                      Obbbbbbbbbbbbbbbbbbbbbbbbko           &vbbbbbbbbbbbbbbbbbbbbbbb-        fbbbbbbbbbbbbbbbbbbbbb#       Xbbbbbbbbbbbbbbbbbbbbb",
"bbbbbbbbbbbb                      =bbbbbbbbbbbbbbbbbbbbbbbv&             7bbbbbbbbbbbbbbbbbbbbbbb-        gbbbbbbbbbbbbbbbbbbbbb#       Xbbbbbbbbbbbbbbbbbbbbb",
"bbbbbbbbbbbb        Xtahzcbbvcxljgkbbbbbbbbbbbbbbbbbbbbbbb3               dbbbbbbbbbbbbbbbbbbbbbb-        hbbbbbbbbbbbbbbbbbbbbb#       obbbbbbbbbbbbbbbbbbbbb",
"bbbbbbbbbbbb        +bbbbbbbbbbbbbbbbbbbbbbbbbbbbbbbbbbbby                #cbbbbbbbbbbbbbbbbbbbbb=        jbbbbbbbbbbbbbbbbbbbbb#       Obbbbbbbbbbbbbbbbbbbbb",
"bbbbbbbbbbbb        #bbbbbbbbbbbbbbbbbbbbbbbbbbbbbbbbbbbjo      1o         2bbbbbbbbbbbbbbbbbbbbb=        lbbbbbbbbbbbbbbbbbbbbb#       Obbbbbbbbbbbbbbbbbbbbb",
"bbbbbbbbbbbb        $bbbbbbbbbbbbbbbbbbbbbbbbbbbbbbbbbbv&      &ve          ibbbbbbbbbbbbbbbbbbbb=        zbbbbbbbbbbbbbbbbbbbbb#       +bbbbbbbbbbbbbbbbbbbbb",
"bbbbbbbbbbbb        %bbbbbbbbbbbbbbbbbbbbbbbbbbbbbbbbbb2      Xhbb;         +xbbbbbbbbbbbbbbbbbbb=        xbbbbbbbbbbbbbbbbbbbbb#       +bbbbbbbbbbbbbbbbbbbbb",
"bbbbbbbbbbbb        &bbbbbbbbbbbbbbbbvkficbbbbbbbbbbbbt       ebbblo         ,bbbbbbbbbbbbbbbbbbb=        xbbbbbbbbbbbbbbbbbbbbb#       @bbbbbbbbbbbbbbbbbbbbb",
"bbbbbbbbbbbb        *bbbbbbbbbbbbbb1X    0bbbbbbbbbbbgX      >bbbbbr          tbbbbbbbbbbbbbbbbbb=        xbbbbbbbbbbbbbbbbbbbbb#       @bbbbbbbbbbbbbbbbbbbbb",
"bbbbbbbbbbbb        =bbbbbbbbbbbbbb#     ubbbbbbbbbbx#      +zbbbbbb>         olbbbbbbbbbbbbbbbbb=        cbbbbbbbbbbbbbbbbbbbbb#       @bbbbbbbbbbbbbbbbbbbbb",
"bbbbbbbbbbbb        -bbbbbbbbbbbbbc      jbbbbbbbbbv=       pbbbbbbbzO         -bbbbbbbbbbbbbbbbb=        cbbbbbbbbbbbbbbbbbbbbb@       @bbbbbbbbbbbbbbbbbbbbb",
"bbbbbbbbbbbv        ;bbbbbbbbbbbbbp     Xbbbbbbbbbb,       3bbbbbbbbby          8bbbbbbbbbbbbbbbb*        vbbbbbbbbbbbbbbbbbbbbbO       @bbbbbbbbbbbbbbbbbbbbb",
"bbbbbbbbbbbz        -bbbbbbbbbbbbb1     *bbbbbbbbb2       +cbbbbbbbbbb,          ubbbbbbbbbbbbbbb%        cbbbbbbbbbbbbbbbbbbbbv        +bbbbbbbbbbbbbbbbbbbbb",
"bbbbbbbbbbbd        %bbbbbbbbbbbbs      1bbbbbbbb1        qbbbbbbbbbbblX         XpbbbbbbbbbbbbbbO        zbbbbbbbbbbbbbbbbbbbbg        .bbbbbbbbbbbbbbbbbbbbb",
"bbbbbbbbbbb7        .lbbbbbbbbbbeX      0bbbbbbx:         xbbbbbbbbbbbb>          .ebbbbbbbbbbbbg         gbbbbbbbbbbbbbbbbbbbb8         dbbbbbbbbbbbbbbbbbbbb",
"bbbbbbbbbbho         #8tippur01@        ubbbbbs#          sbbbbbbbbbbbb>            -abbbbbbbbbv-         0bbbbbbbbbbbbbbbbbbbso         -vbbbbbbbbbbbbbbbbbbb",
"bbbbbbbbj7X                             gbbbx:            o5uxbbbbbbji,               +:5bbbbct$          X7te9ybbbbbbbbbbkp9=            @3863<gbbbbbbbbbbbbb",
"bbbbbbb%                                cbbbs                8bbbbbf                    +bbb4.                 :bbbbbbbbb3                      sbbbbbbbbbbbbb",
"bbbbbbb.                               Obbbby                wbbbbbi                    *bbb*                  5bbbbbbbbb:                      lbbbbbbbbbbbbb",
"bbbbbbz                                &bbbbq                ubbbbbe                    ,bbb@                  wbbbbbbbbb%                     .bbbbbbbbbbbbbb",
"bbbbbbd                                ,bbbb8      .XX       dbbbbb8           XXX.     5bbb.                  abbbbbbbbbo                     #bbbbbbbbbbbbbb",
"bbbbbbf27qtisgjlxcvbbbbvvxzlkhgdaputeq0lbbbbzsfhlxvbbbbclhsirxbbbbbg0wtupdgjzcbbbbbbvczkxbbv59eidjlzcbbbvxzljhfvbbbbbbbbbetuiadgjlxvbbvcxzljgfsfbbbbbbbbbbbbbb",
"bbbbbbbbbbbbbbbbbbbbbbbbbbbbbbbbbbbbbbbbbbbbbbbbbbbbbbbbbbbbbbbbbbbbbbbbbbbbbbbbbbbbbbbbbbbbbbbbbbbbbbbbbbbbbbbbbbbbbbbbbbbbbbbbbbbbbbbbbbbbbbbbbbbbbbbbbbbbbb",
"bbbbbbbbbbbbbbbbbbbbbbbbbbbbbbbbbbbbbbbbbbbbbbbbbbbbbbbbbbbbbbbbbbbbbbbbbbbbbbbbbbbbbbbbbbbbbbbbbbbbbbbbbbbbbbbbbbbbbbbbbbbbbbbbbbbbbbbbbbbbbbbbbbbbbbbbbbbbbb",
"bbbbbbbbbbbbbbbbbbbbbbbbbbbbbbbbbbbbbbbbbbbbbbbbbbbbbbbbbbbbbbbbbbbbbbbbbbbbbbbbbbbbbbbbbbbbbbbbbbbbbbbbbbbbbbbbbbbbbbbbbbbbbbbbbbbbbbbbbbbbbbbbbbbbbbbbbbbbbb",
"bbbbbbbbbbbbbbbbbbbbbbbbbbbbbbbbbbbbbbbbbbbbbbbbbbbbbbbbbbbbbbbbbbbbbbbbbbbbbbbbbbbbbbbbbbbbbbbbbbbbbbbbbbbbbbbbbbbbbbbbbbbbbbbbbbbbbbbbbbbbbbbbbbbbbbbbbbbbbb",
"bbbbbbbbbbbbbbbbbbbbbbbbbbbbbbbbbbbbbbbbbbbbbbbbbbbbbbbbbbbbbbbbbbbbbbbbbbbbbbbbbbbbbbbbbbbbbbbbbbbbbbbbbbbbbbbbbbbbbbbbbbbbbbbbbbbbbbbbbbbbbbbbbbbbbbbbbbbbbb",
"bbbbbbbbbbbbbbbbbbbbbbbbbbbbbbbbbbbbbbbbbbbbbbbbbbbbbbbbbbbbbbbbbbbbbbbbbbbbbbbbbbbbbbbbbbbbbbbbbbbbbbbbbbbbbbbbbbbbbbbbbbbbbbbbbbbbbbbbbbbbbbbbbbbbbbbbbbbbbb",
"bbbbbbbbbbbbbbbbbbbbbbbbbbbbbbbbbbbbbbbbbbbbbbbbbbbbbbbbbbbbbbbbbbbbbbbbbbbbbbbbbbbbbbbbbbbbbbbbbbbbbbbbbbbbbbbbbbbbbbbbbbbbbbbbbbbbbbbbbbbbbbbbbbbbbbbbbbbbbb"
};
