/* XPM */
static char *falling_block_xpm[] = {
/* columns rows colors chars-per-pixel */
"32 32 97 2",
"   c None",
".  c #000111",
"X  c #000314",
"o  c #030D15",
"O  c #010B1A",
"+  c #03091D",
"@  c #040E1E",
"#  c #090D1C",
"$  c #07101F",
"%  c #09161F",
"&  c #070E24",
"*  c #0A0F2A",
"=  c #0B1621",
"-  c #091625",
";  c #0A1625",
":  c #081526",
">  c #0D1524",
",  c #0A1029",
"<  c #0A1129",
"1  c #0A102A",
"2  c #0E1829",
"3  c #131F2D",
"4  c #172134",
"5  c #1B2537",
"6  c #182539",
"7  c #192638",
"8  c #262F3D",
"9  c #28303E",
"0  c #222F41",
"q  c #212E42",
"w  c #212F42",
"e  c #222F42",
"r  c #223042",
"t  c #243041",
"y  c #273342",
"u  c #263343",
"i  c #263344",
"p  c #2A3749",
"a  c #2B3849",
"s  c #2A384B",
"d  c #2D3A48",
"f  c #2E3C4A",
"g  c #303D4E",
"h  c #364350",
"j  c #404C59",
"k  c #475965",
"l  c #4A5867",
"z  c #4B5A67",
"x  c #465769",
"c  c #485A6B",
"v  c #4D5B68",
"b  c #4D596A",
"n  c #4D5A6A",
"m  c #4D5B6B",
"M  c #4E5B6B",
"N  c #4D5C69",
"B  c #4E5C6B",
"V  c #4F5C6B",
"C  c #4D5F6B",
"Z  c #4D5C6C",
"A  c #4D5D6C",
"S  c #4C5D6D",
"D  c #4E5C6C",
"F  c #4F5C6C",
"G  c #4E5D6C",
"H  c #4F5C6D",
"J  c #4D5F6C",
"K  c #4C5E6D",
"L  c #505C6C",
"P  c #515D6C",
"I  c #505D6D",
"U  c #515D6D",
"Y  c #525E6E",
"T  c #52616C",
"R  c #52606D",
"E  c #566874",
"W  c #5C6879",
"Q  c #60717D",
"!  c #61737E",
"~  c #6F818B",
"^  c #6E828A",
"/  c #6F828A",
"(  c #6E828B",
")  c #6F818C",
"_  c #6F828C",
"`  c #70818A",
"'  c #70818B",
"]  c #70808D",
"[  c #71838D",
"{  c #70848C",
"}  c #73848E",
"|  c #7B8C95",
" . c #84979C",
".. c #899AA9",
"X. c #9FAEB1",
"o. c #A1B4B7",
"O. c None",
/* pixels */
"O.>                 > O.O.O.O.O.                  > O.O.O.O.O.O.",
"O.> $ @ : : : = % o   o o O.O.o   & , , * * , + # > O.O.O.O.O.O.",
"> > s s s s s  . . . .> > > > > m m m m m m m m > > > > O.O.O.O.",
"  s _ _ s s  ._ _ _  .3 . O X 2 m m s m Q R R m m 9   > o O.O.O.",
"  s _ Q  . . .Q _ _  .h y d y g Q m m m m m C U m m 8 m > > O.O.",
"  s _ _ _ ] _ ] _ _ _  .z m m m m m m m m m S Q U m m m   > > O.",
"  s _ _ _ _ Q _ _ _  .m m m s m m m m m s S m m m U m m >   > O.",
"  s  . ._ _ _ _  . . .m m m m m m m Q m m S m m s s m m m m > > ",
"  s m  ._ _ _ _  .m m m m m m m Q C C C C m Q m m m m m m m 4   ",
"  s m  . . . . . .m m m m m m m m m m m m U m m m Q s m S m r   ",
"  s m m m m m m m m m _ _ m m m _ _ _ _ m S z m S m s m U m w   ",
"  s m m m m m s m m m _ _ m m m _ _ _ _ m Q Q S m m m m Q m w   ",
"  s m m m m m m m _ _ _ _ _ _ _ _ _ m m m _ _ Q m m m m U m w   ",
"  > m m m s s m Q _ } _ _ ' _ _ ' _ m m m _ _ Q m m m m U m w   ",
"O.> > m m s m _ _ _ _ _ _ _ Q _ _ _ m m m _ _ Q Q Q m m s m w   ",
"O.O.  > m s m _ _ _ _ _ _ _ _ _ _ _ _ _ _ _ _ _ _ Q m m U m w   ",
"O.O.  6 m s _ _ _ _ _  . . . . . . . ./ / _ _ _ _ Q m m m m w   ",
"O.O.  6 m s _ _ _ _  .X.X.X.X.X.X.X. ._ _ _ _ Q _ _ ] Q m m w   ",
"O.O.  6 m m _ _ _  . .X.X.X.X.X. .X. ._ _ _ _ / / _ _ Q m m w   ",
"O.O.  6 m m _ _  .X.X. .X.X.X.X.X.X. . . .} Q _ / _ _ Q m m w   ",
"O.O.  > m m m _  .o.X.X.X.X.X.X.X.X.X.o. .} _ _ / _ _ _ m m 5   ",
"O.O.> > m m m _  .o.o.X.X. .X. .X.X. . . .Q _ / Q _ _ Q m m >   ",
"O.O.O.>   > m _  .X.o.X.X.X.X.X.X.X. ._ _ _ _ _ _ _ _ Q       O.",
"O.O.O.O.  > m _  .o.o.o.X.X.X.X.X.X._ _ _ _ _ _ _ _ | Q   > O.O.",
"O.O.O.O.  > m _  .o.X.o.o. ._ _ _ _ _ _ E f i p s s y > > O.O.O.",
"O.O.O.O.  > m _  .X.o.o.o. ._ _ _ _ _ ..x               O.O.O.O.",
"O.O.O.O.  > m _ _  . . . ._ k C S S S c W > > > > > > O.O.O.O.O.",
"O.O.O.O.    m s _ _ _ _ _ j             > O.O.O.O.O.O.O.O.O.O.O.",
"O.O.O.O.>   m m s s _ _ s m             O.O.O.O.O.O.O.O.O.O.O.O.",
"O.O.O.O.O.> >   > s s s > > > O.O.O.O.O.O.O.O.O.O.O.O.O.O.O.O.O.",
"O.O.O.O.O.O.O.    > > > >   O.O.O.O.O.O.O.O.O.O.O.O.O.O.O.O.O.O.",
"O.O.O.O.O.O.O.O.          O.O.O.O.O.O.O.O.O.O.O.O.O.O.O.O.O.O.O."
};
