/* XPM */
static char *falling_block_xpm[] = {   
/* columns rows colors chars-per-pixel */
"32 32 256 2 ",
"   c #000000",
".  c #010101",
"X  c #020202",
"o  c #010101",
"O  c #040404",
"+  c #020202",
"@  c #060606",
"#  c #070707",
"$  c #030303",
"%  c #090909",
"&  c #040404",
"*  c #0B0B0B",
"=  c #0C0C0C",
"-  c #050505",
";  c #0E0E0E",
":  c #060606",
">  c #101010",
",  c #111111",
"<  c #777777",
"1  c #131313",
"2  c #777777",
"3  c #151515",
"4  c #161616",
"5  c #777777",
"6  c #181818",
"7  c #191919",
"8  c #888888",
"9  c #1B1B1B",
"0  c #888888",
"q  c #1D1D1D",
"w  c #1E1E1E",
"e  c #888888",
"r  c #202020",
"t  c #888888",
"y  c #222222",
"u  c #232323",
"i  c #888888",
"p  c #252525",
"a  c #888888",
"s  c #272727",
"d  c #282828",
"f  c #888888",
"g  c #2A2A2A",
"h  c #888888",
"j  c #2C2C2C",
"k  c #2D2D2D",
"l  c #888888",
"z  c #2F2F2F",
"x  c #888888",
"c  c #313131",
"v  c #323232",
"b  c #888888",
"n  c #343434",
"m  c #353535",
"M  c #888888",
"N  c #373737",
"B  c #888888",
"V  c #393939",
"C  c #3A3A3A",
"Z  c #888888",
"A  c #3C3C3C",
"S  c #888888",
"D  c #3E3E3E",
"F  c #3F3F3F",
"G  c #888888",
"H  c #414141",
"J  c #888888",
"K  c #434343",
"L  c #444444",
"P  c #888888",
"I  c #464646",
"U  c #888888",
"Y  c #484848",
"T  c #494949",
"R  c #888888",
"E  c #4B4B4B",
"W  c #4C4C4C",
"Q  c #888888",
"!  c #4E4E4E",
"~  c #888888",
"^  c #505050",
"/  c #515151",
"(  c #888888",
")  c #535353",
"_  c #888888",
"`  c #555555",
"'  c #565656",
"]  c #888888",
"[  c #585858",
"{  c #888888",
"}  c #5A5A5A",
"|  c #5B5B5B",
" . c #888888",
".. c #5D5D5D",
"X. c #888888",
"o. c #5F5F5F",
"O. c #606060",
"+. c #888888",
"@. c #626262",
"#. c #888888",
"$. c #646464",
"%. c #656565",
"&. c #888888",
"*. c #676767",
"=. c #686868",
"-. c #999999",
";. c #6A6A6A",
":. c #888888",
">. c #6C6C6C",
",. c #6D6D6D",
"<. c #888888",
"1. c #6F6F6F",
"2. c #888888",
"3. c #717171",
"4. c #727272",
"5. c #888888",
"6. c #747474",
"7. c #888888",
"8. c #767676",
"9. c #777777",
"0. c #888888",
"q. c #797979",
"w. c #888888",
"e. c #7B7B7B",
"r. c #7C7C7C",
"t. c #888888",
"y. c #7E7E7E",
"u. c #888888",
"i. c #808080",
"p. c #818181",
"a. c #888888",
"s. c #838383",
"d. c #848484",
"f. c #888888",
"g. c #868686",
"h. c #888888",
"j. c #888888",
"k. c #898989",
"l. c #888888",
"z. c #8B8B8B",
"x. c #888888",
"c. c #8D8D8D",
"v. c #8E8E8E",
"b. c #888888",
"n. c #909090",
"m. c #888888",
"M. c #929292",
"N. c #939393",
"B. c #888888",
"V. c #959595",
"C. c #888888",
"Z. c #979797",
"A. c #989898",
"S. c #888888",
"D. c #9A9A9A",
"F. c #9B9B9B",
"G. c #888888",
"H. c #9D9D9D",
"J. c #888888",
"K. c #9F9F9F",
"L. c #A0A0A0",
"P. c #888888",
"I. c #A2A2A2",
"U. c #888888",
"Y. c #A4A4A4",
"T. c #A5A5A5",
"R. c #888888",
"E. c #A7A7A7",
"W. c #888888",
"Q. c #A9A9A9",
"!. c #AAAAAA",
"~. c #888888",
"^. c #ACACAC",
"/. c #888888",
"(. c #AEAEAE",
"). c #AFAFAF",
"_. c #888888",
"`. c #B1B1B1",
"'. c #B2B2B2",
"]. c #888888",
"[. c #B4B4B4",
"{. c #888888",
"}. c #B6B6B6",
"|. c #B7B7B7",
" X c #888888",
".X c #B9B9B9",
"XX c #888888",
"oX c #BBBBBB",
"OX c #BCBCBC",
"+X c #888888",
"@X c #888888",
"#X c #888888",
"$X c #C0C0C0",
"%X c #C1C1C1",
"&X c #888888",
"*X c #C3C3C3",
"=X c #888888",
"-X c #C5C5C5",
";X c #C6C6C6",
":X c #888888",
">X c #C8C8C8",
",X c #888888",
"<X c #CACACA",
"1X c #CBCBCB",
"2X c #888888",
"3X c #CDCDCD",
"4X c #CECECE",
"5X c #888888",
"6X c #D0D0D0",
"7X c #888888",
"8X c #D2D2D2",
"9X c #303030",
"0X c #888888",
"qX c #D5D5D5",
"wX c #888888",
"eX c #D7D7D7",
"rX c #D8D8D8",
"tX c #888888",
"yX c #DADADA",
"uX c #888888",
"iX c #202020",
"pX c #DDDDDD",
"aX c #888888",
"sX c #DFDFDF",
"dX c #888888",
"fX c #E1E1E1",
"gX c #E2E2E2",
"hX c #888888",
"jX c #E4E4E4",
"kX c #888888",
"lX c #E6E6E6",
"zX c #E7E7E7",
"xX c #888888",
"cX c #E9E9E9",
"vX c #EAEAEA",
"bX c #888888",
"nX c #ECECEC",
"mX c #888888",
"MX c #EEEEEE",
"NX c #EFEFEF",
"BX c #888888",
"VX c #F1F1F1",
"CX c #888888",
"ZX c #F3F3F3",
"AX c #F4F4F4",
"SX c #888888",
"DX c #F6F6F6",
"FX c #888888",
"GX c #F8F8F8",
"HX c #F9F9F9",
"JX c #888888",
"KX c #FBFBFB",
"LX c #888888",
"PX c #FDFDFD",
"IX c #FEFEFE",
"UX c #FFFFFF",
/* pixels */
"-X%XC.B.m.A.fXzXiXeX$X XV.D.pXxXrX8X%XoXN.m.;.>.n.D. X%XeXuXjXlX",
":X$XM.N.C.H.gXgXqXwX+X.XD.A.yXgXiXtX=X|.F.V.%.,.c.A.OX&X7XrXdXzX",
"wXuXV.A.9X9XhXlX*XXXB.A.5X6X/.Y.dXgXqXeXuX6Xd.r.y.k.4XwX*X#X=X#X",
"0X4XS.C.6XtXiXhX&X|.V.M.9XqXY.I.fXgXyXwXeX1Xf.a.r.k.9X8X&X.XoXoX",
"F.G.6X8XT.U.%X+X#X|.>.5.6XyX>X;X#X+X+XXX!.P.>.=.p.e.s.g.4XtX&X$X",
"n.N.9X8XT.Y.XX+X.X}.;.>.7XrX*X,X$X+X@X#XH.B.1.*.s.z.u.k.5X9X|.{.",
"Z.B.V.H.1XqX@XOXJ.x.<.1.'.=XoX@XwX0X=X'.4.;.#.1.5X;Xk.r.f.p.3.>.",
"N.A.m.H.4X6X X].M.c.=.<.].oXOX@X4X8X+X'.5.,.=.7.7X0Xd.s.a.u.;.*.",
"$X&X0X4X5.;.<.>.;.%.*.>.h.M.@XXX5.>.u.x.,X5XOX].Y.U.P.G.p.t.g.g.",
",X:XeX2X4.%.,.;.<.2.<.3.u.n.^.}.:.&.a.l.qXeX*XOXP.K.L.D.l.g.g.f.",
"jXaXE.I.f.b.1X9X}.OX6X>Xx.r.4.,.t.h.fXgXsXqXJ.P.#XXXR.L.XX'.g.y.",
"gXsXP.K.h.k.0XqXOX@XwX3Xk.t.;.*.u.f.yXdX8X8XP.U.oX XU.P..X}.s.i.",
"T.!.%X&Xp.a.=X,XU.I.U.K.G.G.t.p.t.i.k.f.T.Y.oX%X/.`.+X Xz.i.*.%.",
"G.L.+X#Xg.k.|.+XL.F.V.M.I.G.f.p.d.j.e.h.A.G.oX[.!.(. X[.d.e.>.;.",
"P.R.L.Y.M.z.l.s.d.e.2.<.t.f.F.L.7X8X$X{.;.;.g.v.a.t.,.<.w.f.a.j.",
"K.G.Y.Y.G.L.s.d.g.s.=.=.a.j.K.W.0XiX@X X7.;.g.s.k.u.2.:.u.s.k.j.",
"a.j.iXhXsXdXsXdXqX<Xs.i.9X7X@X@XrXrX0XrXXX].h.z.5X0XOX].p.t.u.i.",
"e.g.iXcXgXkXgXgXuX9Xu.g.7X6XOX{.0XiXeXqX#X}.x.v.4X7XOX}.v.h.g.g.",
"s.a.+X=X%X:X&X$X=X=X>.%.f.h.V.R.eXwXiXeXk.k.+X].2.6.t.j.4X5XqX8X",
"y.a.'.|.-X=XoX.X%X'.1.=.w.a.b.N.5X4XuX6Xn.v.{.].-.;.t.x.9XsX0XtX",
"-.*.s.z.@X;X#X+X3.3.e.u.p.p.k.j.-.7.XX$XOX[.>.,.t.g.<XeXeX7X$X@X",
";.=.e.h.XX$X|._.1.@.j.s.s.j.x.k.>.<._.XXoX{.;.:.s.v.6XyXyX7X$XOX",
"u.i.h.r.2.*.=.,.y.p.+X;X9X7X#X}.g.u.1.<.r.f.0.j.pXpX$X#X$X,X~.'.",
"i.a.c.v.1.,.,.>.e.f.XX*XwX9XoX XV.x.<.4.w.d.p.g.fXlX$XOX=X@X/.W.",
"r.j.uXyX*X.XXX'.,.>.V.S.@X$XC.H.7X7XyX4Xi.u.u.d.wXrX&XOX@X Xz.i.",
"s.l.gXnX;X;X-X X>.*.m.S._.[.V.C.wXwXyX2Xl.j.y.h.5X6XoXOX@X Xg.0.",
"eXrXeX0X=X%X+X}.S.v.g.r.1.,.i.f..X&X;X>XoX{.s.p.k.D.&X>X$X}.:.:.",
"6XwX0X0X,X=X+X XA.m.k.y.:.:.r.f. X X$X+X#X{.g.y.d.z.}.+XoX_.3.:.",
"j.u.A.L.3XrXF.M.p.d.|.XXoX}.w.0.y.i.w.i.@XoXg.i.q.q.,.,.,.<.V.F.",
"t.d.M.V.6X4XA.D.p.l._.}.&X{.a.q.d.g.e.p.{.).d.t.t.e.>.2.*.;.E.U.",
"Z.m.p.s.Z.G.XX X).W.5.;.y.z.,XeXoX'.@X'.2.>.k.c.6X8XrX=Xh.p.{.#X",
"B.V.u.d.m.Z.oX@X'.~.=.*.t.d.eXwX@X$X#X.X;.;.f.m.9XuXpX9Xg.d.oX#X"
};
