/* XPM */
static char *fireboy_xpm[] = {
/* columns rows colors chars-per-pixel */
"50 96 256 2",
"   c None",
".  c #FB3201",
"X  c #190300",
"o  c #FE0C00",
"O  c #FD2401",
"+  c #010000",
"@  c #090400",
"#  c #020100",
"$  c #000000",
"%  c #47704C",
"&  c #060300",
"*  c #FD2E01",
"=  c #C90100",
"-  c #090300",
";  c #020000",
":  c #290400",
">  c #FE0200",
",  c #010000",
"<  c #FC3601",
"1  c #000000",
"2  c #000000",
"3  c #FE0800",
"4  c #8C7509",
"5  c #010000",
"6  c #020000",
"7  c #020100",
"8  c #654206",
"9  c #000000",
"0  c #020100",
"q  c #000000",
"w  c #000000",
"e  c #000000",
"r  c #000000",
"t  c #000000",
"y  c #B80100",
"u  c #000000",
"i  c #000000",
"p  c #FD3A01",
"a  c #030000",
"s  c #050000",
"d  c #020000",
"f  c #FD2801",
"g  c #000000",
"h  c #970200",
"j  c #090200",
"k  c #B10100",
"l  c #FE4601",
"z  c #010000",
"x  c #000000",
"c  c #050000",
"v  c #CB0000",
"b  c #000000",
"n  c #D10100",
"m  c #020000",
"M  c #000000",
"N  c #220400",
"B  c #000000",
"V  c #BE4D03",
"C  c #1D0000",
"Z  c #FE1601",
"A  c #010000",
"S  c #D40200",
"D  c #000000",
"F  c #EB1301",
"G  c #2A0400",
"H  c #DE0300",
"J  c #FD3F01",
"K  c #010000",
"L  c #661D02",
"P  c #8A0400",
"I  c #180000",
"U  c #770101",
"Y  c #990401",
"T  c #FD4101",
"R  c #FF5D00",
"E  c #000000",
"W  c #910100",
"Q  c #140A01",
"!  c #DF2002",
"~  c #FE4200",
"^  c #0B0300",
"/  c #F30300",
"(  c #391E03",
")  c #C36E0A",
"_  c #BF1702",
"`  c #AE2303",
"'  c #1B0300",
"]  c #C00000",
"[  c #A30100",
"{  c #830201",
"}  c #640201",
"|  c #710400",
" . c #580200",
".. c #FE5D01",
"X. c #FD1C01",
"o. c #933502",
"O. c #FE1401",
"+. c #F30300",
"@. c #8B4A06",
"#. c #BC0100",
"$. c #904F07",
"%. c #DD790A",
"&. c #DE800C",
"*. c #560201",
"=. c #430100",
"-. c #3D0100",
";. c #B30101",
":. c #390000",
">. c #C02803",
",. c #7A0101",
"<. c #FB3501",
"1. c #FC3C01",
"2. c #7A3102",
"3. c #D30100",
"4. c #E15201",
"5. c #261001",
"6. c #3A0E01",
"7. c #611C02",
"8. c #2E0501",
"9. c #5E2F04",
"0. c #2B1503",
"q. c #480201",
"w. c #7F0301",
"e. c #AD0201",
"r. c #AA4502",
"t. c #F00200",
"y. c #653806",
"u. c #5D0100",
"i. c #C10201",
"p. c #9D0200",
"a. c #FA0100",
"s. c #D10100",
"d. c #432204",
"f. c #3C0401",
"g. c #D31002",
"h. c #F80200",
"j. c #7E4407",
"k. c #6B1F04",
"l. c #FB3301",
"z. c #FD0000",
"x. c #FF0000",
"c. c #000000",
"v. c #FD3301",
"b. c #FE0000",
"n. c #FF4700",
"m. c #FE0401",
"M. c #CD0000",
"N. c #FC4601",
"B. c #FC3101",
"V. c #FC2E00",
"C. c #FD4100",
"Z. c #FE0B01",
"A. c #FD1C01",
"S. c #FE0100",
"D. c #FD1701",
"F. c #FC0100",
"G. c #FD3500",
"H. c #FD3A00",
"J. c #FC2901",
"K. c #FD3D00",
"L. c #FD4700",
"P. c #FC2C01",
"I. c #F80000",
"U. c #090000",
"Y. c #030000",
"T. c #FE0F01",
"R. c #0F0100",
"E. c #FE4400",
"W. c #FFBE00",
"Q. c #FC3800",
"!. c #FD2001",
"~. c #FE1201",
"^. c #FC2401",
"/. c #270300",
"(. c #F00300",
"). c #E80300",
"_. c #160100",
"`. c #FF4A00",
"'. c #200100",
"]. c #310000",
"[. c #190400",
"{. c #410000",
"}. c #8F0101",
"|. c #FFC500",
" X c #D80100",
".X c #F50100",
"XX c #9E0301",
"oX c #C60000",
"OX c #FF5600",
"+X c #760001",
"@X c #FFCD00",
"#X c #FF4F00",
"$X c #DD1702",
"%X c #590101",
"&X c #D53A02",
"*X c #FED200",
"=X c #4E0000",
"-X c #DE0300",
";X c #800100",
":X c #520100",
">X c #EE2B01",
",X c #660000",
"<X c #B40000",
"1X c #CA0000",
"2X c #860000",
"3X c #B90000",
"4X c #F53101",
"5X c #F4AE01",
"6X c #FFE100",
"7X c #6E0100",
"8X c #AA0100",
"9X c #E23002",
"0X c #DE8502",
"qX c #FFCA00",
"wX c #E89702",
"eX c #FFD800",
"rX c #A60000",
"tX c #9F2A02",
"yX c #F95100",
"uX c #D22302",
"iX c #4F1901",
"pX c #451501",
"aX c #FB3601",
"sX c #BC4503",
"dX c #BF5F03",
"fX c #D17702",
"gX c #AD0000",
"hX c #C94002",
"jX c #ED4701",
"kX c #C20000",
"lX c #320F01",
"zX c #CE8902",
"xX c #EDA301",
"cX c #D54F03",
"vX c #D7A001",
"bX c #B23B01",
"nX c #FBB700",
"mX c #E0A002",
"MX c #C37402",
"NX c #DC4F02",
"BX c #F0D401",
"VX c #E8AF02",
"CX c #EFCB01",
"ZX c #BB9A02",
"AX c #9C8603",
"SX c #715C02",
"DX c #7A2902",
"FX c #D06D03",
"GX c #591402",
"HX c #594D03",
"JX c #E57002",
"KX c #F2DA01",
"LX c #E7C401",
"PX c #E64001",
"IX c #CEB602",
"UX c #47704C",
/* pixels */
"                                                                                                    ",
"                                                                                                    ",
"                                                                                                    ",
"                                                                                                    ",
"                                                                                                    ",
"                                                                                                    ",
"                                                                                                    ",
"                                                                                                    ",
"                  4 @ & 4                                                                           ",
"                  & m ; z ,                                                                         ",
"                  @ + c.c.t E 8                                                                     ",
"                    g c._._.5 A 6                                                                   ",
"                    - 5 /.h ].9 z 0                                                                 ",
"                    & ; Y.8XS :.2 B 4                       6 @                                     ",
"                    # e c.;Xx.s.; 7 -                     0 q + ,                                   ",
"                    # + c.+Xx.3 p.1 K #                   & ; c.j @                                 ",
"                    # e c.;Xx.b.a.6.2 B                   u 1 c.$ g                                 ",
"                    @ i c.h x.z.S.3.; t &                 M $ [.Y.; ,                               ",
"                    X ; U.3Xx.z.z.o 7.9 A               8 c U.;X/.c.g                               ",
"                    , 7 [.n x.z.z.x.3.a t &             X t '. X7Xc.+ #                 @ #         ",
"                    - 5 ].).> 3 > z.o u.9 B             r 2 %XF.1X[.1 -               6 s d 8       ",
"                    E 9 =XI.> X.o z.x.i.^ m #         4 q U.8Xx.I.,Xc.x               X ; a &       ",
"                    A c.+Xx.> O O > b./ =.5 -         @ e /.-Xm.x.kXR.m #             b 1 5 -       ",
"                  0 j Y.XXx.3 * < o z.x.W c.q         u 1 ,XF.O.m..X*.1 -             r 9 $ M       ",
"                  X t _.1Xm.Z % . X.F.x.M._.i X       g U.gX> O T.x.;.5 A             g c.c.q       ",
"                  - 5 ].).3 O l.l.O > b.(.{.2 r     6 K /.-X3 * A.z./ -.e @         8 c c.c.K 0     ",
"                  M $ :XI.o * l.l.. o z.b.+Xc.d 4   b 7 %XI.Z % P.Z.S.e.a D         @ i R.R.i @     ",
"  8 D r 8         q c.;X> X.l.l.. l.O 3 x.<XU.t X   x Y.h > O l.l.A.b.t.: j 6       - 5 =X].7 b     ",
"  & ; + 6       6 K Y.rX3 O l.l.<.. . O 3 -X/.2 r @ e _.M.o . l.l.O > > w.7 u       A Y.XX:X2 w     ",
"  - 5 a -       X t R.oXo * l.. 1.< l.% O h.:Xc.q M 9 {.+.O l.l.l.f > x.= ^ z     # + /.-X7X$ B     ",
"  B c.c.s 0     u 1 '.-XZ B.l.< T < l.l.. Z 2Xc.i e c.;Xo * l.l.l.. 3 b.).].i @   w 5 ,Xb.2Xc.z     ",
"8 c c.c.1 u     D 9 ].(.^.l.l.p ~ p l.l.l.O k U.$ $ R.#.O B.. < l.. Z F.F.,X2 w 4 c R.3Xx.XXY.s 8   ",
"# + U.'.c.z     x c.=X.XP.l.l.p l p l.l.l.. = _.c.c.{.F * l.p 1.. l.O 3 x.}.c.q - 1 {.(.x.<XU.+ #   ",
", a _.2XR.; ,   d c.,XZ.V.l.. T L.T < . l.% ! /.c.Y.h O l.. ~ l T . . o x.<XU.i j Y.}.x.x.oXR.; &   ",
"- 1 /. X%Xc.z 6 j c.+XT.B.l.< ~ L.l p <.l.l.>X%X_.GX>X% l.< l L.l < . o x.n _.$ 9 '. Xm.m. X'.1 b   ",
"M 2 {..Xn /.7 w + c.}.~.B.l.p l L.L.l < l.l.P.).M.! B.l.l.J L.L.l p . o x.)./.c.c.7XF.D.Z.).].2 w   ",
"x $ %XI.x.XXU.+ ; Y.8X~.l.l.p N.N.N.L.C.l.l.B.Z.x.A.l.l.Q.L.N.N.L.J % Z S.(.{.c./.n T.P.D..X{.$ M   ",
"d c.7Xb.b.(.=X$ $ _.1XD.l.l.J N.N.N.L.L.H.l.l.~.z.D.l.l.C.L.N.N.N.N.aXf 3 I.%X_.<XZ.J.l.A.I.%Xc.x   ",
"s c.;Xx.z.x.<XR.c.].).D.l.aXN.L.N.L.N.L.K.l.l.A.m.A.l.H.L.N.N.N.N.L.Q.% f m.gXrX3 f . < ^.m.7Xc.d 4 ",
"K c.}.x.z.b..X%Xc.%XI.A.l.H.L.N.N.L.N.L.C.Q.l.V.J.B.l.Q.L.N.N.L.N.L.K.l.J.m.F.3 O % p 1.* m.2Xc.j 0 ",
"+ Y.rXx.> 3 m.oX'.2Xx.A.l.Q.L.N.N.N.N.L.L.E.l.l.l.l.l.aXC.N.N.N.N.L.K.l.^.z.z.^.% p l ~ % Z.h c.+ # ",
"i U.<Xx.3 O Z F.] H b.A.l.aXC.N.N.N.N.L.L.K.l.l.l.l.l.l.Q.N.N.N.N.E.aXl.D.z.D.v.J l L.~ . ~.rXY.i X ",
"t U.3Xx.3 * O > S.> z.A.l.l.aXQ.K.C.N.C.Q.l.l.l.l.l.l.l.l.aXQ.H.Q.aXl.l.^.!.H.N.L.N.N.T . A.3XU.a , ",
"; R.kXx.o * % D.z.z.z.!.l.l.l.l.l.G.aXl.l.l.l.l.l.l.l.l.l.l.l.l.l.l.l.l.l.K.L.L.N.N.N.T . !.oXR.1 - ",
"a R.kXx.3 % l.^.z.z.m.^.l.l.l.l.l.l.l.l.l.l.l.V.l.l.l.l.l.l.l.l.l.l.l.l.l.C.N.N.N.N.N.l < J.S [.5 r ",
"a R.oXS.o % l.V.Z.z.Z.V.l.l.l.l.l.l.l.l.l.l.V.D.!.l.l.l.l.l.l.l.l.l.l.l.aXE.N.N.N.N.N.l J * H '.9 B ",
"; R.kXm.Z . . l.~.z.T.B.l.l.l.l.4X>X>X4Xl.B.A.m.Z.J.l.l.l.l.l.l.l.V.P.B.l.C.N.N.N.N.N.L.J * H /.c.z ",
"; R.kX3 O G.C.aXA.z.Z.P.l.l.4X&XV dXdXV &XF m.S.z.T.^.P.V.P.J.!.A.~.Z.^.l.Q.C.N.N.N.N.E.aX% F ].c.s ",
"t U.3Xo % l.E.K.^.z.m.P.l.>XsXzX5XW.W.nXwX&X(.b.S.S.m.Z.Z.Z.F.-X_ _ M.>Xl.l.aXH.K.H.K.K.l.. F {.c.+ ",
"e U.gXO.% aXE.E.B.~.A.B.4XsXmXW.|.qXqX|.W.5X&XI.b.S.b.b.b.I._ MXvXmXzXV >Xl.l.l.l.l.l.l.l.* / {.c.; ",
"m Y.XX~.B.l.E.`.C.G.l.l.&XzXW.|.@XeXeX*X|.W.0X).b.z.z.z.z.uXvX@X@X|.W.5XcX4Xl.l.l.l.l.l.l.f +.{.c.7 ",
"s c.2XT.V.l.C.L.L.C.l.l.sXxXW.qXeX6XBXCXqXW.wX$Xb.z.z.b..XdX*X*X*X*X|.W.0X9Xl.l.l.l.l.l.l.!..X=Xc.1 ",
"d c.7XZ.P.l.C.L.L.N.aX4XV 5XW.@X6XKXHXSXqXW.wX$Xb.z.z.b.(.fX6XZXSXLX@XW.wX&Xl.l.l.l.l.l.B.~.I.:Xc.1 ",
"A $ :XI.J.l.C.L.L.L.aXl.hXxXW.qXeXBXAXZX|.W.JX(.z.z.z.z..XdX6XIXAXCX@XW.0X9Xl.l.l.l.l.l.J.m.I.:Xc.7 ",
"B 9 {.(.^.l.C.L.L.C.l.l.9XMXnXW.qX*X*X@X|.xX9XI.z.z.z.z.z.$XvX6X6XeX@X5XNX4Xl.l.l.l.l.l.D.b.I.=Xc.; ",
"r 5 '.-XA.Q.E.L.L.H.l.l.J.uXfX5XW.|.|.W.wX9X.Xz.z.z.z.z.z.I.uXfXVXVX0X&XF V.l.l.l.l.l.l.A.S.(.{.c.+ ",
"b 7 R.kX~.C.L.L.L.K.l.l.!.F.-XhXFX0XfXcX$XI.z.z.z.z.z.z.z.z.b.(.F $X).I.m.D.V.l.l.l.l.l.V.Z.).].c.c ",
"X e Y.XXZ.G.N.N.L.C.l.l.D.S.S.I.(.).(.I.z.z.z.z.z.z.z.z.z.z.z.b.x.b.z.F.m.m.~.J.l.l.l.l.B.T. X[.$ g ",
"8 c c.,XF.^.Q.C.L.K.l.V.Z.S.z.F.z.x.x.z.z.z.z.z.z.z.z.z.z.z.z.S.S.z.F.z.m.m.m.T.J.l.l.l.V.Z.3XU.1 w ",
"  M $ ].).A.l.Q.H.G.l.^.m.m.m.F.F.S.S.S.z.z.z.z.z.z.z.z.z.z.z.S.S.F.F.m.m.m.m.Z.A.V.l.P.D.x.2Xc.i X ",
"  , a U.3X~.l.B.B.B.P.T.m.m.m.m.F.F.S.S.z.z.z.z.z.z.z.z.z.z.S.S.S.F.F.m.m.m.m.Z.!.V.l.D.b.I.:Xc.d 4 ",
"  0 s c.,XF.G.aXl.V.!.Z.m.m.m.m.F.F.z.S.S.z.z.z.z.z.z.z.z.S.S.S.F.F.m.m.m.m.m.~.J.G.K.P.D.S '.2 r   ",
"    r 2 '.n J.L.H.l.^.~.m.m.m.m.z.F.F.z.S.S.z.z.z.z.z.S.S.S.S.F.F.z.m.m.m.m.Z.A.V.K.`.OX..P Y.e @   ",
"    # m c.+XT.`.L.Q.P.A.Z.m.m.m.(.(.S.F.z.S.S.S.S.S.S.S.S.z.F.F.F.m.m.m.m.m.~.^.l.C.#XR 4.8.c.g     ",
"      E 2 [.kXv.#XK.l.^.D.m.m.m.oX,XoXF.x.z.z.z.z.z.z.z.F.F.F.z.m.m.m.m.m.Z.A.V.H.L.OX..2.c.t &     ",
"      # K c.=XF `.L.H.V.!.T.m.m.I.}.].+XS F.x.S.F.F.F.F.F.F.z.m.m.m.m.m.m.D.J.aXC.#XR 4.G $ g       ",
"        - 7 Y.;Xl.#XC.aXP.A.T.m.m.F.gX].'.,X<X).I.S.x.x.x.x.m.m.m.m.m.m.~.^.l.K.`.OX..2.c.+ @       ",
"        8 d.9 R.XX`.`.K.l.J.A.T.m.m.x. X7X'.U./.:X+X}.XXXX}.}.).m.m.m.~.^.B.H.L.OXR r.^ 1 w         ",
"          &.6.c._.tXOX`.K.l.J.A.T.Z.m.m.F.S }.=X/.[._.[.'.{.8XI.m.Z.D.^.B.H.E.#XR V ' $ A 8         ",
"          8 ) N c.[.bXOXL.K.aXP.^.D.Z.Z.m.m.x..X). Xn n  X(.m.Z.~.A.J.B.H.E.#XR V 5.c.s #           ",
"            8 @.: c.[.tXyX`.C.Q.B.J.!.D.~.Z.Z.Z.Z.Z.Z.Z.Z.T.D.A.^.P.G.K.L.#XOXV 5.c.+ &             ",
"              8 @.: c.R.DXjX#XE.K.aXB.J.^.!.A.D.D.D.D.A.A.^.J.V.l.H.C.`.OXyXo.[.c.+ ,               ",
"                8 @.( $ c.pXsXyX`.C.K.Q.l.B.P.P.J.J.P.P.V.l.aXH.C.L.#XOXcXL U.$ j &                 ",
"                  4 %.9.Q c._.L hXyX`.n.C.K.H.H.H.Q.H.H.K.C.E.`.#XyXNXo./.c.Q 0.@                   ",
"                    4 ) $.( Q Y.[.L bXjXyXN.N.N.N.jXjXPX&XhXbXo.DXiX/.Y.^ ( y.8                     ",
"                        &.%.$.7.Q Y.U.lXpXiXiXiXpXpXlXlX'.R.Y.c.c.c.Q ( $.)                         ",
"                          8 &.%.j.k.L pX/._.R.Y.Y.c.Y.U.R.[.lXiXL L 9.) 8                           ",
"                            4 8 0.Y ! ! uXuX>.` tXtXtXtX` >.>.` _ { j #                             ",
"                              @ C ;.n y | F A.F ! $X$X$X$Xg.| ' [ Y :.E                             ",
"                              w  .v = | ' H h.S M.v M.1X1XoX} 2 ,.y U + &                           ",
"                            4 z { v ;.:.Q H / v M.M.M.M.M.= ,.e -.] ;.=.x 4                         ",
"                            X N k = W I I H H M.M.M.M.M.M.= U d c [ v Y : -                         ",
"                            D  .= k } q C = S M.M.M.M.M.M.= ,.d B  .= = | f.X                       ",
"                            x U = Y G D C y M.M.M.M.M.M.M.= { c , I P = U N X                       ",
"                            r G *.G c & C k M.M.M.M.M.M.M.= P C # D I : I w                         ",
"                            6 r x M # # C k M.M.M.M.M.M.1X= W I X   X - &                           ",
"                                      @ N k M.M.v [ Y oXM.= h : ,                                   ",
"                                      @ N #.M.v y =.' k M.= h : ,                                   ",
"                                      X N k M.v [ G e P M.] h : b                                   ",
"                                      @ N k M.= h : z | M.y W : u                                   ",
"                                      6 C 8XM.] W N E  .1Xy W : u                                   ",
"                                      0 j rXM.] U s , -.#.y }.: u                                   ",
"                                      0 s XXM.y *.x 6 C rXy }.G b                                   ",
"                                      4 q U v Y : b   z { y }.: ,                                   ",
"                                        w G P q.d 8   w : } q.m @                                   ",
"                                        # q a m ,     6 g + m D                                     "
};
