/* XPM */
static char * lavaRight_xpm[] = {
"90 32 756 2",
"  	c #000000",
". 	c #010100",
"+ 	c #010000",
"@ 	c #281100",
"# 	c #CA6400",
"$ 	c #FF8900",
"% 	c #FB8600",
"& 	c #B65B00",
"* 	c #331C00",
"= 	c #020100",
"- 	c #211600",
"; 	c #783C00",
"> 	c #D85E00",
", 	c #FB7100",
"' 	c #A85200",
") 	c #120C00",
"! 	c #000100",
"~ 	c #010200",
"{ 	c #070800",
"] 	c #0D0D01",
"^ 	c #0D0D02",
"/ 	c #0C0C01",
"( 	c #070701",
"_ 	c #190D00",
": 	c #1D1000",
"< 	c #1A0C00",
"[ 	c #1A0F00",
"} 	c #1D1700",
"| 	c #5B3400",
"1 	c #C14F00",
"2 	c #F64E00",
"3 	c #FD4C00",
"4 	c #FF5500",
"5 	c #FE6100",
"6 	c #FC8100",
"7 	c #F78200",
"8 	c #D86900",
"9 	c #974B00",
"0 	c #492500",
"a 	c #160900",
"b 	c #170B00",
"c 	c #180B00",
"d 	c #603100",
"e 	c #D66300",
"f 	c #F66900",
"g 	c #FA6700",
"h 	c #FD5600",
"i 	c #FF4C00",
"j 	c #FC4C00",
"k 	c #F65200",
"l 	c #C45200",
"m 	c #472400",
"n 	c #19170B",
"o 	c #433F1F",
"p 	c #6A612E",
"q 	c #512600",
"r 	c #1E1700",
"s 	c #010500",
"t 	c #382000",
"u 	c #502A00",
"v 	c #6F3A00",
"w 	c #A75700",
"x 	c #CF6B00",
"y 	c #C96900",
"z 	c #C16701",
"A 	c #D87400",
"B 	c #D36700",
"C 	c #D45000",
"D 	c #E44A00",
"E 	c #FA4F00",
"F 	c #FF4E00",
"G 	c #FF4B00",
"H 	c #FD4E00",
"I 	c #FF5300",
"J 	c #FF5700",
"K 	c #FD5300",
"L 	c #F16600",
"M 	c #E17300",
"N 	c #CC6300",
"O 	c #A04C00",
"P 	c #542600",
"Q 	c #271B00",
"R 	c #010700",
"S 	c #301D00",
"T 	c #4C2900",
"U 	c #613300",
"V 	c #994F00",
"W 	c #CC6A00",
"X 	c #D46D00",
"Y 	c #B66200",
"Z 	c #DB7600",
"` 	c #E57300",
" .	c #FD6500",
"..	c #FF5000",
"+.	c #FE4D00",
"@.	c #FF4A00",
"#.	c #FF4F00",
"$.	c #FB5000",
"%.	c #E14600",
"&.	c #B13600",
"*.	c #5F1F00",
"=.	c #0A0300",
"-.	c #0C0C04",
";.	c #353117",
">.	c #5D532A",
",.	c #706733",
"'.	c #736933",
").	c #CE4600",
"!.	c #B83D00",
"~.	c #A33200",
"{.	c #994600",
"].	c #995400",
"^.	c #9B5400",
"/.	c #9B5500",
"(.	c #995200",
"_.	c #995000",
":.	c #9C4900",
"<.	c #AA4700",
"[.	c #C44C00",
"}.	c #CD5C00",
"|.	c #DE6700",
"1.	c #F77100",
"2.	c #FC7800",
"3.	c #F87500",
"4.	c #EB6C01",
"5.	c #FC7000",
"6.	c #FC6F00",
"7.	c #FC5700",
"8.	c #FD4D00",
"9.	c #FF4D00",
"0.	c #FF4900",
"a.	c #FF4800",
"b.	c #FE5600",
"c.	c #FD6100",
"d.	c #FB5E00",
"e.	c #F65700",
"f.	c #D14600",
"g.	c #BC3E00",
"h.	c #A73400",
"i.	c #9C4300",
"j.	c #995300",
"k.	c #9B5200",
"l.	c #984B00",
"m.	c #A34700",
"n.	c #BE4900",
"o.	c #CD5900",
"p.	c #D66500",
"q.	c #F26E00",
"r.	c #FB7500",
"s.	c #FC7900",
"t.	c #EA6E00",
"u.	c #FD6300",
"v.	c #FE5400",
"w.	c #FE4B00",
"x.	c #F84B00",
"y.	c #D74200",
"z.	c #AB3300",
"A.	c #882700",
"B.	c #6F2000",
"C.	c #6B1F00",
"D.	c #6D1F00",
"E.	c #6D2200",
"F.	c #752B00",
"G.	c #832B00",
"H.	c #832300",
"I.	c #651F00",
"J.	c #321700",
"K.	c #090400",
"L.	c #050703",
"M.	c #25220F",
"N.	c #4D4623",
"O.	c #6A612F",
"P.	c #6F6630",
"Q.	c #756934",
"R.	c #726834",
"S.	c #FA4C00",
"T.	c #F84D00",
"U.	c #F54D00",
"V.	c #F36400",
"W.	c #F36D00",
"X.	c #F46F00",
"Y.	c #F46600",
"Z.	c #F46B00",
"`.	c #F37600",
" +	c #F37100",
".+	c #F46500",
"++	c #F65C00",
"@+	c #F95500",
"#+	c #FA5D00",
"$+	c #FC5F00",
"%+	c #FF5B00",
"&+	c #F05800",
"*+	c #E54F01",
"=+	c #FC4D00",
"-+	c #FD4B00",
";+	c #FB4E00",
">+	c #F64D00",
",+	c #F45F00",
"'+	c #F36B00",
")+	c #F37000",
"!+	c #F46900",
"~+	c #F46700",
"{+	c #F47600",
"]+	c #F37300",
"^+	c #F36800",
"/+	c #F55F00",
"(+	c #F85300",
"_+	c #FA5B00",
":+	c #FB5F00",
"<+	c #FE5B00",
"[+	c #FD5A00",
"}+	c #FC5900",
"|+	c #E95300",
"1+	c #FF5200",
"2+	c #FF5100",
"3+	c #FB4F00",
"4+	c #F14800",
"5+	c #E34300",
"6+	c #DE4200",
"7+	c #E64500",
"8+	c #EC4A00",
"9+	c #D04400",
"0+	c #9C3100",
"a+	c #7A2200",
"b+	c #541900",
"c+	c #2A1400",
"d+	c #070300",
"e+	c #18170D",
"f+	c #463F1F",
"g+	c #625B2B",
"h+	c #6E6431",
"i+	c #736934",
"j+	c #FF4100",
"k+	c #FC4800",
"l+	c #FD5900",
"m+	c #FD5400",
"n+	c #F04000",
"o+	c #E53F01",
"p+	c #FF4400",
"q+	c #FF4200",
"r+	c #FC4400",
"s+	c #FD4600",
"t+	c #E73B00",
"u+	c #FF3800",
"v+	c #FF3700",
"w+	c #FF3A00",
"x+	c #FF3E00",
"y+	c #FD5200",
"z+	c #FC5200",
"A+	c #D43F00",
"B+	c #812500",
"C+	c #340E00",
"D+	c #140500",
"E+	c #0D0400",
"F+	c #0F0E06",
"G+	c #3E3B1C",
"H+	c #595229",
"I+	c #6B6331",
"J+	c #726933",
"K+	c #FE4C00",
"L+	c #F03E00",
"M+	c #FF4700",
"N+	c #FF3400",
"O+	c #FF2300",
"P+	c #FF2B00",
"Q+	c #FF3C00",
"R+	c #FF3600",
"S+	c #FF3D00",
"T+	c #FF4500",
"U+	c #FD4500",
"V+	c #E03600",
"W+	c #FF2200",
"X+	c #FF0A00",
"Y+	c #FF0B00",
"Z+	c #FF1300",
"`+	c #FF2F00",
" @	c #FF3300",
".@	c #FF3F00",
"+@	c #EC4400",
"@@	c #B33600",
"#@	c #3A1100",
"$@	c #160600",
"%@	c #060100",
"&@	c #070601",
"*@	c #2F2B13",
"=@	c #574F27",
"-@	c #6E6532",
";@	c #736834",
">@	c #F04A00",
",@	c #E54801",
"'@	c #FF3500",
")@	c #FF1F00",
"!@	c #FF1900",
"~@	c #FF0600",
"{@	c #FF0800",
"]@	c #FF0D00",
"^@	c #FF0F00",
"/@	c #FF1000",
"(@	c #FF1400",
"_@	c #FF3000",
":@	c #FF3100",
"<@	c #DE4500",
"[@	c #FF3900",
"}@	c #FF0C00",
"|@	c #FF0000",
"1@	c #FF0200",
"2@	c #FF0900",
"3@	c #FD1700",
"4@	c #D50F00",
"5@	c #5F0F00",
"6@	c #250B00",
"7@	c #050100",
"8@	c #090804",
"9@	c #302C15",
"0@	c #534B24",
"a@	c #746934",
"b@	c #FF1E00",
"c@	c #FF1700",
"d@	c #FF5600",
"e@	c #FF5400",
"f@	c #FF4000",
"g@	c #F05000",
"h@	c #E54C01",
"i@	c #FF0500",
"j@	c #FF0300",
"k@	c #FF0100",
"l@	c #FF1200",
"m@	c #FF1800",
"n@	c #FF1A00",
"o@	c #FF1600",
"p@	c #FF2A00",
"q@	c #FF4300",
"r@	c #FF3B00",
"s@	c #EB5000",
"t@	c #FF2100",
"u@	c #FE0000",
"v@	c #E60200",
"w@	c #7A0300",
"x@	c #350000",
"y@	c #0E0000",
"z@	c #151409",
"A@	c #3C381B",
"B@	c #565028",
"C@	c #6B6130",
"D@	c #736935",
"E@	c #746A34",
"F@	c #FF0400",
"G@	c #FF1100",
"H@	c #FF2000",
"I@	c #FF0E00",
"J@	c #F02200",
"K@	c #E53401",
"L@	c #FF1B00",
"M@	c #FD2100",
"N@	c #E32900",
"O@	c #F60000",
"P@	c #A00000",
"Q@	c #420000",
"R@	c #170000",
"S@	c #201D0E",
"T@	c #433E1E",
"U@	c #595128",
"V@	c #6C6230",
"W@	c #726833",
"X@	c #F00500",
"Y@	c #E51001",
"Z@	c #FD0400",
"`@	c #DD0C00",
" #	c #ED0000",
".#	c #950000",
"+#	c #550000",
"@#	c #280000",
"##	c #14130A",
"$#	c #312D16",
"%#	c #574E27",
"&#	c #6C6431",
"*#	c #716733",
"=#	c #F00200",
"-#	c #E50301",
";#	c #FD0000",
">#	c #DC0500",
",#	c #EF0000",
"'#	c #960000",
")#	c #590000",
"!#	c #270000",
"~#	c #030000",
"{#	c #0A0903",
"]#	c #222010",
"^#	c #464020",
"/#	c #625A2C",
"(#	c #706532",
"_#	c #F00300",
":#	c #E50401",
"<#	c #DD0400",
"[#	c #E20000",
"}#	c #AD0000",
"|#	c #7B0000",
"1#	c #250000",
"2#	c #040000",
"3#	c #030300",
"4#	c #17160A",
"5#	c #373217",
"6#	c #564E26",
"7#	c #695F2F",
"8#	c #716833",
"9#	c #E50501",
"0#	c #F40000",
"a#	c #D20000",
"b#	c #B20000",
"c#	c #7C0000",
"d#	c #0E0D06",
"e#	c #262311",
"f#	c #484120",
"g#	c #61592B",
"h#	c #706632",
"i#	c #EF0300",
"j#	c #E60501",
"k#	c #FC0000",
"l#	c #DE0500",
"m#	c #DF0000",
"n#	c #A80000",
"o#	c #620000",
"p#	c #380000",
"q#	c #1D0000",
"r#	c #080603",
"s#	c #1B180D",
"t#	c #393519",
"u#	c #564F27",
"v#	c #6A6030",
"w#	c #706832",
"x#	c #F40300",
"y#	c #E70501",
"z#	c #E20500",
"A#	c #D80000",
"B#	c #6F0000",
"C#	c #370000",
"D#	c #100000",
"E#	c #050401",
"F#	c #151309",
"G#	c #2F2A15",
"H#	c #645B2D",
"I#	c #726934",
"J#	c #F70300",
"K#	c #D50501",
"L#	c #E10000",
"M#	c #FB0000",
"N#	c #DB0000",
"O#	c #D60000",
"P#	c #D70000",
"Q#	c #D70400",
"R#	c #5D0000",
"S#	c #040301",
"T#	c #111007",
"U#	c #272411",
"V#	c #47411F",
"W#	c #60582A",
"X#	c #6F6532",
"Y#	c #736833",
"Z#	c #9A0000",
"`#	c #920000",
" $	c #8C0000",
".$	c #8B0000",
"+$	c #910100",
"@$	c #6E0301",
"#$	c #6B0000",
"$$	c #880000",
"%$	c #800000",
"&$	c #660000",
"*$	c #600000",
"=$	c #610000",
"-$	c #780000",
";$	c #990000",
">$	c #980000",
",$	c #8A0000",
"'$	c #900000",
")$	c #7B0200",
"!$	c #0C0C06",
"~$	c #231F0E",
"{$	c #413B1D",
"]$	c #5C5429",
"^$	c #6F6531",
"/$	c #736A33",
"($	c #746A35",
"_$	c #140000",
":$	c #0A0000",
"<$	c #040100",
"[$	c #120000",
"}$	c #130000",
"|$	c #110000",
"1$	c #070000",
"2$	c #090904",
"3$	c #1C1A0C",
"4$	c #393419",
"5$	c #595027",
"6$	c #6D6231",
"7$	c #756A35",
"8$	c #0A0904",
"9$	c #080703",
"0$	c #060603",
"a$	c #050402",
"b$	c #030301",
"c$	c #050502",
"d$	c #070703",
"e$	c #060602",
"f$	c #040401",
"g$	c #020201",
"h$	c #040402",
"i$	c #070602",
"j$	c #080804",
"k$	c #060502",
"l$	c #040400",
"m$	c #020101",
"n$	c #060704",
"o$	c #100F07",
"p$	c #1C1A0D",
"q$	c #2F2C15",
"r$	c #504923",
"s$	c #695E2E",
"t$	c #716734",
"u$	c #2E2B15",
"v$	c #2F2915",
"w$	c #292612",
"x$	c #242111",
"y$	c #1D1A0C",
"z$	c #15130A",
"A$	c #141208",
"B$	c #16130A",
"C$	c #1B190C",
"D$	c #211F0E",
"E$	c #262410",
"F$	c #211E0E",
"G$	c #161207",
"H$	c #0E0B05",
"I$	c #0B0A05",
"J$	c #110F07",
"K$	c #121108",
"L$	c #141209",
"M$	c #141309",
"N$	c #131208",
"O$	c #17150A",
"P$	c #1E1B0D",
"Q$	c #2E2B13",
"R$	c #2E2A15",
"S$	c #2B2713",
"T$	c #252110",
"U$	c #201D0F",
"V$	c #1F1B0C",
"W$	c #151208",
"X$	c #151209",
"Y$	c #19150B",
"Z$	c #221F0F",
"`$	c #242411",
" %	c #282512",
".%	c #3D381B",
"+%	c #524B25",
"@%	c #5E5629",
"#%	c #685E2E",
"$%	c #6F6631",
"%%	c #726733",
"&%	c #5E562B",
"*%	c #61582B",
"=%	c #60562A",
"-%	c #5A5328",
";%	c #544D26",
">%	c #514924",
",%	c #4D4622",
"'%	c #46411F",
")%	c #453F1E",
"!%	c #4B4421",
"~%	c #4F4823",
"{%	c #524C25",
"]%	c #4A4421",
"^%	c #403319",
"/%	c #382C14",
"(%	c #302D15",
"_%	c #363117",
":%	c #3D371A",
"<%	c #433D1E",
"[%	c #46401F",
"}%	c #45401F",
"|%	c #494320",
"1%	c #4E4722",
"2%	c #585027",
"3%	c #5F582B",
"4%	c #5C5329",
"5%	c #584F27",
"6%	c #524925",
"7%	c #4E4723",
"8%	c #48421F",
"9%	c #463F20",
"0%	c #474220",
"a%	c #4A4321",
"b%	c #4E4824",
"c%	c #514C23",
"d%	c #655B2D",
"e%	c #68612F",
"f%	c #6B612F",
"g%	c #706731",
"h%	c #6F6533",
"i%	c #6E6331",
"j%	c #6D6431",
"k%	c #6A6031",
"l%	c #665D2D",
"m%	c #625B2D",
"n%	c #5F582C",
"o%	c #624D27",
"p%	c #614A24",
"q%	c #595329",
"r%	c #5C552A",
"s%	c #62582B",
"t%	c #685F2E",
"u%	c #6B6131",
"v%	c #6B6031",
"w%	c #6A6130",
"x%	c #6C6331",
"y%	c #6F6431",
"z%	c #706433",
"A%	c #6F6632",
"B%	c #68602E",
"C%	c #655E2F",
"D%	c #5C5529",
"E%	c #756B35",
"F%	c #69602E",
"G%	c #645D2D",
"H%	c #665E2F",
"I%	c #6D582B",
"J%	c #70552A",
"K%	c #686131",
"L%	c #68602F",
"M%	c #6B612E",
"N%	c #746935",
"O%	c #706732",
"P%	c #6B6332",
"Q%	c #655D2F",
"R%	c #6F6733",
"S%	c #675F2E",
"T%	c #645C2E",
"U%	c #665D2F",
"V%	c #6F572B",
"W%	c #70552B",
"X%	c #686130",
"Y%	c #665E2E",
"Z%	c #675E2E",
"`%	c #706631",
" &	c #6E6531",
".&	c #6B6230",
"+&	c #6A6231",
"@&	c #69602F",
"#&	c #695F30",
"$&	c #635B2E",
"%&	c #6C582C",
"&&	c #6D582C",
"*&	c #655F2F",
"=&	c #665C2D",
"-&	c #696030",
";&	c #706633",
">&	c #696230",
",&	c #645C2C",
"'&	c #5B5429",
")&	c #645B2E",
"!&	c #69592D",
"~&	c #6A592B",
"{&	c #665E2D",
"]&	c #6A602F",
"^&	c #6C6231",
"/&	c #625C2D",
"(&	c #5A5329",
"_&	c #675E2F",
":&	c #655C2E",
"<&	c #665C2C",
"[&	c #675C2D",
"}&	c #655C2D",
"|&	c #6D6331",
"1&	c #635A2D",
"2&	c #585129",
"3&	c #685F2D",
"4&	c #685E2F",
"5&	c #675F2F",
"6&	c #685F30",
"7&	c #635B2D",
"8&	c #736A35",
"9&	c #716732",
"0&	c #6B622F",
"a&	c #6B6330",
"b&	c #6D6432",
"c&	c #6F6530",
"d&	c #796E37",
"e&	c #786E37",
"f&	c #776C34",
"g&	c #736932",
"h&	c #6B632F",
"i&	c #6E6332",
"j&	c #706533",
"k&	c #756C36",
"l&	c #736A34",
"m&	c #706431",
"n&	c #746733",
"o&	c #756432",
"p&	c #746432",
"q&	c #766D36",
"r&	c #766C36",
"s&	c #776C36",
"t&	c #786D36",
"u&	c #786D37",
"v&	c #776C35",
"w&	c #6D6232",
"x&	c #6E6433",
"y&	c #756B34",
"z&	c #6E6632",
"A&	c #5B542B",
"B&	c #776B34",
"C&	c #776D36",
"D&	c #766C35",
"E&	c #756B36",
"F&	c #756A36",
"G&	c #46401E",
"H&	c #453F1F",
"I&	c #423C1F",
"J&	c #3F391C",
"K&	c #3A3519",
"L&	c #383318",
"M&	c #3A351A",
"N&	c #3E391B",
"O&	c #4F4922",
"P&	c #4E4622",
"Q&	c #514723",
"R&	c #544321",
"S&	c #534221",
"T&	c #4D4823",
"U&	c #4E4823",
"V&	c #504924",
"W&	c #514A25",
"X&	c #504825",
"Y&	c #484221",
"Z&	c #474120",
"`&	c #413C1E",
" *	c #37341A",
".*	c #3B3519",
"+*	c #3E381B",
"@*	c #4B4520",
"#*	c #4D4724",
"$*	c #4C4522",
"%*	c #484321",
"&*	c #48431F",
"**	c #595228",
"=*	c #443E1E",
"-*	c #423B1C",
";*	c #4C4521",
">*	c #524A25",
",*	c #544C26",
"'*	c #554D26",
")*	c #5A5228",
"!*	c #5C542A",
"~*	c #5C522A",
"{*	c #5B5428",
"]*	c #5E552A",
"  . . . . . . . . . .                       + . @ # $ % & * = . +         . . . . . . . . . .                 + = - ; > , ' ) . +       . + ! ~ + { ] ^ / ( ~   .                 . ",
"+                         + + . = _ : < [ } | 1 2 3 4 5 6 7 8 9 0 . . +                         + + . . a b c d e f g h i j k l m + +               . .                       n o p ",
"q r ~ . . . . . . . . s t u v w x y z A B C D E F G j H I J K L M N O P Q R + . . . . . . . . S T U V W X Y Z `  .4 ..+.@.G #.$.%.&.*.=.+ + + + + + + + +                 -.;.>.,.'.",
").!.~.{.].^./.^.(._.:.<.[.}.|.1.2.3.4.5.6.7.8.G 9.9.i @.0.a.a.b.c.d.e.f.g.h.i._.j.^.^.k.(.l.m.n.o.p.q.r.s.t.u. .v.w.@.i 9.9.i i 8.x.y.z.A.B.C.D.E.F.G.H.I.J.K.        L.M.N.O.P.Q.R.",
"S.T.U.V.W.X.Y.Z.`. +.+++@+#+$+%+%+&+*+I h =+-+9.#...#.9.F 9.i i G i 9.;+T.>+,+'+)+!+~+{+]+^+/+(+_+:+<+[+}+|+@.H j 3 9.#.I I 1+2+2+..3+2 4+5+6+7+8+9+0+a+b+c+d+      e+f+g+h+i+i+R.R.",
"#.#.9.9.F 9.j+k+l+m+j 8.9.9.i i @.n+o+9.i F #.F @.p+a.9.i F ....F 9.F #.#.F F F #.q+r+}+h j j 9.9.i i i s+t+#.i 9.F F p+u+v+w+x+p+@.i 9...y+z+3 A+B+C+D+E+d+.   F+G+H+I+J+i+R.R.R.R.",
"G G F F 9.i G K+i G K+i 9.i i 9.G L+o+#.i 0.M+p+N+O+P+Q+R+S+T+T+@.i G G @.9.F 9.9.i w.K+i K+K+9.i i 9.9.U+V+..9.@.Q+w+W+X+X+Y+Z+O+`+ @.@T+p++@@@#@$@%@      &@*@=@-@;@i+R.R.R.R.R.R.",
" @v+#.9.i i 9.9.i 9.F F F F 9.i 9.>@,@#.9.'@)@!@Y+~@{@]@Y+^@/@(@_@T+ @:@'@@.9.i i i 9.G 9.F F F F 9.i i 3 <@F F [@]@}@~@|@|@|@1@~@2@Y+Z+3@4@5@6@7@      8@9@0@O.i+a@i+R.R.R.R.R.R.R.",
"}@]@b@!@c@`+x+T+F d@I I 1+e@#.u+f@g@h@I i O+i@j@|@|@|@|@|@k@|@1@Y+l@}@Y+]@m@n@o@p@Q+q@G d@4 I 1+I d@r@u+K s@1+q@t@|@|@|@|@|@|@|@u@|@u@v@w@x@y@      z@A@B@C@D@E@D@R.R.R.R.R.R.R.R.R.",
"|@|@F@1@k@Y+G@(@c@n@!@!@H@n@c@I@l@J@K@w+L@2@|@|@|@|@|@|@|@|@|@|@|@|@|@|@|@1@1@k@2@/@Z+o@n@n@!@O+!@n@/@^@M@N@)@Z+{@|@|@|@|@|@|@|@u@O@P@Q@R@      S@T@U@V@i+W@W@R.R.R.R.R.R.R.R.R.R.R.",
"|@|@|@|@|@|@|@|@|@|@|@|@j@|@|@|@|@X@Y@/@1@|@|@|@|@|@|@|@|@|@|@|@|@|@|@|@|@|@|@|@|@|@|@|@|@|@|@i@|@|@|@|@Z@`@j@|@|@|@|@|@|@|@u@ #.#+#@#+     ##$#%#&#W@a@;@*#*#R.R.R.R.R.R.R.R.R.R.R.",
"|@|@|@|@|@|@|@|@|@|@|@|@|@|@|@|@|@=#-#|@|@|@|@|@|@|@|@|@|@|@|@|@|@|@|@|@|@|@|@|@|@|@|@|@|@|@|@|@|@|@|@|@;#>#|@|@|@|@|@|@u@,#'#)#!#~#    {#]#^#/#(#i+W@R.R.R.R.R.R.R.R.R.R.R.R.R.R.R.",
"|@|@|@|@|@|@|@|@|@|@|@|@|@|@|@|@|@_#:#|@|@|@|@|@|@|@|@|@|@|@|@|@|@|@|@|@|@|@|@|@|@|@|@|@|@|@|@|@|@|@|@|@;#<#|@|@|@|@u@[#}#|#1#2#~#  3#4#5#6#7#8#R.R.R.R.R.R.R.R.R.R.R.R.R.R.R.R.R.R.",
"|@|@|@|@|@|@|@|@|@|@|@|@|@|@|@|@|@_#9#|@|@|@|@|@|@|@|@|@|@|@|@|@|@|@|@|@|@|@|@|@|@|@|@|@|@|@|@|@|@|@|@|@;#>#|@|@0#a#b#c#x@R@+     d#e#f#g#h#W@R.R.R.R.R.R.R.R.R.R.R.R.R.R.R.R.R.R.R.",
"|@|@|@|@|@|@|@|@|@|@|@|@|@|@|@|@|@i#j#|@|@|@|@|@|@|@|@|@|@|@|@|@|@|@|@|@|@|@|@|@|@|@|@|@|@|@|@|@|@|@|@|@k#l#|@m#n#o#p#q#+     r#s#t#u#v#w#i+R.R.R.R.R.R.R.R.R.R.R.R.R.R.R.R.R.R.R.R.",
"|@|@|@|@|@|@|@|@|@|@|@|@|@|@|@|@|@x#y#|@|@|@|@;#;#;#k#|@|@|@|@|@|@|@|@|@|@|@|@|@|@|@|@|@|@|@|@|@|@|@|@|@u@z#A#B#C#D#      E#F#G#N.H#h#R.I#R.R.R.R.R.R.R.R.R.R.R.R.R.R.R.R.R.R.R.R.R.",
"u@u@u@u@u@u@u@u@u@u@u@u@u@u@u@u@u@J#K#L#M#u@0#N#O#O#P# #;#u@u@u@u@u@u@u@u@u@u@u@u@u@u@u@u@;#u@u@u@u@u@u@u@Q#R#D#      S#T#U#V#W#X#Y#E@;@R.R.R.R.R.R.R.R.R.R.R.R.R.R.R.R.R.R.R.R.R.R.",
"Z#Z#Z#Z#Z#Z#Z#Z#`# $.$ $ $ $.$ $ $+$@$#$$$ $%$&$*$=$o#-$.$ $.$ $;$Z#Z#Z#Z#Z#Z#Z#Z#Z#Z#>$.$,$ $ $ $.$.$ $'$)$+     + !$~${$]$^$/$($i+R.R.R.R.R.R.R.R.R.R.R.R.R.R.R.R.R.R.R.R.R.R.R.R.",
"_$_$_$_$_$_$_$_$:$+ + + + + + + + y@<$3#= . . + + + + + + + + + [$_$}$_$_$_$_$_$_$_$_$|$+ + + + + + + + 1$[$    2$3$4$5$6$a@7$D@R.R.R.R.R.R.R.R.R.R.R.R.R.R.R.R.R.R.R.R.R.R.R.R.R.R.",
"8$2$2$2$2$2$8@9$0$a$S#+ . = b$c$d$e$3#f$g$.     + . . . . .   . . h$i${#2$2$2$2$2$8@j$k$h$l$+ . . m$a$k$n$9$o$p$q$r$s$a@E@*#t$R.R.R.R.R.R.R.R.R.R.R.R.R.R.R.R.R.R.R.R.R.R.R.R.R.R.R.",
"u$q$q$q$q$q$v$w$x$S@y$z$A$B$C$D$E$F$G$H$I$d#J$K$L$M$M$M$M$M$N$M$O$P$E$Q$q$q$q$q$q$R$S$T$U$V$B$W$X$Y$P$Z$`$ %.%+%@%#%$%%%R.R.R.R.R.R.R.R.R.R.R.R.R.R.R.R.R.R.R.R.R.R.R.R.R.R.R.R.R.R.",
"&%*%*%*%*%*%=%-%;%>%,%'%)%^#!%~%{%]%^%/%(%_%:%<%f+[%[%[%[%[%)%}%|%1%2%&%*%*%*%*%*%3%4%5%6%7%8%)%9%0%a%b%c%{%d%#%e%f%X#R.R.R.R.R.R.R.R.R.R.R.R.R.R.R.R.R.R.R.R.R.R.R.R.R.R.R.R.R.R.R.",
",.*#*#*#*#*#g%h%i%j%V@C@k%C@O.l%m%n%o%p%q%r%s%t%C@u%u%u%u%u%v%w%V@x%y%h#*#*#*#*#*#,.z%A%h+V@w%k%C@B%l%C%m%D%j%O.v#w%A%R.R.R.R.R.R.R.R.R.R.R.R.R.R.R.R.R.R.R.R.R.R.R.R.R.R.R.R.R.R.R.",
"i+i+i+i+i+i+D@D@D@($($E%E%E%I#F%G%H%I%J%K%L%M%'.E%E%E%E%E%E%E%E%7$($D@D@i+i+i+i+i+i+D@D@N%($E%E%E%O%j%P%Q%]$x%w%F%w%A%R.R.R.R.R.R.R.R.R.R.R.R.R.R.R.R.R.R.R.R.R.R.R.R.R.R.R.R.R.R.R.",
"R.R.R.R.R.R.R.R.R.R.R.R.R.R.R%S%T%U%V%W%X%Y%Z%`%R.R.R.R.R.R.R.R.R.R.R.R.R.R.R.R.R.R.R.R.R.R.R.R.R. &.&+&T%]$x%w%@&w%A%R.R.R.R.R.R.R.R.R.R.R.R.R.R.R.R.R.R.R.R.R.R.R.R.R.R.R.R.R.R.R.",
"R.R.R.R.R.R.R.R.R.R.R.R.R.R.*##&$&l%%&&&*&=&-&;&R.R.R.R.R.R.R.R.R.R.R.R.R.R.R.R.R.R.R.R.R.R.R.R.R.h+>&+&,&'&x%w%@&w%A%R.R.R.R.R.R.R.R.R.R.R.R.R.R.R.R.R.R.R.R.R.R.R.R.R.R.R.R.R.R.R.",
"R.R.R.R.R.R.R.R.R.R.R.R.R.R.*#O.G%)&!&~&{&U%]&;&R.R.R.R.R.R.R.R.R.R.R.R.R.R.R.R.R.R.R.R.R.R.R.R.R.^&v#+&/&(&I+w%@&w%A%R.R.R.R.R.R.R.R.R.R.R.R.R.R.R.R.R.R.R.R.R.R.R.R.R.R.R.R.R.R.R.",
"R.R.R.R.R.R.R.R.R.R.R.R.R.R.*#x%_&:&<&[&}&F%i%`%h#R.R.R.R.R.R.R.R.R.R.R.R.R.R.R.R.R.R.R.R.R.R.R.R.|&w%+&1&2&|&w%@&w%A%R.R.R.R.R.R.R.R.R.R.R.R.R.R.R.R.R.R.R.R.R.R.R.R.R.R.R.R.R.R.R.",
"R.R.R.R.R.R.R.R.R.R.R.R.R.R.*#-@w%3&4&Z%5&6&^&X#*#R.R.R.R.R.R.R.R.R.R.R.R.R.R.R.R.R.R.R.R.R.R.R.R.|&w%+&7&H+|&w%@&w%A%R.R.R.R.R.R.R.R.R.R.R.R.R.R.R.R.R.R.R.R.R.R.R.R.R.R.R.R.R.R.R.",
"i+i+i+i+R.i+D@($8&($i+i+R.R.9&X#.&4&#&0&a&O.@&b&*#R.R.R.R.R.R.R.;@i+i+;@;@;@;@R.R.i+($8&($E@i+R.R.|&w%+&7&H+|&w%@&C@c&*#;@;@;@;@i+;@R.R.R.R.R.R.R.R.R.R.R.R.R.R.R.R.R.R.R.R.R.R.R.R.",
"d&d&e&e&f&g&(#i%h&i&j&;@($E%k&l&^$m&n&o&p&J+ &y%($q&q&q&q&q&r&s&t&e&e&u&u&u&u&v&a@%%w&h&x%x&;@($y&9&^$z&Z%A&(# &h+;&W@B&u&u&u&u&e&u&C&q&v&D&E%E&E&E&E&E&E&E&E&E&E&E&E&E&E&E&E&E%F&D@",
"<%<%G&G&H&I&J&K&L&M&N&f+!%O&r$7%P&~%Q&R&S&T&U&U&V&W&W&W&W&W&X&,%Y&^#G&Z&Z&Z&Z&Z&H&`&:% *.*+*9%@*>%#*$*N.%*&***,%=*-*<%H&Z&Z&Z&Z&G&Z&;*>*,*'*)*!*!*!*!*!*!*!*!*!*!*!*!*!*!*!*~*{*]*H#"};
