/* XPM */
static char * lavaLeft_xpm[] = {
"90 32 756 2",
"  	c #010100",
". 	c #000000",
"+ 	c #010200",
"@ 	c #070701",
"# 	c #0C0C01",
"$ 	c #0D0D02",
"% 	c #0D0D01",
"& 	c #070800",
"* 	c #010000",
"= 	c #000100",
"- 	c #120C00",
"; 	c #A85200",
"> 	c #FB7100",
", 	c #D85E00",
"' 	c #783C00",
") 	c #211600",
"! 	c #020100",
"~ 	c #331C00",
"{ 	c #B65B00",
"] 	c #FB8600",
"^ 	c #FF8900",
"/ 	c #CA6400",
"( 	c #281100",
"_ 	c #6A612E",
": 	c #433F1F",
"< 	c #19170B",
"[ 	c #472400",
"} 	c #C45200",
"| 	c #F65200",
"1 	c #FC4C00",
"2 	c #FF4C00",
"3 	c #FD5600",
"4 	c #FA6700",
"5 	c #F66900",
"6 	c #D66300",
"7 	c #603100",
"8 	c #180B00",
"9 	c #170B00",
"0 	c #160900",
"a 	c #492500",
"b 	c #974B00",
"c 	c #D86900",
"d 	c #F78200",
"e 	c #FC8100",
"f 	c #FE6100",
"g 	c #FF5500",
"h 	c #FD4C00",
"i 	c #F64E00",
"j 	c #C14F00",
"k 	c #5B3400",
"l 	c #1D1700",
"m 	c #1A0F00",
"n 	c #1A0C00",
"o 	c #1D1000",
"p 	c #190D00",
"q 	c #736933",
"r 	c #706733",
"s 	c #5D532A",
"t 	c #353117",
"u 	c #0C0C04",
"v 	c #0A0300",
"w 	c #5F1F00",
"x 	c #B13600",
"y 	c #E14600",
"z 	c #FB5000",
"A 	c #FF4F00",
"B 	c #FF4B00",
"C 	c #FF4A00",
"D 	c #FE4D00",
"E 	c #FF5000",
"F 	c #FD6500",
"G 	c #E57300",
"H 	c #DB7600",
"I 	c #B66200",
"J 	c #D46D00",
"K 	c #CC6A00",
"L 	c #994F00",
"M 	c #613300",
"N 	c #4C2900",
"O 	c #301D00",
"P 	c #010700",
"Q 	c #271B00",
"R 	c #542600",
"S 	c #A04C00",
"T 	c #CC6300",
"U 	c #E17300",
"V 	c #F16600",
"W 	c #FD5300",
"X 	c #FF5700",
"Y 	c #FF5300",
"Z 	c #FD4E00",
"` 	c #FF4E00",
" .	c #FA4F00",
"..	c #E44A00",
"+.	c #D45000",
"@.	c #D36700",
"#.	c #D87400",
"$.	c #C16701",
"%.	c #C96900",
"&.	c #CF6B00",
"*.	c #A75700",
"=.	c #6F3A00",
"-.	c #502A00",
";.	c #382000",
">.	c #010500",
",.	c #1E1700",
"'.	c #512600",
").	c #726834",
"!.	c #756934",
"~.	c #6F6630",
"{.	c #6A612F",
"].	c #4D4623",
"^.	c #25220F",
"/.	c #050703",
"(.	c #090400",
"_.	c #321700",
":.	c #651F00",
"<.	c #832300",
"[.	c #832B00",
"}.	c #752B00",
"|.	c #6D2200",
"1.	c #6D1F00",
"2.	c #6B1F00",
"3.	c #6F2000",
"4.	c #882700",
"5.	c #AB3300",
"6.	c #D74200",
"7.	c #F84B00",
"8.	c #FD4D00",
"9.	c #FF4D00",
"0.	c #FE4B00",
"a.	c #FE5400",
"b.	c #FD6300",
"c.	c #EA6E00",
"d.	c #FC7900",
"e.	c #FB7500",
"f.	c #F26E00",
"g.	c #D66500",
"h.	c #CD5900",
"i.	c #BE4900",
"j.	c #A34700",
"k.	c #984B00",
"l.	c #995200",
"m.	c #9B5200",
"n.	c #9B5400",
"o.	c #995300",
"p.	c #995000",
"q.	c #9C4300",
"r.	c #A73400",
"s.	c #BC3E00",
"t.	c #D14600",
"u.	c #F65700",
"v.	c #FB5E00",
"w.	c #FD6100",
"x.	c #FE5600",
"y.	c #FF4800",
"z.	c #FF4900",
"A.	c #FC5700",
"B.	c #FC6F00",
"C.	c #FC7000",
"D.	c #EB6C01",
"E.	c #F87500",
"F.	c #FC7800",
"G.	c #F77100",
"H.	c #DE6700",
"I.	c #CD5C00",
"J.	c #C44C00",
"K.	c #AA4700",
"L.	c #9C4900",
"M.	c #9B5500",
"N.	c #995400",
"O.	c #994600",
"P.	c #A33200",
"Q.	c #B83D00",
"R.	c #CE4600",
"S.	c #736934",
"T.	c #6E6431",
"U.	c #625B2B",
"V.	c #463F1F",
"W.	c #18170D",
"X.	c #070300",
"Y.	c #2A1400",
"Z.	c #541900",
"`.	c #7A2200",
" +	c #9C3100",
".+	c #D04400",
"++	c #EC4A00",
"@+	c #E64500",
"#+	c #DE4200",
"$+	c #E34300",
"%+	c #F14800",
"&+	c #FB4F00",
"*+	c #FF5100",
"=+	c #FF5200",
"-+	c #E95300",
";+	c #FC5900",
">+	c #FD5A00",
",+	c #FE5B00",
"'+	c #FB5F00",
")+	c #FA5B00",
"!+	c #F85300",
"~+	c #F55F00",
"{+	c #F36800",
"]+	c #F37300",
"^+	c #F47600",
"/+	c #F46700",
"(+	c #F46900",
"_+	c #F37000",
":+	c #F36B00",
"<+	c #F45F00",
"[+	c #F64D00",
"}+	c #F84D00",
"|+	c #FB4E00",
"1+	c #FD4B00",
"2+	c #FC4D00",
"3+	c #E54F01",
"4+	c #F05800",
"5+	c #FF5B00",
"6+	c #FC5F00",
"7+	c #FA5D00",
"8+	c #F95500",
"9+	c #F65C00",
"0+	c #F46500",
"a+	c #F37100",
"b+	c #F37600",
"c+	c #F46B00",
"d+	c #F46600",
"e+	c #F46F00",
"f+	c #F36D00",
"g+	c #F36400",
"h+	c #F54D00",
"i+	c #FA4C00",
"j+	c #726933",
"k+	c #6B6331",
"l+	c #595229",
"m+	c #3E3B1C",
"n+	c #0F0E06",
"o+	c #0D0400",
"p+	c #140500",
"q+	c #340E00",
"r+	c #812500",
"s+	c #D43F00",
"t+	c #FC5200",
"u+	c #FD5200",
"v+	c #FF4400",
"w+	c #FF3E00",
"x+	c #FF3A00",
"y+	c #FF3700",
"z+	c #FF3800",
"A+	c #E73B00",
"B+	c #FD4600",
"C+	c #FC4400",
"D+	c #FF4200",
"E+	c #E53F01",
"F+	c #F04000",
"G+	c #FD5400",
"H+	c #FD5900",
"I+	c #FC4800",
"J+	c #FF4100",
"K+	c #736834",
"L+	c #6E6532",
"M+	c #574F27",
"N+	c #2F2B13",
"O+	c #070601",
"P+	c #060100",
"Q+	c #160600",
"R+	c #3A1100",
"S+	c #B33600",
"T+	c #EC4400",
"U+	c #FF4500",
"V+	c #FF3F00",
"W+	c #FF3300",
"X+	c #FF2F00",
"Y+	c #FF2300",
"Z+	c #FF1300",
"`+	c #FF0B00",
" @	c #FF0A00",
".@	c #FF2200",
"+@	c #FF3C00",
"@@	c #E03600",
"#@	c #FD4500",
"$@	c #FE4C00",
"%@	c #FF3D00",
"&@	c #FF3600",
"*@	c #FF2B00",
"=@	c #FF3400",
"-@	c #FF4700",
";@	c #F03E00",
">@	c #746934",
",@	c #534B24",
"'@	c #302C15",
")@	c #090804",
"!@	c #050100",
"~@	c #250B00",
"{@	c #5F0F00",
"]@	c #D50F00",
"^@	c #FD1700",
"/@	c #FF0900",
"(@	c #FF0600",
"_@	c #FF0200",
":@	c #FF0000",
"<@	c #FF0C00",
"[@	c #FF0D00",
"}@	c #FF3900",
"|@	c #DE4500",
"1@	c #FF3500",
"2@	c #FF3100",
"3@	c #FF3000",
"4@	c #FF1400",
"5@	c #FF1000",
"6@	c #FF0F00",
"7@	c #FF0800",
"8@	c #FF1900",
"9@	c #FF1F00",
"0@	c #E54801",
"a@	c #F04A00",
"b@	c #736935",
"c@	c #746A34",
"d@	c #6B6130",
"e@	c #565028",
"f@	c #3C381B",
"g@	c #151409",
"h@	c #0E0000",
"i@	c #350000",
"j@	c #7A0300",
"k@	c #E60200",
"l@	c #FE0000",
"m@	c #FF2100",
"n@	c #FF4300",
"o@	c #EB5000",
"p@	c #FF3B00",
"q@	c #FF5600",
"r@	c #FF2A00",
"s@	c #FF1600",
"t@	c #FF1A00",
"u@	c #FF1800",
"v@	c #FF1200",
"w@	c #FF0100",
"x@	c #FF0300",
"y@	c #FF0500",
"z@	c #E54C01",
"A@	c #F05000",
"B@	c #FF4000",
"C@	c #FF5400",
"D@	c #FF1700",
"E@	c #FF1E00",
"F@	c #726833",
"G@	c #6C6230",
"H@	c #595128",
"I@	c #433E1E",
"J@	c #201D0E",
"K@	c #170000",
"L@	c #420000",
"M@	c #A00000",
"N@	c #F60000",
"O@	c #E32900",
"P@	c #FD2100",
"Q@	c #FF1B00",
"R@	c #E53401",
"S@	c #F02200",
"T@	c #FF0E00",
"U@	c #FF2000",
"V@	c #FF1100",
"W@	c #FF0400",
"X@	c #716733",
"Y@	c #6C6431",
"Z@	c #574E27",
"`@	c #312D16",
" #	c #14130A",
".#	c #280000",
"+#	c #550000",
"@#	c #950000",
"##	c #ED0000",
"$#	c #DD0C00",
"%#	c #FD0400",
"&#	c #E51001",
"*#	c #F00500",
"=#	c #706532",
"-#	c #625A2C",
";#	c #464020",
">#	c #222010",
",#	c #0A0903",
"'#	c #030000",
")#	c #270000",
"!#	c #590000",
"~#	c #960000",
"{#	c #EF0000",
"]#	c #DC0500",
"^#	c #FD0000",
"/#	c #E50301",
"(#	c #F00200",
"_#	c #716833",
":#	c #695F2F",
"<#	c #564E26",
"[#	c #373217",
"}#	c #17160A",
"|#	c #030300",
"1#	c #040000",
"2#	c #250000",
"3#	c #7B0000",
"4#	c #AD0000",
"5#	c #E20000",
"6#	c #DD0400",
"7#	c #E50401",
"8#	c #F00300",
"9#	c #706632",
"0#	c #61592B",
"a#	c #484120",
"b#	c #262311",
"c#	c #0E0D06",
"d#	c #7C0000",
"e#	c #B20000",
"f#	c #D20000",
"g#	c #F40000",
"h#	c #E50501",
"i#	c #706832",
"j#	c #6A6030",
"k#	c #564F27",
"l#	c #393519",
"m#	c #1B180D",
"n#	c #080603",
"o#	c #1D0000",
"p#	c #380000",
"q#	c #620000",
"r#	c #A80000",
"s#	c #DF0000",
"t#	c #DE0500",
"u#	c #FC0000",
"v#	c #E60501",
"w#	c #EF0300",
"x#	c #726934",
"y#	c #645B2D",
"z#	c #2F2A15",
"A#	c #151309",
"B#	c #050401",
"C#	c #100000",
"D#	c #370000",
"E#	c #6F0000",
"F#	c #D80000",
"G#	c #E20500",
"H#	c #E70501",
"I#	c #F40300",
"J#	c #736833",
"K#	c #6F6532",
"L#	c #60582A",
"M#	c #47411F",
"N#	c #272411",
"O#	c #111007",
"P#	c #040301",
"Q#	c #5D0000",
"R#	c #D70400",
"S#	c #D70000",
"T#	c #D60000",
"U#	c #DB0000",
"V#	c #FB0000",
"W#	c #E10000",
"X#	c #D50501",
"Y#	c #F70300",
"Z#	c #746A35",
"`#	c #736A33",
" $	c #6F6531",
".$	c #5C5429",
"+$	c #413B1D",
"@$	c #231F0E",
"#$	c #0C0C06",
"$$	c #7B0200",
"%$	c #900000",
"&$	c #8C0000",
"*$	c #8B0000",
"=$	c #8A0000",
"-$	c #980000",
";$	c #9A0000",
">$	c #990000",
",$	c #780000",
"'$	c #610000",
")$	c #600000",
"!$	c #660000",
"~$	c #800000",
"{$	c #880000",
"]$	c #6B0000",
"^$	c #6E0301",
"/$	c #910100",
"($	c #920000",
"_$	c #756A35",
":$	c #6D6231",
"<$	c #595027",
"[$	c #393419",
"}$	c #1C1A0C",
"|$	c #090904",
"1$	c #120000",
"2$	c #070000",
"3$	c #110000",
"4$	c #140000",
"5$	c #130000",
"6$	c #040100",
"7$	c #0A0000",
"8$	c #716734",
"9$	c #695E2E",
"0$	c #504923",
"a$	c #2F2C15",
"b$	c #1C1A0D",
"c$	c #100F07",
"d$	c #080703",
"e$	c #060704",
"f$	c #060502",
"g$	c #050402",
"h$	c #020101",
"i$	c #040400",
"j$	c #040402",
"k$	c #080804",
"l$	c #070602",
"m$	c #020201",
"n$	c #040401",
"o$	c #060602",
"p$	c #070703",
"q$	c #050502",
"r$	c #030301",
"s$	c #060603",
"t$	c #0A0904",
"u$	c #726733",
"v$	c #6F6631",
"w$	c #685E2E",
"x$	c #5E5629",
"y$	c #524B25",
"z$	c #3D381B",
"A$	c #282512",
"B$	c #242411",
"C$	c #221F0F",
"D$	c #1E1B0D",
"E$	c #19150B",
"F$	c #151209",
"G$	c #151208",
"H$	c #16130A",
"I$	c #1F1B0C",
"J$	c #201D0F",
"K$	c #252110",
"L$	c #2B2713",
"M$	c #2E2A15",
"N$	c #2E2B13",
"O$	c #262410",
"P$	c #17150A",
"Q$	c #141309",
"R$	c #131208",
"S$	c #141209",
"T$	c #121108",
"U$	c #110F07",
"V$	c #0B0A05",
"W$	c #0E0B05",
"X$	c #161207",
"Y$	c #211E0E",
"Z$	c #211F0E",
"`$	c #1B190C",
" %	c #141208",
".%	c #15130A",
"+%	c #1D1A0C",
"@%	c #242111",
"#%	c #292612",
"$%	c #2F2915",
"%%	c #2E2B15",
"&%	c #6B612F",
"*%	c #68612F",
"=%	c #655B2D",
"-%	c #524C25",
";%	c #514C23",
">%	c #4E4824",
",%	c #4A4321",
"'%	c #474220",
")%	c #463F20",
"!%	c #453F1E",
"~%	c #48421F",
"{%	c #4E4723",
"]%	c #524925",
"^%	c #584F27",
"/%	c #5C5329",
"(%	c #5F582B",
"_%	c #61582B",
":%	c #5E562B",
"<%	c #585027",
"[%	c #4E4722",
"}%	c #494320",
"|%	c #45401F",
"1%	c #46401F",
"2%	c #433D1E",
"3%	c #3D371A",
"4%	c #363117",
"5%	c #302D15",
"6%	c #382C14",
"7%	c #403319",
"8%	c #4A4421",
"9%	c #4F4823",
"0%	c #4B4421",
"a%	c #46411F",
"b%	c #4D4622",
"c%	c #514924",
"d%	c #544D26",
"e%	c #5A5328",
"f%	c #60562A",
"g%	c #6F6632",
"h%	c #6A6130",
"i%	c #6D6431",
"j%	c #5C5529",
"k%	c #625B2D",
"l%	c #655E2F",
"m%	c #665D2D",
"n%	c #68602E",
"o%	c #6A6031",
"p%	c #706433",
"q%	c #6F6431",
"r%	c #6C6331",
"s%	c #6B6031",
"t%	c #6B6131",
"u%	c #685F2E",
"v%	c #62582B",
"w%	c #5C552A",
"x%	c #595329",
"y%	c #614A24",
"z%	c #624D27",
"A%	c #5F582C",
"B%	c #6E6331",
"C%	c #6F6533",
"D%	c #706731",
"E%	c #69602E",
"F%	c #655D2F",
"G%	c #6B6332",
"H%	c #706732",
"I%	c #756B35",
"J%	c #746935",
"K%	c #6B612E",
"L%	c #68602F",
"M%	c #686131",
"N%	c #70552A",
"O%	c #6D582B",
"P%	c #665E2F",
"Q%	c #645D2D",
"R%	c #69602F",
"S%	c #645C2E",
"T%	c #6A6231",
"U%	c #6B6230",
"V%	c #6E6531",
"W%	c #706631",
"X%	c #675E2E",
"Y%	c #665E2E",
"Z%	c #686130",
"`%	c #70552B",
" &	c #6F572B",
".&	c #665D2F",
"+&	c #675F2E",
"@&	c #6F6733",
"#&	c #5B5429",
"$&	c #645C2C",
"%&	c #696230",
"&&	c #706633",
"*&	c #696030",
"=&	c #665C2D",
"-&	c #655F2F",
";&	c #6D582C",
">&	c #6C582C",
",&	c #635B2E",
"'&	c #695F30",
")&	c #5A5329",
"!&	c #625C2D",
"~&	c #6C6231",
"{&	c #6A602F",
"]&	c #665E2D",
"^&	c #6A592B",
"/&	c #69592D",
"(&	c #645B2E",
"_&	c #6D6331",
":&	c #585129",
"<&	c #635A2D",
"[&	c #655C2D",
"}&	c #675C2D",
"|&	c #665C2C",
"1&	c #655C2E",
"2&	c #675E2F",
"3&	c #635B2D",
"4&	c #685F30",
"5&	c #675F2F",
"6&	c #685E2F",
"7&	c #685F2D",
"8&	c #6F6530",
"9&	c #736A35",
"0&	c #6D6432",
"a&	c #6B6330",
"b&	c #6B622F",
"c&	c #716732",
"d&	c #756A36",
"e&	c #756B36",
"f&	c #766C35",
"g&	c #776C35",
"h&	c #766D36",
"i&	c #776D36",
"j&	c #786D37",
"k&	c #786E37",
"l&	c #776B34",
"m&	c #5B542B",
"n&	c #6E6632",
"o&	c #756B34",
"p&	c #6E6433",
"q&	c #6B632F",
"r&	c #6D6232",
"s&	c #786D36",
"t&	c #776C36",
"u&	c #766C36",
"v&	c #746432",
"w&	c #756432",
"x&	c #746733",
"y&	c #706431",
"z&	c #736A34",
"A&	c #756C36",
"B&	c #706533",
"C&	c #6E6332",
"D&	c #736932",
"E&	c #776C34",
"F&	c #796E37",
"G&	c #5E552A",
"H&	c #5B5428",
"I&	c #5C522A",
"J&	c #5C542A",
"K&	c #5A5228",
"L&	c #554D26",
"M&	c #544C26",
"N&	c #524A25",
"O&	c #4C4521",
"P&	c #474120",
"Q&	c #46401E",
"R&	c #453F1F",
"S&	c #423B1C",
"T&	c #443E1E",
"U&	c #595228",
"V&	c #48431F",
"W&	c #484321",
"X&	c #4C4522",
"Y&	c #4D4724",
"Z&	c #4B4520",
"`&	c #3E381B",
" *	c #3B3519",
".*	c #37341A",
"+*	c #413C1E",
"@*	c #484221",
"#*	c #504825",
"$*	c #514A25",
"%*	c #504924",
"&*	c #4E4823",
"**	c #4D4823",
"=*	c #534221",
"-*	c #544321",
";*	c #514723",
">*	c #4E4622",
",*	c #4F4922",
"'*	c #3E391B",
")*	c #3A351A",
"!*	c #383318",
"~*	c #3A3519",
"{*	c #3F391C",
"]*	c #423C1F",
"  . . . . . . . .   . + @ # $ % & * + = *   . . . *   - ; > , ' ) ! * . . . . . . . .                     . . . . *   ! ~ { ] ^ / (   * . . . . . . . . . . .                     . ",
"_ : < . . . . . . . . . . .     . . . . . . . * * [ } | 1 2 3 4 5 6 7 8 9 0     * * . . . . . . . . . . . . *     a b c d e f g h i j k l m n o p !   * * . . . . . . . . . . . . * ",
"q r s t u . . . . . . . . * * * * * * * * * v w x y z A B C D E g F G H I J K L M N O                 * P Q R S T U V W X Y Z 1 B `  ...+.@.#.$.%.&.*.=.-.;.>.                + ,.'.",
").!.~.{.].^./.. . . . (._.:.<.[.}.|.1.2.3.4.5.6.7.8.2 2 9.9.2 C 0.a.F b.c.d.e.f.g.h.i.j.k.l.m.n.n.o.p.q.r.s.t.u.v.w.x.y.y.z.C 2 9.9.B 8.A.B.C.D.E.F.G.H.I.J.K.L.p.l.n.M.n.N.O.P.Q.R.",
").).S.S.T.U.V.W.. . . X.Y.Z.`. +.+++@+#+$+%+i &+E *+*+=+Y Y A 9.h 1 Z C -+;+>+,+'+)+!+~+{+]+^+/+(+_+:+<+[+}+|+9.2 B 2 2 9.` 9.A E A 9.1+2+3 Y 3+4+5+5+6+7+8+9+0+a+b+c+d+e+f+g+h+}+i+",
").).).).S.j+k+l+m+n+.   X.o+p+q+r+s+h t+u+E 9.2 C v+w+x+y+z+v+` ` 9.2 A A+B+2 2 2 9.9.1 1 3 ;+C+D+A ` ` ` A A ` 9.` E E ` 2 9.y.v+C ` A ` 2 9.E+F+C 2 2 9.9.8.1 G+H+I+J+9.` 9.9.A A ",
").).).).).).S.K+L+M+N+O+. . . P+Q+R+S+T+v+U+V+W+X+Y+Z+`+ @ @.@x++@C 9.E @@#@9.9.2 2 9.$@$@2 $@0.2 9.9.` 9.C B B 2 C U+U+%@&@+@*@Y+=@v+-@z.2 A E+;@B 9.2 2 9.2 $@B 2 $@B 2 9.` ` B B ",
").).).).).).).S.>@S.{.,@'@)@. . . !@~@{@]@^@Z+`+/@(@_@:@:@:@(@<@[@}@` ` |@h 2 2 9.` ` ` ` 9.B 9.2 2 2 9.C 1@2@W+U+3@4@5@6@`+[@7@(@`+8@9@1@9.A 0@a@9.2 9.` ` ` ` 9.2 9.9.2 2 9.A y+W+",
").).).).).).).).).b@c@b@d@e@f@g@. . . h@i@j@k@l@:@l@:@:@:@:@:@:@:@m@n@=+o@W z+p@q@Y =+Y g q@B n@+@r@s@t@u@[@`+<@v@`+_@:@w@:@:@:@:@:@x@y@Y+2 Y z@A@B@z+A C@=+Y Y q@` U+w+X+D@8@E@[@<@",
").).).).).).).).).).).F@F@S.G@H@I@J@. . . K@L@M@N@l@:@:@:@:@:@:@:@7@Z+9@O@P@6@5@t@8@Y+8@t@t@s@Z+5@/@w@_@_@:@:@:@:@:@:@:@:@:@:@:@:@:@:@:@/@Q@x+R@S@v@T@D@t@U@8@8@t@D@4@V@`+w@_@W@:@:@",
").).).).).).).).).).).X@X@K+>@F@Y@Z@`@ #. . * .#+#@###l@:@:@:@:@:@:@:@x@$#%#:@:@:@:@y@:@:@:@:@:@:@:@:@:@:@:@:@:@:@:@:@:@:@:@:@:@:@:@:@:@:@_@5@&#*#:@:@:@:@x@:@:@:@:@:@:@:@:@:@:@:@:@",
").).).).).).).).).).).).).).).F@S.=#-#;#>#,#. . '#)#!#~#{#l@:@:@:@:@:@:@]#^#:@:@:@:@:@:@:@:@:@:@:@:@:@:@:@:@:@:@:@:@:@:@:@:@:@:@:@:@:@:@:@:@:@/#(#:@:@:@:@:@:@:@:@:@:@:@:@:@:@:@:@:@",
").).).).).).).).).).).).).).).).).)._#:#<#[#}#|#. '#1#2#3#4#5#l@:@:@:@:@6#^#:@:@:@:@:@:@:@:@:@:@:@:@:@:@:@:@:@:@:@:@:@:@:@:@:@:@:@:@:@:@:@:@:@7#8#:@:@:@:@:@:@:@:@:@:@:@:@:@:@:@:@:@",
").).).).).).).).).).).).).).).).).).).F@9#0#a#b#c#. . * K@i@d#e#f#g#:@:@]#^#:@:@:@:@:@:@:@:@:@:@:@:@:@:@:@:@:@:@:@:@:@:@:@:@:@:@:@:@:@:@:@:@:@h#8#:@:@:@:@:@:@:@:@:@:@:@:@:@:@:@:@:@",
").).).).).).).).).).).).).).).).).).).).S.i#j#k#l#m#n#. . * o#p#q#r#s#:@t#u#:@:@:@:@:@:@:@:@:@:@:@:@:@:@:@:@:@:@:@:@:@:@:@:@:@:@:@:@:@:@:@:@:@v#w#:@:@:@:@:@:@:@:@:@:@:@:@:@:@:@:@:@",
").).).).).).).).).).).).).).).).).).).).).x#).9#y#].z#A#B#. . . C#D#E#F#G#l@:@:@:@:@:@:@:@:@:@:@:@:@:@:@:@:@:@:@:@:@:@:@:@:@:@u#^#^#^#:@:@:@:@H#I#:@:@:@:@:@:@:@:@:@:@:@:@:@:@:@:@:@",
").).).).).).).).).).).).).).).).).).).).).).K+c@J#K#L#M#N#O#P#. . . C#Q#R#l@l@l@l@l@l@l@^#l@l@l@l@l@l@l@l@l@l@l@l@l@l@l@l@^###S#T#T#U#g#l@V#W#X#Y#l@l@l@l@l@l@l@l@l@l@l@l@l@l@l@l@l@",
").).).).).).).).).).).).).).).).).).).).).).).).S.Z#`# $.$+$@$#$* . . * $$%$&$*$*$&$&$&$=$*$-$;$;$;$;$;$;$;$;$;$;$>$&$*$&$*$,$q#'$)$!$~$&${$]$^$/$&$&$*$&$&$&$*$&$($;$;$;$;$;$;$;$;$",
").).).).).).).).).).).).).).).).).).).).).).).).).).b@_$>@:$<$[$}$|$. . 1$2$* * * * * * * * 3$4$4$4$4$4$4$4$4$5$4$1$* * * * * * * * *     ! |#6$h@* * * * * * * * 7$4$4$4$4$4$4$4$4$",
").).).).).).).).).).).).).).).).).).).).).).).).).).).8$X@c@>@9$0$a$b$c$d$e$f$g$h$    * i$j$f$k$)@|$|$|$|$|$,#l$j$    .           * . .   m$n$|#o$p$q$r$!   * P#g$s$d$)@|$|$|$|$|$t$",
").).).).).).).).).).).).).).).).).).).).).).).).).).).).).).u$v$w$x$y$z$A$B$C$D$E$F$G$H$I$J$K$L$M$a$a$a$a$a$N$O$D$P$Q$R$Q$Q$Q$Q$Q$S$T$U$c#V$W$X$Y$O$Z$`$H$ %.%+%J@@%#%$%a$a$a$a$a$%%",
").).).).).).).).).).).).).).).).).).).).).).).).).).).).).).).K#&%*%w$=%-%;%>%,%'%)%!%~%{%]%^%/%(%_%_%_%_%_%:%<%[%}%|%!%1%1%1%1%1%V.2%3%4%5%6%7%8%-%9%0%;#!%a%b%c%d%e%f%_%_%_%_%_%:%",
").).).).).).).).).).).).).).).).).).).).).).).).).).).).).).).g%h%j#{.i%j%k%l%m%n%d@o%h%G@T.g%p%r X@X@X@X@X@9#q%r%G@h%s%t%t%t%t%t%d@u%v%w%x%y%z%A%k%m%{.d@o%d@G@i%B%C%D%X@X@X@X@X@r ",
").).).).).).).).).).).).).).).).).).).).).).).).).).).).).).).g%h%E%h%r%.$F%G%i%H%I%I%I%Z#J%b@b@S.S.S.S.S.S.b@b@Z#_$I%I%I%I%I%I%I%I%q K%L%M%N%O%P%Q%E%x#I%I%I%Z#Z#b@b@b@S.S.S.S.S.S.",
").).).).).).).).).).).).).).).).).).).).).).).).).).).).).).).g%h%R%h%r%.$S%T%U%V%).).).).).).).).).).).).).).).).).).).).).).).).).W%X%Y%Z%`% &.&S%+&@&).).).).).).).).).).).).).).",
").).).).).).).).).).).).).).).).).).).).).).).).).).).).).).).g%h%R%h%r%#&$&T%%&T.).).).).).).).).).).).).).).).).).).).).).).).).).&&*&=&-&;&>&m%,&'&X@).).).).).).).).).).).).).).",
").).).).).).).).).).).).).).).).).).).).).).).).).).).).).).).g%h%R%h%k+)&!&T%j#~&).).).).).).).).).).).).).).).).).).).).).).).).).&&{&.&]&^&/&(&Q%{.X@).).).).).).).).).).).).).).",
").).).).).).).).).).).).).).).).).).).).).).).).).).).).).).).g%h%R%h%_&:&<&T%h%_&).).).).).).).).).).).).).).).).).).).).).).).).9#W%B%E%[&}&|&1&2&r%X@).).).).).).).).).).).).).).",
").).).).).).).).).).).).).).).).).).).).).).).).).).).).).).).g%h%R%h%_&l+3&T%h%_&).).).).).).).).).).).).).).).).).).).).).).).).X@K#~&4&5&X%6&7&h%L+X@).).).).).).).).).).).).).).",
").).).).).).).).).).).).).).).).).).).).).).).).K+S.K+K+K+K+X@8&d@R%h%_&l+3&T%h%_&).).S.c@Z#9&Z#S.).).K+K+K+K+S.S.K+).).).).).).).X@0&R%{.a&b&'&6&U%K#c&).).S.S.Z#9&Z#b@S.).S.S.S.S.",
"b@d&I%e&e&e&e&e&e&e&e&e&e&e&e&e&e&e&e&I%f&g&h&i&j&k&j&j&j&j&l&F@&&T.V%=#m&X%n& $c&o&Z#K+p&r%q&r&u$>@g&j&j&j&j&k&k&s&t&u&h&h&h&h&h&Z#q%V%j+v&w&x&y& $z&A&I%Z#K+B&C&q&B%=#D&E&k&k&F&F&",
"y#G&H&I&J&J&J&J&J&J&J&J&J&J&J&J&J&J&J&K&L&M&N&O&P&Q&P&P&P&P&R&2%S&T&b%U&V&W&].X&Y&c%Z&)%`& *.*3%+*R&P&P&P&P&P&Q&;#@*b%#*$*$*$*$*$*%*&*&***=*-*;*9%>*{%0$,*0%V.'*)*!*~*{*]*R&Q&Q&2%2%"};
