/* XPM */
static char * level_background_xpm[] = {
"90 32 55 1",
" 	c #202201",
".	c #212301",
"+	c #232503",
"@	c #222403",
"#	c #242604",
"$	c #232504",
"%	c #222402",
"&	c #1F2101",
"*	c #1F2100",
"=	c #212302",
"-	c #202200",
";	c #1E2000",
">	c #252704",
",	c #262806",
"'	c #252705",
")	c #242605",
"!	c #212200",
"~	c #232500",
"{	c #222404",
"]	c #242603",
"^	c #262702",
"/	c #222600",
"(	c #272907",
"_	c #292B09",
":	c #282A08",
"<	c #252706",
"[	c #272903",
"}	c #242600",
"|	c #2C2E0C",
"1	c #2B2D0B",
"2	c #2A2C0A",
"3	c #272902",
"4	c #252700",
"5	c #252701",
"6	c #252801",
"7	c #202202",
"8	c #262903",
"9	c #262901",
"0	c #242700",
"a	c #262902",
"b	c #222400",
"c	c #262803",
"d	c #212400",
"e	c #212300",
"f	c #212500",
"g	c #232600",
"h	c #262801",
"i	c #252902",
"j	c #222500",
"k	c #262807",
"l	c #212303",
"m	c #222501",
"n	c #222300",
"o	c #1E2100",
"p	c #1F2000",
"          .++@@@@@@#####$$%&&*************=--;;;==>####,,,,,,,,,,,'')##########@@@@@+==   ",
";;;;;;;;;;;;;;;;;;;;;;;;;;;;;;;;;;;;;;;;;;;;;;;;;;;;;;;;;;;;;;;;;;;;;;;;;;;;;;;;;;;;;;;;;;",
"--;;;*  && ********;;;;;***  %%@@@@@@%% &&*;;**********;;;;;;;;;;;;;;***********     !!-;;",
"~~;**%##$$$@@@@@@@%=====%%+##''''''''''###%%%%%{@@@{{%%%%%%%%%%%%%%%%%%{@@@@@@@]#####^^/;;",
"~~;--(_________________________________:::((((((((((((((((((((((((((((((((((((((((,,<[[};;",
"~~;.._|||||||||||||||||||||||||||||||111221111111111111111111111111111111111111122::<[[};;",
"~~;.._||||||||||||||||||||||||||||||||||||||||||||||||||||||||||||||||||||||||||11((<[[};;",
"~~;.._||||||||||||||||||||||||||||||||||||||||||||||||||||||||||||||||||||||||||11((<[[};;",
"~~;.._||||||||||||||||||||||||||||||||||||||||||||||||||||||||||||||||||||||||||11((<[[};;",
"~~;.._||||||||||||||||||||||||||||||||||||||||||||||||||||||||||||||||||||||||||11((<[[};;",
"~~;.._||||||||||||||||||||||||||||||||||||||||||||||||||||||||||||||||||||||||||11((<33};;",
"~~;.._||||||||||||||||||||||||||||||||||||||||||||||||||||||||||||||||||||||||||11((<334**",
"~~;.._||||||||||||||||||||||||||||||||||||||||||||||||||||||||||||||||||||||||||11((<335**",
"~~*.._||||||||||||||||||||||||||||||||||||||||||||||||||||||||||||||||||||||||||11((<336**",
"~~*.._||||||||||||||||||||||||||||||||||||||||||||||||||||||||||||||||||||||||||11((<33377",
"~~*.._||||||||||||||||||||||||||||||||||||||||||||||||||||||||||||||||||||||||||11((<338--",
"~~*.._||||||||||||||||||||||||||||||||||||||||||||||||||||||||||||||||||||||||||11((<339**",
"~~*.._||||||||||||||||||||||||||||||||||||||||||||||||||||||||||||||||||||||||||11((<330;;",
"~~*.._||||||||||||||||||||||||||||||||||||||||||||||||||||||||||||||||||||||||||11((<aab;;",
"~~*.._||||||||||||||||||||||||||||||||||||||||||||||||||||||||||||||||||||||||||11((<ccd;;",
"~~*.._||||||||||||||||||||||||||||||||||||||||||||||||||||||||||||||||||||||||||11((<cce;;",
"~~*.._||||||||||||||||||||||||||||||||||||||||||||||||||||||||||||||||||||||||||11((<ccf;;",
"~~*.._||||||||||||||||||||||||||||||||||||||||||||||||||||||||||||||||||||||||||11((<33g;;",
"~~*--:||||||||||||||||||||||||||||||||||||||||||||||||||||||||||||||||||||||||||11((<33h**",
"~~*--:||||||||||||||||||||||||||||||||||||||||||||||||||||||||||||||||||||||||||11((<33h**",
"00*--:||||||||||||||||||||||||||||||||||||||||||||||||||||||||||||||||||||||||||11((<338**",
"44---:||||||||||||||||||||||||||||||||||||||||||||||||||||||||||||||||||||||||||11((<33[==",
"44---:||||||||||||||||||||||||||||||||||||||||||||||||||||||||||||||||||||||||||11::<33[==",
"44---:|||||||||||||||||||||||||||||||111222222222222222222222222__________::::::__,,'33i&&",
"jj*;;,__:::__(((kkkkk((((((((((::::::,,''''''''#$$$$$$$$$$$$$$$#ll%%%%%%  ----------7mmn;;",
"**o;; ==...==-*********--------      **********;;;;;;;;;;;;;;;;;;;;;;;;;;;;;;;;;;;;;;;;;**",
";;p**;;;;;;;;;;;;;;;;;;;;;;;;;;;;;;;;;;;;;;;;;;;******************************************"};
