/* XPM */
static char *single_playerh_xpm[] = {
/* columns rows colors chars-per-pixel */
"294 35 61 1",
"  c None",
". c #14C3E1",
"X c #FBFEFF",
"o c #3ECFE8",
"O c #0EC0DF",
"+ c #10BDDC",
"@ c #F93535",
"# c #FF2F2E",
"$ c #FF3131",
"% c #A1E7F3",
"& c #E1F8FB",
"* c #966E7B",
"= c #22C8E4",
"- c #1ABFDC",
"; c #16BAD7",
": c #24B0CC",
"> c #1BB5D2",
", c #F6FDFE",
"< c #A06875",
"1 c #34CDE7",
"2 c #1BC6E3",
"3 c #F1393B",
"4 c #29CAE6",
"5 c #63D8EC",
"6 c #F0FBFD",
"7 c #DBF6FB",
"8 c #718395",
"9 c #7F7B8C",
"0 c #429EB6",
"q c #2DAAC5",
"w c #5394AA",
"e c #E93E41",
"r c #C85158",
"t c #B8EDF6",
"y c #8E7381",
"u c #C1EFF7",
"i c #ABEAF5",
"p c #4A99B0",
"a c #67899C",
"s c #57D5EA",
"d c #CEF3F9",
"f c #38A4BD",
"g c #D4F4FA",
"h c #A9636E",
"j c #4BD2E9",
"k c #E04347",
"l c #86E0F0",
"z c #B45D66",
"x c #E9FAFC",
"c c #C0565E",
"v c #8FE3F1",
"b c #5C8FA4",
"n c #D04D53",
"m c #D8484D",
"M c #C8F1F8",
"N c #9AE5F2",
"B c #7EDFEF",
"V c #78DDEE",
"C c #6CDAED",
"Z c #73DCEE",
"A c #79A2B3",
/* pixels */
"                                                                                                                                                                                                                                                                                                      ",
"                                                                                                                                                                                                                                                                                                      ",
"                                                                                                                                                                                                                                                                                                      ",
"                                                                                                                                                                                                                                                                                                      ",
"             X,,,                   ,,X X                        X,X             ,,,                    X6,                         ,6                                                     X,,                  X,                   X                              ,6                                ",
"         Xg%lZ55CBvt&X   M%%%%%%%NlB5V&&Zl%%%%%vi      &vv%%%%%vlCB&        xtNlV555Vviu&X   Xt%%%%%%%vBC5i       g%%%%%%%%%%%%%NllZ55d                   Xt%%%%%%%%%vN%tg,     Xt%%%%%%%vBC5t              ,gtvZ5BM     &%%%%%%%%NlBZdtBlv%%%%%Nvi%%%%%%%%%%%%%NlBZ55g  x%%%%%%%%%Nv%%Mx             ",
"       ,u54->:qq:>;21V6 ,5O------->>+1&iO;-----+4u     t.+-----;>+17     ,Mlo2;::qq:>>-=1ju  6o-------;>;ON      XB.------------;>>::+C,                  &o---------;;-24j%x   &o-------;>;.%              %42;:>Ov     i.-------;>>+5s+>;-----;O2.------------;>>::+V, i.--------;;--=oBd           ",
"      xB2>wyznkmnc<90-N xjq***yy*<zhfo6B+yh***<9>jx    N+8<****hhqjx    7Z2;p9<cnmmnchy8w>jx g=0***y*<hc8-i      ,s:y<***yy****<hhzrzqj6                  M40<**y**<<hh*9b:.jM  M=p<**y*<hca2t             6j>8<r*;l    Xl+9<**y*<hzhf=1qzh<****y>O:*<***yy****<hzzrc>s6 l+9<**y**<hh<y80+4%,         ",
"     xC+wc3##@@#####<;B 710e@$####@rfjXs:c@####@8OlX  ,Z;c@####$rqs6  Xto;wze##########$mfo& t283@####$38=t      610k@##############r:5                   i29@@####$$####3n8>od i.9@@####$e8=M             M2a@##mqs6   ,5>n######$3rf240k@#####r:O0e@##############c>VXX5>c@$###$@@$##$k<f2vX        ",
"    ,V+8e#3zy88yc@$#*.% 7o>wbz$$$maq+5XC+qb<@$$#k0=t  XZ+pbz$$eyf+5   %=q<3#$kz<*y<zk$$#nqsX t2qw9e$$@hp>=M      6o>pam$$$r****<zk$#h;v                   t2qw9e$$ey9yhn@##@<>j6i2qw9e$$@<0>=g            XV;h#$$@w4d   XZ+p9r$$$$z0>+1j+q83$$k*0+O:wam$$$r****<ze$$<;% X5;0wz$$$zba9hk$#$nf=u        ",
"    M=pe#e8>.22.:<$@82M Xv==.8@$$yOoCi &Vj2>c$$$$z:o&  u12.b$#<;15i  M4qc$$m9f>....;0z$#z;l  ,V=.;r##kf2sBx       N=2O*$$@wO....;b3#y.i                   6C=.:r##n>..+q8k$$@8.i6C=.:r##mq2sB6            710e$$$$yOi    Mj4.fc$$$9OoCiu5.qe#kbO45s=2;<#$3pO....>ae#92t  Mo=.b@$#9O2.+0z$$#z>C        ",
"   XB;z#$yOsiMMN4033w4x  ,6M4a@$@a27XX  X,v;<$$$$$9+Z, X6M1p$$92iXX 7j:z$$r0OoV%%%%Z=fe#*.i   ,xB+c##r:5,X        X6tOy$$e01Ni%%o:n$82M                    ,6Z:c##r+5ivo.be$#r>5X,xC:c##r>C6X             %-9#nc##n>5,    6xN=pe##c>56X vO9$@8OZ&,,6N-*#$3qoN%%Noqn#a4M   6g1w@$#8=%tC2qr#$epo&       ",
"   ,jfk#@a2d   6sqeefo6    74a@$3b2&      N;h$@$$$ew2i   71p$$8=d  Xl+y$#k02l&     ,C:n$92M     l;r##c>V            uOy$$efj6   Z:r3a=7                      B:c##c+l  &s>z##k0o,  V:c##c+l              6s:n$9a@#e01x      XZ+<$$3w4M 7oqn#z>sx    i-*#$e:s6   5qn@w17    &1w@$$a4M XlO9$$$a4d       ",
"   ,1we$$y.Z7  xsqem:s6    74a@$3w2&      N;h#ch$$$rq1d  71p$@84g  x10e#@9.lX      ,5:n@a=7     l;r##z;V            uOy$$kfjx  ,5>88q46                      B:c##zOv   %.y$$3w1x  V:c##zOv              u2b@efqk#$92t       g4fk$$h;V,l+y$k04u     i-*#$e:s6  Xj:88:ox    &1w@$@b1g  g.a@$$a4d       ",
"   ,1pe$#kwOoi6xj>aw+C,    74a@$3p1x      N;z#<fm#$$*;s6 71p$@a4g  i.*$#kfox       ,5;ba:=x     l;r##hOv            uOy$#mfsX  65OO..j6          XX,6gi&     B:c#$hOi   u29$#ew16  V:r#$hO%              V;h#z>+z$#z;B        l+y$$3p4%4fk$y+lX     i-*#$k:5,   jOO..56    &1w@$3w1&  M.8@$epo6       ",
"   Xs:n#$$e9q.jivo41ovX    74a@$30ox      B>c#<Obe$$3a.v 71p$@a4g X5qr##c+B        ,C2=41j6     l;r##h.N            uOy$#nqjuuiNo==N7x    6&gdu%vZso4=.56    B:c#$<Oi   i.y$#mqsX  V:r#$*Oi             710k$8OO8$$kfjx       71fm#$h;=;<#n:1&      i-*#$m>suuiN1==%7x     &1w@$3w1& ,V+<$#c:5        ",
"    i.a3$$$@ra:.slt7xX     74a@$efox     XV>c#<O;y@$#mf=u71p$3b4g xope$$*Ot     XXX,MiuM7&x     l;r##<.N            uOy$#nqOOO+++;+j&    d5o42O++;:fpa02i    B:c#$*Oi  ,5;z#$<+v   V:r#$yOi             %.9#mf41fe$$a=u        lOy$#epOwe@a.%       i-*#$n:OOO+++;+sx      &1w@#ep4iuV2pk#3b2u        ",
"    xs;8k#$$#@r8:2sM       74a@$efox     XV>r#<O.:z$$$z>ju1p$3b47 g1b$$$9OM    t555555555oC6    l;r#$*.t            uO*$$eh****hccp=g    i.qw8y<znmke@y-%    B:c#$yOlgdZ.we#kf17   V:r#$yOu            6s:n#<+vV>z#$<+v        &oqm$$<:z#z>s6       i-*#$e<****hcr01g      &1w@#epO2=+pn#39+Z,        ",
"     gs+pc@$$$#@ra>4%X     74a@$eqj6     XV>n#<.C=0m$$@9+j4p$3w46 M48$$$9OM   XZ+::>>>>:q>17    l;r#$y.u            uO*$$$$$$$$$#efo6    v;<$$$#######92t    B:c#$yOO.2+0r#ea.vX   V:r#$9.d            M2b@3w.Cs.9$$m:s6        NO9$$e<@ep=u        i-*#$$$$$$$$#kfj6      &1w@$@zy98*e$ma;s&         ",
"      xB=:8n@#$$#3hq=%     74a@$e:5,     XV:m#*.tv.a3$$ewO.p$ew1, t29$$$yOM   6j:cnnnnnnmb2u    l;r#$9.u            uO*$$3c<**<<hy;CX    V>z#@3ekmrz*9f=u    B:c#$khy8a<k#ka+C6    V:r#$8.d            B+h#mq;;;;be#3b=g        &oqn#$$$*+VX        i-<#$ez<**<<h9>V       &1b@$$###$#@<f.s7          ",
"    6x7MZ4.:8r@$$$$cq17    74a@#e>5,     ,5:k$*.t6s;*$$$nqOp$ep1, u=8$$$<Oi   x4pe$$####mf=u    l;r#@9.u      Xx76  uO*$#z:+++++++O%     Z;a98b0q>;++.=j7    B:r#$##$$@$3h0.5&     V:r#@8.d      Xx76 &10k#khhhhzr@$$*ON         N.9$$$kf17         i-<#$z>+++++++.%       &1b@$3zhhe$@9Osx           ",
"   X5o1425ij.q8m$$$$<;B    74a@#k>5,     6s:k$*.t d1qr$$$h;p$ep1, d4a$$#c+B   x1>ppwy3$$*.l,    l;r#@9.u    u5jo1%  u+*$#z;5tttt%vldxx,  M1.2==oj5BviuM7X    B:r#$nhhh<80;=vx      V:r#@8.d    u5jooi %.9$$@@33333@$#r:s,        &1fe$#z>B          i-<#$h;CttttNvvdx&,    &1b@#m0+;y$#k04M           ",
"   ,1>ww;C 6ij.fc$$#kfj,   74a@$m>5,     6s:e$*.t  i2we$$@8p@e01, &op3$#kqj6  Xv1112>n#@82d     l>r#@8.u    B+q0>o6 u+*$#h;l     75j1=V6  diugx6,,X          B:r#@8;;;-=oBdX       V:r#@a.d   ,Z+f0>s7s:r#m9bwpppp9@$3w4M        XZ;n$#*-%          i-<#$<;N     M5jo=B,   &1b@#mf=1qn#$z>jx          ",
"   ,1penqC   &v2qn$$3pox   74a@$m>5,     6s:3$*.t  ,V+9@$$ky@k01, X5qn#$@82i   6gggC+r#3b=x     l>r#@8.u   6s:rm01x u+*$#h;l     iO:0q.i                     V:r#@8Oliiu7          V:r#@a.d   6jqrkqjt=w@$9O2=ooo=qk$$y+N        Xv;c$#y2t          i-<#$<+N     %O:0q2u   &1b@#mqj%.8@$@8Ov          ",
"   ,1w3mq5X   XvO*$$e0j6   M=8@$n>C,     6sq3$y.t   &j>z$$$@$kfj,  N-y$$#c:o7      B+r#3b=x    XZ>r#@8.M   74p@e:s6 i+*$#h-v     l+h38.t                     5:r#@a=7              5:r#@a.g   7=b@k:5V+h#ef1gx666B;h#$n:s6        l;c$#92t          N;<#$*+%    XB>zea.M   &=b@#nqs6j>z$#k04u         ",
"   &4b3e0o7   ,lO<$#rq5    u28$$n>l      6jf3$y.t    t=0m#$$#kfsX  &1fk#$$y+jMX   ,V+r#3w=x     5>r#@827 XX%O9$n;ZX %+*$#<-% XXXxj:m$w1g                     s:r#@a=g              s:r#@a47 XXvOy$c>51fk#z;B     u=8@$3w=d        v;c$#92t          v;<#$*-i XXX&jqe304&   7.b@#nqC t2w3$$z>o&        ",
"   g=a@$8.5%iN52fm#@9.%  x7v29$$m>5%lt X7t403$y.VNM  Xv.a3$$#mqsX   vO9@$$39>=svNv5=+n#3b=x   &Mj:n#@9.5lV5=qn#h;v7dZ+h$#h-svVVCo.a@kfj6                  X7uoqn#@8OBN%&        X&doqm#@8.ClV5=fn#<;=-y$$8.luu7&dt40k#$<;jiM,  ,&d5;n$#9.ZN%x    X7d5;z$$*-svVVCoO8@e:s6 &Mv.8@#mqouMC;<$$@9+sug6     ",
"   u29$$mp;+++;wc$$z:j6 xZ4.:c#$ef+++ox&j2+y$$<++O1u  6s;<$$#mqsX   xs>y@#$@hw>+++>py3#@a=&  6s2Obe$$zq+++>0h@$y+vj=Ofm$#rf++++;qam#nq5                   dj.+a3$$*+++OlX       &s2Oa3$$z:+++>0z$#9O+be$$8OOOOoj=2O0k#$e8;+2i  to=Ow3$#h>++OVX   go=O0k$$cq++++;q8k#n>VXXZ.O:z$$ewOO4N4fm#$e8;24V6    ",
"   %.y#$$ec<*hre#3<q4t  g4:9r@$$$n<<p=Md.0h3$$eh<b+v   M1qr$#m:sX    go;9k$#$3mczcne$##3a2M  g=f*k$$$@krcrme$$$8=l20ym$$$@krccrnk3$#z>l                   i.phe$$$3zh*:s6       u=f*e$$$@mrcrme$$$a><e$$$k<990OO:8*n$$$$3c9;CX B+p*k$$$3ch<:j6   uO0ym$$$@mcccrmk@$$z;N ,oqyn@$$$khb+lNO83$$3z8f.t    ",
"   i.phk@$$$$$$ezb;4t   M=8$$$$$$$$3b47tOy$$$$$$$92i    %.b3#m:sX     ds+0*k@$##$$$$er*a>17  t29$$$$$$$$$$$$$$$w1V.*#$$$$$$$$$$$$$$#<-N                   N;<$$$$$$$$c:C        i-y#$$$$$$$$$$$$$3wfe$$$$$$$$8OOw@$$$$$$$$c>V  5:r#$$$$$$$m>C,   %+<$$$$$$$$$$$$$$$$*-i 74b3$$$$$$#y-i6s;y3$#$@9Ot    ",
"   652>fw9y**9bf>=Cd    tOp9aw00ppwp>o6%Opawp0ppwq47    65+y@c>CX      xB4;qw9y**y8wf:-=jt   N.w9awp000pwbba899:jZ.b9awp0000ppwbbaa80.t                   7VAawp000pwf+v        v+w9awp000pwbba898:>wp000pwbaq..f9abp000pwf+v Xj:88bp00ppw0+v   XlOb8bwp0000ppwbbaa8f2t t2qbwpppwwbq=d go;bhh*9f2d    ",
"    ,uBj4.+++24jBuX     %OO.=1ooooo1=ZXBO.=1oooo1=j,     7o:bfOBX       Xgls12+++O24jCNd,    BOO.=1ooooo14===.O.%ZOO2=1oooooooo4====4Cx                     &51oooooo41u       XVOO2=1ooooo14===.OO=1oooooo4=.o5O.=4oooooo41t &1OO24ooooo1=4u   XCOO2=1oooooooo4====4Vx N.=4oooooo4=j6  g52+++.=s&    ",
"       xgutttMdx        tliud7&&&&&gd& uiud7&&&&7dg       i=2oZM           6gMttttMgx        uNtud7&&&&&7ddddutu,t%tMdg&&&&&&&&gddddd6                      X7g&&&&&7gd,       Xu%tMd7&&&&&7ddddutud7&&&&&7gdud&uudd7&&&&7gd6 7lNtMd7&&&&7dd6   Xt%tMdg&&&&&&&7gddddd,  7uMd7&&&&&gd7    6M%Ntud&X    ",
"                        XX                                ,tM6X                                                                                                                                                               XX                                                                      ",
"                                                                                                                                                                                                                                                                                                      "
};
