/* XPM */
static char *single_player_xpm[] = {
/* columns rows colors chars-per-pixel */
"322 35 24 1",
"  c None",
". c #FF3131",
"X c #FF3131",
"o c #FF3131",
"O c #FF3131",
"+ c #FF3131",
"@ c #FF3131",
"# c #FF3131",
"$ c #FF3131",
"% c #FF3131",
"& c #FF3131",
"* c #FF3131",
"= c #FF3131",
"- c #FF3131",
"; c #FF3131",
": c #FF3131",
"> c #FF3131",
", c #FF3131",
"< c #FF3131",
"1 c #FF3131",
"2 c #FF3131",
"3 c #FF3131",
"4 c #FF3131",
"5 c #FF3131",
/* pixels */
"                                                                                                                                                                                                                                                                                                                                  ",
"                                                                                                                                                                                                                                                                                                                                  ",
"                                                                                                                                                                                                                                                                                                                                  ",
"                                                                                                                                                                                                                                                                                                                                  ",
"                                                                                                                                                                                                                                                                                                                                  ",
"         OX,**1*:,3;+      <o33XX3o&,,O    X&o3X3oX+        +Xo33X3o&,;           +O3,:*1**>,3;O+      O333XX3o&>,O           <oo33XXXX333oo&&,>:&                         ;o33XX33oo&&o<O+        +3o3XX33&,>O                   O<&:&+         3o33XX3o&,,X   3,&o3X33o<  ;oo33XXXXX33oo&&,>*,      <o333X33o&&&3<O+            ",
"       ;,5.@$$$$%@.-:O     :@@....@@%5;   +1%@...@=3        O2@@...@@=X         O3*=.@%$$$%%@.-5:+     3-@....@@%5;          +:@@.........@@@@%%%:                         ,@@.....@@@@@.=1oO      ;=@....@@%-;                  O*.@$4;        O=@.....@@%.,   2%@@...@@:  >@@.........@@@@%%%1      *%@....@@@@@@.5:X           ",
"      o4%##%@.@#####4O    +:=-%####%=:O   O:=.####$4;       O2-@###$.1;        31.$####$$######$4+     3=-%####%-*+          O*=.###############@,                         >=-$###$@@%####$@1<     <5=@####%-1O                  <-###.3        ;5@######@523  +:=@####$=& +>=-$############$#%:     +:=-$###@--.$###$=>+         ",
"     o=#$.1,&&&:5$$#1      <X32#$$%:<O     O<&4$$$#%:+      +X3:@#$5o;       +,=##$-2:>,,>1=%$$$*+     OX31$$#%1XO           +<X&-$$#=:>,>>:1=$#@X                         ;Xo5$$#=,&,:2-$$#$2;    OXX*%#$$23;                   >$$$$$>        +X&1@#$#%*;+    +;*%##-:3O  ;X&=#$#-:,,>>:*=$#@&      <X&=#$#233&>2.#$#@>         ",
"    <5##=o+     X5#%:         >$##=<          &.#$$#.&         ;.#%&        +>@##-:XO     +<*%#$&         &$$#-3                O4#$$*      +3.#-;                           +*$$#2    O32%##%:       o.##@&                    O5#%$$$2O          O*%$#%>        >$#-&       O1#$#1 +    +3=#.X        O2#$#*    Oo=$$#-X        ",
"    >%#%>        *#@&         >%##5;          3-#$$$#5<        O-#@X        ,@##=o          ;=#@X         o$$#=X                O4##%:       ;5#=O                           +*#$#1      ;4$$#=;      3.##@X                    o@$2-##-<           ;4#$#2O      ;5#%:        O1#$#*       O2#-;        O2#$#:      o.##%:        ",
"   ;2##-o        >$.3         >%#$4;          o-#$$$$$*+       O-#.X       3=##-o           +2$-X         o$$#5;                O4##%>       ;5$4O                           +*#$#1       &%$#.&     +3.##.;                   +1#.&2$#@,            &@##.o      ,%$4;        O1#$#:       O2#=O        O2#$#>      O4$$#1        ",
"   <=##@&        >$-<         >%##2O          o-#5=#$#@,       O-#.X      O1$#$:            +4#=<         o$$#5O                O4##%>       O*2,+                           +*$$$*       <-$#@,      3.##-;                   X=#4;>%$$1            O2#$$1+    ;=#.o         O1#$#:       O:2>+        O2##%,      +1$$#2        ",
"   <5#$#4<       &2*O         >%#$2O          &.#1&.#$#=X      O-#-X      3.##=X            +:4:O        +o$$#4+                O4##@,       ++++                            +*$#$:       ;=##@,      o.#$=O                   >%%: X.$#=;            o.#$.X   +:%$*+         O1#$$>        +O+         O2##%,      +1$$$*        ",
"   O2#$$$4o+                  >%##1O          &.#1 *%$$$2;     O-#-<      :$$#2+                          o$$#2                 ;4##@,                                       +*$#%:       ;=$#.o      o.#$5O                  ;4#-X ;4##.&            +2$$$1+  3=#=X          O1##%>                    O2##@&      O4$#.&        ",
"    ,@#$$#-*<+                >%##*+         +&@#1 ;4$$#%:+    O-#-<     O4$#%:                           &$$#2                 ;4##.&                           +O;;+       +*$#%>       <@$#5;      o.#$5O                  o@$2+  >$#$:             3.##-3 +*$%>           O1##%,                    O2##.&      o.##4O        ",
"    O*%#$$#$-:X               >%##*+          ,@#*  3=#$#.o    O-#=<     ;-##@>                           &$$#1                 ;4##@>XXXX33o&X          +;<X3o,>*254<       +*$#@>       >%$%>       o.#$4O                 +1$%&   o-##4;            +1$#$* o.#4O           O1##%:XXXX33o&3           O2##.&     <5$#-3         ",
"     O:-#$$$#$=*X             :%##:           ,@$*   ,@#$$5<   O-#=<     X@##@,                           &$$$1                 ;4#$$.--==-.%%:         o245=.%$####-<       +*$#@,      X=#$4;       o.#$2O                 <-#=<   ;4##-3             3-##-o2$.o            O1#$$.--==-.%$*           O2##.,;+ O&5$#=&          ",
"      +o4%##$$#$=:;           >%##:           >%$*   O1$$#$1O  O-#=<     o@##@,        ;o333XX3oo+        &$$$*                 ;4#$$#$$$$$$$@o        +1########$$$=O       +*$#@>OO++Oo5$#5X        o.#$2O                 >%#*+    *$#$>             +*$#$=@$1O            O2#$$#$$$$$$$@,           O2#$%-=545.$%43           ",
"        O,5@##$##%4X         +>$##>           >%$*    ;5#$#@>  O-#5;     o@##@,        >@@@@@@@@-<        &$#%*                 ;4##%41*****1*;        O2#%@.-==42*>&        O*$$$.=41*4@#%4X         o.#$1+                O4#@,;;;;<>@##2O             3-#$$#=3             O2##%51*****1*<           ;2#$#######.>O            ",
"          ;>5%#$$$$5X         >$##>           >$$*     o-#$#-3 O-#5;     o@##%:       +*$$$####$1O        &$#%:                 ;5##-X                 O,*>,o3<O             +*$$$###$$#%=:;          o.#$1+                &.#@544455-%$$.<              1$$#$*              O2##.o                    ;2##@422=$#.&             ",
"            ;>=$#$$$2O        :$##,           :$$*      :@#$#4;O-#4;     <@#$#1       +3&&,*@#$@3         &$#%:                 O5##-<                                       O*$#%=55541,X            o.#$*+               +*#$$$$$$$$$$$$%,              o@##@&              O2##-o                    ;2##-3++,@##5;            ",
"   +<3<       <1%$$#-o        >$#$,           :#$*      O2$$#%*;-#4;     ;-#$#5;         + O5##=<         &$#%:        +;<;     ;5##=<                                       +*$#.&;;;;O              o.#$*+        ;<;    <=#@2*:>,,>>1%$$2+             ;-##-<              O2##-3                    ;2##=3  O2$$%*+           ",
"   ;4%*+       O1$$#%,        :$#%,          +:#$*       X=#$#@>-#4;     O2$$#.o            4##5;         &$#%:        <4=,     O5##=;         O;<O                          +1$#.o                   o.#$*+       ;2->   +,%#5O   +   <.$#-X             O5$#-;              O2##-3         +;<O       ;2##=X   3-$#.&           ",
"   <=#1+        3-##%,        :$#%,           *#%:        &.#$#.%#2;      ,%$$#1+           4##4;         &$#%:        &$%o     ;5##=;         ,52<                          +1$#.o                   o.#$*+       o@$>   O4#%>        O4##%>             O5$#-O              O2##-3         &543       ;2##=X   +*$$#5<          ",
"   <=#4+        <=##-o        :$#%&           *#%:        +*%#$###2O      <=#$#.&           4##4;         &$#%>       +*$@<     ;5##=;         2#=;                          +1$#-3                   o.#$*+       :%@&   3@#-<         >$$#2O            O5$#-O              O2##-X         1#=X       ;2##=X    <=##%*+         ",
"   X-#=;        o.##4;        :$#%&          +1#%:         <4$$$$#1O       >@#$$=3          4##4;         ,$#%:       ;=#=<     ;5##=;        <=#2                           O1$#.o                   &.#$*+      O4#-3  +1$#1O         3.##-3            O=$#-+              O2##=X        ;5#5O       ;4##=X     >%##.&         ",
"   X.#@,       <2$#@,         1#$$,          O2#%:          o-#$$#1O       ;1$#$$=&O       ;5##5;         :$$$*      +:%#4;     <-$#=<       +:%$*                           O4$#.&                   >@#$2O      ,@#=<  o-##>          <5#$$*+           ;-##-;              <5##-3        >@#2        <=##-3     ;4#$$=X        ",
"   3%$#-,<;;;<,5$#@:+      +O&-#$#1<;;+    +O,.#$2;;;+       :%#$#1+        ;2%##$.2&<<<<o:=%##=<       O3=$$#=&<<<<o1@##1O   O;*%$#@:<<<<<3,2@#%>                         +;,@$#%*;;;O             OX4#$$.,<<<<o*.##4OOo5$$#1<;OO   +O;o-#$#.:<;       O;*%$#@>;<;+        O;>%$#%*X<<<<X&1.#$*      O<*%$#%:;;+   o.#$$5oO+     ",
"   &$##$%-=5=-%#$=>O      +,4@$$$$%=55X    X2@$$#@=51O       ;2$$#*+         ;*-###$%@--.%$###%4;      <1-$$$$$%@..@%$#$#:   ;*=%$$$$%@...@%%$##@&                        +,=%#$$$%==53            O1-$$$$$%@..@%$#$#2 :@$$$$@=421;  o14.$$$$#%-1;     <*=%$$$$@==2O       ;:5%#$$$$@...@%%$##%>     ;1-%$$$$%=1<   +*%#$$.2:<    ",
"   <*=@$$$##$$%=*3        ;4#$$$$$$$$-X    ,@$$$$$$#2+        3=##*+          +o1-%$$$$$$$$@=2>X+      o%$$$$$$$$$$$$$$$$,   X@$$$$$$$$$$$$$$$$$@X                        O2#$$$$$$$#=X            3.#$$$$$$$$$$$$$$%* 4$$$$$$$$#=O  :#$$$$$$$$$5;     ,%$$$$$$$$#2        X-#$$$$$$$$$$$$$$$$@&     X-$$$$$$$#5;    ;1%#$$#-o    ",
"    +<o>*2221>o<+         ;>*>&ooo&&&oO    3>,&ooo&,3          >@%:             +X&:12211:&3<O         3*:,&oooo&&,,>::**X   <*:>&ooooo&&&,,,>>:>O                        O&>,&&ooo&&oO            X*:,&oooo&&,,>::**3 o&&ooo&&,>,+ +o*>,&oooo&&3+     o*:,&ooo&&,3        ;*:>&&ooooo&&,,,>>:>;     ;,,&&&&&&,o      O>4521>;    ",
"        ++O++ +            ++        +      +                  O:><                ++OO+++             ++             +++     ++                                                                    ++            +++                ++                ++                   ++                               +          OOO++     ",
"                                                                                                                                                                                                                                                                                                                                  ",
"                                                                                                                                                                                                                                                                                                                                  "
};
