/* XPM */
static char *wall_xpm[] = {
/* columns rows colors chars-per-pixel */
"64 64 17 1 ",
"  c #444444",
". c #494949",
"X c #505050",
"o c #505050",
"O c #545454",
"+ c #585858",
"@ c #565656",
"# c #595959",
"$ c #676767",
"% c #6A6A6A",
"& c #6F6F6F",
"* c #717171",
"= c #767676",
"- c #686868",
"; c #7C7C7C",
": c #717171",
"> c #727272",
/* pixels */
"......................X.................X..X...........X........",
"..     .     .     .     X.    .     .      .    ...         .  ",
". --$$$$%$$$$$%$$$$$%$$$$ X;=$$$%$$$$$%$$$$$$$$$%+ @;=$$%$$$$$%$",
". ;;%%$%%%%%$%%%%$%%%%%%# X:-$$%%%%%$%%%$%%$%%$%&@ @;=$$%%%%$%%%",
". ;;%%$%$%%%%%%$%%$$$%%%# X;-%$%$%%%%%%$$%%%%%%$%+ @;=$%$%%%%%%$",
". ;;%$%%%%$$%$%%$%%%%%$$$ X:-$%%%%$$%$%%%%$%$$%%&+ @;=$%%%$$%$%%",
". ;;%$%%%$%%$%$%%%%%%$%%$ X;-$%%%$%%$%$%%$%%%%%%%+ @:=$%%$%%$%$%",
". ;;$$$$%$$%$%$$$$$$%$%%# o:=$$$%$$%$%$$%$$$$$$%%+ @;=$$%$$%$%$$",
"X ;-**&*&&*****&*&***&**% X;-**&&**&**&*******&*=@ @;-&&&&*****&",
". ;-;;;;;;;;;;;;;;;;;;;;= o:-;;;;;;;;;;;;;;;;;;;;$ @;;;;;;;;;;;;",
". &&&%&%&%&%%&&%&%%&&%&%$ .&%&&%%&&%&%%&%&&%&%%&&@ +&&&%&%&%%&&%",
"..                       ..                       .             ",
"XXXXXXXXXXXX..XoXXXXXXXXXXXX.XXXXXXXX..XXX.XXXXXXXXX.XXXXXXXXX..",
"&%&%%%&%%&%&O $:=%&%%&%%&%%&&%&%%&%%*X =:*&%%&%%&&&%&%&%%%&%&& .",
"%%%$%%$%%%%%O $-*$$%%%%%$%%%$%%%%%%%%X *;&$$%%%%$%$%$%%%%%$%%% .",
"$$%%$%%%$%$%O $;*$%%$%$%%%$%%%$$%$$%&. *;&$%%$$%%%$%%%$$%%%%$& .",
"%%%%$$%%$%%%O #;*%%%$$%%%%$$%%%%%%%$%X *-%$$%%%$%%$%$%%%$%%$%% .",
"%$$%%%%$%%$%O $;*$$%%%%$$%%%%$$%$$%%&X *;&%%$$%%$%$%%%$%$%%%%% .",
"$$$$$%$$$$$%o $;*$$%$%$$$$$$$$$$$$$$%. *;&$$$$%$$$$$$$$$$%$$$$ X",
"===-=====-=;@ #;-=======-==-===-==-=;X *-==-===-=-===-======-- .",
":;;;;;;:;:;:@ $:;;:;;;;:;;:;;;;:;;:;:X =;;:;:;;;;;;;:;;:;;;:;: .",
"O++O+OOO++++X.X++OO++OOOOOOO++++++O++..O++++++++++OOO+++++++++ .",
" .  .     . . .          .      .    . ..          .         .. ",
"X $$++@+@+++@+++@@@+@@+@O.X$$+++++@+@+@+++@++@++@O.o$#++@@+@++@+",
". ;:%%%%%%%%%%%%%%%%%%%%$ o:-%%%%%%%%%%%%%%%%%%%&@ @:=%%%%%%%%%%",
". ;-%%%$%%%$%$%$%%%%%$%$# X:-$%$%%$%%%%$$%%%%$%%%@ @;=$$%%%$%$%%",
". ;;$$%$%%%$%%$%$%$%%%$%#.X;-$%$%$%%%%%$$%%%%%$$%+ @;=$%%%%%$%$%",
". ;;%$%%$$%%$%%%%%$%$%%%$ X:=$%%%%%$$$%%%%$%$%%%%@ @;=$%%$$%%%$%",
". ;;%%$%$%$%$$%$$$%$$%$%# o:-$$%$$$%$$$%$$%$$$$%%+ @:=$$%$%$$$$$",
". --%%%%$%%%%%%%%%%%$%%%$ X;=$%%%%%%%%$%%%%$%%%%&+ @;=$%%$%%%%%%",
". ;---;;-;;;-;-;-;-;-;;-* X:-;;;--;--;---;;---;;;$ @;------;;---",
". ::;::;:;:;;::;;::;:;::= X>:;:;;::;::;::;::;:;::% @>;:::;:;::;:",
"..                       X.                       ..            ",
" .  .    .  ..       .      .   .   ...   . .    .     .    . ..",
"%$$$$$$$%$$$o $-*%$$%$$$%%$$$$$$$$$$%. *-%$$$$$$$$%$$$$$%$$$$% X",
"$%$%%%%$$%%&+ $;*$%%$%$%$%$%%%%$%%%$&X *-&$%%%$%$%%%%%$%%%%$%% .",
"%%%$$%%%%%%%o $;*$%%%$%%%%%$$%%%%$$%%. *-&$$$%%%%%%%$%$%%%%$%% .",
"%$%%%%$%%$%%O #;*%$%%$%$%$%%%%$%%%%%&. *-&%%%%$$%$$%$%%%$$%%%% .",
"$%$%%$%%%%%%O $;*$%%%%$%$%$%%$%%$%%$&. =;&$%%$%%%%%%%%%%%%%%%% X",
"$%$$%$$$$$$%O #;*$$$$%$%$%$$%$$$$$%$%X *;%$$%$$%$$$$$$$$$$$$%% .",
"*&*****&****+ $-=&*&***&*&***&*****&=X *;=***&*****&**&*&****= .",
";;;;;;;;;;;:@ $;;;;;;;;;;;;;;;;;;;;;:X *;;;;;;;;;;;;;;;-;;;;;; .",
"&&%%%&&%&%%&O @&%&%&%&&%&%&%&%%&%&&%*. $%&&%&%%&%&&%&%%&&%%&%& .",
"             ..                      ..                       ..",
". ooXXXX.XXXXXXXXXXXXXXXX..ooXXXXXXXXX.XXXXXXX.XX..XXoXXXXXXXXXX",
". ::&%&%&%&%%%&%&%&%&%%&% X>;%%%%&%%%&&%%&%%%&&%&@ @:-%&%&%%&%%&",
". ;;%%$%$%%%%%$%$%%$%$%%# X:-%%%%%%%%$%%%%%%%$%%&+ @:=$%%%%%$%%%",
". ;-$$$%%%$$%%%%$%%$%%%$$ X;-$$%%$$%%%%$%$$%%%%$%@ @;*$%$%$%%%$%",
". ;;%$%%$%%$%%%$%%$$%%%%# o:-$%%%%%$%$$%%%%$$%%%%@ @:=$$%%%%$$%%",
". ;;%$$%$%%%%$%%$%%%%$$%# X;=$%$$$%%%%%%$$%%%%$%%+ +;=$%%$$%%%%$",
". ;;%$$%$%$$$$$$$$$$$$$%$ X:-$$%$$%$$$$$$$$$$$$$%+ @;=$$$$$$$%$$",
". ;-============-==-===-& o;-==-=======-==-====--$ @;==-===-====",
". :;:;;::;;;;;:;;;:;:;;:= X>;;;;;;:;;;:;;;:;;:;;:$ @:;:;;;;:;;;:",
"..++O+++O++O++O+++OOO+++O X+++++++O+OOOO++O++++OOo.o+O+++O+++OOO",
" .         ..     .      .      .    .            ..         .. ",
"@++@+@@+@++@X.+$#+++@++++@+@@+@@++@+@..#$@@+@+@++@+++@@+@@@+++..",
"%%%%%%%%%%%&o $:*%%%%%%%%%%%%%%%%%%%&. =;*%%%%%%%%%%%%%%%%%%%% .",
"%$%%%$%%%%%%O $;*$%%%%$%%$%%%$%%%%$%%X *-&$%%%$%%$%%%$%%%%%$%% .",
"%$%$%$%$%$%%O #;*%%%$$%%%$%$%$%$%$%%&X *-&$$$$%%%$%$%$%$%%%%%%..",
"%%%$%%%%%%%%o $;*$$%%%%$%%%$%%%%%%%$%X *-&%%%%%$%%%$%%%%%$$%%% .",
"$$%$$$%$$$%%O $-*$%$$$$%$$%$$$%$$$$%%X *;&$$$$$%$$%$$$%$$$$%%% .",
"%$%%%%%$%%%%O $;*%%$%%%%%$%%%%%$%%%%&. *-&%%%%%%%$%%%%%$%%%%%% .",
"-----;;---;:+ #---;---;------;;---;-:X *;-;---;------;;---;-;; .",
"-----------;@ $;-------------------;;o *--------------------;; ."
};
