/* XPM */
static char *wall_xpm[] = {
/* columns rows colors chars-per-pixel */
"32 32 23 1 ",
"  c #373737",
". c #393939",
"X c #3E3E3E",
"o c #494949",
"O c #464646",
"+ c #494949",
"@ c #494949",
"# c #535353",
"$ c #494949",
"% c #5A5A5A",
"& c #5F5F5F",
"* c #494949",
"= c #494949",
"- c #686868",
"; c #6C6C6C",
": c #717171",
"> c #777777",
", c #7B7B7B",
"< c #494949",
"1 c #808080",
"2 c #494949",
"3 c #494949",
"4 c #494949",
/* pixels */
"+oOOOOoOOoOO+ooOoOoOOoOoO+oOOOoO",
"o3---;;-;;;;#-,-;;-;;;;;=+2--;;-",
"o2=--------;#-:---------=+1=----",
"o2==-==-==--@=:=-=--====*O1*-==-",
"o3,<<<,<<,,1$-1,<<<<<,,<>+2,<<,<",
"O$##$#$##$#$+@$$##$$#####O$$$#$$",
"&%&%&&O*&%%&&%&%%&##=%%&%%&%%&&O",
"-----;O>:---;----;%$,--;------:o",
"-=--=;O>-=--------%$,---------;O",
":::::>O>>;::::::::*$<;:::::::;,o",
";;;;;:O=;;;;;;;;;;&#;;;;;;;;;;:o",
"o@O++O@++O++o+@++++@+++++O@O+++@",
"o4-;;;;;;;;:#->--;;;;;;;=+2--;;;",
"o2=--------;#-:---;-----=+1=--;-",
"o2=========-@-:=========*O1=====",
"o42332233224%-3222322323<O422232",
"O.....X ....oX....XX....Xo.....o",
";;;;-:O,:;;;;;;;;;%%<-;;;-;;;;:O",
"-----;O>;---------%$>=--------;O",
"=-==-;o>-====-==-=%%,===-=-=-=;o",
"<<,<,1+>1,<,<<,<<<=$2<,<<,<<<,1o",
"$###$$O#$$##$###$$@+$####$#$$#$O",
"o;%%&%%&%&%&+%*%&&%&%&%&%O-%%&&&",
"o3--;--;---;#=>------;--=O2-----",
"o2=---------@-:=-=------*+1=-=--",
"o2;::;:::::>#->:::::::::-O2;::::",
"o:;;;;;;;;;:#&;;;;;;-;;;-O:;;;;;",
"#+O+++O@+O+++++O++OO@++++@+O+++O",
";;;;->O,:;;;;;;;-;&%<;;;;;;;-;>o",
"-----;O:;--------;%%,=--------;O",
"-====;o,-===-====-%$,*==-=====;o",
"<<<<<1O:<<,<<<,<<<-$<,<,<<<<<<2o"
};
