/* XPM */
static char * waterLeft_xpm[] = {
"90 32 800 2",
"  	c #000000",
". 	c #060600",
"+ 	c #0E0F01",
"@ 	c #151501",
"# 	c #161801",
"$ 	c #181A01",
"% 	c #191A00",
"& 	c #191A02",
"* 	c #171A01",
"= 	c #181A00",
"- 	c #161800",
"; 	c #171900",
"> 	c #131400",
", 	c #0F1000",
"' 	c #0B0C00",
") 	c #050600",
"! 	c #010100",
"~ 	c #030506",
"{ 	c #030505",
"] 	c #010101",
"^ 	c #020201",
"/ 	c #080900",
"( 	c #111201",
"_ 	c #171803",
": 	c #181901",
"< 	c #191B01",
"[ 	c #1A1C02",
"} 	c #1B1D02",
"| 	c #1D1F02",
"1 	c #1E2002",
"2 	c #1F2102",
"3 	c #1F2103",
"4 	c #202203",
"5 	c #1B1D01",
"6 	c #191B02",
"7 	c #181902",
"8 	c #101102",
"9 	c #080901",
"0 	c #020200",
"a 	c #020202",
"b 	c #070907",
"c 	c #020302",
"d 	c #040400",
"e 	c #0C0C00",
"f 	c #151600",
"g 	c #161600",
"h 	c #161900",
"i 	c #1A1A00",
"j 	c #1A1D00",
"k 	c #1D1E00",
"l 	c #050701",
"m 	c #070701",
"n 	c #070801",
"o 	c #040500",
"p 	c #151C1F",
"q 	c #1E2727",
"r 	c #131A17",
"s 	c #080A09",
"t 	c #040501",
"u 	c #080902",
"v 	c #0C0D02",
"w 	c #0F1102",
"x 	c #141502",
"y 	c #161703",
"z 	c #161804",
"A 	c #161803",
"B 	c #101003",
"C 	c #090A01",
"D 	c #060700",
"E 	c #050401",
"F 	c #020303",
"G 	c #080C09",
"H 	c #0D1210",
"I 	c #161E1C",
"J 	c #232E2C",
"K 	c #19221E",
"L 	c #0C100E",
"M 	c #000100",
"N 	c #030400",
"O 	c #060701",
"P 	c #0B0B01",
"Q 	c #0D0E00",
"R 	c #121302",
"S 	c #151602",
"T 	c #000101",
"U 	c #010303",
"V 	c #010202",
"W 	c #405658",
"X 	c #668784",
"Y 	c #526B66",
"Z 	c #2C3936",
"` 	c #101513",
" .	c #060808",
"..	c #050606",
"+.	c #040504",
"@.	c #010201",
"#.	c #030404",
"$.	c #090B0A",
"%.	c #161E1D",
"&.	c #2E3C39",
"*.	c #485E59",
"=.	c #63827A",
"-.	c #668379",
";.	c #64807B",
">.	c #40524D",
",.	c #1A201F",
"'.	c #040706",
").	c #050506",
"!.	c #030303",
"~.	c #050502",
"{.	c #0B1110",
"].	c #1D3230",
"^.	c #3A5552",
"/.	c #78A09F",
"(.	c #779B97",
"_.	c #66847D",
":.	c #688881",
"<.	c #607D76",
"[.	c #4A605A",
"}.	c #374643",
"|.	c #26302F",
"1.	c #0E1110",
"2.	c #0A0E0C",
"3.	c #24302C",
"4.	c #364642",
"5.	c #526A65",
"6.	c #6B8882",
"7.	c #6E8E86",
"8.	c #6D8C85",
"9.	c #6A8780",
"0.	c #648175",
"a.	c #6C8A84",
"b.	c #6E8D86",
"c.	c #59716C",
"d.	c #3D4F4B",
"e.	c #2D3937",
"f.	c #2F2A14",
"g.	c #0D0C05",
"h.	c #222C2C",
"i.	c #2F3F3C",
"j.	c #303D3B",
"k.	c #313D3B",
"l.	c #2B3938",
"m.	c #2F4542",
"n.	c #3F5855",
"o.	c #476A68",
"p.	c #477575",
"q.	c #467979",
"r.	c #467A79",
"s.	c #659795",
"t.	c #6E928C",
"u.	c #67857E",
"v.	c #67867F",
"w.	c #66827D",
"x.	c #67837E",
"y.	c #65827C",
"z.	c #607C76",
"A.	c #465A55",
"B.	c #303D39",
"C.	c #232D2A",
"D.	c #171E1D",
"E.	c #161D1B",
"F.	c #171E1C",
"G.	c #171E1B",
"H.	c #171D1B",
"I.	c #1F2625",
"J.	c #2F3C38",
"K.	c #445853",
"L.	c #627E77",
"M.	c #698781",
"N.	c #6A8A84",
"O.	c #618885",
"P.	c #548585",
"Q.	c #568180",
"R.	c #668175",
"S.	c #6D8B84",
"T.	c #6A8881",
"U.	c #67847E",
"V.	c #66837D",
"W.	c #62807A",
"X.	c #57706B",
"Y.	c #323F3C",
"Z.	c #2B3733",
"`.	c #19211F",
" +	c #151C1A",
".+	c #61582C",
"++	c #3F3A1C",
"@+	c #1B1A0C",
"#+	c #0B0A04",
"$+	c #080D0E",
"%+	c #1F2929",
"&+	c #374949",
"*+	c #4E6764",
"=+	c #627D76",
"-+	c #617C75",
";+	c #607C75",
">+	c #587B75",
",+	c #4C7674",
"'+	c #477877",
")+	c #4B7D7C",
"!+	c #4E8180",
"~+	c #4C8382",
"{+	c #4A8282",
"]+	c #487D7D",
"^+	c #5D9DA2",
"/+	c #589293",
"(+	c #4E7E7D",
"_+	c #55807E",
":+	c #5F8480",
"<+	c #648782",
"[+	c #678984",
"}+	c #6B8B84",
"|+	c #6D8B83",
"1+	c #5F7B75",
"2+	c #5D7771",
"3+	c #5A746E",
"4+	c #59736D",
"5+	c #5C7670",
"6+	c #607B75",
"7+	c #66827C",
"8+	c #698A85",
"9+	c #5C8885",
"0+	c #598685",
"a+	c #578585",
"b+	c #548685",
"c+	c #518685",
"d+	c #4E8485",
"e+	c #4E8080",
"f+	c #557C75",
"g+	c #548584",
"h+	c #578685",
"i+	c #678A85",
"j+	c #668A85",
"k+	c #698985",
"l+	c #6B8982",
"m+	c #607C77",
"n+	c #5F7973",
"o+	c #5B756F",
"p+	c #726934",
"q+	c #6A6130",
"r+	c #575028",
"s+	c #3C371C",
"t+	c #151509",
"u+	c #060503",
"v+	c #060A0B",
"w+	c #0F1315",
"x+	c #1A2223",
"y+	c #2D3D3B",
"z+	c #3F5E5E",
"A+	c #688B87",
"B+	c #668A86",
"C+	c #6A8B85",
"D+	c #688985",
"E+	c #6A8A85",
"F+	c #638885",
"G+	c #658985",
"H+	c #5A8685",
"I+	c #528585",
"J+	c #4E8585",
"K+	c #4D8484",
"L+	c #4C8383",
"M+	c #4B8282",
"N+	c #497D7D",
"O+	c #589EA6",
"P+	c #529195",
"Q+	c #497E7E",
"R+	c #4F8080",
"S+	c #528382",
"T+	c #568584",
"U+	c #608885",
"V+	c #668985",
"W+	c #688A85",
"X+	c #6C8B85",
"Y+	c #648885",
"Z+	c #648985",
"`+	c #678985",
" @	c #5A8785",
".@	c #518485",
"+@	c #4F8585",
"@@	c #508585",
"#@	c #4D8585",
"$@	c #4D8080",
"%@	c #4C7A75",
"&@	c #4E8484",
"*@	c #538485",
"=@	c #558685",
"-@	c #568585",
";@	c #726834",
">@	c #726833",
",@	c #6E6532",
"'@	c #5C5529",
")@	c #3D361A",
"!@	c #0E0D06",
"~@	c #020101",
"{@	c #040708",
"]@	c #0D1A1F",
"^@	c #344A48",
"/@	c #4C7373",
"(@	c #518382",
"_@	c #5B8785",
":@	c #5F8885",
"<@	c #5B8685",
"[@	c #588785",
"}@	c #588685",
"|@	c #568685",
"1@	c #4C8485",
"2@	c #4C8385",
"3@	c #4D8485",
"4@	c #54989E",
"5@	c #4E8D91",
"6@	c #477E7D",
"7@	c #477E7E",
"8@	c #498080",
"9@	c #538685",
"0@	c #578785",
"a@	c #508485",
"b@	c #548485",
"c@	c #5D8685",
"d@	c #628885",
"e@	c #608985",
"f@	c #5E8885",
"g@	c #4F8485",
"h@	c #4A8385",
"i@	c #4C8080",
"j@	c #497A75",
"k@	c #598785",
"l@	c #528485",
"m@	c #588585",
"n@	c #618985",
"o@	c #5C8785",
"p@	c #706632",
"q@	c #716733",
"r@	c #6D6431",
"s@	c #5B5228",
"t@	c #322D16",
"u@	c #121008",
"v@	c #030401",
"w@	c #05090C",
"x@	c #12272F",
"y@	c #2C5357",
"z@	c #467677",
"A@	c #518483",
"B@	c #4B8283",
"C@	c #498082",
"D@	c #487D7C",
"E@	c #53959B",
"F@	c #4E8C8F",
"G@	c #4B8385",
"H@	c #488385",
"I@	c #478385",
"J@	c #538585",
"K@	c #498285",
"L@	c #468385",
"M@	c #6E6432",
"N@	c #5B542A",
"O@	c #3D381C",
"P@	c #1B190C",
"Q@	c #050402",
"R@	c #0A1516",
"S@	c #1C373F",
"T@	c #355F65",
"U@	c #497C7D",
"V@	c #447F82",
"W@	c #3E7D7E",
"X@	c #4C8F90",
"Y@	c #4B8788",
"Z@	c #498385",
"`@	c #467F80",
" #	c #4B7A75",
".#	c #6B602F",
"+#	c #60562B",
"@#	c #46401F",
"##	c #252111",
"$#	c #070604",
"%#	c #0F1E21",
"&#	c #284C53",
"*#	c #3D6E75",
"=#	c #4B8182",
"-#	c #498384",
";#	c #458183",
">#	c #387D82",
",#	c #2C7881",
"'#	c #3B7A75",
")#	c #467C78",
"!#	c #487F7F",
"~#	c #4D8385",
"{#	c #4B8485",
"]#	c #488285",
"^#	c #3E8085",
"/#	c #387B80",
"(#	c #487B75",
"_#	c #6F6532",
":#	c #6B6130",
"<#	c #635A2D",
"[#	c #4D4622",
"}#	c #1C190D",
"|#	c #030302",
"1#	c #050D0E",
"2#	c #1A343B",
"3#	c #345F66",
"4#	c #487C7D",
"5#	c #448285",
"6#	c #387E84",
"7#	c #317B83",
"8#	c #2C7A82",
"9#	c #287982",
"0#	c #357572",
"a#	c #417A76",
"b#	c #467E7F",
"c#	c #477D7E",
"d#	c #477E7F",
"e#	c #4A8182",
"f#	c #448185",
"g#	c #3D8085",
"h#	c #317D85",
"i#	c #2D7980",
"j#	c #417875",
"k#	c #4B8484",
"l#	c #716734",
"m#	c #6A612F",
"n#	c #5B5329",
"o#	c #403A1C",
"p#	c #1A180B",
"q#	c #040302",
"r#	c #020506",
"s#	c #1F383C",
"t#	c #3C6E75",
"u#	c #4F8685",
"v#	c #418185",
"w#	c #357E85",
"x#	c #307D85",
"y#	c #2E7C84",
"z#	c #2D7B83",
"A#	c #2A7982",
"B#	c #2A7372",
"C#	c #2E7476",
"D#	c #3C7A7F",
"E#	c #457D7E",
"F#	c #497F80",
"G#	c #4B8384",
"H#	c #478285",
"I#	c #377F85",
"J#	c #2C7C85",
"K#	c #2F7D85",
"L#	c #2E7D85",
"M#	c #2C7980",
"N#	c #2E7375",
"O#	c #3C8084",
"P#	c #4A8285",
"Q#	c #6F6433",
"R#	c #665D2E",
"S#	c #4E4722",
"T#	c #2F2B15",
"U#	c #111007",
"V#	c #020405",
"W#	c #020507",
"X#	c #101E1F",
"Y#	c #245963",
"Z#	c #2E7881",
"`#	c #2F7E85",
" $	c #2A7272",
".$	c #287276",
"+$	c #2A767F",
"@$	c #2E777E",
"#$	c #307980",
"$$	c #327D84",
"%$	c #387F85",
"&$	c #428185",
"*$	c #458285",
"=$	c #458185",
"-$	c #397E85",
";$	c #307C85",
">$	c #2F7C84",
",$	c #337D85",
"'$	c #337E85",
")$	c #347D85",
"!$	c #468285",
"~$	c #746935",
"{$	c #6D6432",
"]$	c #5F562B",
"^$	c #423C1D",
"/$	c #201D0D",
"($	c #0A0905",
"_$	c #010204",
":$	c #040D10",
"<$	c #0F3139",
"[$	c #215C67",
"}$	c #2D787F",
"|$	c #2D7B84",
"1$	c #297982",
"2$	c #297172",
"3$	c #287176",
"4$	c #28767F",
"5$	c #2B7981",
"6$	c #327D85",
"7$	c #367E85",
"8$	c #398085",
"9$	c #3B8085",
"0$	c #3A7F85",
"a$	c #3D7F85",
"b$	c #3F8185",
"c$	c #3C8085",
"d$	c #408185",
"e$	c #408085",
"f$	c #2F7C85",
"g$	c #2D7C84",
"h$	c #317C85",
"i$	c #347E85",
"j$	c #357D85",
"k$	c #3A8085",
"l$	c #428085",
"m$	c #397F85",
"n$	c #387E85",
"o$	c #726733",
"p$	c #6B6231",
"q$	c #574F28",
"r$	c #37341A",
"s$	c #151308",
"t$	c #01090C",
"u$	c #06181D",
"v$	c #0F3034",
"w$	c #1C5157",
"x$	c #297279",
"y$	c #2D7C83",
"z$	c #2A7072",
"A$	c #277176",
"B$	c #27767F",
"C$	c #29777F",
"D$	c #367F85",
"E$	c #327E85",
"F$	c #377E85",
"G$	c #736934",
"H$	c #685E2F",
"I$	c #544D26",
"J$	c #312D15",
"K$	c #0F0E06",
"L$	c #030201",
"M$	c #000606",
"N$	c #05161C",
"O$	c #113539",
"P$	c #1D5458",
"Q$	c #27737C",
"R$	c #2B7275",
"S$	c #2A7880",
"T$	c #665C2D",
"U$	c #554C26",
"V$	c #302B15",
"W$	c #0F0E07",
"X$	c #000405",
"Y$	c #05171D",
"Z$	c #0D3A47",
"`$	c #216267",
" %	c #277278",
".%	c #28767E",
"+%	c #6F6432",
"@%	c #62592B",
"#%	c #4F4923",
"$%	c #110F07",
"%%	c #000709",
"&%	c #0C333D",
"*%	c #164E5B",
"=%	c #17525E",
"-%	c #175360",
";%	c #195461",
">%	c #1B5562",
",%	c #1A5461",
"'%	c #195361",
")%	c #185261",
"!%	c #175161",
"~%	c #1A5462",
"{%	c #1C5762",
"]%	c #296566",
"^%	c #2F6A67",
"/%	c #2E6967",
"(%	c #2E6A67",
"_%	c #286463",
":%	c #164C57",
"<%	c #195660",
"[%	c #195360",
"}%	c #185461",
"|%	c #6F6533",
"1%	c #6C6231",
"2%	c #4A4322",
"3%	c #2C2814",
"4%	c #041215",
"5%	c #041418",
"6%	c #051518",
"7%	c #061417",
"8%	c #061518",
"9%	c #061619",
"0%	c #061519",
"a%	c #051418",
"b%	c #051519",
"c%	c #0C1C1A",
"d%	c #0F1F1B",
"e%	c #10201C",
"f%	c #12211C",
"g%	c #122019",
"h%	c #061616",
"i%	c #081717",
"j%	c #071619",
"k%	c #051419",
"l%	c #061419",
"m%	c #061517",
"n%	c #041318",
"o%	c #706633",
"p%	c #564F26",
"q%	c #433E1E",
"r%	c #322D17",
"s%	c #211E0F",
"t%	c #161409",
"u%	c #131109",
"v%	c #121007",
"w%	c #0F0D06",
"x%	c #080702",
"y%	c #070702",
"z%	c #080804",
"A%	c #0C0B06",
"B%	c #111008",
"C%	c #16140A",
"D%	c #19160B",
"E%	c #19170B",
"F%	c #18160B",
"G%	c #131208",
"H%	c #0E0D05",
"I%	c #090804",
"J%	c #080703",
"K%	c #070602",
"L%	c #020301",
"M%	c #030300",
"N%	c #0B0A03",
"O%	c #151208",
"P%	c #090904",
"Q%	c #070802",
"R%	c #131209",
"S%	c #19150A",
"T%	c #1A170B",
"U%	c #15140A",
"V%	c #6F6632",
"W%	c #685F2F",
"X%	c #62592C",
"Y%	c #5B5328",
"Z%	c #4E4723",
"`%	c #3D391C",
" &	c #3A351A",
".&	c #373319",
"+&	c #322F17",
"@&	c #2E2A14",
"#&	c #2B2712",
"$&	c #2A2612",
"%&	c #2C2813",
"&&	c #312D16",
"*&	c #363118",
"=&	c #3A3419",
"-&	c #453F1F",
";&	c #474120",
">&	c #464020",
",&	c #443E1F",
"'&	c #3B351A",
")&	c #322E16",
"!&	c #2D2914",
"~&	c #2A2713",
"{&	c #292612",
"]&	c #292613",
"^&	c #272411",
"/&	c #221F0F",
"(&	c #1C1A0C",
"_&	c #1C180B",
":&	c #2A1F0F",
"<&	c #2E2B16",
"[&	c #3C371B",
"}&	c #383419",
"|&	c #312E16",
"1&	c #2E2A15",
"2&	c #343118",
"3&	c #383218",
"4&	c #3D371A",
"5&	c #433D1E",
"6&	c #453F20",
"7&	c #474121",
"8&	c #3F391C",
"9&	c #332F17",
"0&	c #706533",
"a&	c #69602F",
"b&	c #695F2F",
"c&	c #5A5228",
"d&	c #585128",
"e&	c #5A532A",
"f&	c #575128",
"g&	c #585028",
"h&	c #574F27",
"i&	c #5B532A",
"j&	c #62582B",
"k&	c #655C2D",
"l&	c #675E2F",
"m&	c #61582B",
"n&	c #585129",
"o&	c #575027",
"p&	c #554E26",
"q&	c #4F4824",
"r&	c #494321",
"s&	c #473C1D",
"t&	c #533D1D",
"u&	c #4F4B24",
"v&	c #5C542A",
"w&	c #5A5329",
"x&	c #5A5129",
"y&	c #595129",
"z&	c #5A5229",
"A&	c #5D552A",
"B&	c #635A2B",
"C&	c #695E2F",
"D&	c #5C5329",
"E&	c #6B6230",
"F&	c #5E562A",
"G&	c #625A2C",
"H&	c #706733",
"I&	c #686030",
"J&	c #655B2D",
"K&	c #66562A",
"L&	c #6E4F26",
"M&	c #625C2E",
"N&	c #655C2E",
"O&	c #655D2E",
"P&	c #685F30",
"Q&	c #655D2D",
"R&	c #696030",
"S&	c #6B592C",
"T&	c #725328",
"U&	c #666030",
"V&	c #655C2F",
"W&	c #69612F",
"X&	c #675F2F",
"Y&	c #6B5B2D",
"Z&	c #72542A",
"`&	c #665F2E",
" *	c #665D2F",
".*	c #615A2C",
"+*	c #6A6231",
"@*	c #6D6331",
"#*	c #6B612F",
"$*	c #675D2E",
"%*	c #695A2D",
"&*	c #6E572A",
"**	c #655E2E",
"=*	c #645C2D",
"-*	c #61592C",
";*	c #68602F",
">*	c #675C2E",
",*	c #6A5B2C",
"'*	c #6A6230",
")*	c #60592C",
"!*	c #6D6332",
"~*	c #696031",
"{*	c #675F2E",
"]*	c #695D2F",
"^*	c #6E6531",
"/*	c #6E6331",
"(*	c #6A6131",
"_*	c #6A6030",
":*	c #685E30",
"<*	c #6C6131",
"[*	c #6B6131",
"}*	c #6C6331",
"|*	c #6E6230",
"1*	c #6F5F2F",
"2*	c #6D6231",
"3*	c #6A6031",
"4*	c #696130",
"5*	c #716732",
"6*	c #6B6330",
"7*	c #6E6332",
"8*	c #645B2C",
"9*	c #60572B",
"0*	c #5D5529",
"a*	c #5C5428",
"b*	c #5C5429",
"c*	c #554D26",
"d*	c #524C25",
"e*	c #544E27",
"f*	c #5C552A",
"g*	c #504923",
"h*	c #504824",
"i*	c #544C26",
"j*	c #5B5429",
"k*	c #5D542A",
"l*	c #5F572B",
"m*	c #60582C",
"n*	c #5E552A",
"o*	c #605229",
"p*	c #634F28",
"q*	c #61552A",
"r*	c #564E27",
"s*	c #514A24",
"t*	c #4E4724",
"u*	c #4D4722",
"v*	c #514925",
"w*	c #554C27",
"x*	c #595128",
"y*	c #5A5227",
"  . + @ # $ % & & & & & & & & & & * = - ; ; ; ; ; - > , ' ) !   ~ { ]     ^ / ( _ & : < [ } | 1 1 1 2 3 4 4 4 3 | 5 6 [ 7 8 9 0         a b c     ! d e > f g h % i j k k k k k k k ",
"          l m n n n n n n n n n n n n n n n n n 9 o !           p q r s a         0 t u v w x _ y y y z z z A x B C D m E         F G H I J K L F         M N O P Q R S S S S S S S ",
"                                                          T U V W X Y Z `  ...+.@.                                        ] #...$.%.&.*.=.-.;.>.,.s '.).!.                          ",
"~.                                                      ! {.].^./.(._.:.<.[.}.|.1.                                        2.3.4.5.6.7.8.9.0.a.b.8.c.d.e.,.                          ",
"f.g.          h.i.j.j.j.j.j.j.j.j.j.j.j.j.j.j.j.k.l.m.n.o.p.q.r.s.t.u.v._.w.x.y.z.A.B.C.D.E.F.F.F.F.F.F.F.F.F.F.G.H.I.J.K.L.w._.M.N.O.P.Q.R.a.8.S.T.U.V.W.X.Y.Z.`. +F.F.F.F.F.F.F.F.",
".+++@+#+      $+%+&+*+L.=+-+-+-+-+-+-+-+-+-+-+;+>+,+'+)+!+~+{+]+^+/+(+_+:+<+[+}+|+V.1+2+3+4+3+3+3+3+3+3+3+3+3+3+3+4+5+6+7+8+9+0+a+b+c+d+e+f+g+h+O.i+j+k+S.l+m+n+o+4+3+3+3+3+3+3+3+3+",
"p+q+r+s+t+u+  T v+w+x+y+z+A+B+j+C+8.C+D+E+F+G+H+I+d+d+J+K+L+M+N+O+P+]+Q+R+S+T+U+j+V+W+X+8+G+Y+Z+`+X+8.8.8.8.8.8.8.8.E+F+ @.@+@@@J+#@J+d+$@%@&@+@*@=@-@H+G+i+`+C+X+j+Y+G+Y+X+8.8.8.8.",
";@;@>@,@'@)@!@~@      {@]@^@/@(@_@:@<@[@}@*@|@+@1@2@3@J+K+L+M+N+4@5@6@7@8@M+K+9@[@0@[@}@P.a@@@b@c@d@:@O.8+W+Z+d@e@f@ @=@g@h@1@J+J+J+J+d+i@j@K+J+J+J+#@a@h+[@0@k@|@.@J+l@m@F+n@o@W+8+",
";@;@p@q@q@r@s@t@u@v@      w@x@y@z@A@+@J+2@2@J+J+J+J+J+J+K+B@C@D@E@F@7@7@8@M+K+J+J+J+3@G@H@I@I@2@I+P..@J@_@_@|@J@I+.@J+#@J+J+J+J+J+J+J+d+i@j@K+J+J+J+J+J+J+J+J+3@K@I@L@K@+@=@*@d+ @o@",
";@;@;@;@p@q@M@q+N@O@P@Q@      R@S@T@U@+@J+J+J+J+J+J+J+J+K+L+V@W@X@Y@7@7@8@M+K+J+J+J+J+J+J+J+J+J+J+J+J+J+J+J+#@J+J+J+J+J+J+J+J+J+J+d+2@Z@`@ #K+J+J+J+J+J+J+J+J+J+J+J+J+J+J+J+J+J+#@+@",
";@;@;@;@;@;@;@q@M@.#+#@###$#      %#&#*#=#J+J+J+J+J+3@1@-#;#>#,#'#)#7@7@!#M+J+J+J+J+J+J+J+J+J+J+J+J+J+J+J+J+J+J+J+J+J+J+J+J+J+d+~#{#]#^#/#(#K+J+J+J+J+J+J+J+J+J+J+J+J+J+J+J+J+J+J+J+",
";@;@;@;@;@;@;@;@;@;@_#:#<#[#}#|#    1#2#3#4#K+K+K+1@G@5#6#7#8#9#0#a#b#c#d#e#3@J+J+J+J+J+J+J+J+J+J+J+J+J+J+J+J+J+J+J+J+J+J+3@2@1@Z@f#g#h#i#j#k#d+3@3@2@J+J+J+J+J+J+J+J+J+J+J+J+J+J+J+",
";@;@;@;@;@;@;@;@;@;@;@;@l#m#n#o#p#q#    r#s#t##@u#v#w#x#y#z#8#A#B#C#D#E#F#G##@J+J+J+J+J+J+J+J+J+J+J+J+J+J+J+J+J+J+J+J+J+J+#@1@H#I#J#K#L#M#N#O#P#d+3@2@J+J+J+J+J+J+J+J+J+J+J+J+J+J+J+",
";@;@;@;@;@;@;@;@;@;@;@;@;@q@Q#R#S#T#U#^   V#W#X#Y#Z#`#K#y#z#8#A# $.$+$@$#$$$%$&$1@J+J+J+J+J+J+J+J+J+J+J+1@*$=$G@+@J+J+1@5#-$h#;$K#L#K#L#M#N#>$,$w#'$)$g#Z@+@J+J+J+J+J+J+J+J+J+J++@!$",
";@;@;@;@;@;@;@;@;@;@;@;@;@;@;@~${$]$^$/$($]   _$:$<$[$}$K#|$8#1$2$3$4$4$5$y#;$6$)$7$8$9$0$a$=$I@b$c$d$c$7$,$,$c$H@Z@e$0$h#f$L#K#K#K#K#L#M#N#g$K#K#K#L#h$i$j$%$k$9$0$l$Z@5#m$d$b$n$)$",
";@;@;@;@;@;@;@;@;@;@;@;@;@;@;@;@;@o$p$q$r$s$Q@!   t$u$v$w$x$y$A#z$A$B$C$5$y#K#K#K#L#x#h#;$h#i$7$6$h$,$h#K#L#L#h#7$D$,$h$L#K#K#K#K#K#K#L#M#N#g$K#K#K#K#K#K#K#L#h#h#;$E$F$w#f$,$6$K#L#",
";@;@;@;@;@;@;@;@;@;@;@;@;@;@;@;@;@;@G$p@H$I$J$K$L$    M$N$O$P$Q$R$A$B$S$8#K#K#K#K#K#K#K#K#K#K#K#K#K#K#K#K#K#K#K#K#K#K#K#K#K#K#K#K#K#K#L#M#N#g$K#K#K#K#K#K#K#K#K#K#K#K#K#K#K#K#K#K#K#",
";@;@;@;@;@;@;@;@;@;@;@;@;@;@;@;@;@;@;@p@o$p@T$U$V$W$^     X$Y$Z$`$ %.%S$8#K#K#K#K#K#K#K#K#K#K#K#K#K#K#K#K#K#K#K#K#K#K#K#K#K#K#K#K#K#K#L#M#N#g$K#K#K#K#K#K#K#K#K#K#K#K#K#K#K#K#K#K#K#",
";@;@;@;@;@;@;@;@;@;@;@;@;@;@;@;@;@;@;@;@;@q@_#+%@%#%T#$%L$    %%&%*%=%-%;%>%>%>%,%,%;%'%)%!%)%)%)%)%)%)%'%,%>%>%>%>%>%>%>%~%{%]%^%/%/%(%_%:%<%>%>%>%>%>%>%[%,%}%'%!%)%)%)%)%)%!%'%,%",
";@;@;@;@;@;@;@;@;@;@;@;@;@;@;@;@;@;@;@;@;@;@;@G$|%1%]$2%3%$%L$  t$4%5%6%7%8%9%0%0%8%a%a%a%a%a%a%a%a%a%a%a%8%0%0%9%9%9%9%9%b%9%c%d%e%f%f%g%h%i%j%k%l%9%9%l%0%m%n%a%a%a%a%a%a%a%a%n%8%",
";@;@;@;@;@;@;@;@;@;@;@;@;@;@;@;@;@;@;@;@;@;@;@;@;@G$o%H$p%q%r%s%t%u%v%w%#+x%y%z%A%K$B%C%D%E%E%E%E%E%E%F%G%H%I%J%K%J%J%J%J%J%J%u+L%! ! M%N%K$O%$%g.P%K%Q%($!@K$R%S%E%E%E%E%E%E%T%U%!@",
";@;@;@;@;@;@;@;@;@;@;@;@;@;@;@;@;@;@;@;@;@;@;@;@;@;@G$V%W%X%Y%Z%`% &.&+&@&#&$&%&&&*&=&o#-&@#;&;&;&>&>&,&'&)&!&~&{&~&~&~&~&~&]&^&/&(&E%_&:&<&[&}&|&3%$&$&1&2&3&4&5&@#;&;&;&;&6&7&8&9&",
";@;@;@;@;@;@;@;@;@;@;@;@;@;@;@;@;@;@;@;@;@;@;@;@;@;@G$0&:#q+a&b&c&d&e&f&r+g&h&g&i&]$j&k&l&W%a&a&a&b&b&R#m&n#n&o&p%o&o&o&o&o&o&p&q&r&@#s&t&u&v&w&x&y&h&h&z&A&+#B&R#W%a&a&a&a&C&a&<#D&",
";@;@;@;@;@;@;@;@;@;@;@;@;@;@;@;@;@;@;@;@;@;@;@;@;@;@G$0&:#q+q+E&F&G&q+E&M@l#;@;@;@;@;@;@;@;@;@;@;@;@;@;@;@;@;@;@;@;@;@;@;@;@;@H&I&k&J&K&L&M&N&O&{$G$;@;@;@;@;@;@;@;@;@;@;@;@;@;@;@;@",
";@;@;@;@;@;@;@;@;@;@;@;@;@;@;@;@;@;@;@;@;@;@;@;@;@;@G$0&:#q+q+E&F&G&q+E&M@l#;@;@;@;@;@;@;@;@;@;@;@;@;@;@;@;@;@;@;@;@;@;@;@;@;@H&P&Q&R&S&T&U&V&R#M@G$;@;@;@;@;@;@;@;@;@;@;@;@;@;@;@;@",
";@;@;@;@;@;@;@;@;@;@;@;@;@;@;@;@;@;@;@;@;@;@;@;@;@;@G$0&:#q+q+E&F&G&q+E&r@q@;@;@;@;@;@;@;@;@;@;@;@;@;@;@;@;@;@;@;@;@;@;@;@;@;@q@W&R#X&Y&Z&`&k& *M@G$;@;@;@;@;@;@;@;@;@;@;@;@;@;@;@;@",
";@;@;@;@;@;@;@;@;@;@;@;@;@;@;@;@;@;@;@;@;@;@;@;@;@;@G$0&:#q+q+E&A&.*+*q+@*q@;@;@;@;@;@;@;@;@;@;@;@;@;@;@;@;@;@;@;@;@;@;@;@;@;@q@#*$* *%*&***=*l&_#G$;@;@;@;@;@;@;@;@;@;@;@;@;@;@;@;@",
";@;@;@;@;@;@;@;@;@;@;@;@;@;@;@;@;@;@;@;@;@;@;@;@;@;@G$0&:#q+q+E&v&-*+*q+@*q@;@;@;@;@;@;@;@;@;@;@;@;@;@;@;@;@;@;@;@;@;@;@;@;@;@o$r@;*l&>*,*R#O&'*p@;@;@;@;@;@;@;@;@;@;@;@;@;@;@;@;@;@",
";@;@;@;@;@;@;@;@;@;@;@;@;@;@;@;@;@;@;@;@;@;@;@;@;@;@G$0&:#q+q+E&N@)*+*q+@*q@;@;@;@;@;@;@;@;@;@;@;@;@;@;@;@;@;@;@;@;@;@;@;@;@;@o%!*~*;*{*]*X&W%r@o%;@;@;@;@;@;@;@;@;@;@;@;@;@;@;@;@;@",
";@;@;@;@;@;@;@;@;@;@;@;@;@;@;@;@;@;@;@;@;@;@;@;@;@;@q@^*m#q+q+E&N@)*+*q+@*q@;@;@;@;@;@;@;@;@;@;@;@;@;@;@;@;@;@;@;@;@;@;@;@;@q@/*E&(*'*W&_*:*q+M@o%;@;@;@;@;@;@;@;@;@;@;@;@;@;@;@;@;@",
";@;@;@;@;@;@;@;@;@;@;@;@;@;@;@;@;@;@;@;@;@;@;@;@;@;@q@@*m#q+q+E&N@)*+*q+@*o%o%_#@*<*[*E&@*+%o%q@;@;@;@;@;@;@;@;@;@;@;@;@;@;@q@p$_*}*|*1*2*3*4*M@o%;@5*o%,@E&<*(*6*7*o%5*;@;@;@;@;@;@",
"$*$*$*$*$*$*$*$*$*$*$*$*$*$*$*8*<#X%9*0*i&a*b*b*b*b*Y%h&c*p%n#-*d*e*e&w&f*9*F&z&c*g*Z%h*i*h&c&n#b*b*b*b*b*j*k*l*m*.+.+.+.+.+9*b*v&n*o*p*q*F&Y%A&l*9*n*c&r*s*t*u*v*w*x*y*n#n#y&z&z&z&"};
