/* XPM */
static char * waterRight_xpm[] = {
"90 32 800 2",
"  	c #1D1E00",
". 	c #1A1D00",
"+ 	c #1A1A00",
"@ 	c #191A00",
"# 	c #161900",
"$ 	c #161600",
"% 	c #151600",
"& 	c #131400",
"* 	c #0C0C00",
"= 	c #040400",
"- 	c #010100",
"; 	c #000000",
"> 	c #020302",
", 	c #070907",
"' 	c #020202",
") 	c #020200",
"! 	c #080901",
"~ 	c #101102",
"{ 	c #181902",
"] 	c #1A1C02",
"^ 	c #191B02",
"/ 	c #1B1D01",
"( 	c #1D1F02",
"_ 	c #1F2103",
": 	c #202203",
"< 	c #1F2102",
"[ 	c #1E2002",
"} 	c #1B1D02",
"| 	c #191B01",
"1 	c #181901",
"2 	c #191A02",
"3 	c #171803",
"4 	c #111201",
"5 	c #080900",
"6 	c #020201",
"7 	c #010101",
"8 	c #030505",
"9 	c #030506",
"0 	c #050600",
"a 	c #0B0C00",
"b 	c #0F1000",
"c 	c #161800",
"d 	c #171900",
"e 	c #181A00",
"f 	c #171A01",
"g 	c #181A01",
"h 	c #161801",
"i 	c #151501",
"j 	c #0E0F01",
"k 	c #060600",
"l 	c #151602",
"m 	c #121302",
"n 	c #0D0E00",
"o 	c #0B0B01",
"p 	c #060701",
"q 	c #030400",
"r 	c #000100",
"s 	c #020303",
"t 	c #0C100E",
"u 	c #19221E",
"v 	c #232E2C",
"w 	c #161E1C",
"x 	c #0D1210",
"y 	c #080C09",
"z 	c #050401",
"A 	c #070701",
"B 	c #060700",
"C 	c #090A01",
"D 	c #101003",
"E 	c #141502",
"F 	c #161803",
"G 	c #161804",
"H 	c #161703",
"I 	c #0F1102",
"J 	c #0C0D02",
"K 	c #080902",
"L 	c #040501",
"M 	c #080A09",
"N 	c #131A17",
"O 	c #1E2727",
"P 	c #151C1F",
"Q 	c #040500",
"R 	c #070801",
"S 	c #050701",
"T 	c #030303",
"U 	c #050506",
"V 	c #040706",
"W 	c #1A201F",
"X 	c #40524D",
"Y 	c #64807B",
"Z 	c #668379",
"` 	c #63827A",
" .	c #485E59",
"..	c #2E3C39",
"+.	c #161E1D",
"@.	c #090B0A",
"#.	c #050606",
"$.	c #030404",
"%.	c #010201",
"&.	c #040504",
"*.	c #060808",
"=.	c #101513",
"-.	c #2C3936",
";.	c #526B66",
">.	c #668784",
",.	c #405658",
"'.	c #010202",
").	c #010303",
"!.	c #000101",
"~.	c #2D3937",
"{.	c #3D4F4B",
"].	c #59716C",
"^.	c #6D8C85",
"/.	c #6E8D86",
"(.	c #6C8A84",
"_.	c #648175",
":.	c #6A8780",
"<.	c #6E8E86",
"[.	c #6B8882",
"}.	c #526A65",
"|.	c #364642",
"1.	c #24302C",
"2.	c #0A0E0C",
"3.	c #0E1110",
"4.	c #26302F",
"5.	c #374643",
"6.	c #4A605A",
"7.	c #607D76",
"8.	c #688881",
"9.	c #66847D",
"0.	c #779B97",
"a.	c #78A09F",
"b.	c #3A5552",
"c.	c #1D3230",
"d.	c #0B1110",
"e.	c #050502",
"f.	c #171E1C",
"g.	c #151C1A",
"h.	c #19211F",
"i.	c #2B3733",
"j.	c #323F3C",
"k.	c #57706B",
"l.	c #62807A",
"m.	c #66837D",
"n.	c #67847E",
"o.	c #6A8881",
"p.	c #6D8B84",
"q.	c #668175",
"r.	c #568180",
"s.	c #548585",
"t.	c #618885",
"u.	c #6A8A84",
"v.	c #698781",
"w.	c #66827D",
"x.	c #627E77",
"y.	c #445853",
"z.	c #2F3C38",
"A.	c #1F2625",
"B.	c #171D1B",
"C.	c #171E1B",
"D.	c #161D1B",
"E.	c #171E1D",
"F.	c #232D2A",
"G.	c #303D39",
"H.	c #465A55",
"I.	c #607C76",
"J.	c #65827C",
"K.	c #67837E",
"L.	c #67867F",
"M.	c #67857E",
"N.	c #6E928C",
"O.	c #659795",
"P.	c #467A79",
"Q.	c #467979",
"R.	c #477575",
"S.	c #476A68",
"T.	c #3F5855",
"U.	c #2F4542",
"V.	c #2B3938",
"W.	c #313D3B",
"X.	c #303D3B",
"Y.	c #2F3F3C",
"Z.	c #222C2C",
"`.	c #0D0C05",
" +	c #2F2A14",
".+	c #5A746E",
"++	c #59736D",
"@+	c #5B756F",
"#+	c #5F7973",
"$+	c #607C77",
"%+	c #6B8982",
"&+	c #698985",
"*+	c #668A85",
"=+	c #678A85",
"-+	c #578685",
";+	c #548584",
">+	c #557C75",
",+	c #4E8080",
"'+	c #4E8485",
")+	c #518685",
"!+	c #548685",
"~+	c #578585",
"{+	c #598685",
"]+	c #5C8885",
"^+	c #698A85",
"/+	c #66827C",
"(+	c #607B75",
"_+	c #5C7670",
":+	c #5D7771",
"<+	c #5F7B75",
"[+	c #6D8B83",
"}+	c #6B8B84",
"|+	c #678984",
"1+	c #648782",
"2+	c #5F8480",
"3+	c #55807E",
"4+	c #4E7E7D",
"5+	c #589293",
"6+	c #5D9DA2",
"7+	c #487D7D",
"8+	c #4A8282",
"9+	c #4C8382",
"0+	c #4E8180",
"a+	c #4B7D7C",
"b+	c #477877",
"c+	c #4C7674",
"d+	c #587B75",
"e+	c #607C75",
"f+	c #617C75",
"g+	c #627D76",
"h+	c #4E6764",
"i+	c #374949",
"j+	c #1F2929",
"k+	c #080D0E",
"l+	c #0B0A04",
"m+	c #1B1A0C",
"n+	c #3F3A1C",
"o+	c #61582C",
"p+	c #6C8B85",
"q+	c #648885",
"r+	c #658985",
"s+	c #6A8B85",
"t+	c #678985",
"u+	c #5A8685",
"v+	c #568585",
"w+	c #558685",
"x+	c #538485",
"y+	c #4F8585",
"z+	c #4E8484",
"A+	c #4C7A75",
"B+	c #4D8080",
"C+	c #4E8585",
"D+	c #4D8585",
"E+	c #508585",
"F+	c #518485",
"G+	c #5A8785",
"H+	c #638885",
"I+	c #6A8A85",
"J+	c #648985",
"K+	c #688A85",
"L+	c #668985",
"M+	c #608885",
"N+	c #568584",
"O+	c #528382",
"P+	c #4F8080",
"Q+	c #497E7E",
"R+	c #529195",
"S+	c #589EA6",
"T+	c #497D7D",
"U+	c #4B8282",
"V+	c #4C8383",
"W+	c #4D8484",
"X+	c #528585",
"Y+	c #688985",
"Z+	c #668A86",
"`+	c #688B87",
" @	c #3F5E5E",
".@	c #2D3D3B",
"+@	c #1A2223",
"@@	c #0F1315",
"#@	c #060A0B",
"$@	c #060503",
"%@	c #151509",
"&@	c #3C371C",
"*@	c #575028",
"=@	c #6A6130",
"-@	c #726934",
";@	c #5C8785",
">@	c #618985",
",@	c #588585",
"'@	c #528485",
")@	c #568685",
"!@	c #598785",
"~@	c #578785",
"{@	c #588785",
"]@	c #508485",
"^@	c #497A75",
"/@	c #4C8080",
"(@	c #4C8485",
"_@	c #4A8385",
":@	c #4F8485",
"<@	c #5E8885",
"[@	c #608985",
"}@	c #628885",
"|@	c #5F8885",
"1@	c #5D8685",
"2@	c #548485",
"3@	c #588685",
"4@	c #538685",
"5@	c #498080",
"6@	c #477E7E",
"7@	c #477E7D",
"8@	c #4E8D91",
"9@	c #54989E",
"0@	c #4D8485",
"a@	c #4C8385",
"b@	c #5B8685",
"c@	c #5B8785",
"d@	c #518382",
"e@	c #4C7373",
"f@	c #344A48",
"g@	c #0D1A1F",
"h@	c #040708",
"i@	c #020101",
"j@	c #0E0D06",
"k@	c #3D361A",
"l@	c #5C5529",
"m@	c #6E6532",
"n@	c #726833",
"o@	c #726834",
"p@	c #498285",
"q@	c #468385",
"r@	c #478385",
"s@	c #538585",
"t@	c #488385",
"u@	c #4B8385",
"v@	c #4E8C8F",
"w@	c #53959B",
"x@	c #487D7C",
"y@	c #498082",
"z@	c #4B8283",
"A@	c #518483",
"B@	c #467677",
"C@	c #2C5357",
"D@	c #12272F",
"E@	c #05090C",
"F@	c #030401",
"G@	c #121008",
"H@	c #322D16",
"I@	c #5B5228",
"J@	c #6D6431",
"K@	c #716733",
"L@	c #706632",
"M@	c #4B7A75",
"N@	c #467F80",
"O@	c #498385",
"P@	c #4B8788",
"Q@	c #4C8F90",
"R@	c #3E7D7E",
"S@	c #447F82",
"T@	c #497C7D",
"U@	c #355F65",
"V@	c #1C373F",
"W@	c #0A1516",
"X@	c #050402",
"Y@	c #1B190C",
"Z@	c #3D381C",
"`@	c #5B542A",
" #	c #6E6432",
".#	c #487B75",
"+#	c #387B80",
"@#	c #3E8085",
"##	c #488285",
"$#	c #4B8485",
"%#	c #4D8385",
"&#	c #487F7F",
"*#	c #467C78",
"=#	c #3B7A75",
"-#	c #2C7881",
";#	c #387D82",
">#	c #458183",
",#	c #498384",
"'#	c #4B8182",
")#	c #3D6E75",
"!#	c #284C53",
"~#	c #0F1E21",
"{#	c #070604",
"]#	c #252111",
"^#	c #46401F",
"/#	c #60562B",
"(#	c #6B602F",
"_#	c #4B8484",
":#	c #417875",
"<#	c #2D7980",
"[#	c #317D85",
"}#	c #3D8085",
"|#	c #448185",
"1#	c #4A8182",
"2#	c #477E7F",
"3#	c #477D7E",
"4#	c #467E7F",
"5#	c #417A76",
"6#	c #357572",
"7#	c #287982",
"8#	c #2C7A82",
"9#	c #317B83",
"0#	c #387E84",
"a#	c #448285",
"b#	c #487C7D",
"c#	c #345F66",
"d#	c #1A343B",
"e#	c #050D0E",
"f#	c #030302",
"g#	c #1C190D",
"h#	c #4D4622",
"i#	c #635A2D",
"j#	c #6B6130",
"k#	c #6F6532",
"l#	c #4A8285",
"m#	c #3C8084",
"n#	c #2E7375",
"o#	c #2C7980",
"p#	c #2E7D85",
"q#	c #2F7D85",
"r#	c #2C7C85",
"s#	c #377F85",
"t#	c #478285",
"u#	c #4B8384",
"v#	c #497F80",
"w#	c #457D7E",
"x#	c #3C7A7F",
"y#	c #2E7476",
"z#	c #2A7372",
"A#	c #2A7982",
"B#	c #2D7B83",
"C#	c #2E7C84",
"D#	c #307D85",
"E#	c #357E85",
"F#	c #418185",
"G#	c #4F8685",
"H#	c #3C6E75",
"I#	c #1F383C",
"J#	c #020506",
"K#	c #040302",
"L#	c #1A180B",
"M#	c #403A1C",
"N#	c #5B5329",
"O#	c #6A612F",
"P#	c #716734",
"Q#	c #468285",
"R#	c #347D85",
"S#	c #337E85",
"T#	c #337D85",
"U#	c #2F7C84",
"V#	c #307C85",
"W#	c #397E85",
"X#	c #458185",
"Y#	c #458285",
"Z#	c #428185",
"`#	c #387F85",
" $	c #327D84",
".$	c #307980",
"+$	c #2E777E",
"@$	c #2A767F",
"#$	c #287276",
"$$	c #2A7272",
"%$	c #2F7E85",
"&$	c #2E7881",
"*$	c #245963",
"=$	c #101E1F",
"-$	c #020507",
";$	c #020405",
">$	c #111007",
",$	c #2F2B15",
"'$	c #4E4722",
")$	c #665D2E",
"!$	c #6F6433",
"~$	c #387E85",
"{$	c #3F8185",
"]$	c #408185",
"^$	c #397F85",
"/$	c #428085",
"($	c #3A7F85",
"_$	c #3B8085",
":$	c #3A8085",
"<$	c #357D85",
"[$	c #347E85",
"}$	c #317C85",
"|$	c #2D7C84",
"1$	c #2F7C85",
"2$	c #408085",
"3$	c #3C8085",
"4$	c #367E85",
"5$	c #3D7F85",
"6$	c #398085",
"7$	c #327D85",
"8$	c #2B7981",
"9$	c #28767F",
"0$	c #287176",
"a$	c #297172",
"b$	c #297982",
"c$	c #2D7B84",
"d$	c #2D787F",
"e$	c #215C67",
"f$	c #0F3139",
"g$	c #040D10",
"h$	c #010204",
"i$	c #0A0905",
"j$	c #201D0D",
"k$	c #423C1D",
"l$	c #5F562B",
"m$	c #6D6432",
"n$	c #746935",
"o$	c #377E85",
"p$	c #327E85",
"q$	c #367F85",
"r$	c #29777F",
"s$	c #27767F",
"t$	c #277176",
"u$	c #2A7072",
"v$	c #2D7C83",
"w$	c #297279",
"x$	c #1C5157",
"y$	c #0F3034",
"z$	c #06181D",
"A$	c #01090C",
"B$	c #151308",
"C$	c #37341A",
"D$	c #574F28",
"E$	c #6B6231",
"F$	c #726733",
"G$	c #2A7880",
"H$	c #2B7275",
"I$	c #27737C",
"J$	c #1D5458",
"K$	c #113539",
"L$	c #05161C",
"M$	c #000606",
"N$	c #030201",
"O$	c #0F0E06",
"P$	c #312D15",
"Q$	c #544D26",
"R$	c #685E2F",
"S$	c #736934",
"T$	c #28767E",
"U$	c #277278",
"V$	c #216267",
"W$	c #0D3A47",
"X$	c #05171D",
"Y$	c #000405",
"Z$	c #0F0E07",
"`$	c #302B15",
" %	c #554C26",
".%	c #665C2D",
"+%	c #1A5461",
"@%	c #195361",
"#%	c #175161",
"$%	c #185261",
"%%	c #185461",
"&%	c #195360",
"*%	c #1B5562",
"=%	c #195660",
"-%	c #164C57",
";%	c #286463",
">%	c #2E6A67",
",%	c #2E6967",
"'%	c #2F6A67",
")%	c #296566",
"!%	c #1C5762",
"~%	c #1A5462",
"{%	c #195461",
"]%	c #175360",
"^%	c #17525E",
"/%	c #164E5B",
"(%	c #0C333D",
"_%	c #000709",
":%	c #110F07",
"<%	c #4F4923",
"[%	c #62592B",
"}%	c #6F6432",
"|%	c #061518",
"1%	c #041318",
"2%	c #051418",
"3%	c #061517",
"4%	c #061519",
"5%	c #061419",
"6%	c #061619",
"7%	c #051419",
"8%	c #071619",
"9%	c #081717",
"0%	c #061616",
"a%	c #122019",
"b%	c #12211C",
"c%	c #10201C",
"d%	c #0F1F1B",
"e%	c #0C1C1A",
"f%	c #051519",
"g%	c #061417",
"h%	c #051518",
"i%	c #041418",
"j%	c #041215",
"k%	c #2C2814",
"l%	c #4A4322",
"m%	c #6C6231",
"n%	c #6F6533",
"o%	c #15140A",
"p%	c #1A170B",
"q%	c #19170B",
"r%	c #19150A",
"s%	c #131209",
"t%	c #070802",
"u%	c #070602",
"v%	c #090904",
"w%	c #151208",
"x%	c #0B0A03",
"y%	c #030300",
"z%	c #020301",
"A%	c #080703",
"B%	c #090804",
"C%	c #0E0D05",
"D%	c #131208",
"E%	c #18160B",
"F%	c #19160B",
"G%	c #16140A",
"H%	c #111008",
"I%	c #0C0B06",
"J%	c #080804",
"K%	c #070702",
"L%	c #080702",
"M%	c #0F0D06",
"N%	c #121007",
"O%	c #131109",
"P%	c #161409",
"Q%	c #211E0F",
"R%	c #322D17",
"S%	c #433E1E",
"T%	c #564F26",
"U%	c #706633",
"V%	c #332F17",
"W%	c #3F391C",
"X%	c #474121",
"Y%	c #453F20",
"Z%	c #474120",
"`%	c #433D1E",
" &	c #3D371A",
".&	c #383218",
"+&	c #343118",
"@&	c #2E2A15",
"#&	c #2A2612",
"$&	c #312E16",
"%&	c #383419",
"&&	c #3C371B",
"*&	c #2E2B16",
"=&	c #2A1F0F",
"-&	c #1C180B",
";&	c #1C1A0C",
">&	c #221F0F",
",&	c #272411",
"'&	c #292613",
")&	c #2A2713",
"!&	c #292612",
"~&	c #2D2914",
"{&	c #322E16",
"]&	c #3B351A",
"^&	c #443E1F",
"/&	c #464020",
"(&	c #453F1F",
"_&	c #3A3419",
":&	c #363118",
"<&	c #312D16",
"[&	c #2C2813",
"}&	c #2B2712",
"|&	c #2E2A14",
"1&	c #322F17",
"2&	c #373319",
"3&	c #3A351A",
"4&	c #3D391C",
"5&	c #4E4723",
"6&	c #5B5328",
"7&	c #62592C",
"8&	c #685F2F",
"9&	c #6F6632",
"0&	c #5C5329",
"a&	c #69602F",
"b&	c #695E2F",
"c&	c #635A2B",
"d&	c #5D552A",
"e&	c #5A5229",
"f&	c #574F27",
"g&	c #595129",
"h&	c #5A5129",
"i&	c #5A5329",
"j&	c #5C542A",
"k&	c #4F4B24",
"l&	c #533D1D",
"m&	c #473C1D",
"n&	c #494321",
"o&	c #4F4824",
"p&	c #554E26",
"q&	c #575027",
"r&	c #585129",
"s&	c #61582B",
"t&	c #695F2F",
"u&	c #675E2F",
"v&	c #655C2D",
"w&	c #62582B",
"x&	c #5B532A",
"y&	c #585028",
"z&	c #575128",
"A&	c #5A532A",
"B&	c #585128",
"C&	c #5A5228",
"D&	c #706533",
"E&	c #655D2E",
"F&	c #655C2E",
"G&	c #625C2E",
"H&	c #6E4F26",
"I&	c #66562A",
"J&	c #655B2D",
"K&	c #686030",
"L&	c #706733",
"M&	c #6B6230",
"N&	c #625A2C",
"O&	c #5E562A",
"P&	c #655C2F",
"Q&	c #666030",
"R&	c #725328",
"S&	c #6B592C",
"T&	c #696030",
"U&	c #655D2D",
"V&	c #685F30",
"W&	c #665D2F",
"X&	c #665F2E",
"Y&	c #72542A",
"Z&	c #6B5B2D",
"`&	c #675F2F",
" *	c #69612F",
".*	c #645C2D",
"+*	c #655E2E",
"@*	c #6E572A",
"#*	c #695A2D",
"$*	c #675D2E",
"%*	c #6B612F",
"&*	c #6D6331",
"**	c #6A6231",
"=*	c #615A2C",
"-*	c #6A6230",
";*	c #6A5B2C",
">*	c #675C2E",
",*	c #68602F",
"'*	c #61592C",
")*	c #695D2F",
"!*	c #675F2E",
"~*	c #696031",
"{*	c #6D6332",
"]*	c #60592C",
"^*	c #685E30",
"/*	c #6A6030",
"(*	c #6A6131",
"_*	c #6E6331",
":*	c #6E6531",
"<*	c #716732",
"[*	c #6E6332",
"}*	c #6B6330",
"|*	c #6C6131",
"1*	c #696130",
"2*	c #6A6031",
"3*	c #6D6231",
"4*	c #6F5F2F",
"5*	c #6E6230",
"6*	c #6C6331",
"7*	c #6B6131",
"8*	c #5A5227",
"9*	c #595128",
"0*	c #554C27",
"a*	c #514925",
"b*	c #4D4722",
"c*	c #4E4724",
"d*	c #514A24",
"e*	c #564E27",
"f*	c #5E552A",
"g*	c #60572B",
"h*	c #5F572B",
"i*	c #61552A",
"j*	c #634F28",
"k*	c #605229",
"l*	c #5C5429",
"m*	c #60582C",
"n*	c #5D542A",
"o*	c #5B5429",
"p*	c #544C26",
"q*	c #504824",
"r*	c #504923",
"s*	c #554D26",
"t*	c #5C552A",
"u*	c #544E27",
"v*	c #524C25",
"w*	c #5C5428",
"x*	c #5D5529",
"y*	c #645B2C",
"              . + @ # $ % & * = - ; ; > , ' ; ; ; ; ) ! ~ { ] ^ / ( _ : : : _ < [ [ [ ( } ] | 1 2 3 4 5 6 ; ; 7 8 9 ; - 0 a b & c d d d d d c e f 2 2 2 2 2 2 2 2 2 2 @ g h i j k ; ",
"l l l l l l l m n o p q r ; ; ; ; s t u v w x y s ; ; ; ; z A B C D E F G G G H H H 3 E I J K L ) ; ; ; ; ' M N O P ; ; ; ; ; - Q ! R R R R R R R R R R R R R R R R R A S ; ; ; ; ; ",
"; ; ; ; ; ; ; ; ; ; ; ; ; T U V M W X Y Z `  ...+.@.#.$.7 ; ; ; ; ; ; ; ; ; ; ; ; ; ; ; ; ; ; ; ; %.&.#.*.=.-.;.>.,.'.).!.; ; ; ; ; ; ; ; ; ; ; ; ; ; ; ; ; ; ; ; ; ; ; ; ; ; ; ; ; ",
"; ; ; ; ; ; ; ; ; ; ; ; ; W ~.{.].^./.(._.:.^.<.[.}.|.1.2.; ; ; ; ; ; ; ; ; ; ; ; ; ; ; ; ; ; ; ; 3.4.5.6.7.8.9.0.a.b.c.d.- ; ; ; ; ; ; ; ; ; ; ; ; ; ; ; ; ; ; ; ; ; ; ; ; ; ; ; e.",
"f.f.f.f.f.f.f.f.g.h.i.j.k.l.m.n.o.p.^.(.q.r.s.t.u.v.9.w.x.y.z.A.B.C.f.f.f.f.f.f.f.f.f.f.D.E.F.G.H.I.J.K.w.9.L.M.N.O.P.Q.R.S.T.U.V.W.X.X.X.X.X.X.X.X.X.X.X.X.X.X.X.Y.Z.; ; ; ; ; `. +",
".+.+.+.+.+.+.+.+++@+#+$+%+p.&+*+=+t.-+;+>+,+'+)+!+~+{+]+^+/+(+_+++.+.+.+.+.+.+.+.+.+.+.+++.+:+<+m.[+}+|+1+2+3+4+5+6+7+8+9+0+a+b+c+d+e+f+f+f+f+f+f+f+f+f+f+g+x.h+i+j+k+; ; ; l+m+n+o+",
"^.^.^.^.p+q+r+q+*+p+s+t+=+r+u+v+w+x+y+z+A+B+'+C+D+C+E+y+F+G+H+I+^.^.^.^.^.^.^.^.p+t+J+q+r+^+p+K+L+*+M+N+O+P+Q+7+R+S+T+U+V+W+C+'+'+X+u+r+H+I+Y+s+^.s+*+Z+`+ @.@+@@@#@!.; $@%@&@*@=@-@",
"^+K+;@>@H+,@'@C+F+)@!@~@{@-+]@D+C+C+C+W+^@/@'+C+C+C+C+(@_@:@w+G+<@[@}@J+K+^+t.|@}@1@2@E+]@s.3@{@~@{@4@W+U+5@6@7@8@9@T+U+V+W+C+0@a@(@y+)@x+3@{@b@|@c@d@e@f@g@h@; ; ; i@j@k@l@m@n@o@o@",
";@G+'+x+w+y+p@q@r@p@0@C+C+C+C+C+C+C+C+W+^@/@'+C+C+C+C+C+C+C+D+C+F+X+s@)@c@c@s@F+s.X+a@r@r@t@u@0@C+C+C+W+U+5@6@6@v@w@x@y@z@W+C+C+C+C+C+C+a@a@C+y+A@B@C@D@E@; ; ; F@G@H@I@J@K@K@L@o@o@",
"y+D+C+C+C+C+C+C+C+C+C+C+C+C+C+C+C+C+C+W+M@N@O@a@'+C+C+C+C+C+C+C+C+C+C+D+C+C+C+C+C+C+C+C+C+C+C+C+C+C+C+W+U+5@6@6@P@Q@R@S@V+W+C+C+C+C+C+C+C+C+y+T@U@V@W@; ; ; X@Y@Z@`@=@ #K@L@o@o@o@o@",
"C+C+C+C+C+C+C+C+C+C+C+C+C+C+C+C+C+C+C+W+.#+#@###$#%#'+C+C+C+C+C+C+C+C+C+C+C+C+C+C+C+C+C+C+C+C+C+C+C+C+C+U+&#6@6@*#=#-#;#>#,#(@0@C+C+C+C+C+'#)#!#~#; ; ; {#]#^#/#(# #K@o@o@o@o@o@o@o@",
"C+C+C+C+C+C+C+C+C+C+C+C+C+C+C+a@0@0@'+_#:#<#[#}#|#O@(@a@0@C+C+C+C+C+C+C+C+C+C+C+C+C+C+C+C+C+C+C+C+C+C+0@1#2#3#4#5#6#7#8#9#0#a#u@(@W+W+W+b#c#d#e#; ; f#g#h#i#j#k#o@o@o@o@o@o@o@o@o@o@",
"C+C+C+C+C+C+C+C+C+C+C+C+C+C+C+a@0@'+l#m#n#o#p#q#r#s#t#(@D+C+C+C+C+C+C+C+C+C+C+C+C+C+C+C+C+C+C+C+C+C+C+D+u#v#w#x#y#z#A#8#B#C#D#E#F#G#D+H#I#J#; ; K#L#M#N#O#P#o@o@o@o@o@o@o@o@o@o@o@o@",
"Q#y+C+C+C+C+C+C+C+C+C+C+y+O@}#R#S#E#T#U#n#o#p#q#p#q#V#[#W#a#(@C+C+y+u@X#Y#(@C+C+C+C+C+C+C+C+C+C+C+(@Z#`# $.$+$@$#$$$A#8#B#C#q#%$&$*$=$-$;$; 6 >$,$'$)$!$K@o@o@o@o@o@o@o@o@o@o@o@o@o@",
"R#~${$]$^$a#O@/$($_$:$`#<$[$}$p#q#q#q#|$n#o#p#q#q#q#q#p#1$[#($2$O@t@3$T#T#4$3$]$3${$r@X#5$($_$6$4$R#7$V#C#8$9$9$0$a$b$8#c$q#d$e$f$g$h$; 7 i$j$k$l$m$n$o@o@o@o@o@o@o@o@o@o@o@o@o@o@o@",
"p#q#7$T#1$E#o$p$V#[#[#p#q#q#q#q#q#q#q#|$n#o#p#q#q#q#q#q#q#p#}$T#q$4$[#p#p#q#[#T#}$7$4$[$[#V#[#D#p#q#q#q#C#8$r$s$t$u$A#v$w$x$y$z$A$; - X@B$C$D$E$F$o@o@o@o@o@o@o@o@o@o@o@o@o@o@o@o@o@",
"q#q#q#q#q#q#q#q#q#q#q#q#q#q#q#q#q#q#q#|$n#o#p#q#q#q#q#q#q#q#q#q#q#q#q#q#q#q#q#q#q#q#q#q#q#q#q#q#q#q#q#q#q#8#G$s$t$H$I$J$K$L$M$; ; N$O$P$Q$R$L@S$o@o@o@o@o@o@o@o@o@o@o@o@o@o@o@o@o@o@",
"q#q#q#q#q#q#q#q#q#q#q#q#q#q#q#q#q#q#q#|$n#o#p#q#q#q#q#q#q#q#q#q#q#q#q#q#q#q#q#q#q#q#q#q#q#q#q#q#q#q#q#q#q#8#G$T$U$V$W$X$Y$; ; 6 Z$`$ %.%L@F$L@o@o@o@o@o@o@o@o@o@o@o@o@o@o@o@o@o@o@o@",
"+%@%#%$%$%$%$%$%#%@%%%+%&%*%*%*%*%*%*%=%-%;%>%,%,%'%)%!%~%*%*%*%*%*%*%*%+%@%$%$%$%$%$%$%#%$%@%{%+%+%*%*%*%{%]%^%/%(%_%; ; N$:%,$<%[%}%k#K@o@o@o@o@o@o@o@o@o@o@o@o@o@o@o@o@o@o@o@o@o@",
"|%1%2%2%2%2%2%2%2%2%1%3%4%5%6%6%5%7%8%9%0%a%b%b%c%d%e%6%f%6%6%6%6%6%4%4%|%2%2%2%2%2%2%2%2%2%2%2%|%4%4%6%|%g%h%i%j%A$; N$:%k%l%l$m%n%S$o@o@o@o@o@o@o@o@o@o@o@o@o@o@o@o@o@o@o@o@o@o@o@",
"j@o%p%q%q%q%q%q%q%r%s%O$j@i$t%u%v%`.:%w%O$x%y%- - z%$@A%A%A%A%A%A%u%A%B%C%D%E%q%q%q%q%q%q%F%G%H%O$I%J%K%L%l+M%N%O%P%Q%R%S%T%R$U%S$o@o@o@o@o@o@o@o@o@o@o@o@o@o@o@o@o@o@o@o@o@o@o@o@o@",
"V%W%X%Y%Z%Z%Z%Z%^#`% &.&+&@&#&#&k%$&%&&&*&=&-&q%;&>&,&'&)&)&)&)&)&!&)&~&{&]&^&/&/&Z%Z%Z%^#(&M#_&:&<&[&#&}&|&1&2&3&4&5&6&7&8&9&S$o@o@o@o@o@o@o@o@o@o@o@o@o@o@o@o@o@o@o@o@o@o@o@o@o@o@",
"0&i#a&b&a&a&a&a&8&)$c&/#d&e&f&f&g&h&i&j&k&l&m&^#n&o&p&q&q&q&q&q&q&T%q&r&N#s&)$t&t&a&a&a&8&u&v&w&l$x&y&f&y&*@z&A&B&C&t&a&=@j#D&S$o@o@o@o@o@o@o@o@o@o@o@o@o@o@o@o@o@o@o@o@o@o@o@o@o@o@",
"o@o@o@o@o@o@o@o@o@o@o@o@o@o@o@o@S$m$E&F&G&H&I&J&v&K&L&o@o@o@o@o@o@o@o@o@o@o@o@o@o@o@o@o@o@o@o@o@o@o@o@o@P# #M&=@N&O&M&=@=@j#D&S$o@o@o@o@o@o@o@o@o@o@o@o@o@o@o@o@o@o@o@o@o@o@o@o@o@o@",
"o@o@o@o@o@o@o@o@o@o@o@o@o@o@o@o@S$ #)$P&Q&R&S&T&U&V&L&o@o@o@o@o@o@o@o@o@o@o@o@o@o@o@o@o@o@o@o@o@o@o@o@o@P# #M&=@N&O&M&=@=@j#D&S$o@o@o@o@o@o@o@o@o@o@o@o@o@o@o@o@o@o@o@o@o@o@o@o@o@o@",
"o@o@o@o@o@o@o@o@o@o@o@o@o@o@o@o@S$ #W&v&X&Y&Z&`&)$ *K@o@o@o@o@o@o@o@o@o@o@o@o@o@o@o@o@o@o@o@o@o@o@o@o@o@K@J@M&=@N&O&M&=@=@j#D&S$o@o@o@o@o@o@o@o@o@o@o@o@o@o@o@o@o@o@o@o@o@o@o@o@o@o@",
"o@o@o@o@o@o@o@o@o@o@o@o@o@o@o@o@S$k#u&.*+*@*#*W&$*%*K@o@o@o@o@o@o@o@o@o@o@o@o@o@o@o@o@o@o@o@o@o@o@o@o@o@K@&*=@**=*d&M&=@=@j#D&S$o@o@o@o@o@o@o@o@o@o@o@o@o@o@o@o@o@o@o@o@o@o@o@o@o@o@",
"o@o@o@o@o@o@o@o@o@o@o@o@o@o@o@o@o@L@-*E&)$;*>*u&,*J@F$o@o@o@o@o@o@o@o@o@o@o@o@o@o@o@o@o@o@o@o@o@o@o@o@o@K@&*=@**'*j&M&=@=@j#D&S$o@o@o@o@o@o@o@o@o@o@o@o@o@o@o@o@o@o@o@o@o@o@o@o@o@o@",
"o@o@o@o@o@o@o@o@o@o@o@o@o@o@o@o@o@U%J@8&`&)*!*,*~*{*U%o@o@o@o@o@o@o@o@o@o@o@o@o@o@o@o@o@o@o@o@o@o@o@o@o@K@&*=@**]*`@M&=@=@j#D&S$o@o@o@o@o@o@o@o@o@o@o@o@o@o@o@o@o@o@o@o@o@o@o@o@o@o@",
"o@o@o@o@o@o@o@o@o@o@o@o@o@o@o@o@o@U% #=@^*/* *-*(*M&_*K@o@o@o@o@o@o@o@o@o@o@o@o@o@o@o@o@o@o@o@o@o@o@o@o@K@&*=@**]*`@M&=@=@O#:*K@o@o@o@o@o@o@o@o@o@o@o@o@o@o@o@o@o@o@o@o@o@o@o@o@o@o@",
"o@o@o@o@o@o@<*U%[*}*(*|*M&m@U%<*o@U% #1*2*3*4*5*6*/*E$K@o@o@o@o@o@o@o@o@o@o@o@o@o@o@K@U%}%&*M&7*|*&*k#U%U%&*=@**]*`@M&=@=@O#&*K@o@o@o@o@o@o@o@o@o@o@o@o@o@o@o@o@o@o@o@o@o@o@o@o@o@o@",
"e&e&e&g&N#N#8*9*0*a*b*c*d*e*C&f*g*h*d&6&O&i*j*k*f*j&l*g*o+o+o+o+o+m*h*n*o*l*l*l*l*l*N#C&f&p*q*5&r*s*e&O&g*t*i&A&u*v*'*N#T%s*f&6&l*l*l*l*w*x&x*g*7&i#y*$*$*$*$*$*$*$*$*$*$*$*$*$*$*$*"};
