/* XPM */
static char *watergirl_xpm[] = {
/* columns rows colors chars-per-pixel */
"50 85 256 2 ",
"   c None",
".  c #010B0F",
"X  c #0190D9",
"o  c #010406",
"O  c #000000",
"+  c #010202",
"@  c #000102",
"#  c #010102",
"$  c #0097E1",
"%  c #03080A",
"&  c #000000",
"*  c #000203",
"=  c #000202",
"-  c #020A0D",
";  c #010303",
":  c #041219",
">  c #000000",
",  c #000101",
"<  c #0178B7",
"1  c #010203",
"2  c #010304",
"3  c #000000",
"4  c #000609",
"5  c #012537",
"6  c #017DC2",
"7  c #020608",
"8  c #010A0E",
"9  c #000304",
"0  c #022E44",
"q  c #0093DC",
"w  c #051217",
"e  c #000000",
"r  c #000001",
"t  c #010506",
"y  c #000305",
"u  c #02344C",
"i  c #008FD6",
"p  c #01A7ED",
"a  c #021C28",
"s  c #13E1F1",
"d  c #0172B0",
"f  c #000000",
"g  c #000305",
"h  c #010709",
"j  c #030A0D",
"k  c #000203",
"l  c #000102",
"z  c #000000",
"x  c #01BDFC",
"c  c #009EEA",
"v  c #011B26",
"b  c #0170AA",
"n  c #01466B",
"m  c #021E2C",
"M  c #02141B",
"N  c #47704C",
"B  c #000102",
"V  c #000000",
"C  c #000000",
"Z  c #023E5E",
"A  c #000000",
"S  c #023550",
"D  c #023046",
"F  c #0184C7",
"G  c #026DA3",
"H  c #08748E",
"J  c #0BC7F0",
"K  c #01080A",
"L  c #000000",
"P  c #023C5C",
"I  c #014266",
"U  c #01131C",
"Y  c #026092",
"T  c #015A88",
"R  c #064F65",
"E  c #0AADD6",
"W  c #042B38",
"Q  c #041822",
"!  c #022F43",
"~  c #02B6EF",
"^  c #0199DD",
"/  c #01517D",
"(  c #0188CE",
")  c #062025",
"_  c #05485E",
"`  c #054452",
"'  c #0A5064",
"]  c #043543",
"[  c #116F96",
"{  c #0283B9",
"}  c #01B5FA",
"|  c #019FE5",
" . c #024E76",
".. c #0186CB",
"X. c #022635",
"o. c #011F30",
"O. c #06658C",
"+. c #036A97",
"@. c #076681",
"#. c #024566",
"$. c #04648C",
"%. c #0586B7",
"&. c #03A0DD",
"*. c #0181C1",
"=. c #00CFFF",
"-. c #00B0F9",
";. c #00B2F8",
":. c #00B1F8",
">. c #00B0F9",
",. c #00B1F9",
"<. c #01B0FA",
"1. c #00B1FB",
"2. c #8AD9FA",
"3. c #00B1FC",
"4. c #0099E1",
"5. c #00B1FA",
"6. c #000101",
"7. c #00B2FC",
"8. c #00AFFA",
"9. c #00B2FD",
"0. c #89DBFA",
"q. c #0099E3",
"w. c #72D4FA",
"e. c #66FFFF",
"r. c #01ACF5",
"t. c #8CDAFA",
"y. c #00AEF8",
"u. c #0271A1",
"i. c #03090B",
"p. c #02374E",
"a. c #73D5FE",
"s. c #010E14",
"d. c #01A7EE",
"f. c #034764",
"g. c #026B98",
"h. c #01141C",
"j. c #022737",
"k. c #01AAF2",
"l. c #8BDBFC",
"z. c #10B4FA",
"x. c #01202D",
"c. c #50C9FB",
"v. c #0286BE",
"b. c #1FB9FB",
"n. c #018ECC",
"m. c #022C3D",
"M. c #01A0E3",
"N. c #025477",
"B. c #0298D8",
"V. c #033C54",
"C. c #09B2FA",
"Z. c #0293D2",
"A. c #01A4EA",
"S. c #023F59",
"D. c #025172",
"F. c #025C83",
"G. c #45C5FB",
"H. c #70D3FC",
"J. c #00B3FF",
"K. c #009AE5",
"L. c #26BBFA",
"P. c #03597D",
"I. c #019DDF",
"U. c #027AB0",
"Y. c #021720",
"T. c #2D696C",
"R. c #193035",
"E. c #023145",
"W. c #00A3E8",
"Q. c #84D9FA",
"!. c #8CDCFE",
"~. c #26555B",
"^. c #44A8A8",
"/. c #64FDFC",
"(. c #13262A",
"). c #7FCBEA",
"_. c #69D0FB",
"`. c #58CBFB",
"'. c #30BFFB",
"]. c #75D2F9",
"[. c #038CC7",
"{. c #0181B8",
"}. c #1AB7FA",
"|. c #6ED2FA",
" X c #011B26",
".X c #4B8397",
"XX c #80D7FC",
"oX c #65FFFE",
"OX c #5ECDFB",
"+X c #02425F",
"@X c #05B2FA",
"#X c #3AC0FA",
"$X c #0A3443",
"%X c #0275A6",
"&X c #335966",
"*X c #05B3FC",
"=X c #65CFFC",
"-X c #042430",
";X c #044C6C",
":X c #6DCCF2",
">X c #61B8DA",
",X c #1B494C",
"<X c #87D8FA",
"1X c #60A9C5",
"2X c #02648E",
"3X c #5290A7",
"4X c #1C4959",
"5X c #86D4F4",
"6X c #62F9F8",
"7X c #54D5D5",
"8X c #284750",
"9X c #7BD4FA",
"0X c #189DD6",
"qX c #41778B",
"wX c #649FB6",
"eX c #328083",
"rX c #245D60",
"tX c #206071",
"yX c #378687",
"uX c #60F1F0",
"iX c #24A7DE",
"pX c #121E22",
"aX c #349FC6",
"sX c #19A9E7",
"dX c #27B4ED",
"fX c #3D9998",
"gX c #3B6B7A",
"hX c #2B4C58",
"jX c #5BE5E5",
"kX c #1C96CA",
"lX c #4FC8C7",
"zX c #1E8EBB",
"xX c #243F47",
"cX c #4CB0D8",
"vX c #017FB2",
"bX c #2FA7D8",
"nX c #87DBFD",
"mX c #18B1F3",
"MX c #68C4EA",
"NX c #48B4B3",
"BX c #4CBCBC",
"VX c #3A9090",
"CX c #51BDE8",
"ZX c #32797B",
"AX c #0178AB",
"SX c #5CEDED",
"DX c #7DC4E1",
"FX c #32758F",
"GX c #5DEBEB",
"HX c #1C3840",
"JX c #5C95AA",
"KX c #48A7CF",
"LX c #3994B9",
"PX c #4DC2C2",
"IX c #0001D4",
"UX c #47704C",
/* pixels */
"                                                                                                    ",
"                                                                                                    ",
"                                                                                                    ",
"                                                                                                    ",
"                                                                                                    ",
"                                                                                                    ",
"                                % - L & O > O 7 K .                                                 ",
"                            2 7 y 1 f + i.x.-X8 l k 3                                               ",
"                          t h * i.x.+XF.{.M.W.v.f.Y.= e #                                           ",
"                        t k 6.j.u.M.y.9.7.5.5.7.r.B.N.8 > #                                         ",
"                      . h 6.S.I.9.1.>.>.:.:.:.:.:.1.y.u.M e %                                       ",
"                    # g + E.M.3.>.>.>.>.>.5.5.>.>.>.<.>.u.: 3                                       ",
"                    3 f Y.[.9.1.}.#XL.C.1.A.M.C.z.z.C.@Xy.f.B -                                     ",
"                    > 6.F.1.d.0X].2.<X=XsXS.FXH.].].|.OXG.zXw >                                     ",
"                  % y pXcXc.kX&X5X2.2.!..Xs.wX!.t.t.t.t.t.:X4Xv J                                   ",
"                  2 o hX<Xl.N 8XDXl.2.5X8XxX).t.2.2.2.2.t.XXtXv E                                   ",
"                  . o .X!.2.).xX.Xl.2.).HXzX`.XX<X<XQ.XXH.#XV.>                                     ",
"                  @ : 1X!.l.XX~.(.cX'.iXp.M.*X}.L.dXiX0X[.F.i.B 3 t 2 %                             ",
"                % & M [ qXgXFX;X6.g.J.B.x.2Xg.V.p.m.j.j.R.R.R.R.: 1 B y e 2                         ",
"            . r y 5 #.+.u.g.D.-X+ p.r.M.x.6.s.E.N.u.v.KXDX).).).N JX&XpX* g .                       ",
"        2 & B ! %XM.y.9.9.7.>.^ D.Y.v.v.x.-XvXk.7.9.9.G.l.t.t.t.l.!.9XbXN.w B & #                   ",
"      ; y Q O.W.9.5.>.:.:.,.:.5.r.N.m.m.E.v.J.5.>.>.>.b.XX2.2.2.2.].L.@Xy.v.m.* g 2                 ",
"    K o &XN `.}.y.>.:.:.;.;.;.:.1.B. X6.E.k.>.:.:.:.>.C.=Xt.2.2.<X#X>.>.>.7.I.+X+ 9 2               ",
"  ; o 4X).!.t.].L.>.,.;.;.;.;.,.1.I.-X6.j.A.5.:.:.,.>.8.G.t.2.0.Q.b.>.>.:.:.1.W.+X+ V #             ",
"# 9 h.kXXX2.2.t.9XL.>.,.;.;.:.>.7.u.s.f.-XB.1.>.>.>.8.z.OXt.2.0.<X'.>.:.;.;.:.1.I.$Xf &             ",
"C l S.r.`.t.2.2.t.w.}.>.;.;.>.>.U.Y.D.Z. X%X9.>.z.'.G._.<X2.2.0.t.G.8.,.;.;.,.>.b.1XpX1 j           ",
"g i.U.3.b.9X2.2.2.t.OXC.>.5.>.%Xs.xXCXmXE.V.r.}.|.2.t.t.2.2.2.0.t.c.>.>.;.;.>.8.#Xl.3Xi.9 #         ",
"o u d.>.>.#XQ.2.2.2.<X'.1.y.u.s.HX>Xa.c.g.s.vX#X2.2.2.2.2.2.2.2.<X'.>.,.;.,.>.8.c.t.5X&X* z         ",
"1  .1.>.>.@XG.Q.t.2.t.`.A.F.h.hX>Xa.w.H.iXx.x.aXl.2.2.2.2.0.2.2.`.@X>.,.:.>.8.b.9X2.l.N (.= K       ",
"l u d.y.y.r.r.'.|.nX5XLXp.(.qX:Xa.w.w.w.G.g.6.(.wX2.0.0.0.t.2.`.z.>.:.:.>.8.z.=X2.2.2.!..X+ k .     ",
"1 i.p.f.+XV.S.g.zX3X&XR.gX>XH.w.w.w.w.w.c.d.f.6.w .X5XnXQ.].G.C.>.;.;.:.>.C.`.2.2.2.2.l.CXE.+ >     ",
"@ , B l 6.i.i.Y.$X&X.X>XH.a.w.w.w.w.w.w.c.@XI.V.6.+ ~.bXL.z.<.>.,.,.>.<.*Xc.!.!.l.l.t.t.G.AXi.= A   ",
"    t o E.v.[.B.sX_.a.a.w.w.:X:X:Xw.a.w.G.>.1.M.P.h.6.j.u.W.>.8.1.1.3.r.0X1XwXwX1XN ).].b.k.p.6.,   ",
"    7 8 U.J.7.1.@Xc.w.a.MXqX8X~.T.gX3XMXL.>.>.5.y.n.;XY.i.j.f.;XD.N.P.+XY.i.i.i.i.w R.4Xg.Z.%Xi.o - ",
"  # h j.W.5.:.,.>.b.=X>X8X~.NX7X7X^.R.4XA.5.:.:.>.1.y.Z.2XE.h.6.6.6.6.6.x.N.N.;Xp.j.s.6.6.h.p.s.l 3 ",
"  ; = D.<.:.:.:.,.<.dX4X~.GXe.e.e.e.BXY.g.7.:.;.:.,.>.1.1.k.U.-XT.ZXVXeX-XU.9.<.r.W.Z.N.* = f 6.+ z ",
"  7 * %X9.:.:.:.:.9.AX(.7Xe.oX/.6XoX/.T.S.r.:.;.;.;.:.>.<.k.f.yX/.e.e.oXfX$XI.1.>.5.J.v.* > C y l V ",
"  O s.n.7.:.:.:.>.<.;XT./.oXSXZXT.uXe.lX$XM.5.;.;.;.:.>.9.{.,XjXe.6X/.oX6XrXg.7.>.:.1.n.s.,   # 7 V ",
"  , x.M.5.:.:.:.>.r.V.^.e.e.lXi.(.jXe.SX,X[.7.:.;.;.,.8.1.D.eXe.^.,X^.e.e.fXS.r.>.:.1.B.h.,       - ",
"  > m.d.,.;.;.:.<.d.S.lXe.e.GXyX^./.oX6XrXAX9.:.;.;.,.<.k.p.^./.,X6.VXe.e.PXR.iX1.:.1.B.Y.,         ",
"  z u k.:.;.;.:.<.d.f.7XuXuX6Xe.e.e.e.e.T.g.9.:.;.;.>.1.A.$XBXoX^.yXjXuX/.7XR.aX*X:.1.B.h.,         ",
"  r u k.:.:.;.:.>.r.;XT.,X,XrXeXyXfX^.NX~.%X9.:.;.;.>.1.W.$XT.eXtXtXT.~.rX~.(.aX*X:.1.Z.h.O         ",
"  7 u d.,.:.;.:.>.<.v.g.{.[.[.v.u.P.S.m.m.v.3.:.;.;.,.<.k.U.U.n.B.B.cX1X3XqX.XdX>.>.7.[.s.e         ",
"  ' S M.5.:.;.;.>.>.1.9.9.7.7.7.9.1.r.W.W.r.>.>.:.,.>.>.>.9.9.7.1.1.}.c.=XOX'.,.>.,.9.{.* r         ",
"  H 0 n.7.:.:.;.:.>.>.>.:.:.:.>.,.,.,.5.5.>.>.>.>.>.>.>.>.>.:.:.:.,.>.@Xz.C.>.>.:.:.9.u.l K         ",
"  E m g.9.:.:.;.;.;.,.:.:.:.:.;.;.;.;.;.>.>.>.>.>.>.,.,.:.:.:.:.:.:.:.>.>.>.,.:.:.,.9.F.1 -         ",
"  s ] p.d.5.:.;.;.;.>.>.,.,.,.;.;.;.;.;.,.>.>.>.5.>.,.;.:.>.:.:.:.:.;.;.;.;.;.;.,.5.r.p.h s         ",
"    ) s.U.9.:.;.;.;.,.,.,.5.,.;.;.;.;.;.,.,.5.5.,.,.;.:.>.>.<.3.3.>.:.;.;.;.;.;.,.7.Z. X)           ",
"    j = p.d.5.;.;.;.;.,.5.>.:.;.;.;.;.;.;.:.;.;.:.:.>.>.>.1.k.u.u.r.>.;.;.;.;.,.,.1.F.= H           ",
"    # 4 i.%X9.:.;.;.;.,.,.:.,.>.>.:.;.;.;.;.;.;.,.>.>.>.3.A.N.i.F.y.>.;.;.;.;.>.1.I.-XW s           ",
"      r * m.M.1.;.;.;.;.;.;.>.8.8.>.>.:.;.;.;.,.>.>.3.1.Z.S.6.S.A.<.>.;.;.;.,.>.>.P.: '             ",
"      2 4 6.2X3.,.;.;.;.;.,.8.<.b.b.<.9.1.5.1.3.9.r.Z.F.Y.6.+XM.1.>.:.;.;.:.>.7.v.Y.W s             ",
"        @ 1  XZ.3.:.;.;.;.,.8.}._._.mXv.B.d.I.[.g.S.h.6.Y.2Xd.1.>.:.;.;.;.>.1.M.m.a H               ",
"        % R 8 V.A.1.:.;.;.:.>.z.`.OXsXj.h.j. Xi.6.6. XD.Z.<.<.>.:.;.;.;.,.1.d.f.M R                 ",
"          t = 6.N.r.5.,.;.;.,.>.z.z.k.u.S.m.j.E.f.u.0Xz.*X>.>.:.;.;.;.,.1.k.N.w _ s                 ",
"          ; = h.-XF.k.1.:.;.:.:.:.>.>.1.y.d.A.d.z.c._._.c.z.>.,.;.:.,.1.k.P.w ` J                   ",
"          3 f f.n.p.D.W.3.:.:.:.:.;.;.,.,.5.<.C.c.].w.w.w.c.C.>.,.>.9.d.P.w ` E                     ",
"          O + g.9.I.f.S.n.1.5.:.:.;.;.;.;.,.>.b.|.w.w.w.w.|.b.>.1.y.v.p.M _ J                       ",
"        # k s.[.1.<.p P.j.g.d.9.,.:.:.;.;.:.>.L.|.w.w.w.w.|.b.y.Z.D.Y.a R s                         ",
"        j = j.W.<.>.5.r.2Xs.p.{.k.9.1.,.,.:.>.z.OXw.w.w.a.:XkXN. XM ] H                             ",
"        7 * f.>.>.>.3.| Z = 1 8 p.u.B.d.r.>.1.3.L.=X:X>X3XhXh.8 v @.J                               ",
"        V 6.g.J.7.r.{ 5 k A j W f.x. Xm.p.f.D.P.F.tX8X(.Y.p.n a j                                   ",
"      . o s.n.k.{.I o , t   z $.} &.vXP.V.m.x.-Xj.u ;X[ %.p $ n O                                   ",
"      C f j.u.V.: V j %   # h < c p x x x p i X X $ c c | ..$ *.a j                                 ",
"      O 6.i.: 9 K %       @ D ^ q.( { x x p q.4.4.4.4.q.< X.d K./ , %                               ",
"      C 1 9 L #           O T K.X T ! ~ x c 4.4.4.4.4.4.G w n K.F a K                               ",
"  # % # t #             2 v F q.6 ! X.~ } $ 4.4.4.4.4.$ d : o.( K.T y 2                             ",
"% ; 2                   K 0 q X G Q 0 ~ p $ 4.4.4.4.4.$ d m 9 G K.i S z                             ",
"  %                   % , Y $ 6  .9 D p c 4.4.4.4.4.4.$ d m & Z $ K.b U .                           ",
"                      . U F X d 0 & D ^ q.4.4.4.4.4.4.$ < m @ v G c q S 7                           ",
"                      . U b 6 I B L 5 i 4.4.4.4.4.4.4.$ < 5 ; & : G Y Q 3                           ",
"                      % O a o.k L ; 5 i 4.4.4.4.4.4.4.$ 6 0 3 # & h 4 r %                           ",
"                        # ; K -   ; 5 i 4.4.4.q.K.4.4.$ 6 S r     # 2                               ",
"                                  @ 0 q 4.4.$ 6 Y i 4.$ 6 P &                                       ",
"                                  @ 0 q 4.$ ..Z l b q.$ 6 P z                                       ",
"                                  @ Z 4.4.$ < S 4 T K.X < I O                                       ",
"                                  j D q 4.q d 0 > #.4.X < n O                                       ",
"                                  t 5 n.q.X b m C D q X < n O                                       ",
"                                  - 5 n.q.X Y 4 - v F X < P O                                       ",
"                                  - m F q.( I > % 9 b X U.V.e                                       ",
"                                  # 4 b $ d a @   e / X < u &                                       ",
"                                    e n < P g %   A 5 T / Q 3                                       ",
"                                    - g U y ;     % r h 4 O #                                       ",
"                                      # . #           # # %                                         ",
"                                                                                                    "
};
