/* XPM */
static char * fireR2_xpm[] = {
"57 69 16 1",
" 	c None",
".	c #1F1F1F",
"+	c #880015",
"@	c #ED1C24",
"#	c #FF7F27",
"$	c #EE965C",
"%	c #2E2E2E",
"&	c #B05C18",
"*	c #F7F7F7",
"=	c #FFC90E",
"-	c #99581B",
";	c #87551E",
">	c #7D4C1F",
",	c #DC8544",
"'	c #66411F",
")	c #714721",
"                   .............                         ",
"                   .............                         ",
"                   .............                         ",
"                ...+++@@@@@@@+++...         ....         ",
"                ...+++@@@@@@@+++...         ....         ",
"                ...+++@@@@@@@+++...         ....         ",
"   ...       ...+++@@@@@@@@@@++++++.........####...      ",
"   ...       ...+++@@@@@@@@@@++++++.........####...      ",
"   ...       ...+++@@@@@@@@@@++++++.........####...      ",
"...@@@..........@@@@@@@@@+++++++++++++...#######...      ",
"...@@@..........@@@@@@@@@+++++++++++++...#######...      ",
"...@@@..........@@@@@@@@@+++++++++++++...#######...      ",
"...@@@@@@@+++...+++++++++++++++++++...##########...      ",
"...@@@@@@@+++...+++++++++++++++++++...##########...      ",
"...+++@@@@@@@++++++...+++++++......#############...      ",
"...+++@@@@@@@++++++...+++++++......#############...      ",
"...+++@@@@@@@++++++...+++++++......#############...      ",
"   ...++++++++++...$$$.......############.......%%%      ",
"   ...++++++++++...$$$.......############.......%%%      ",
"   ...++++++++++...$$$.......############.......%%%      ",
"      .............$$$$$$....######......&&&....###%%%   ",
"      .............$$$$$$....######......&&&....###%%%   ",
"      .............$$$$$$....######......&&&....###%%%   ",
"          .........&&&$$$....###...***...$$$....===###%%%",
"          .........&&&$$$....###...***...$$$....===###%%%",
"          .........&&&$$$....###...***...$$$....===###%%%",
"      ....######...---...#######...***...$$$$$$$...===%%%",
"      ....######...---...#######...***...$$$$$$$...===%%%",
"      ....######...---...#######...***...$$$$$$$...===%%%",
"          ......###...;;;.......$$$&&&$$$&&&....======%%%",
"          ......###...;;;.......$$$&&&$$$&&&....======%%%",
"          ......###...;;;.......$$$&&&$$$&&&....======%%%",
"                .........----&&&&&&&&&..........======%%%",
"                .........----&&&&&&&&&..........======%%%",
"                .........----&&&&&&&&&..........======%%%",
"                ...++++++................&&&....===###%%%",
"                ...++++++................&&&....===###%%%",
"                ...@@@+++....>>>...+++......%%%%######%%%",
"                ...@@@+++....>>>...+++......%%%%######%%%",
"                ...@@@+++....>>>...+++......%%%%######%%%",
"      .............@@@+++....>>>>>>...,,,,,,....###%%%   ",
"      .............@@@+++....>>>>>>...,,,,,,....###%%%   ",
"      .............@@@+++....>>>>>>...,,,,,,....###%%%   ",
"   ...>>>>...###...@@@+++....>>>>>>...,,,,,,.......      ",
"   ...>>>>...###...@@@+++....>>>>>>...,,,,,,.......      ",
"   ...>>>>...###...@@@+++....>>>>>>...,,,,,,.......      ",
"...>>>>>>>...+++######+++++++...............''''...      ",
"...>>>>>>>...+++######+++++++...............''''...      ",
"...>>>>>>>...+++######+++++++...............''''...      ",
"...>>>>>>>......++++++##########++++++...))).......      ",
"...>>>>>>>......++++++##########++++++...))).......      ",
"...>>>>>>>......++++++##########++++++...))).......      ",
"   .......   ......+++++++++++++................         ",
"   .......   ......+++++++++++++................         ",
"   .......   ......+++++++++++++................         ",
"             ...............................             ",
"             ...............................             ",
"             ...............................             ",
"          ......................................         ",
"          ......................................         ",
"          ......................................         ",
"          ......................................         ",
"          ......................................         ",
"             ...............................             ",
"             ...............................             ",
"             ...............................             ",
"                   ...................                   ",
"                   ...................                   ",
"                   ...................                   "};
