/* XPM */
static char * fireR6_xpm[] = {
"57 69 16 1",
" 	c None",
".	c #1F1F1F",
"+	c #880015",
"@	c #ED1C24",
"#	c #FF7F27",
"$	c #EE965C",
"%	c #2E2E2E",
"&	c #B05C18",
"*	c #F7F7F7",
"=	c #FFC90E",
"-	c #99581B",
";	c #8A521F",
">	c #7F552F",
",	c #7D4C1F",
"'	c #744F2D",
")	c #DC8544",
"                   .............                         ",
"                   .............                         ",
"                   .............                         ",
"                ...+++@@@@@@@+++...         ....         ",
"                ...+++@@@@@@@+++...         ....         ",
"                ...+++@@@@@@@+++...         ....         ",
"   ...       ...+++@@@@@@@@@@++++++.........####...      ",
"   ...       ...+++@@@@@@@@@@++++++.........####...      ",
"   ...       ...+++@@@@@@@@@@++++++.........####...      ",
"...@@@..........@@@@@@@@@+++++++++++++...#######...      ",
"...@@@..........@@@@@@@@@+++++++++++++...#######...      ",
"...@@@..........@@@@@@@@@+++++++++++++...#######...      ",
"...@@@@@@@+++...+++++++++++++++++++...##########...      ",
"...@@@@@@@+++...+++++++++++++++++++...##########...      ",
"...+++@@@@@@@++++++...+++++++......#############...      ",
"...+++@@@@@@@++++++...+++++++......#############...      ",
"...+++@@@@@@@++++++...+++++++......#############...      ",
"   ...++++++++++...$$$.......############.......%%%      ",
"   ...++++++++++...$$$.......############.......%%%      ",
"   ...++++++++++...$$$.......############.......%%%      ",
"      .............$$$$$$....######......&&&....###%%%   ",
"      .............$$$$$$....######......&&&....###%%%   ",
"      .............$$$$$$....######......&&&....###%%%   ",
"          .........&&&$$$....###...***...$$$....===###%%%",
"          .........&&&$$$....###...***...$$$....===###%%%",
"          .........&&&$$$....###...***...$$$....===###%%%",
"      ....######...---...#######...***...$$$$$$$...===%%%",
"      ....######...---...#######...***...$$$$$$$...===%%%",
"      ....######...---...#######...***...$$$$$$$...===%%%",
"          ......###...;;;.......$$$&&&$$$&&&....======%%%",
"          ......###...;;;.......$$$&&&$$$&&&....======%%%",
"          ......###...;;;.......$$$&&&$$$&&&....======%%%",
"                .........----&&&&&&&&&......%%%%======%%%",
"                .........----&&&&&&&&&......%%%%======%%%",
"                .........----&&&&&&&&&......%%%%======%%%",
"             ...>>>,,,,,,................&&&....===###%%%",
"             ...>>>,,,,,,................&&&....===###%%%",
"          ...'''......,,,....+++++++++......%%%%######%%%",
"          ...'''......,,,....+++++++++......%%%%######%%%",
"          ...'''......,,,....+++++++++......%%%%######%%%",
"          ......))))))...++++@@@@@@+++++++++....###%%%   ",
"          ......))))))...++++@@@@@@+++++++++....###%%%   ",
"          ......))))))...++++@@@@@@+++++++++....###%%%   ",
"          ......))))))...++++@@@@@@...++++++....%%%      ",
"          ......))))))...++++@@@@@@...++++++....%%%      ",
"          ......))))))...++++@@@@@@...++++++....%%%      ",
"      ....,,,.........+++@@@@+++###+++.............      ",
"      ....,,,.........+++@@@@+++###+++.............      ",
"      ....,,,.........+++@@@@+++###+++.............      ",
"      ....,,,...++++++##########+++...,,,,,,,,,,...      ",
"      ....,,,...++++++##########+++...,,,,,,,,,,...      ",
"      ....,,,...++++++##########+++...,,,,,,,,,,...      ",
"      ....,,,,,,...+++++++++++++...,,,,,,,,,....         ",
"      ....,,,,,,...+++++++++++++...,,,,,,,,,....         ",
"      ....,,,,,,...+++++++++++++...,,,,,,,,,....         ",
"          ..................................             ",
"          ..................................             ",
"          ..................................             ",
"          ......................................         ",
"          ......................................         ",
"          ......................................         ",
"          ......................................         ",
"          ......................................         ",
"             ...............................             ",
"             ...............................             ",
"             ...............................             ",
"                   ...................                   ",
"                   ...................                   ",
"                   ...................                   "};
