/* XPM */
static char * fireR4_xpm[] = {
"57 69 12 1",
" 	c None",
".	c #1F1F1F",
"+	c #ED1C24",
"@	c #880015",
"#	c #FF7F27",
"$	c #EE965C",
"%	c #B05C18",
"&	c #2E2E2E",
"*	c #F7F7F7",
"=	c #FFC90E",
"-	c #DC8544",
";	c #7D4C1F",
"                     ............                        ",
"                     ............                        ",
"                     ............                        ",
"               ......++++++@@@@@@...                     ",
"               ......++++++@@@@@@...                     ",
"               ......++++++@@@@@@...                     ",
"            ...@@@+++++++++@@@@@@@@@......               ",
"            ...@@@+++++++++@@@@@@@@@......               ",
"            ...@@@+++++++++@@@@@@@@@......               ",
"      .........+++++++++@@@@@@@@@@@@...###...            ",
"      .........+++++++++@@@@@@@@@@@@...###...            ",
"      .........+++++++++@@@@@@@@@@@@...###...            ",
"   ...+++@@@...@@@@@@@@@@@@@@@@@@...#########...         ",
"   ...+++@@@...@@@@@@@@@@@@@@@@@@...#########...         ",
"   ...+++@@@...@@@@@@@@@@@@@@@@@@...#########...         ",
"...++++++@@@@@@@@@...@@@@@@......############...         ",
"...++++++@@@@@@@@@...@@@@@@......############...         ",
"...++++++@@@@@@@@@...@@@@@@......############...         ",
"...+++@@@@@@@@@...$$$......############......            ",
"...+++@@@@@@@@@...$$$......############......            ",
"...+++@@@@@@@@@...$$$......############......            ",
"...+++@@@@@@......$$$$$$...###.........%%%...&&&&&&      ",
"...+++@@@@@@......$$$$$$...###.........%%%...&&&&&&      ",
"...+++@@@@@@......$$$$$$...###.........%%%...&&&&&&      ",
"   ...@@@.........%%%$$$...###...***...$$$...&&&###&&&   ",
"   ...@@@.........%%%$$$...###...***...$$$...&&&###&&&   ",
"   ...@@@.........%%%$$$...###...***...$$$...&&&###&&&   ",
"      ...   ......%%%%%%...###...***...$$$$$$...===###&&&",
"      ...   ......%%%%%%...###...***...$$$$$$...===###&&&",
"      ...   ......%%%%%%...###...***...$$$$$$...===###&&&",
"            ...###...%%%%%%...$$$%%%$$$%%%...&&&======&&&",
"            ...###...%%%%%%...$$$%%%$$$%%%...&&&======&&&",
"            ...###...%%%%%%...$$$%%%$$$%%%...&&&======&&&",
"               .........%%%%%%%%%%%%......---...======&&&",
"               .........%%%%%%%%%%%%......---...======&&&",
"               .........%%%%%%%%%%%%......---...======&&&",
"                  ...@@@............@@@...---...======&&&",
"                  ...@@@............@@@...---...======&&&",
"                  ...@@@............@@@...---...======&&&",
"               ...+++...;;;;;;...@@@@@@......&&&===###&&&",
"               ...+++...;;;;;;...@@@@@@......&&&===###&&&",
"               ...+++...;;;;;;...@@@@@@......&&&===###&&&",
"               ...+++...;;;;;;...++++++@@@...&&&######&&&",
"               ...+++...;;;;;;...++++++@@@...&&&######&&&",
"               ...+++...;;;;;;...++++++@@@...&&&######&&&",
"            ...###@@@............+++@@@###...&&&###&&&   ",
"            ...###@@@............+++@@@###...&&&###&&&   ",
"            ...###@@@............+++@@@###...&&&###&&&   ",
"            ...@@@###...------...@@@######...&&&&&&      ",
"            ...@@@###...------...@@@######...&&&&&&      ",
"            ...@@@###...------...@@@######...&&&&&&      ",
"               ...@@@...------...###@@@@@@...            ",
"               ...@@@...------...###@@@@@@...            ",
"               ...@@@...------...###@@@@@@...            ",
"               ...............@@@@@@.........            ",
"               ...............@@@@@@.........            ",
"               ...............@@@@@@.........            ",
"            ............;;;;;;..................         ",
"            ............;;;;;;..................         ",
"            ............;;;;;;..................         ",
"            ....................................         ",
"            ....................................         ",
"            ....................................         ",
"               ..............................            ",
"               ..............................            ",
"               ..............................            ",
"                     ..................                  ",
"                     ..................                  ",
"                     ..................                  "};
