/* XPM */
static char * fire_default_xpm[] = {
"57 78 18 1",
" 	c None",
".	c #202020",
"+	c #880015",
"@	c #ED1C24",
"#	c #F69B5F",
"$	c #FF7F27",
"%	c #B55F19",
"&	c #E48946",
"*	c #AB682A",
"=	c #925829",
"-	c #FFFFFF",
";	c #915728",
">	c #2E2E2E",
",	c #814E20",
"'	c #FFC90E",
")	c #66411F",
"!	c #7D4C1F",
"~	c #68471E",
"                     ...............                     ",
"                     ...............                     ",
"                     ...............                     ",
"                     ...............                     ",
"                  ...++++++++@@@++++.......              ",
"                  ...++++++++@@@++++.......              ",
"                  ...++++++++@@@++++.......              ",
"              ....+++++++@@@@@@@@@@@@@@++++...           ",
"              ....+++++++@@@@@@@@@@@@@@++++...           ",
"              ....+++++++@@@@@@@@@@@@@@++++...           ",
"              ....+++++++@@@@@@@@@@@@@@++++...           ",
"    ...    .......+++++++++++@@@+++++++....@@@.......    ",
"    ...    .......+++++++++++@@@+++++++....@@@.......    ",
"    ...    .......+++++++++++@@@+++++++....@@@.......    ",
"....###....$$$.......+++++++++++++++.......+++....###....",
"....###....$$$.......+++++++++++++++.......+++....###....",
"....###....$$$.......+++++++++++++++.......+++....###....",
"....###....$$$.......+++++++++++++++.......+++....###....",
"....###....$$$$$$$$$$...............$$$$$$$.......###....",
"....###....$$$$$$$$$$...............$$$$$$$.......###....",
"....###....$$$$$$$$$$...............$$$$$$$.......###....",
"....%%%####...$$$$$$$$$$$$$$$$$$$$$$$$$$$$$...&&&&%%%....",
"....%%%####...$$$$$$$$$$$$$$$$$$$$$$$$$$$$$...&&&&%%%....",
"....%%%####...$$$$$$$$$$$$$$$$$$$$$$$$$$$$$...&&&&%%%....",
"....%%%####...$$$$$$$$$$$$$$$$$$$$$$$$$$$$$...&&&&%%%....",
"....***....$$$.............................$$$....***....",
"....***....$$$.............................$$$....***....",
"....***....$$$.............................$$$....***....",
"    ...====...%%%%-------%%%%%%%-------%%%%...;;;;...    ",
"    ...====...%%%%-------%%%%%%%-------%%%%...;;;;...    ",
"    ...====...%%%%-------%%%%%%%-------%%%%...;;;;...    ",
"    ...====...%%%%-------%%%%%%%-------%%%%...;;;;...    ",
"       ....***%%%%---....&&&&###....---%%%%***....       ",
"       ....***%%%%---....&&&&###....---%%%%***....       ",
"       ....***%%%%---....&&&&###....---%%%%***....       ",
"       .......%%%%&&&....#######....&&&%%%%.......       ",
"       .......%%%%&&&....#######....&&&%%%%.......       ",
"       .......%%%%&&&....#######....&&&%%%%.......       ",
"       .......%%%%&&&....#######....&&&%%%%.......       ",
"    >>>@@@@+++....%%%>>>>&&&&#######%%%....+++@@@@...    ",
"    >>>@@@@+++....%%%>>>>&&&&#######%%%....+++@@@@...    ",
"    >>>@@@@+++....%%%>>>>&&&&#######%%%....+++@@@@...    ",
"    >>>@@@@+++....%%%>>>>&&&&#######%%%....+++@@@@...    ",
">>>>$$$>>>>>>>>>>>>>>$$$$>>>>%%%.......+++++++....,,,....",
">>>>$$$>>>>>>>>>>>>>>$$$$>>>>%%%.......+++++++....,,,....",
">>>>$$$>>>>>>>>>>>>>>$$$$>>>>%%%.......+++++++....,,,....",
">>>>$$$$$$$$$$$$$$$$$$$$$.......++++@@@++++...,,,,,,,....",
">>>>$$$$$$$$$$$$$$$$$$$$$.......++++@@@++++...,,,,,,,....",
">>>>$$$$$$$$$$$$$$$$$$$$$.......++++@@@++++...,,,,,,,....",
">>>>$$$$$$$$$$$$$$$$$$$$$.......++++@@@++++...,,,,,,,....",
">>>>$$$++++++++++++++$$$$>>>>@@@@@@@@@@++++.......&&&....",
">>>>$$$++++++++++++++$$$$>>>>@@@@@@@@@@++++.......&&&....",
">>>>$$$++++++++++++++$$$$>>>>@@@@@@@@@@++++.......&&&....",
">>>>$$$++++'''''''+++$$$$....@@@+++++++++++...&&&&&&&....",
">>>>$$$++++'''''''+++$$$$....@@@+++++++++++...&&&&&&&....",
">>>>$$$++++'''''''+++$$$$....@@@+++++++++++...&&&&&&&....",
">>>>$$$++++'''''''+++$$$$....@@@+++++++++++...&&&&&&&....",
">>>>$$$++++'''''''+++$$$$>>>>$$$....$$$$$$$+++....&&&....",
">>>>$$$++++'''''''+++$$$$>>>>$$$....$$$$$$$+++....&&&....",
">>>>$$$++++'''''''+++$$$$>>>>$$$....$$$$$$$+++....&&&....",
">>>>$$$++++'''''''+++$$$$....$$$$$$$+++++++..........    ",
">>>>$$$++++'''''''+++$$$$....$$$$$$$+++++++..........    ",
">>>>$$$++++'''''''+++$$$$....$$$$$$$+++++++..........    ",
">>>>$$$++++'''''''+++$$$$....$$$$$$$+++++++..........    ",
"    >>>$$$$+++++++$$$....+++++++++++.......)))....       ",
"    >>>$$$$+++++++$$$....+++++++++++.......)))....       ",
"    >>>$$$$+++++++$$$....+++++++++++.......)))....       ",
"       >>>>$$$$$$$..................!!!~~~~.......       ",
"       >>>>$$$$$$$..................!!!~~~~.......       ",
"       >>>>$$$$$$$..................!!!~~~~.......       ",
"       >>>>$$$$$$$..................!!!~~~~.......       ",
"           >>>................................           ",
"           >>>................................           ",
"           >>>................................           ",
"                  .....................                  ",
"                  .....................                  ",
"                  .....................                  ",
"                  .....................                  "};
